<?xml version="1.0" encoding="UTF-8" standalone="no"?>
<!-- Created with Inkscape (http://www.inkscape.org/) -->

<svg
   sodipodi:docname="texture.svg"
   inkscape:version="1.2.2 (b0a8486541, 2022-12-01)"
   id="svg10884"
   version="1.1"
   viewBox="0 0 512 512"
   height="1024"
   width="1024"
   xmlns:inkscape="http://www.inkscape.org/namespaces/inkscape"
   xmlns:sodipodi="http://sodipodi.sourceforge.net/DTD/sodipodi-0.dtd"
   xmlns:xlink="http://www.w3.org/1999/xlink"
   xmlns="http://www.w3.org/2000/svg"
   xmlns:svg="http://www.w3.org/2000/svg">
  <sodipodi:namedview
     id="namedview10886"
     pagecolor="#ffffff"
     bordercolor="#000000"
     borderopacity="0.25"
     inkscape:showpageshadow="2"
     inkscape:pageopacity="0.0"
     inkscape:pagecheckerboard="0"
     inkscape:deskcolor="#d1d1d1"
     inkscape:document-units="mm"
     showgrid="false"
     inkscape:zoom="0.70710678"
     inkscape:cx="447.59859"
     inkscape:cy="467.39758"
     inkscape:window-width="2516"
     inkscape:window-height="1396"
     inkscape:window-x="0"
     inkscape:window-y="0"
     inkscape:window-maximized="1"
     inkscape:current-layer="layer1" />
  <defs
     id="defs10881">
    <inkscape:path-effect
       effect="fillet_chamfer"
       id="path-effect6213"
       is_visible="true"
       lpeversion="1"
       nodesatellites_param="F,0,0,1,0,13.229167,0,1 @ F,0,0,1,0,13.229167,0,1 @ F,0,0,1,0,13.229167,0,1 @ F,0,0,1,0,13.229167,0,1 | F,0,0,1,0,13.229167,0,1 @ F,0,0,1,0,13.229167,0,1 @ F,0,0,1,0,13.229167,0,1 @ F,0,0,1,0,13.229167,0,1 | F,0,0,1,0,13.229167,0,1 @ F,0,0,1,0,13.229167,0,1 @ F,0,0,1,0,13.229167,0,1 @ F,0,0,1,0,13.229167,0,1 | F,0,0,1,0,13.229167,0,1 @ F,0,0,1,0,13.229167,0,1 @ F,0,0,1,0,13.229167,0,1 @ F,0,0,1,0,13.229167,0,1"
       unit="px"
       method="auto"
       mode="F"
       radius="50"
       chamfer_steps="1"
       flexible="false"
       use_knot_distance="true"
       apply_no_radius="true"
       apply_with_radius="true"
       only_selected="false"
       hide_knots="false" />
    <inkscape:path-effect
       effect="fillet_chamfer"
       id="path-effect6211"
       is_visible="true"
       lpeversion="1"
       nodesatellites_param="F,0,0,1,0,13.229167,0,1 @ F,0,0,1,0,13.229167,0,1 @ F,0,0,1,0,13.229167,0,1 @ F,0,0,1,0,13.229167,0,1 | F,0,0,1,0,13.229167,0,1 @ F,0,0,1,0,13.229167,0,1 @ F,0,0,1,0,13.229167,0,1 @ F,0,0,1,0,13.229167,0,1 | F,0,0,1,0,13.229167,0,1 @ F,0,0,1,0,13.229167,0,1 @ F,0,0,1,0,13.229167,0,1 @ F,0,0,1,0,13.229167,0,1 | F,0,0,1,0,13.229167,0,1 @ F,0,0,1,0,13.229167,0,1 @ F,0,0,1,0,13.229167,0,1 @ F,0,0,1,0,13.229167,0,1"
       unit="px"
       method="auto"
       mode="F"
       radius="50"
       chamfer_steps="1"
       flexible="false"
       use_knot_distance="true"
       apply_no_radius="true"
       apply_with_radius="true"
       only_selected="false"
       hide_knots="false" />
    <inkscape:path-effect
       effect="fillet_chamfer"
       id="path-effect6209"
       is_visible="true"
       lpeversion="1"
       nodesatellites_param="F,0,0,1,0,13.229167,0,1 @ F,0,0,1,0,13.229167,0,1 @ F,0,0,1,0,13.229167,0,1 @ F,0,0,1,0,13.229167,0,1 | F,0,0,1,0,13.229167,0,1 @ F,0,0,1,0,13.229167,0,1 @ F,0,0,1,0,13.229167,0,1 @ F,0,0,1,0,13.229167,0,1 | F,0,0,1,0,13.229167,0,1 @ F,0,0,1,0,13.229167,0,1 @ F,0,0,1,0,13.229167,0,1 @ F,0,0,1,0,13.229167,0,1 | F,0,0,1,0,13.229167,0,1 @ F,0,0,1,0,13.229167,0,1 @ F,0,0,1,0,13.229167,0,1 @ F,0,0,1,0,13.229167,0,1"
       unit="px"
       method="auto"
       mode="F"
       radius="50"
       chamfer_steps="1"
       flexible="false"
       use_knot_distance="true"
       apply_no_radius="true"
       apply_with_radius="true"
       only_selected="false"
       hide_knots="false" />
    <inkscape:path-effect
       effect="fillet_chamfer"
       id="path-effect6207"
       is_visible="true"
       lpeversion="1"
       nodesatellites_param="F,0,0,1,0,13.229167,0,1 @ F,0,0,1,0,13.229167,0,1 @ F,0,0,1,0,13.229167,0,1 | F,0,0,1,0,13.229167,0,1 @ F,0,0,1,0,13.229167,0,1 @ F,0,0,1,0,13.229167,0,1 @ F,0,0,1,0,13.229167,0,1 | F,0,0,1,0,13.229167,0,1 @ F,0,0,1,0,13.229167,0,1 @ F,0,0,1,0,13.229167,0,1 @ F,0,0,1,0,13.229167,0,1 | F,0,0,1,0,13.229167,0,1 @ F,0,0,1,0,13.229167,0,1 @ F,0,0,1,0,13.229167,0,1 @ F,0,0,1,0,13.229167,0,1"
       unit="px"
       method="auto"
       mode="F"
       radius="50"
       chamfer_steps="1"
       flexible="false"
       use_knot_distance="true"
       apply_no_radius="true"
       apply_with_radius="true"
       only_selected="false"
       hide_knots="false" />
    <inkscape:path-effect
       effect="offset"
       id="path-effect176"
       is_visible="true"
       lpeversion="1.2"
       linejoin_type="miter"
       unit="mm"
       offset="-2"
       miter_limit="4"
       attempt_force_join="false"
       update_on_knot_move="true" />
    <inkscape:path-effect
       effect="fillet_chamfer"
       id="path-effect37725"
       is_visible="true"
       lpeversion="1"
       nodesatellites_param="F,0,0,1,0,7.9375,0,1 @ F,0,0,1,0,7.9375,0,1 @ F,0,0,1,0,7.9375,0,1 @ F,0,0,1,0,7.9375,0,1 | F,0,0,1,0,7.9375,0,1 @ F,0,0,1,0,7.9375,0,1 @ F,0,0,1,0,7.9375,0,1 @ F,0,0,1,0,7.9375,0,1 @ F,0,0,1,0,7.9375,0,1 @ F,0,0,1,0,7.9375,0,1 @ F,0,0,1,0,7.9375,0,1 @ F,0,0,1,0,7.9375,0,1 @ F,0,0,1,0,7.9375,0,1 @ F,0,0,1,0,7.9375,0,1 @ F,0,0,1,0,7.9375,0,1 | F,0,0,1,0,7.9375,0,1 @ F,0,0,1,0,7.9375,0,1 @ F,0,0,1,0,7.9375,0,1 @ F,0,0,1,0,7.9375,0,1 @ F,0,0,1,0,7.9375,0,1 @ F,0,0,1,0,7.9375,0,1 @ F,0,0,1,0,7.9375,0,1 @ F,0,0,1,0,7.9375,0,1 | F,0,0,1,0,7.9375,0,1 @ F,0,0,1,0,7.9375,0,1 @ F,0,0,1,0,7.9375,0,1 @ F,0,0,1,0,7.9375,0,1 @ F,0,0,1,0,7.9375,0,1 @ F,0,0,1,0,7.9375,0,1 @ F,0,0,1,0,7.9375,0,1 | F,0,0,1,0,7.9375,0,1 @ F,0,0,1,0,7.9375,0,1 @ F,0,0,1,0,7.9375,0,1 @ F,0,0,1,0,7.9375,0,1 @ F,0,0,1,0,7.9375,0,1 @ F,0,0,1,0,7.9375,0,1 @ F,0,0,1,0,7.9375,0,1 @ F,0,0,1,0,7.9375,0,1 | F,0,0,1,0,7.9375,0,1 @ F,0,0,1,0,7.9375,0,1 @ F,0,0,1,0,7.9375,0,1 @ F,0,0,1,0,7.9375,0,1 @ F,0,0,1,0,7.9375,0,1 @ F,0,0,1,0,7.9375,0,1 @ F,0,0,1,0,7.9375,0,1 @ F,0,0,1,0,7.9375,0,1 | F,0,0,1,0,7.9375,0,1 @ F,0,0,1,0,7.9375,0,1 @ F,0,0,1,0,7.9375,0,1 @ F,0,0,1,0,7.9375,0,1 | F,0,0,1,0,7.9375,0,1 @ F,0,0,1,0,7.9375,0,1 @ F,0,0,1,0,7.9375,0,1 @ F,0,0,1,0,7.9375,0,1 @ F,0,0,1,0,7.9375,0,1 @ F,0,0,1,0,7.9375,0,1 @ F,0,0,1,0,7.9375,0,1 | F,0,0,1,0,7.9375,0,1 @ F,0,0,1,0,7.9375,0,1 @ F,0,0,1,0,7.9375,0,1 @ F,0,0,1,0,7.9375,0,1 | F,0,0,1,0,7.9375,0,1 @ F,0,0,1,0,7.9375,0,1 @ F,0,0,1,0,7.9375,0,1 @ F,0,0,1,0,7.9375,0,1 | F,0,0,1,0,7.9375,0,1 @ F,0,0,1,0,7.9375,0,1 @ F,0,0,1,0,7.9375,0,1 @ F,0,0,1,0,7.9375,0,1 | F,0,0,1,0,7.9375,0,1 @ F,0,0,1,0,7.9375,0,1 @ F,0,0,1,0,7.9375,0,1 @ F,0,0,1,0,7.9375,0,1 | F,0,0,1,0,7.9375,0,1 @ F,0,0,1,0,7.9375,0,1 @ F,0,0,1,0,7.9375,0,1 @ F,0,0,1,0,7.9375,0,1 | F,0,0,1,0,7.9375,0,1 @ F,0,0,1,0,7.9375,0,1 @ F,0,0,1,0,7.9375,0,1 @ F,0,0,1,0,7.9375,0,1 | F,0,0,1,0,7.9375,0,1 @ F,0,0,1,0,7.9375,0,1 @ F,0,0,1,0,7.9375,0,1 @ F,0,0,1,0,7.9375,0,1 @ F,0,0,1,0,7.9375,0,1 @ F,0,0,1,0,7.9375,0,1 @ F,0,0,1,0,7.9375,0,1 | F,0,0,1,0,7.9375,0,1 @ F,0,0,1,0,7.9375,0,1 @ F,0,0,1,0,7.9375,0,1 @ F,0,0,1,0,7.9375,0,1 | F,0,0,1,0,7.9375,0,1 @ F,0,0,1,0,7.9375,0,1 @ F,0,0,1,0,7.9375,0,1 @ F,0,0,1,0,7.9375,0,1 | F,0,0,1,0,7.9375,0,1 @ F,0,0,1,0,7.9375,0,1 @ F,0,0,1,0,7.9375,0,1 @ F,0,0,1,0,7.9375,0,1 | F,0,0,1,0,7.9375,0,1 @ F,0,0,1,0,7.9375,0,1 @ F,0,0,1,0,7.9375,0,1 @ F,0,0,1,0,7.9375,0,1 | F,0,0,1,0,7.9375,0,1 @ F,0,0,1,0,7.9375,0,1 @ F,0,0,1,0,7.9375,0,1 @ F,0,0,1,0,7.9375,0,1 | F,0,0,1,0,7.9375,0,1 @ F,0,0,1,0,7.9375,0,1 @ F,0,0,1,0,7.9375,0,1 @ F,0,0,1,0,7.9375,0,1 | F,0,0,1,0,7.9375,0,1 @ F,0,0,1,0,7.9375,0,1 @ F,0,0,1,0,7.9375,0,1 @ F,0,0,1,0,7.9375,0,1 | F,0,0,1,0,7.9375,0,1 @ F,0,0,1,0,7.9375,0,1 @ F,0,0,1,0,7.9375,0,1 @ F,0,0,1,0,7.9375,0,1 @ F,0,0,1,0,7.9375,0,1 @ F,0,0,1,0,7.9375,0,1 @ F,0,0,1,0,7.9375,0,1 @ F,0,0,1,0,7.9375,0,1 | F,0,0,1,0,7.9375,0,1 @ F,0,0,1,0,7.9375,0,1 @ F,0,0,1,0,7.9375,0,1 @ F,0,0,1,0,7.9375,0,1 @ F,0,0,1,0,7.9375,0,1 @ F,0,0,1,0,7.9375,0,1 @ F,0,0,1,0,7.9375,0,1 | F,0,0,1,0,7.9375,0,1 @ F,0,0,1,0,7.9375,0,1 @ F,0,0,1,0,7.9375,0,1 @ F,0,0,1,0,7.9375,0,1 | F,0,0,1,0,7.9375,0,1 @ F,0,0,1,0,7.9375,0,1 @ F,0,0,1,0,7.9375,0,1 @ F,0,0,1,0,7.9375,0,1 | F,0,0,1,0,7.9375,0,1 @ F,0,0,1,0,7.9375,0,1 @ F,0,0,1,0,7.9375,0,1 @ F,0,0,1,0,7.9375,0,1 @ F,0,0,1,0,7.9375,0,1 @ F,0,0,1,0,7.9375,0,1 @ F,0,0,1,0,7.9375,0,1 | F,0,0,1,0,7.9375,0,1 @ F,0,0,1,0,7.9375,0,1 @ F,0,0,1,0,7.9375,0,1 @ F,0,0,1,0,7.9375,0,1 | F,0,0,1,0,7.9375,0,1 @ F,0,0,1,0,7.9375,0,1 @ F,0,0,1,0,7.9375,0,1 @ F,0,0,1,0,7.9375,0,1 | F,0,0,1,0,7.9375,0,1 @ F,0,0,1,0,7.9375,0,1 @ F,0,0,1,0,7.9375,0,1 @ F,0,0,1,0,7.9375,0,1 | F,0,0,1,0,7.9375,0,1 @ F,0,0,1,0,7.9375,0,1 @ F,0,0,1,0,7.9375,0,1 @ F,0,0,1,0,7.9375,0,1 @ F,0,0,1,0,7.9375,0,1 | F,0,0,1,0,7.9375,0,1 @ F,0,0,1,0,7.9375,0,1 @ F,0,0,1,0,7.9375,0,1 @ F,0,0,1,0,7.9375,0,1 @ F,0,0,1,0,7.9375,0,1 @ F,0,0,1,0,7.9375,0,1 @ F,0,0,1,0,7.9375,0,1 @ F,0,0,1,0,7.9375,0,1 | F,0,0,1,0,7.9375,0,1 @ F,0,0,1,0,7.9375,0,1 @ F,0,0,1,0,7.9375,0,1 @ F,0,0,1,0,7.9375,0,1 @ F,0,0,1,0,7.9375,0,1 @ F,0,0,1,0,7.9375,0,1 | F,0,0,1,0,7.9375,0,1 @ F,0,0,1,0,7.9375,0,1 @ F,0,0,1,0,7.9375,0,1 @ F,0,0,1,0,7.9375,0,1 | F,0,0,1,0,7.9375,0,1 @ F,0,0,1,0,7.9375,0,1 @ F,0,0,1,0,7.9375,0,1 @ F,0,0,1,0,7.9375,0,1 | F,0,0,1,0,7.9375,0,1 @ F,0,0,1,0,7.9375,0,1 @ F,0,0,1,0,7.9375,0,1 @ F,0,0,1,0,7.9375,0,1 | F,0,0,1,0,7.9375,0,1 @ F,0,0,1,0,7.9375,0,1 @ F,0,0,1,0,7.9375,0,1 @ F,0,0,1,0,7.9375,0,1 | F,0,0,1,0,7.9375,0,1 @ F,0,0,1,0,7.9375,0,1 @ F,0,0,1,0,7.9375,0,1 @ F,0,0,1,0,7.9375,0,1 | F,0,0,1,0,7.9375,0,1 @ F,0,0,1,0,7.9375,0,1 @ F,0,0,1,0,7.9375,0,1 @ F,0,0,1,0,7.9375,0,1 @ F,0,0,1,0,7.9375,0,1 @ F,0,0,1,0,7.9375,0,1 @ F,0,0,1,0,7.9375,0,1 | F,0,0,1,0,7.9375,0,1 @ F,0,0,1,0,7.9375,0,1 @ F,0,0,1,0,7.9375,0,1 @ F,0,0,1,0,7.9375,0,1 | F,0,0,1,0,7.9375,0,1 @ F,0,0,1,0,7.9375,0,1 @ F,0,0,1,0,7.9375,0,1 @ F,0,0,1,0,7.9375,0,1"
       unit="px"
       method="auto"
       mode="F"
       radius="30"
       chamfer_steps="1"
       flexible="false"
       use_knot_distance="true"
       apply_no_radius="true"
       apply_with_radius="true"
       only_selected="false"
       hide_knots="false" />
  </defs>
  <path
     style="display:inline;stroke:none;stroke-width:18.8976;stroke-dasharray:none;stroke-opacity:1;fill:#e2b47f;fill-opacity:1"
     d="M -3.0624995,-4.1249995 -5.5039063,517.05857 521.26951,519.56251 531.15233,-3.5781225 Z"
     id="path11931"
     sodipodi:nodetypes="ccccc" />
  <use
     x="0"
     y="0"
     xlink:href="#layer1"
     id="use11830"
     transform="translate(0,512)" />
  <g
     inkscape:label="Layer 1"
     inkscape:groupmode="layer"
     id="layer1"
     inkscape:tile-cx="256"
     inkscape:tile-cy="256"
     inkscape:tile-w="512"
     inkscape:tile-h="512"
     inkscape:tile-x0="0"
     inkscape:tile-y0="0"
     style="display:inline;stroke:#a48600;stroke-width:18.8976;stroke-dasharray:none;stroke-opacity:1">
    <g
       inkscape:groupmode="layer"
       id="layer4"
       inkscape:label="1"
       transform="translate(60.018473,4.6372421)"
       style="display:none;stroke:#a48600;stroke-width:18.8976;stroke-dasharray:none;stroke-opacity:1">
      <g
         inkscape:groupmode="layer"
         id="layer11"
         inkscape:label="7">
        <path
           style="fill:#8300d1;fill-opacity:1;stroke:#510078;stroke-width:18.8976;stroke-dasharray:none;stroke-opacity:1"
           d="m -69.996804,485.45211 70.6423932,70.0044 69.0742158,-57.27539 54.851565,53.58398 83.55078,-56.28124 43.69922,45.78124 c 0,0 49.99414,-53.87695 51.99805,-52.74218 2.00391,1.13476 68.67969,62.20117 68.67969,62.20117 0,0 37.87109,-61.34961 39.65625,-58.88477 1.78515,2.46485 25.75781,46.99219 25.75781,44.72657 0,-2.26563 126.73236,-193.84401 126.73236,-193.84401 L -87.502964,303.83102 Z"
           id="path11923"
           sodipodi:nodetypes="ccccccscssccc" />
      </g>
      <use
         x="0"
         y="0"
         xlink:href="#layer11"
         id="use11865"
         transform="translate(512)" />
    </g>
    <g
       inkscape:groupmode="layer"
       id="layer5"
       inkscape:label="2"
       style="display:none;stroke:#a48600;stroke-width:18.8976;stroke-dasharray:none;stroke-opacity:1">
      <g
         inkscape:groupmode="layer"
         id="layer10"
         inkscape:label="6">
        <path
           style="fill:#8300d1;fill-opacity:1;stroke:#510078;stroke-width:18.8976;stroke-dasharray:none;stroke-opacity:1"
           d="m -7.0624995,373.37499 82.7499965,59.10548 90.957033,-53.08985 42.34375,47.89843 91.55859,-47.875 27.00392,43.20704 103.28906,-39.91406 23.76172,37.00781 60.57031,-48.54687 c 0,0 2.73437,-149.97266 -1.83984,-148.96875 -4.57423,1.0039 -505.1328215,22.35155 -505.1328215,22.35155 z"
           id="path11925" />
      </g>
    </g>
    <g
       inkscape:groupmode="layer"
       id="layer6"
       inkscape:label="3"
       transform="translate(64.909314,1.0204348)"
       style="display:none;stroke:#a48600;stroke-width:18.8976;stroke-dasharray:none;stroke-opacity:1">
      <g
         inkscape:groupmode="layer"
         id="layer9"
         inkscape:label="5">
        <path
           style="fill:#8300d1;fill-opacity:1;stroke:#510078;stroke-width:18.8976;stroke-dasharray:none;stroke-opacity:1"
           d="m -86.866341,241.03816 c 10.41015,12.24219 84.5195267,71.29688 84.5195267,71.29688 l 119.8906243,-48.44141 49.75,44.42578 98.19922,-41.95312 76.9336,46.14062 112.93359,-55.03516 -16.17969,-147.92578 -520.792971,23.7461 z"
           id="path11927" />
      </g>
    </g>
    <g
       inkscape:groupmode="layer"
       id="layer7"
       inkscape:label="4"
       style="display:none;stroke:#a48600;stroke-width:18.8976;stroke-dasharray:none;stroke-opacity:1"
       transform="translate(2.149555,-21.610273)">
      <g
         inkscape:groupmode="layer"
         id="layer8"
         inkscape:label="a">
        <path
           style="fill:#8300d1;fill-opacity:1;stroke:#510078;stroke-width:18.8976;stroke-dasharray:none;stroke-opacity:1"
           d="m -51.395649,139.52043 c 6.140625,7.82813 99.617187,80.84375 99.617187,80.84375 l 147.386712,-73.39062 53.66797,72.08593 c 0,0 114.51172,-73.57421 115.51172,-69.2539 1,4.32031 45.21484,49.94531 45.21484,49.94531 l 122.51175,-46.125 -1.61721,-177.722658 -581.097654,-11.921876 z"
           id="path11929" />
      </g>
    </g>
    <path
       style="display:none;fill:none;fill-opacity:1;stroke:#ad8961;stroke-width:18.8976;stroke-linecap:round;stroke-linejoin:round;stroke-dasharray:none;stroke-opacity:1"
       d="m -27.64844,63.353516 c 0,0 44.245601,59.704354 77.007816,61.249994 35.712558,1.68483 89.855474,-58.566399 89.855474,-58.566399 0,0 40.69512,61.052659 78.76325,56.617529 28.56891,-3.32842 74.97503,-55.695654 74.97503,-55.695654 0,0 70.31205,68.356064 113.59341,64.150084 33.81332,-3.2859 77.43442,-66.265757 77.43442,-66.265757"
       id="path12332"
       sodipodi:nodetypes="cscscsc" />
    <path
       style="display:none;fill:none;fill-opacity:1;stroke:#ad8961;stroke-width:18.8976;stroke-linecap:round;stroke-linejoin:round;stroke-dasharray:none;stroke-opacity:1"
       d="m -21.598071,179.44851 c 0,0 57.287063,62.71253 95.274958,62.53548 32.095583,-0.14959 80.000843,-53.5836 80.000843,-53.5836 0,0 67.64725,59.20639 108.11501,56.03795 34.68002,-2.71529 84.04906,-61.85826 84.04906,-61.85826 0,0 41.75227,50.30344 70.6436,50.21878 29.78512,-0.0873 72.52439,-52.19828 72.52439,-52.19828"
       id="path12388"
       sodipodi:nodetypes="cscscsc" />
    <path
       style="display:none;fill:none;fill-opacity:1;stroke:#ad8961;stroke-width:18.8976;stroke-linecap:round;stroke-linejoin:round;stroke-dasharray:none;stroke-opacity:1"
       d="m -62.843751,290.89843 c 0,0 38.227878,75.78303 74.07812,78.35156 40.450022,2.89809 95.332031,-75.58593 95.332031,-75.58593 0,0 43.64039,57.99491 76.00782,61.17968 40.31783,3.96704 107.71485,-56.29296 107.71485,-56.29296 0,0 27.91046,69.11614 74.97653,69.20187 70.22923,0.12793 81.69323,-75.53296 81.69323,-75.53296"
       id="path12390"
       sodipodi:nodetypes="cscscsc" />
    <path
       style="display:none;fill:none;fill-opacity:1;stroke:#ad8961;stroke-width:18.8976;stroke-linecap:round;stroke-linejoin:round;stroke-dasharray:none;stroke-opacity:1"
       d="m -25.385483,422.52927 c 0,0 43.276338,73.11539 79.42409,73.87076 41.141535,0.85972 93.829823,-80.22624 93.829823,-80.22624 0,0 36.49072,45.95983 62.66015,47.53516 30.01401,1.80677 77.88673,-45.50391 77.88673,-45.50391 0,0 55.02999,68.33816 94.0418,69.80553 40.53773,1.52476 102.89302,-64.99017 102.89302,-64.99017"
       id="path12392"
       sodipodi:nodetypes="cscscsc" />
    <path
       style="fill:none;fill-opacity:1;stroke:#ad8961;stroke-width:18.8976;stroke-linecap:round;stroke-linejoin:round;stroke-dasharray:none;stroke-opacity:1"
       d="m -9.1974306,7.7862099 c 0,0 12.8993315,63.5176721 27.8868836,64.2430851 17.652412,0.854395 34.324055,-67.4403511 34.324055,-67.4403511 0,0 26.315689,63.5484441 44.631022,61.9559761 16.20147,-1.408673 31.56624,-64.2294131 31.56624,-64.2294131 0,0 19.34651,58.2158451 34.23454,58.0360581 15.60602,-0.188457 32.77132,-60.31144912 32.77132,-60.31144912 0,0 21.33693,60.29421812 37.31852,59.57316412 14.19876,-0.640616 40.2928,-55.2450381 40.2928,-55.2450381 0,0 12.89501,63.3054071 32.05486,62.7723831 18.54885,-0.516026 55.15414,-76.3192591 55.15414,-76.3192591 0,0 5.33849,70.1874611 22.00993,69.7450391 16.00533,-0.424745 52.61116,-71.774336 52.61116,-71.774336 0,0 6.66375,79.088629 27.04313,79.758711 17.26701,0.567746 39.27718,-60.4716011 39.27718,-60.4716011"
       id="path23498"
       sodipodi:nodetypes="cscscscscscscsc" />
    <path
       style="fill:none;fill-opacity:1;stroke:#ad8961;stroke-width:18.8976;stroke-linecap:round;stroke-linejoin:round;stroke-dasharray:none;stroke-opacity:1"
       d="m -42.328619,91.428286 c 0,0 21.733507,52.456884 40.488775,49.552184 16.309493,-2.52591 27.399896,-54.274842 27.399896,-54.274842 0,0 27.013819,54.781832 48.111823,51.522892 16.477832,-2.54528 30.061995,-53.186957 30.061995,-53.186957 0,0 18.36821,48.185157 35.5669,47.157657 15.87604,-0.94848 32.67529,-48.337342 32.67529,-48.337342 0,0 14.95176,43.316792 30.01026,43.544372 16.38824,0.24767 38.01708,-45.282657 38.01708,-45.282657 0,0 18.32868,55.499327 38.28175,55.966247 18.0065,0.42137 40.31591,-49.903743 40.31591,-49.903743 0,0 26.70676,51.780473 47.20948,49.288513 15.87146,-1.92906 32.146,-49.097104 32.146,-49.097104 0,0 23.93058,46.413234 42.27979,44.727964 12.60179,-1.1574 27.89404,-39.561954 27.89404,-39.561954"
       id="path23504"
       sodipodi:nodetypes="cscscscscscscsc" />
    <path
       style="fill:none;fill-opacity:1;stroke:#ad8961;stroke-width:18.8976;stroke-linecap:round;stroke-linejoin:round;stroke-dasharray:none;stroke-opacity:1"
       d="m -14.046875,174.27929 c 0,0 16.1685298,32.6139 31.509766,33.70508 20.265173,1.4414 47.089077,-44.35523 47.089077,-44.35523 0,0 18.151245,37.71779 33.481233,38.16577 19.228729,0.56191 36.925019,-41.70092 36.925019,-41.70092 0,0 32.63829,49.10336 54.02811,47.72241 17.98101,-1.16088 21.19259,-52.31811 21.19259,-52.31811 0,0 40.18509,48.60985 59.99296,47.82592 16.24711,-0.64301 21.34493,-43.36109 21.34493,-43.36109 0,0 42.58102,46.33005 62.08475,44.37867 11.83992,-1.1846 14.42306,-38.11108 14.42306,-38.11108 0,0 29.68158,38.53909 43.63358,37.08374 16.1282,-1.68235 29.25706,-42.41968 29.25706,-42.41968 0,0 25.09952,37.04505 40.85037,34.88257 8.79035,-1.20685 14.79804,-30.97632 14.79804,-30.97632"
       id="path23506"
       sodipodi:nodetypes="cscscscscscscsc" />
    <path
       style="fill:none;fill-opacity:1;stroke:#ad8961;stroke-width:18.8976;stroke-linecap:round;stroke-linejoin:round;stroke-dasharray:none;stroke-opacity:1"
       d="m -45.120953,228.84811 c 0,0 9.347865,56.36174 25.193442,57.35022 20.18286718,1.25905 42.995184,-58.21906 42.995184,-58.21906 0,0 18.907467,57.93753 38.838615,58.01467 20.900211,0.0809 41.246102,-64.79814 41.246102,-64.79814 0,0 25.64539,56.9436 44.53478,55.85434 20.21165,-1.16551 40.51964,-46.0169 40.51964,-46.0169 0,0 27.25908,51.07123 49.9486,48.88952 18.58108,-1.78666 31.33632,-56.65406 31.33632,-56.65406 0,0 24.53994,46.5206 42.80493,46.06956 15.19935,-0.37533 37.04474,-42.39541 37.04474,-42.39541 0,0 14.50553,45.37861 30.37072,44.75151 15.42367,-0.60965 31.59009,-44.88338 31.59009,-44.88338 0,0 15.40579,40.80171 30.19059,41.27327 10.12222,0.32285 25.62174,-50.17065 25.62174,-50.17065"
       id="path23508"
       sodipodi:nodetypes="cscscscscscscsc" />
    <path
       style="fill:none;fill-opacity:1;stroke:#ad8961;stroke-width:18.8976;stroke-linecap:round;stroke-linejoin:round;stroke-dasharray:none;stroke-opacity:1"
       d="m -11.501534,315.82814 c 0,0 15.6656381,34.39426 35.012834,35.88843 17.452682,1.34786 34.735615,-43.63686 34.735615,-43.63686 0,0 23.009276,38.96489 41.122982,38.23836 19.270153,-0.77291 43.614363,-48.41717 43.614363,-48.41717 0,0 23.74211,45.12942 43.10489,44.57065 20.21864,-0.58347 44.87424,-42.05462 44.87424,-42.05462 0,0 35.81487,46.23778 59.5774,42.30612 17.8204,-2.9485 22.05449,-49.28961 22.05449,-49.28961 0,0 32.34006,42.74389 49.74446,40.59441 14.02424,-1.73202 20.48623,-36.76377 20.48623,-36.76377 0,0 30.02443,37.30652 47.675,33.3774 13.29343,-2.95919 11.90462,-34.69097 11.90462,-34.69097 0,0 24.00465,32.60446 39.21975,32.49231 11.78713,-0.0869 19.06771,-12.46303 19.06771,-12.46303"
       id="path23510"
       sodipodi:nodetypes="cscscscscscscsc" />
    <path
       style="fill:none;fill-opacity:1;stroke:#ad8961;stroke-width:18.8976;stroke-linecap:round;stroke-linejoin:round;stroke-dasharray:none;stroke-opacity:1"
       d="m -76.656476,359.97352 c 0,0 28.527376,69.37643 50.758038,71.48545 19.9930552,1.89674 50.710714,-53.97959 50.710714,-53.97959 0,0 18.748206,54.89568 38.672105,52.84288 19.757385,-2.03564 41.407959,-57.44248 41.407959,-57.44248 0,0 17.48281,57.18617 38.99828,56.43271 21.21946,-0.74309 46.01736,-62.2999 46.01736,-62.2999 0,0 26.6809,64.8994 51.78342,62.82334 26.28559,-2.1739 49.54665,-61.50303 49.54665,-61.50303 0,0 24.83668,62.53785 50.75219,60.5128 19.09355,-1.49198 25.01343,-66.83702 25.01343,-66.83702 0,0 22.10344,52.36273 38.45141,52.81358 18.23633,0.50293 28.58765,-57.59874 28.58765,-57.59874"
       id="path23512"
       sodipodi:nodetypes="cscscscscscsc" />
    <path
       style="fill:none;fill-opacity:1;stroke:#ad8961;stroke-width:18.8976;stroke-linecap:round;stroke-linejoin:round;stroke-dasharray:none;stroke-opacity:1"
       d="m -28.118196,454.68062 c 0,0 29.630027,48.87372 51.766633,47.96391 20.944301,-0.8608 41.052481,-51.26878 41.052481,-51.26878 0,0 40.410832,38.92793 60.271742,37.02073 14.85357,-1.42636 21.49192,-35.72972 21.49192,-35.72972 0,0 31.33157,40.98485 50.8069,38.29417 16.36676,-2.2612 40.81421,-40.62425 40.81421,-40.62425 0,0 27.84872,41.43574 51.28345,42.06568 21.62947,0.58141 47.97631,-43.67896 47.97631,-43.67896 0,0 29.01608,37.00186 47.19556,38.10274 20.19226,1.22277 29.61498,-36.4582 29.61498,-36.4582 0,0 24.00391,27.99089 38.9026,27.3254 13.79278,-0.61609 27.59535,-23.20345 27.59535,-23.20345"
       id="path23516"
       sodipodi:nodetypes="cscscscscscsc" />
  </g>
  <use
     x="0"
     y="0"
     xlink:href="#layer1"
     id="use11826"
     style="display:inline"
     transform="translate(0,-512)" />
  <use
     x="0"
     y="0"
     xlink:href="#layer1"
     id="use12394"
     transform="translate(512)" />
</svg>
