<?xml version="1.0" encoding="UTF-8" standalone="no"?>
<!-- Created with Inkscape (http://www.inkscape.org/) -->

<svg
   version="1.1"
   id="svg4322"
   width="1024"
   height="1024"
   viewBox="0 0 64 64"
   sodipodi:docname="closed_outhouse.svg"
   inkscape:export-filename="closed_outhouse.png"
   inkscape:export-xdpi="1536"
   inkscape:export-ydpi="1536"
   inkscape:version="1.2.2 (732a01da63, 2022-12-09)"
   xmlns:inkscape="http://www.inkscape.org/namespaces/inkscape"
   xmlns:sodipodi="http://sodipodi.sourceforge.net/DTD/sodipodi-0.dtd"
   xmlns="http://www.w3.org/2000/svg"
   xmlns:svg="http://www.w3.org/2000/svg">
  <defs
     id="defs4326">
    <inkscape:path-effect
       effect="offset"
       id="path-effect10093"
       is_visible="true"
       lpeversion="1.2"
       linejoin_type="miter"
       unit="mm"
       offset="1.3"
       miter_limit="4"
       attempt_force_join="false"
       update_on_knot_move="true" />
    <inkscape:path-effect
       effect="bspline"
       id="path-effect5220"
       is_visible="true"
       lpeversion="1"
       weight="33.333333"
       steps="2"
       helper_size="0"
       apply_no_weight="true"
       apply_with_weight="true"
       only_selected="false" />
    <inkscape:path-effect
       effect="bspline"
       id="path-effect4874"
       is_visible="true"
       lpeversion="1"
       weight="33.333333"
       steps="2"
       helper_size="0"
       apply_no_weight="true"
       apply_with_weight="true"
       only_selected="false" />
  </defs>
  <sodipodi:namedview
     id="namedview4324"
     pagecolor="#ffffff"
     bordercolor="#000000"
     borderopacity="0.25"
     inkscape:showpageshadow="2"
     inkscape:pageopacity="0.0"
     inkscape:pagecheckerboard="0"
     inkscape:deskcolor="#d1d1d1"
     showgrid="false"
     inkscape:zoom="0.50146485"
     inkscape:cx="324.05063"
     inkscape:cy="803.64556"
     inkscape:window-width="2560"
     inkscape:window-height="1369"
     inkscape:window-x="-8"
     inkscape:window-y="-8"
     inkscape:window-maximized="1"
     inkscape:current-layer="layer1" />
  <g
     inkscape:groupmode="layer"
     inkscape:label="Image"
     id="g4328">
    <path
       style="fill:#686157;fill-opacity:1;stroke-width:7.6422;stroke-linecap:round;stroke-linejoin:round"
       d="M 16.480339,66.606593 13.836434,38.35628 18.066682,13.836434 32.782231,8.1583941 45.47516,14.100825 l 2.996425,25.588018 -5.28781,29.405199 z"
       id="path5353"
       sodipodi:nodetypes="cccccccc" />
    <path
       style="fill:#2b2b2b;fill-opacity:1;stroke:none;stroke-width:2;stroke-linecap:square;stroke-linejoin:miter;stroke-dasharray:none;stroke-opacity:1"
       d="M 23.680623,26.297955 23.057449,12.089581 31.906524,7.8519961 42.749757,12.338851 40.506329,24.553067 Z"
       id="path5679" />
    <path
       style="fill:#887f72;fill-opacity:1;stroke-width:7.6422;stroke-linecap:round;stroke-linejoin:round"
       d="M 6.6097616,16.304079 32.255637,7.1385424 59.047202,14.453345 57.989641,17.449771 32.255636,11.01627 7.4910631,19.212374 Z"
       id="path5424"
       sodipodi:nodetypes="ccccccc" />
    <path
       style="fill:#686157;fill-opacity:1;stroke:#565048;stroke-width:2;stroke-linecap:square;stroke-linejoin:miter;stroke-dasharray:none;stroke-opacity:1"
       d="m 21.327497,69.39846 -2.115123,-31.004342 3.348945,-18.99688 19.388634,0.44804 0.969432,22.85002 -6.257241,28.495321"
       id="path5511" />
    <path
       style="fill:#2b2b2b;fill-opacity:1;stroke-width:7.6422;stroke-linecap:round;stroke-linejoin:round"
       d="m 30.965499,32.782748 -2.80325,-2.358376 -1.8158,-2.348804 0.67102,-2.393875 1.931191,-0.834643 2.488918,1.601353 2.051397,-1.399928 2.478226,0.905169 0.256829,2.439774 -2.250728,2.45059 z"
       id="path5426"
       sodipodi:nodetypes="ccccccccccc" />
    <path
       style="fill:none;fill-opacity:1;stroke:#565048;stroke-width:2;stroke-linecap:square;stroke-linejoin:miter;stroke-dasharray:none;stroke-opacity:1"
       d="m 38.336617,40.804261 -0.793171,5.81659"
       id="path5621" />
  </g>
  <g
     inkscape:groupmode="layer"
     id="layer1"
     inkscape:label="Image 1">
    <path
       style="fill:#816848;fill-opacity:1;stroke:none;stroke-width:2.00001;stroke-linecap:square;stroke-linejoin:miter;stroke-dasharray:none;stroke-opacity:1"
       d="M 37.465239,66.305745 36.64265,43.809153 h 5.483933 L 40.481404,66.43038 Z"
       id="path9985" />
    <path
       style="fill:#816848;fill-opacity:1;stroke:none;stroke-width:2;stroke-linecap:square;stroke-linejoin:miter;stroke-dasharray:none;stroke-opacity:1"
       d="m 21.187927,65.557936 0.347023,-20.938657 4.077515,0.06232 -2.429158,21.624148 z"
       id="path9983" />
    <path
       style="fill:#917551;fill-opacity:1;stroke:none;stroke-width:2;stroke-linecap:square;stroke-linejoin:miter;stroke-dasharray:none;stroke-opacity:1"
       d="m 8.8214285,48.015372 c 0.07097,0.243577 1.4193015,4.433097 1.4193015,4.433097 l 21.289532,-1.948614 22.212079,0.584584 c 0,0 1.064478,-5.407403 0.780616,-5.407403 -0.283861,0 -21.857253,-0.6333 -21.857253,-0.6333 z"
       id="path7007" />
    <path
       style="fill:#917551;fill-opacity:1;stroke:none;stroke-width:2;stroke-linecap:square;stroke-linejoin:miter;stroke-dasharray:none;stroke-opacity:1"
       d="M 9.6730095,56.150836 9.4601125,60.19421 32.168949,58.245596 51.684353,58.391742 52.181108,54.104791 31.246402,53.520207 Z"
       id="path7009" />
    <path
       style="fill:#816848;fill-opacity:1;stroke:none;stroke-width:2;stroke-linecap:square;stroke-linejoin:miter;stroke-dasharray:none;stroke-opacity:1"
       d="m 12.369683,51.863885 0.14193,4.335666 18.734789,-1.315314 24.270067,-0.243577 0.425791,-4.481812 -24.908754,-0.389722 z"
       id="path7011" />
    <g
       id="g10091"
       inkscape:path-effect="#path-effect10093"
       transform="translate(-0.24926972,-0.93476144)">
      <path
         style="fill:#000000;fill-opacity:1;stroke:none;stroke-width:2;stroke-linecap:square;stroke-linejoin:miter;stroke-dasharray:none;stroke-opacity:1"
         d="m 17.455078,49.443359 -2.251953,4.644532 2.560547,4.054687 3.878906,-1.414062 -1.267578,-1.712891 -2.103516,0.857422 -1.048828,-2.359375 1.169922,-1.964844 2.376953,0.492188 0.09375,-0.242188 c 0.761243,-1.946487 0.47461,-1.164062 0.47461,-1.164062 l 0.177734,-0.357422 z"
         id="path9987"
         inkscape:original-d="m 21.063107,50.498578 c -0.08813,0.17626 -0.484716,1.189757 -0.484716,1.189757 l -2.335449,-0.484716 -1.366018,2.291384 1.233823,2.7761 2.159188,-0.881301 0.881302,1.189757 -3.260816,1.189757 -2.335449,-3.701467 2.071059,-4.274312 z" />
      <path
         style="fill:#000000;fill-opacity:1;stroke:none;stroke-width:2;stroke-linecap:square;stroke-linejoin:miter;stroke-dasharray:none;stroke-opacity:1"
         d="m 24.201172,49.421875 -1.935547,0.126953 -0.335937,7.38086 h 0.322265 c 2.170537,2.5e-4 1.395841,-0.0058 2.232422,-0.02539 0.272228,-0.0064 0.54165,-0.01342 0.789063,-0.02344 0.137534,-0.0056 0.269285,-0.0126 0.390624,-0.01953 0.134673,-0.0077 0.259683,-0.01565 0.367188,-0.02539 0.11878,-0.01076 0.22365,-0.02356 0.304688,-0.03906 0.08617,-0.01649 0.365234,-0.06133 0.365234,-0.349609 0,-0.06756 0.4147,-1.030267 0.332031,-1.328125 -0.03337,-0.120237 -0.136604,-0.25586 -0.330078,-0.25586 -0.224594,0 0.80247,-0.04484 -2.679687,0.117188 z"
         id="path10043"
         inkscape:original-d="m 22.561319,49.837602 -0.308455,6.786022 c 0,0 4.142117,0 4.142117,-0.17626 0,-0.176261 0.484716,-1.277888 0.308456,-1.277888 -0.176261,0 -2.996426,0.132196 -2.996426,0.132196 l 0.176261,-5.5522 z" />
      <path
         id="path10045"
         style="fill:#000000;fill-opacity:1;stroke:none;stroke-width:2;stroke-linecap:square;stroke-linejoin:miter;stroke-dasharray:none;stroke-opacity:1"
         d="m 29.753906,49.240234 -2.464844,2.949219 1.158204,4.058594 2.990234,0.302734 1.84375,-2.671875 L 32.705078,49.75 Z m 0.554688,1.9375 1.132812,0.126954 0.189453,2.226562 -1.003906,1.265625 -0.888672,-0.123047 -0.375,-1.832031 z"
         inkscape:original-d="m 29.876953,49.572266 -2.248047,2.689453 1.056641,3.701172 2.601562,0.263671 1.673829,-2.423828 -0.529297,-3.789062 z m 0.263672,1.279296 1.585937,0.175782 0.220704,2.599609 -1.189454,1.498047 -1.277343,-0.175781 -0.441407,-2.160157 z" />
      <path
         style="fill:#000000;fill-opacity:1;stroke:none;stroke-width:2;stroke-linecap:square;stroke-linejoin:miter;stroke-dasharray:none;stroke-opacity:1"
         d="m 37.246094,49.076172 -2.908203,2.304687 0.992187,2.033203 1.773438,0.904297 -0.548828,0.869141 -1.923829,-0.306641 -0.728515,1 3.841797,1.013672 1.738281,-3.269531 -2.462891,-1.814453 0.56836,-0.675781 1.791015,0.759765 0.806641,-1.24414 z"
         id="path10050"
         inkscape:original-d="m 39.746699,50.762969 -2.467644,-1.321953 -2.555774,2.026994 0.837236,1.718538 1.982929,1.013497 -0.837237,1.321952 -1.938863,-0.308456 -0.352521,0.484716 3.172686,0.837237 1.498212,-2.820165 -2.511709,-1.850733 0.925366,-1.101627 1.762604,0.749106 z" />
      <path
         style="fill:#000000;fill-opacity:1;stroke:none;stroke-width:2;stroke-linecap:square;stroke-linejoin:miter;stroke-dasharray:none;stroke-opacity:1"
         d="m 44.332031,48.859375 -3.791015,0.867187 v 0.244141 c 0,0 0.218742,-5.738827 -0.21875,6.15625 l -0.01367,0.341797 4.529297,-0.308594 -0.181641,-2.228515 -2.419922,0.04492 -0.05078,-0.761718 1.316406,-0.263672 -0.06836,-1.583984 -1.03711,0.04687 -0.132812,-0.458984 1.658203,-0.123047 z"
         id="path10052"
         inkscape:original-d="m 40.848326,49.969797 c 0,0.220326 -0.220325,6.169111 -0.220325,6.169111 l 3.877727,-0.26439 -0.132196,-1.630408 -2.423579,0.04407 -0.08813,-1.321953 1.321952,-0.26439 -0.04406,-1.013497 -0.969431,0.04406 -0.308456,-1.057562 1.806668,-0.132195 0.264391,-1.277887 z" />
      <path
         id="path10054"
         style="fill:#000000;fill-opacity:1;stroke:none;stroke-width:2;stroke-linecap:square;stroke-linejoin:miter;stroke-dasharray:none;stroke-opacity:1"
         d="m 48.255859,49.259766 -2.912109,0.105468 0.04687,5.689454 2.816406,0.71875 1.5625,-1.462891 0.484375,-2.712891 z m -0.675781,1.927734 0.882813,1.150391 -0.822266,1.607421 -0.648437,-0.126953 0.185546,-2.451171 z"
         inkscape:original-d="m 48.119141,49.572266 -2.466797,0.08984 0.04297,5.154297 2.423829,0.617188 1.365234,-1.277344 0.441406,-2.46875 z m -0.441407,1.234375 1.146485,1.498047 -1.013672,1.984374 -1.146485,-0.220703 0.220704,-2.908203 z" />
    </g>
  </g>
</svg>
