<?xml version="1.0" encoding="UTF-8" standalone="no"?>
<!-- Created with Inkscape (http://www.inkscape.org/) -->

<svg
   width="512"
   height="64"
   viewBox="0 0 512 64"
   version="1.1"
   id="svg5"
   inkscape:version="1.2.2 (732a01da63, 2022-12-09)"
   sodipodi:docname="texture.svg"
   xml:space="preserve"
   xmlns:inkscape="http://www.inkscape.org/namespaces/inkscape"
   xmlns:sodipodi="http://sodipodi.sourceforge.net/DTD/sodipodi-0.dtd"
   xmlns:xlink="http://www.w3.org/1999/xlink"
   xmlns="http://www.w3.org/2000/svg"
   xmlns:svg="http://www.w3.org/2000/svg"><sodipodi:namedview
     id="namedview7"
     pagecolor="#ffffff"
     bordercolor="#000000"
     borderopacity="0.25"
     inkscape:showpageshadow="2"
     inkscape:pageopacity="0.0"
     inkscape:pagecheckerboard="0"
     inkscape:deskcolor="#d1d1d1"
     inkscape:document-units="px"
     showgrid="false"
     inkscape:zoom="2.587745"
     inkscape:cx="211.57417"
     inkscape:cy="-83.856794"
     inkscape:window-width="2560"
     inkscape:window-height="1369"
     inkscape:window-x="-8"
     inkscape:window-y="-8"
     inkscape:window-maximized="1"
     inkscape:current-layer="layer1" /><defs
     id="defs2" /><g
     inkscape:label="back"
     inkscape:groupmode="layer"
     id="back"><g
       inkscape:groupmode="layer"
       id="layer1"
       inkscape:label="data"
       transform="translate(6.1829895,-3.4779316)"><path
         style="fill:#007fff;fill-opacity:1;stroke-width:7.75101;stroke-linecap:round;stroke-linejoin:round"
         d="m -12.732913,19.580302 c 8.7758298,1.921667 92.066789,1.900642 138.099873,1.41056 41.37733,-0.440517 82.69792,-4.030709 124.07743,-3.910419 29.79448,0.08661 59.52698,3.341842 89.32159,3.334987 34.19565,-0.0079 68.31905,-4.128789 102.51376,-3.874779 20.24252,0.150369 60.64513,3.195076 60.64513,3.195076 l 40.37437,37.203265 c 0,0 -48.34241,0.422496 -72.51171,0.168704 -52.4295,-0.550543 -104.8227,-3.393428 -157.25436,-3.668944 -36.21108,-0.190282 -72.42292,0.599683 -108.62583,1.392397 -32.13644,0.703672 -64.2436,2.670877 -96.3862,2.985862 C 81.78008,58.069264 58.600381,57.115914 30.29924,56.938992 7.440821,56.796095 -12.732913,19.580302 -12.732913,19.580302 Z"
         id="path2239"
         sodipodi:nodetypes="caaaaccaaaasc" /></g><use
       x="0"
       y="0"
       xlink:href="#layer1"
       id="use10143"
       transform="translate(-512)" /><use
       x="0"
       y="0"
       xlink:href="#layer1"
       id="use10145"
       transform="translate(512)" /></g></svg>
