<?xml version="1.0" encoding="UTF-8" standalone="no"?>
<!-- Created with Inkscape (http://www.inkscape.org/) -->

<svg
   sodipodi:docname="texture.svg"
   inkscape:version="1.2.2 (b0a8486541, 2022-12-01)"
   id="svg10884"
   version="1.1"
   viewBox="0 0 512 512"
   height="1024"
   width="1024"
   xmlns:inkscape="http://www.inkscape.org/namespaces/inkscape"
   xmlns:sodipodi="http://sodipodi.sourceforge.net/DTD/sodipodi-0.dtd"
   xmlns:xlink="http://www.w3.org/1999/xlink"
   xmlns="http://www.w3.org/2000/svg"
   xmlns:svg="http://www.w3.org/2000/svg">
  <sodipodi:namedview
     id="namedview10886"
     pagecolor="#ffffff"
     bordercolor="#000000"
     borderopacity="0.25"
     inkscape:showpageshadow="2"
     inkscape:pageopacity="0.0"
     inkscape:pagecheckerboard="0"
     inkscape:deskcolor="#d1d1d1"
     inkscape:document-units="mm"
     showgrid="false"
     inkscape:zoom="0.457453"
     inkscape:cx="45.906355"
     inkscape:cy="558.52732"
     inkscape:window-width="2516"
     inkscape:window-height="1396"
     inkscape:window-x="0"
     inkscape:window-y="0"
     inkscape:window-maximized="1"
     inkscape:current-layer="layer1" />
  <defs
     id="defs10881">
    <inkscape:path-effect
       effect="offset"
       id="path-effect176"
       is_visible="true"
       lpeversion="1.2"
       linejoin_type="miter"
       unit="mm"
       offset="-2"
       miter_limit="4"
       attempt_force_join="false"
       update_on_knot_move="true" />
    <inkscape:path-effect
       effect="fillet_chamfer"
       id="path-effect37725"
       is_visible="true"
       lpeversion="1"
       nodesatellites_param="F,0,0,1,0,7.9375,0,1 @ F,0,0,1,0,7.9375,0,1 @ F,0,0,1,0,7.9375,0,1 @ F,0,0,1,0,7.9375,0,1 @ F,0,0,1,0,7.9375,0,1 @ F,0,0,1,0,7.9375,0,1 @ F,0,0,1,0,7.9375,0,1 @ F,0,0,1,0,7.9375,0,1 @ F,0,0,1,0,7.9375,0,1 @ F,0,0,1,0,7.9375,0,1 @ F,0,0,1,0,7.9375,0,1 | F,0,0,1,0,7.9375,0,1 @ F,0,0,1,0,7.9375,0,1 @ F,0,0,1,0,7.9375,0,1 @ F,0,0,1,0,7.9375,0,1 @ F,0,0,1,0,7.9375,0,1 @ F,0,0,1,0,7.9375,0,1 @ F,0,0,1,0,7.9375,0,1 @ F,0,0,1,0,7.9375,0,1 | F,0,0,1,0,7.9375,0,1 @ F,0,0,1,0,7.9375,0,1 @ F,0,0,1,0,7.9375,0,1 @ F,0,0,1,0,7.9375,0,1 @ F,0,0,1,0,7.9375,0,1 @ F,0,0,1,0,7.9375,0,1 @ F,0,0,1,0,7.9375,0,1 | F,0,0,1,0,7.9375,0,1 @ F,0,0,1,0,7.9375,0,1 @ F,0,0,1,0,7.9375,0,1 @ F,0,0,1,0,7.9375,0,1 @ F,0,0,1,0,7.9375,0,1 @ F,0,0,1,0,7.9375,0,1 @ F,0,0,1,0,7.9375,0,1 @ F,0,0,1,0,7.9375,0,1 | F,0,0,1,0,7.9375,0,1 @ F,0,0,1,0,7.9375,0,1 @ F,0,0,1,0,7.9375,0,1 @ F,0,0,1,0,7.9375,0,1 @ F,0,0,1,0,7.9375,0,1 @ F,0,0,1,0,7.9375,0,1 @ F,0,0,1,0,7.9375,0,1 @ F,0,0,1,0,7.9375,0,1 | F,0,0,1,0,7.9375,0,1 @ F,0,0,1,0,7.9375,0,1 @ F,0,0,1,0,7.9375,0,1 @ F,0,0,1,0,7.9375,0,1 | F,0,0,1,0,7.9375,0,1 @ F,0,0,1,0,7.9375,0,1 @ F,0,0,1,0,7.9375,0,1 @ F,0,0,1,0,7.9375,0,1 @ F,0,0,1,0,7.9375,0,1 @ F,0,0,1,0,7.9375,0,1 @ F,0,0,1,0,7.9375,0,1 | F,0,0,1,0,7.9375,0,1 @ F,0,0,1,0,7.9375,0,1 @ F,0,0,1,0,7.9375,0,1 @ F,0,0,1,0,7.9375,0,1 | F,0,0,1,0,7.9375,0,1 @ F,0,0,1,0,7.9375,0,1 @ F,0,0,1,0,7.9375,0,1 @ F,0,0,1,0,7.9375,0,1 @ F,0,0,1,0,7.9375,0,1 @ F,0,0,1,0,7.9375,0,1 | F,0,0,1,0,7.9375,0,1 @ F,0,0,1,0,7.9375,0,1 @ F,0,0,1,0,7.9375,0,1 @ F,0,0,1,0,7.9375,0,1 | F,0,0,1,0,7.9375,0,1 @ F,0,0,1,0,7.9375,0,1 @ F,0,0,1,0,7.9375,0,1 @ F,0,0,1,0,7.9375,0,1 | F,0,0,1,0,7.9375,0,1 @ F,0,0,1,0,7.9375,0,1 @ F,0,0,1,0,7.9375,0,1 @ F,0,0,1,0,7.9375,0,1 | F,0,0,1,0,7.9375,0,1 @ F,0,0,1,0,7.9375,0,1 @ F,0,0,1,0,7.9375,0,1 @ F,0,0,1,0,7.9375,0,1 | F,0,0,1,0,7.9375,0,1 @ F,0,0,1,0,7.9375,0,1 @ F,0,0,1,0,7.9375,0,1 @ F,0,0,1,0,7.9375,0,1 @ F,0,0,1,0,7.9375,0,1 @ F,0,0,1,0,7.9375,0,1 @ F,0,0,1,0,7.9375,0,1 | F,0,0,1,0,7.9375,0,1 @ F,0,0,1,0,7.9375,0,1 @ F,0,0,1,0,7.9375,0,1 @ F,0,0,1,0,7.9375,0,1 | F,0,0,1,0,7.9375,0,1 @ F,0,0,1,0,7.9375,0,1 @ F,0,0,1,0,7.9375,0,1 @ F,0,0,1,0,7.9375,0,1 | F,0,0,1,0,7.9375,0,1 @ F,0,0,1,0,7.9375,0,1 @ F,0,0,1,0,7.9375,0,1 @ F,0,0,1,0,7.9375,0,1 | F,0,0,1,0,7.9375,0,1 @ F,0,0,1,0,7.9375,0,1 @ F,0,0,1,0,7.9375,0,1 @ F,0,0,1,0,7.9375,0,1 | F,0,0,1,0,7.9375,0,1 @ F,0,0,1,0,7.9375,0,1 @ F,0,0,1,0,7.9375,0,1 @ F,0,0,1,0,7.9375,0,1 | F,0,0,1,0,7.9375,0,1 @ F,0,0,1,0,7.9375,0,1 @ F,0,0,1,0,7.9375,0,1 @ F,0,0,1,0,7.9375,0,1 | F,0,0,1,0,7.9375,0,1 @ F,0,0,1,0,7.9375,0,1 @ F,0,0,1,0,7.9375,0,1 @ F,0,0,1,0,7.9375,0,1 | F,0,0,1,0,7.9375,0,1 @ F,0,0,1,0,7.9375,0,1 @ F,0,0,1,0,7.9375,0,1 @ F,0,0,1,0,7.9375,0,1 @ F,0,0,1,0,7.9375,0,1 @ F,0,0,1,0,7.9375,0,1 @ F,0,0,1,0,7.9375,0,1 @ F,0,0,1,0,7.9375,0,1 | F,0,0,1,0,7.9375,0,1 @ F,0,0,1,0,7.9375,0,1 @ F,0,0,1,0,7.9375,0,1 @ F,0,0,1,0,7.9375,0,1 @ F,0,0,1,0,7.9375,0,1 @ F,0,0,1,0,7.9375,0,1 @ F,0,0,1,0,7.9375,0,1 | F,0,0,1,0,7.9375,0,1 @ F,0,0,1,0,7.9375,0,1 @ F,0,0,1,0,7.9375,0,1 @ F,0,0,1,0,7.9375,0,1 | F,0,0,1,0,7.9375,0,1 @ F,0,0,1,0,7.9375,0,1 @ F,0,0,1,0,7.9375,0,1 @ F,0,0,1,0,7.9375,0,1 | F,0,0,1,0,7.9375,0,1 @ F,0,0,1,0,7.9375,0,1 @ F,0,0,1,0,7.9375,0,1 @ F,0,0,1,0,7.9375,0,1 @ F,0,0,1,0,7.9375,0,1 @ F,0,0,1,0,7.9375,0,1 @ F,0,0,1,0,7.9375,0,1 | F,0,0,1,0,7.9375,0,1 @ F,0,0,1,0,7.9375,0,1 @ F,0,0,1,0,7.9375,0,1 @ F,0,0,1,0,7.9375,0,1 | F,0,0,1,0,7.9375,0,1 @ F,0,0,1,0,7.9375,0,1 @ F,0,0,1,0,7.9375,0,1 @ F,0,0,1,0,7.9375,0,1 | F,0,0,1,0,7.9375,0,1 @ F,0,0,1,0,7.9375,0,1 @ F,0,0,1,0,7.9375,0,1 @ F,0,0,1,0,7.9375,0,1 | F,0,0,1,0,7.9375,0,1 @ F,0,0,1,0,7.9375,0,1 @ F,0,0,1,0,7.9375,0,1 @ F,0,0,1,0,7.9375,0,1 @ F,0,0,1,0,7.9375,0,1 | F,0,0,1,0,7.9375,0,1 @ F,0,0,1,0,7.9375,0,1 @ F,0,0,1,0,7.9375,0,1 @ F,0,0,1,0,7.9375,0,1 @ F,0,0,1,0,7.9375,0,1 @ F,0,0,1,0,7.9375,0,1 @ F,0,0,1,0,7.9375,0,1 @ F,0,0,1,0,7.9375,0,1 | F,0,0,1,0,7.9375,0,1 @ F,0,0,1,0,7.9375,0,1 @ F,0,0,1,0,7.9375,0,1 @ F,0,0,1,0,7.9375,0,1 @ F,0,0,1,0,7.9375,0,1 @ F,0,0,1,0,7.9375,0,1 | F,0,0,1,0,7.9375,0,1 @ F,0,0,1,0,7.9375,0,1 @ F,0,0,1,0,7.9375,0,1 @ F,0,0,1,0,7.9375,0,1 | F,0,0,1,0,7.9375,0,1 @ F,0,0,1,0,7.9375,0,1 @ F,0,0,1,0,7.9375,0,1 @ F,0,0,1,0,7.9375,0,1 | F,0,0,1,0,7.9375,0,1 @ F,0,0,1,0,7.9375,0,1 @ F,0,0,1,0,7.9375,0,1 @ F,0,0,1,0,7.9375,0,1 | F,0,0,1,0,7.9375,0,1 @ F,0,0,1,0,7.9375,0,1 @ F,0,0,1,0,7.9375,0,1 @ F,0,0,1,0,7.9375,0,1 | F,0,0,1,0,7.9375,0,1 @ F,0,0,1,0,7.9375,0,1 @ F,0,0,1,0,7.9375,0,1 @ F,0,0,1,0,7.9375,0,1 | F,0,0,1,0,7.9375,0,1 @ F,0,0,1,0,7.9375,0,1 @ F,0,0,1,0,7.9375,0,1 @ F,0,0,1,0,7.9375,0,1 @ F,0,0,1,0,7.9375,0,1 @ F,0,0,1,0,7.9375,0,1 @ F,0,0,1,0,7.9375,0,1 | F,0,0,1,0,7.9375,0,1 @ F,0,0,1,0,7.9375,0,1 @ F,0,0,1,0,7.9375,0,1 @ F,0,0,1,0,7.9375,0,1 | F,0,0,1,0,7.9375,0,1 @ F,0,0,1,0,7.9375,0,1 @ F,0,0,1,0,7.9375,0,1 @ F,0,0,1,0,7.9375,0,1"
       unit="px"
       method="auto"
       mode="F"
       radius="30"
       chamfer_steps="1"
       flexible="false"
       use_knot_distance="true"
       apply_no_radius="true"
       apply_with_radius="true"
       only_selected="false"
       hide_knots="false" />
  </defs>
  <rect
     style="display:inline;fill:#c1c1c1;fill-opacity:1;stroke-width:29.2952;stroke-linecap:round;stroke-linejoin:round"
     id="rect15969"
     width="1547.6508"
     height="1552.288"
     x="-643.03094"
     y="-459.08698" />
  <g
     inkscape:label="Layer 1"
     inkscape:groupmode="layer"
     id="layer1"
     inkscape:tile-cx="256"
     inkscape:tile-cy="256"
     inkscape:tile-w="512"
     inkscape:tile-h="512"
     inkscape:tile-x0="0"
     inkscape:tile-y0="0">
    <path
       id="path27871"
       style="fill:#d3d3d3;fill-opacity:1;stroke:none;stroke-width:18.8976;stroke-dasharray:none;stroke-opacity:1"
       d="m 163.8418,181.4668 58.46353,6.93941 a 6.3950915,6.3950915 135.62686 0 0 7.11927,-6.96516 l -4.36873,-45.24342 a 8.4763339,8.4763339 41.364821 0 0 -8.69668,-7.65767 l -111.94299,3.42985 c -4.38171,0.13425 -8.487427,3.75351 -9.215089,8.07642 -0.907182,5.38942 -2.29366,13.49017 -4.248334,24.7892 -0.747255,4.31952 2.173857,8.2396 6.527072,8.7562 l 50.958271,6.04721 c 7.88091,0.9456 7.88091,0.9456 7.88091,0.9456 l 0.0183,0.002 c 5.6e-4,-0.0104 5.6e-4,-0.0104 5.6e-4,-0.0104 l 7.4658,0.88762 c 0.0369,-0.24598 0.0369,-0.24598 0.0369,-0.24598 z m 134.34499,67.76065 c -0.45036,9.28697 -1.38695,29.20746 -3.37046,71.57848 -0.20493,4.37768 3.18207,7.85872 7.56504,7.77511 l 101.06343,-1.92771 a 8.2535115,8.2535115 135.02539 0 0 8.09447,-8.0873 l 1.54841,-77.57152 a 8.2805884,8.2805884 47.355426 0 0 -7.76371,-8.4298 l -97.78662,-6.09622 c -4.37527,-0.27276 -7.93258,-0.38032 -7.94165,-0.23997 -0.46289,7.82421 -0.46289,7.82421 -0.46289,7.82421 -0.49051,7.40562 -0.49051,7.40562 -0.49051,7.40562 -0.0319,-0.15658 -0.0319,-0.15658 -0.0319,-0.15658 z m -43.62429,173.11825 83.26545,-8.47907 a 9.1980303,9.1980303 133.39275 0 0 8.25673,-8.73346 l 2.5865,-56.9597 a 7.6885484,7.6885484 46.687233 0 0 -7.5767,-8.03662 l -88.44287,-1.19558 a 6.9777829,6.9777829 132.09289 0 0 -7.02601,7.77779 l 7.82692,67.76305 a 5.6179571,5.6179571 82.865656 0 0 0.98587,7.87654 c -0.41868,-4.40455 -0.41868,-4.40455 -0.41868,-4.40455 z m 108.39477,-11.18153 c 0.72615,9.29565 2.33221,29.40439 5.80594,72.77044 0.34972,4.36594 4.18669,7.95258 8.57007,8.011 l 63.27094,0.84315 a 8.1565139,8.1565139 136.54314 0 0 8.2585,-7.82521 l 3.85074,-94.93296 a 7.344131,7.344131 45.099182 0 0 -7.61034,-7.63674 l -75.85467,2.81386 c -4.38074,0.1625 -7.91623,0.7537 -7.88126,1.31963 0.54938,8.21874 0.94323,12.0004 1.07031,16.38219 -0.0468,0.33867 -0.0468,0.33867 -0.0468,0.33867 z m -50.18508,14.94373 c -0.61514,0.005 -0.61514,0.005 -0.61514,0.005 -1.06525,0.0394 -1.06525,0.0394 -1.06525,0.0394 l 0,0.0307 c 0.3744,0.0139 0.3744,0.0139 0.3744,0.0139 0.71865,0.0127 0.71865,0.0127 0.71865,0.0127 0.51194,0.005 0.51194,0.005 0.51194,0.005 -0.0442,-0.0276 -0.0442,-0.0276 -0.0442,-0.0276 z M 32.849425,-10.585778 28.466981,55.454919 a 9.4003339,9.4003339 133.97381 0 1 -8.421752,8.728961 l -46.496708,4.763099 a 6.987381,6.987381 42.793591 0 1 -7.697243,-7.126127 l 1.652913,-65.9307673 a 8.9803817,8.9803817 132.90867 0 1 8.098297,-8.7121627 l 49.873149,-4.906625 a 6.72966,6.72966 44.088885 0 1 7.373788,7.142925 z m 21.977436,-4.762783 38.832609,5.103372 a 8.0449768,8.0449768 52.101603 0 1 6.94151,8.9172795 L 94.899022,47.091581 c -0.512697,4.353676 -4.438467,8.437942 -8.768687,9.120982 -20.120885,3.173826 -22.52502,3.522293 -24.914065,3.81336 -4.351453,0.530156 -10.482494,1.395843 -13.708458,1.821733 -5.576171,0.703125 -5.576171,0.703125 -5.576171,0.703125 -2.878907,0.306641 -2.878907,0.306641 -2.878907,0.306641 l 7.116433,-71.3419319 a 7.6932593,7.6932593 141.59168 0 1 8.657694,-6.8640511 z m 169.864179,40.782305 130.573,1.255559 a 7.1819966,7.1819966 48.411549 0 1 7.06995,7.966309 l -5.19337,47.251276 a 9.4005382,9.4005382 136.4488 0 1 -8.79092,8.357215 L 233.16202,97.05621 a 8.4128805,8.4128805 39.960047 0 1 -8.85055,-7.415978 l -6.63075,-56.399604 a 6.9909246,6.9909246 131.9228 0 1 7.01032,-7.806884 z m -109.15223,17.940161 85.42238,0.681878 a 8.1623136,8.1623136 44.657338 0 1 8.09554,7.99928 l 1.12873,56.589097 a 7.40783,7.40783 135.8342 0 1 -7.76966,7.54664 l -94.84332,-4.65699 c -4.37849,-0.21499 -7.52712,-3.67261 -7.03537,-7.72326 1.31647,-10.863967 1.70176,-14.052746 2.09761,-17.337986 0.52441,-4.35228 1.37114,-11.409146 1.88622,-15.76254 0.90431,-7.643101 1.69047,-14.447723 2.25252,-19.505621 0.48414,-4.356762 4.38173,-7.865489 8.76535,-7.830498 z m 349.91285,16.313582 0.0908,50.904323 a 8.383832,8.383832 133.33133 0 1 -7.91069,8.38543 l -88.60733,5.00841 a 6.5434834,6.5434834 47.263531 0 1 -6.8528,-7.41683 l 7.20356,-52.846628 a 9.4995664,9.4995664 137.64311 0 1 9.00214,-8.207671 l 79.13005,-3.42162 a 7.6152822,7.6152822 43.710913 0 1 7.94425,7.594586 z M 92.65417,74.983751 90.330205,109.24086 a 8.834587,8.834587 135.81928 0 1 -8.468658,8.22987 l -108.486766,4.248 a 7.8376591,7.8376591 43.120243 0 1 -8.141575,-7.62415 l -0.575787,-21.73994 a 8.8403386,8.8403386 130.40267 0 1 7.656193,-8.995148 L 85.32506,68.124883 a 6.4784597,6.4784597 43.101705 0 1 7.32911,6.858868 z m 255.95743,35.663819 -5.37945,38.32791 a 8.935962,8.935962 139.60302 0 1 -9.03895,7.69193 l -86.40007,-1.83482 a 9.9775194,9.9775194 39.720171 0 1 -9.55567,-7.93896 l -6.26008,-30.0275 a 6.8091859,6.8091859 127.59912 0 1 6.30648,-8.18938 l 103.50454,-5.47069 a 6.5414261,6.5414261 47.481965 0 1 6.8232,7.44151 z m -265.047271,26.37127 -4.982174,33.83342 a 8.6735858,8.6735858 140.83966 0 1 -9.080693,7.39558 l -18.135737,-1.04646 a 9.4008994,9.4008994 43.477918 0 1 -8.801743,-8.34609 l -3.19437,-28.72035 a 7.5938952,7.5938952 129.92082 0 1 7.042517,-8.41653 l 30.388633,-2.02471 a 6.406041,6.406041 47.282563 0 1 6.763567,7.32514 z m 358.285911,-7.06616 89.06514,3.78995 a 9.0222085,9.0222085 43.777069 0 1 8.6059,8.24615 l 6.29728,73.71971 a 7.2823878,7.2823878 132.5822 0 1 -7.26192,7.90221 l -110.66406,-0.0905 c -4.38376,-0.004 -7.39224,-3.51815 -6.71973,-7.85002 10.58038,-68.15252 7.90982,-51.11078 9.27367,-61.02306 0.59752,-4.34265 1.63077,-11.37459 2.2403,-15.71576 0.0924,-0.65782 0.65167,-4.53995 1.1706,-8.68132 0.0625,-0.63477 0.0625,-0.63477 0.0625,-0.63477 z m -21.74827,10.71402 -3.19027,38.82871 a 8.2113916,8.2113916 138.72537 0 1 -8.57831,7.5295 L 363.442,184.86572 a 8.2232794,8.2232794 46.740615 0 1 -7.82754,-8.3182 l 0.41561,-32.7298 a 8.4372399,8.4372399 133.97946 0 1 8.02903,-8.32026 l 48.76461,-2.3582 a 6.9652133,6.9652133 45.964216 0 1 7.27826,7.52744 z m -164.90602,25.5678 80.13545,1.46068 a 8.6810302,8.6810302 43.48249 0 1 8.50083,8.06205 l 2.35898,33.07733 a 7.133264,7.133264 133.97536 0 1 -7.36787,7.63622 l -81.50215,-2.88883 c -4.38101,-0.15529 -8.08497,-3.83164 -8.27447,-8.2113 -0.67218,-15.5353 -1.10665,-25.23247 -1.39387,-31.35309 -0.2055,-4.37892 3.16007,-7.86295 7.5431,-7.78306 z m -203.315906,23.09017 89.079746,1.27644 a 7.4338562,7.4338562 47.697579 0 1 7.30367,8.02595 l -4.86091,60.7576 a 8.1967463,8.1967463 138.65366 0 1 -8.56149,7.53373 l -82.090323,-3.91881 a 8.4258757,8.4258757 46.023579 0 1 -8.023496,-8.31542 l -0.688857,-57.53629 a 7.7314396,7.7314396 135.0675 0 1 7.84166,-7.8232 z m 313.696556,6.18538 36.70422,1.78263 a 7.3828706,7.3828706 49.853845 0 1 6.97084,8.26461 l -0.93692,7.71159 a 8.228895,8.228895 140.89454 0 1 -8.86626,7.20682 l -32.99852,-2.80687 a 9.0031532,9.0031532 46.262455 0 1 -8.23261,-8.60364 l -0.24524,-6.00929 a 7.258417,7.258417 135.22176 0 1 7.60449,-7.54585 z m -194.85046,0.34687 58.87975,4.38382 a 8.0326022,8.0326022 48.916829 0 1 7.42056,8.51139 l -2.12908,34.07191 a 8.0595906,8.0595906 138.13836 0 1 -8.42371,7.54799 l -59.61334,-2.81242 c -4.37889,-0.20659 -7.65624,-3.91734 -7.3214,-8.2883 1.49457,-19.51021 2.25893,-29.75145 2.71649,-36.0857 0.31584,-4.37235 4.09907,-7.65417 8.47073,-7.32869 z m 86.20628,28.28538 23.2211,1.75837 a 7.9696578,7.9696578 49.214498 0 1 7.34751,8.51653 l -1.83409,25.59529 a 9.2943776,9.2943776 134.59636 0 1 -8.47575,8.59602 l -25.30035,2.17165 a 6.5542586,6.5542586 45.546423 0 1 -7.07889,-7.21521 l 3.3761,-32.12795 a 8.1720747,8.1720747 140.16456 0 1 8.74437,-7.2947 z m -225.841284,19.44032 2.329447,19.85039 a 7.8624054,7.8624054 128.57925 0 1 -6.966722,8.73354 l -103.716316,11.17276 a 7.2953298,7.2953298 41.265557 0 1 -8.074756,-7.08525 l -0.729875,-31.66437 a 7.8205538,7.8205538 134.10475 0 1 7.754319,-8.00051 l 100.54155,-0.82484 a 8.8500641,8.8500641 41.418445 0 1 8.862353,7.81828 z m 131.897484,15.52198 62.44268,3.34744 a 8.6909364,8.6909364 45.47429 0 1 8.21975,8.35698 l 2.10805,56.94641 c 0.16217,4.38076 -3.24201,8.29031 -7.60341,8.73253 -41.33807,4.19146 -57.88245,5.89097 -67.2832,6.87154 -4.36009,0.45479 -8.02865,-1.18058 -8.06585,-3.66419 -0.0156,-7.9407 0.01,-11.4971 0.0866,-15.88017 0.007,-0.40169 0.0767,-4.28045 0.18276,-8.66292 0.0148,-0.61422 0.0302,-1.23187 0.0459,-1.85249 0.11096,-4.38235 0.32778,-11.48658 0.43414,-15.86905 0.21598,-8.89937 0.01,-5.16396 1.15246,-30.82219 0.195,-4.37898 3.90267,-7.73856 8.28015,-7.50389 z m -63.822604,19.98564 36.839844,0.0109 a 7.4018349,7.4018349 47.017002 0 1 7.38146,7.92035 l -3.43089,48.8554 a 8.6554808,8.6554808 136.53936 0 1 -8.49248,8.04798 l -34.929858,0.57207 c -4.383173,0.0718 -7.735399,-3.41807 -7.488712,-7.79488 1.568461,-27.82824 1.485652,-27.21814 1.56692,-31.38356 0.08551,-4.38282 0.35408,-11.01392 0.463872,-14.81462 0.15039,-6.59571 0.15039,-6.59571 0.15039,-6.59571 0.002,-4.82031 0.002,-4.82031 0.002,-4.82031 z m -21.328506,7.99414 -10.764863,95.08124 a 7.7876325,7.7876325 142.00542 0 1 -8.761619,6.84399 l -53.86229,-7.14032 a 10.799914,10.799914 43.865837 0 1 -9.2223982,-8.86433 L -17.839621,297.51652 a 7.4406943,7.4406943 127.03056 0 1 6.538538,-8.66731 l 82.139276,-8.80584 a 6.3615853,6.3615853 45.170145 0 1 6.999317,7.04101 z m 175.78842,-5.37675 25.33408,0.69411 a 7.3597756,7.3597756 48.732267 0 1 7.11928,8.11292 l -2.58436,25.02927 a 9.6346465,9.6346465 135.37849 0 1 -8.72084,8.60638 l -18.59505,1.67203 a 7.6842797,7.6842797 40.790533 0 1 -8.35986,-7.21363 l -1.67351,-29.19399 a 7.2924841,7.2924841 134.14431 0 1 7.48026,-7.70709 z m -282.395034,17.4249 9.92688,64.60408 a 6.8716009,6.8716009 130.38123 0 1 -6.73169,7.91496 l -50.115844,0.43905 c -4.383592,0.0384 -8.043593,-3.48261 -8.175547,-7.86438 -0.713256,-23.68494 -0.689156,-22.16735 -1.056164,-30.25162 -0.198802,-4.37911 -0.493091,-11.48042 -0.694799,-15.85953 -0.0037,-0.0807 -0.0074,-0.16136 -0.01116,-0.24189 -0.202362,-4.37908 -0.553098,-11.19911 -0.815932,-15.23062 -0.421875,-5.44336 -0.421875,-5.44336 -0.421875,-5.44336 l 48.995641,-5.09166 a 8.3355845,8.3355845 37.665749 0 1 9.100489,7.02497 z m -68.417805,47.7387 0.791786,13.53684 a 7.75829,7.75829 132.30667 0 1 -7.468987,8.2064 l -37.89287,1.34918 a 7.8575254,7.8575254 43.250933 0 1 -8.13457,-7.65249 l -0.30869,-12.12037 a 8.2381921,8.2381921 132.47608 0 1 7.71983,-8.43179 l 36.90809,-2.31487 a 7.9041289,7.9041289 41.531819 0 1 8.385411,7.4271 z m 332.884739,11.61149 0.87192,8.18885 a 7.8470821,7.8470821 129.25043 0 1 -7.06158,8.64281 l -86.95188,8.2521 a 8.2697658,8.2697658 38.40417 0 1 -8.97515,-7.11469 l -1.31462,-9.63405 a 7.5116544,7.5116544 128.80863 0 1 6.83863,-8.50292 l 87.84048,-7.08668 a 8.1431403,8.1431403 39.65489 0 1 8.7522,7.25458 z m -115.76127,3.61584 -7.91999,56.36538 a 7.9609689,7.9609689 142.91378 0 1 -8.96797,6.77903 l -17.411651,-2.39414 a 8.4225441,8.4225441 51.130987 0 1 -7.250027,-8.99501 l 3.816,-49.22522 a 9.1535739,9.1535739 135.36289 0 1 8.534377,-8.42695 l 22.382831,-1.45018 a 6.4615248,6.4615248 47.145682 0 1 6.81643,7.34709 z m -158.647767,23.18137 60.662649,11.58468 a 8.5836629,8.5836629 53.571773 0 1 6.921182,9.37799 l -3.077279,27.7316 a 9.2154394,9.2154394 137.07119 0 1 -8.807127,8.19235 l -56.009639,2.14151 c -4.380559,0.16749 -7.8834,-3.25014 -7.824308,-7.6335 0.343678,-25.49366 0.481346,-36.73532 0.519068,-41.72566 0.03309,-4.37777 -0.160825,-9.37268 -0.181151,-11.15788 z m 275.780257,11.40773 8.63143,77.58562 a 6.7224687,6.7224687 133.38982 0 1 -7.04804,7.45575 l -93.55879,-5.11236 c -4.37723,-0.23918 -8.48997,-3.94173 -9.18553,-8.26996 -4.03685,-25.11998 -3.5647,-22.30212 -4.82732,-30.94798 -0.63345,-4.33759 -1.68765,-11.36635 -2.31999,-15.70426 -0.0458,-0.31396 -0.0913,-0.62674 -0.13655,-0.93828 -0.63023,-4.33822 -1.62159,-11.34874 -2.18285,-15.66244 -0.8125,-6.72461 -0.8125,-6.72461 -0.8125,-6.72461 -0.0488,-0.60156 -0.0488,-0.60156 -0.0488,-0.60156 l 102.69979,-8.32726 a 8.1783567,8.1783567 39.508161 0 1 8.78918,7.24734 z m -170.084511,12.31717 -7.60775,58.86338 a 6.713928,6.713928 147.13814 0 1 -8.61164,5.56299 l -8.868189,-2.69639 c -4.194175,-1.27524 -7.190252,-5.56815 -6.689929,-9.58833 1.276431,-10.2413 1.588162,-12.7381 1.909054,-15.30555 0.543673,-4.34992 1.426819,-11.40232 1.976071,-15.75153 0.842407,-6.67054 1.615298,-12.72327 2.203134,-17.27802 0.56111,-4.34768 4.548106,-8.39145 8.884413,-9.03472 l 9.970672,-1.4791 a 6.0028266,6.0028266 44.463142 0 1 6.834164,6.70727 z m 282.776361,24.71569 -0.62532,26.90857 a 7.5569944,7.5569944 137.738 0 1 -8.10115,7.36166 l -18.85402,-1.36627 a 8.3255577,8.3255577 47.777868 0 1 -7.72129,-8.50879 l 0.59348,-24.09466 c 0.10794,-4.38243 3.74878,-7.99048 8.13233,-8.03312 4.23086,-0.0412 10.23351,-0.0901 18.82307,-0.14962 4.38365,-0.0304 7.85475,3.49965 7.7529,7.88223 z m -46.34975,4.04858 -0.81058,77.5243 a 8.3008482,8.3008482 134.31722 0 1 -8.01582,8.20919 l -21.08747,0.72334 c -4.38118,0.15029 -8.30855,-3.2617 -8.77239,-7.62085 -4.84976,-45.57715 -6.74573,-63.08744 -7.845,-73.03684 -0.48142,-4.35723 2.64722,-8.32282 6.99812,-8.85852 l 31.73812,-3.90772 a 6.9465291,6.9465291 41.789953 0 1 7.79502,6.9671 z m -219.656108,0.0792 29.552418,1.66285 a 9.3845494,9.3845494 43.445224 0 1 8.80012,8.33503 l 3.90007,35.15733 a 6.872249,6.872249 132.78408 0 1 -7.05798,7.62619 l -41.414964,-1.3726 c -4.381354,-0.14521 -7.499764,-3.79014 -6.966416,-8.14133 2.201654,-17.96169 3.543392,-29.05053 4.347836,-35.82874 0.516639,-4.35318 4.462079,-7.685 8.838916,-7.43873 z m -62.186031,23.48183 3.545572,13.57029 a 7.0157004,7.0157004 123.88497 0 1 -5.861492,8.72776 l -60.787432,8.09724 a 7.1025201,7.1025201 40.59018 0 1 -8.038691,-6.8876 l -0.424249,-19.72439 a 8.1713907,8.1713907 132.93598 0 1 7.756676,-8.33667 l 53.875741,-2.72532 a 9.7578222,9.7578222 36.23077 0 1 9.933875,7.27869 z m 301.803659,18.75346 25.4324,0.24892 a 8.9963957,8.9963957 41.982669 0 1 8.84881,7.96266 l 3.67076,31.74763 a 6.6555101,6.6555101 133.42508 0 1 -7.01146,7.40792 l -31.05995,-1.87011 a 8.4100629,8.4100629 46.789799 0 1 -7.90459,-8.41453 l 0.0684,-29.2227 a 7.8785946,7.8785946 135.34739 0 1 7.95568,-7.85979 z m -137.65046,17.71699 4.41886,38.05322 a 7.300771,7.300771 130.76901 0 1 -7.01784,8.13914 l -61.0531,1.95951 a 8.1370094,8.1370094 42.450627 0 1 -8.38486,-7.67003 l -1.56194,-27.41828 a 8.9457742,8.9457742 128.32187 0 1 7.36315,-9.31605 l 7.98798,-1.42227 a 39.167495,39.167495 170.00373 0 1 7.88296,-1.38945 l -0.002,-0.0137 41.63662,-7.41497 a 7.4702347,7.4702347 36.639253 0 1 8.73012,6.49285 z m 20.4831,-5.95856 36.8804,1.39026 a 8.9282403,8.9282403 43.79699 0 1 8.5636,8.21133 l 1.36349,17.0777 a 7.1937391,7.1937391 133.24919 0 1 -7.3044,7.76503 l -37.37774,-0.6937 a 8.6083064,8.6083064 43.741609 0 1 -8.43177,-8.0693 l -1.12981,-18.05832 a 7.1797771,7.1797771 134.28941 0 1 7.43623,-7.623 z m 255.46952,21.80613 -1.71685,27.04362 a 9.4426644,9.4426644 133.68293 0 1 -8.39297,8.78798 l -62.92299,6.90972 a 7.6636984,7.6636984 39.738761 0 1 -8.47911,-7.04918 l -2.37856,-31.9637 a 7.70008,7.70008 131.61404 0 1 7.34081,-8.26407 l 69.12272,-3.03746 a 7.1283334,7.1283334 45.558201 0 1 7.42695,7.57309 z"
       inkscape:path-effect="#path-effect176;#path-effect37725"
       inkscape:original-d="m 37.441564,-22.703013 -73.434019,7.225103 -2.242188,89.431641 69.73639,-7.144968 z m 6.139551,2.06354 -8.730953,87.551026 C 39.162419,67.473 97.388404,58.265254 97.388404,58.265254 l 8.330236,-70.738878 z m 323.835615,43.666446 -154.91882,-1.489741 9.40274,79.969508 137.7817,-8.123322 z M 212.60306,40.368969 104.25633,39.503873 c 0,2.745327 -8.853278,75.216457 -8.853277,75.216457 l 118.800787,5.83398 z m 256.60678,7.436282 -102.0809,4.413071 -10.39286,76.246578 112.605,-6.36375 z M 97.27827,62.699469 -39.419213,81.126582 l 1.1875,44.831048 131.566244,-5.15225 z M 354.094,98.772037 225.75889,105.55492 236.7706,158.37833 345.40501,160.6881 Z M 92.935279,128.54064 c -0.753579,7.30521 -7.730469,47.40039 -7.730469,47.40039 l 149.19488,17.7083 -6.68559,-69.23737 z m 449.392351,1.9053 -111.80064,-4.75599 c 0,5.12933 -14.98099,101.59927 -14.98099,101.59927 l 135.06494,0.11042 z m -508.028619,-1.70881 5.739867,51.59715 40.621212,2.34408 8.481046,-57.59451 z m 390.573549,0.0352 -72.47682,3.50553 -0.7077,55.80707 68.0428,3.27274 z m -78.08067,35.35093 -103.728,-1.89005 c 0.49954,3.11892 2.70739,54.72127 2.70739,54.72127 l 105.05303,3.72236 z m -306.67497,21.25131 0.96875,80.85254 105.1583,5.01934 6.74325,-84.25298 z m 119.02668,5.82959 c 0,4.11158 -4.27099,59.57403 -4.27099,59.57403 l 83.0686,3.91818 3.58438,-57.35903 z m 255.30777,2.89604 -60.74806,-2.95163 1.19574,29.33042 55.77061,4.74324 z m -122.34425,28.91286 -46.46447,-3.51692 -5.89877,56.11965 48.89551,-4.19629 z m 4.03771,-1.04034 c -0.66605,3.76362 -5.6656,110.61474 -5.6656,110.61474 l 124.60794,-2.37379 2.01043,-100.70114 z m -262.618585,9.9189 -123.64298,1.01469 1.27829,55.48131 127.382978,-13.72242 z m 117.924585,22.80935 c 0,0 -4.22473,94.22219 -1.58828,93.73332 2.63646,-0.48886 90.09793,-9.34851 90.09793,-9.34851 l -2.95345,-79.79746 z M 83.017293,274.9376 -23.60476,286.36681 -6.6715196,384.20653 69.502522,394.30557 Z m 64.978517,0.38903 -60.789194,-0.0202 c 1.300079,4.35067 -2.605321,73.16586 -2.605321,73.16586 l 58.326825,-0.95539 z m 143.07649,3.6268 -49.39048,-1.35463 3.04057,53.04828 41.39681,-3.72319 z m -317.857843,8.20123 -64.366682,6.68898 c 1.52637,3.41352 3.87793,82.12719 3.87793,82.12719 l 74.035823,-0.64846 z m 265.010513,59.36997 -111.31479,8.98145 4.48995,32.9164 110.17148,-10.45751 z m 114.76036,-10.00728 -112.51907,-1.52073 10.57059,91.50789 98.31543,-10.01172 z m -447.082935,-1.57909 -60.176475,3.77432 0.90453,35.4466 61.436805,-2.18774 z m 219.528085,15.22717 -46.126826,2.99029 -5.572477,71.87222 40.398443,5.55469 z m 331.54875,28.00412 -99.62305,3.69726 c 0,7.0341 8.54526,113.70728 8.54526,113.70728 l 86.26822,1.14819 z m -217.4375,6.56445 -118.01797,9.56979 c 0,8.53271 12.37832,85.4849 12.37832,85.4849 l 116.92578,6.3916 z m -289.969279,-5.5413 c 0.546499,3.43487 -0.352997,69.34864 -0.352997,69.34864 l 79.097182,-3.0257 5.571875,-50.21955 z m 122.817813,17.46773 -33.44394,4.96235 c -0.540099,3.00363 -8.786436,69.49305 -8.786436,69.49306 l 31.375,9.53808 z M 353.8153,421.97212 c 0,0 -41.49752,0.2565 -42.25964,0.57243 l -1.16024,47.01592 42.24361,3.06126 z m -46.49755,3.58107 -55.64722,6.85173 c 0.58493,2.56814 10.5128,95.99119 10.5128,95.99119 l 44.07617,-1.51367 z M 124.63734,436.36417 72.242503,433.4132 c 0,3.25553 -6.887534,59.22249 -6.887534,59.22249 l 65.763621,2.1781 z m -102.195129,13.35439 -76.467511,3.86886 0.933022,43.49143 84.949012,-11.31724 z m 337.671429,26.94608 -48.44691,-0.47495 -0.12317,52.47282 54.9649,3.31096 z m -172.01669,8.82769 -80.38924,14.31447 2.86549,50.29758 84.71202,-2.72229 z m 6.14327,2.11522 2.59936,41.55223 60.90489,1.13161 -3.22716,-40.41037 z m 271.97631,14.15868 -93.08007,4.09082 4.13671,55.58496 85.75196,-9.41797 z"
       sodipodi:nodetypes="cccccccccccccccccccccccccccccccccccccccccccccccccccccccccccccccccccccccccccccccccccccccccccsccccccccccccccccccccccccccccccccccccccccccccccccccccccccccccccccccccccccccccccccccccccccccccccccccccccc" />
  </g>
  <g
     inkscape:groupmode="layer"
     id="layer2"
     inkscape:label="uses"
     style="display:inline">
    <use
       x="0"
       y="0"
       inkscape:tiled-clone-of="#layer1"
       xlink:href="#layer1"
       id="use13620"
       transform="translate(-512,-512)" />
    <use
       x="0"
       y="0"
       inkscape:tiled-clone-of="#layer1"
       xlink:href="#layer1"
       transform="translate(-512)"
       id="use13622"
       style="display:inline" />
    <use
       x="0"
       y="0"
       inkscape:tiled-clone-of="#layer1"
       xlink:href="#layer1"
       transform="translate(-512,512)"
       id="use13624" />
    <use
       x="0"
       y="0"
       inkscape:tiled-clone-of="#layer1"
       xlink:href="#layer1"
       transform="translate(0,-512)"
       id="use13626" />
    <use
       x="0"
       y="0"
       inkscape:tiled-clone-of="#layer1"
       xlink:href="#layer1"
       transform="translate(0,512)"
       id="use13630" />
    <use
       x="0"
       y="0"
       inkscape:tiled-clone-of="#layer1"
       xlink:href="#layer1"
       transform="translate(512,-512)"
       id="use13632" />
    <use
       x="0"
       y="0"
       inkscape:tiled-clone-of="#layer1"
       xlink:href="#layer1"
       transform="translate(512)"
       id="use13634" />
    <use
       x="0"
       y="0"
       inkscape:tiled-clone-of="#layer1"
       xlink:href="#layer1"
       transform="translate(512,512)"
       id="use13636" />
  </g>
</svg>
