<?xml version="1.0" encoding="UTF-8" standalone="no"?>
<!-- Created with Inkscape (http://www.inkscape.org/) -->

<svg
   inkscape:export-ydpi="96"
   inkscape:export-xdpi="96"
   inkscape:export-filename="..\Projects\getting-farted-on\dev\assets\guy\closed_eyes.png"
   inkscape:version="1.2.2 (732a01da63, 2022-12-09)"
   sodipodi:docname="guy.svg"
   xml:space="preserve"
   id="svg5"
   version="1.1"
   viewBox="0 0 65.622687 64.922998"
   height="1298.46"
   width="1312.4537"
   xmlns:inkscape="http://www.inkscape.org/namespaces/inkscape"
   xmlns:sodipodi="http://sodipodi.sourceforge.net/DTD/sodipodi-0.dtd"
   xmlns="http://www.w3.org/2000/svg"
   xmlns:svg="http://www.w3.org/2000/svg"><sodipodi:namedview
     id="namedview7"
     pagecolor="#ffffff"
     bordercolor="#000000"
     borderopacity="0.25"
     inkscape:showpageshadow="2"
     inkscape:pageopacity="0.0"
     inkscape:pagecheckerboard="0"
     inkscape:deskcolor="#d1d1d1"
     inkscape:document-units="mm"
     showgrid="false"
     showguides="true"
     inkscape:lockguides="false"
     inkscape:zoom="0.5"
     inkscape:cx="527"
     inkscape:cy="664"
     inkscape:window-width="2560"
     inkscape:window-height="1369"
     inkscape:window-x="-8"
     inkscape:window-y="-8"
     inkscape:window-maximized="1"
     inkscape:current-layer="layer12" /><defs
     id="defs2"><inkscape:path-effect
       effect="bspline"
       id="path-effect6943"
       is_visible="true"
       lpeversion="1"
       weight="33.333333"
       steps="2"
       helper_size="0"
       apply_no_weight="true"
       apply_with_weight="true"
       only_selected="false" /><inkscape:path-effect
       effect="bspline"
       id="path-effect1482"
       is_visible="true"
       lpeversion="1"
       weight="33.333333"
       steps="2"
       helper_size="0"
       apply_no_weight="true"
       apply_with_weight="true"
       only_selected="false" /><inkscape:path-effect
       effect="bspline"
       id="path-effect105595"
       is_visible="true"
       lpeversion="1"
       weight="33.333333"
       steps="2"
       helper_size="0"
       apply_no_weight="true"
       apply_with_weight="true"
       only_selected="false" /><inkscape:path-effect
       effect="bspline"
       id="path-effect105345"
       is_visible="true"
       lpeversion="1"
       weight="33.333333"
       steps="2"
       helper_size="0"
       apply_no_weight="true"
       apply_with_weight="true"
       only_selected="false" /><inkscape:path-effect
       effect="bspline"
       id="path-effect46172"
       is_visible="true"
       lpeversion="1"
       weight="33.333333"
       steps="2"
       helper_size="0"
       apply_no_weight="true"
       apply_with_weight="true"
       only_selected="false" /><inkscape:path-effect
       effect="bspline"
       id="path-effect46168"
       is_visible="true"
       lpeversion="1"
       weight="33.333333"
       steps="2"
       helper_size="0"
       apply_no_weight="true"
       apply_with_weight="true"
       only_selected="false" /><inkscape:path-effect
       effect="bspline"
       id="path-effect43935"
       is_visible="true"
       lpeversion="1"
       weight="33.333333"
       steps="2"
       helper_size="0"
       apply_no_weight="true"
       apply_with_weight="true"
       only_selected="false" /><inkscape:path-effect
       effect="bspline"
       id="path-effect43205"
       is_visible="true"
       lpeversion="1"
       weight="33.333333"
       steps="2"
       helper_size="0"
       apply_no_weight="true"
       apply_with_weight="true"
       only_selected="false" /><inkscape:path-effect
       effect="bspline"
       id="path-effect43201"
       is_visible="true"
       lpeversion="1"
       weight="33.333333"
       steps="2"
       helper_size="0"
       apply_no_weight="true"
       apply_with_weight="true"
       only_selected="false" /><inkscape:path-effect
       effect="bspline"
       id="path-effect43197"
       is_visible="true"
       lpeversion="1"
       weight="33.333333"
       steps="2"
       helper_size="0"
       apply_no_weight="true"
       apply_with_weight="true"
       only_selected="false" /><inkscape:path-effect
       effect="bspline"
       id="path-effect37328"
       is_visible="true"
       lpeversion="1"
       weight="33.333333"
       steps="2"
       helper_size="0"
       apply_no_weight="true"
       apply_with_weight="true"
       only_selected="false" /><inkscape:path-effect
       effect="bspline"
       id="path-effect37216"
       is_visible="true"
       lpeversion="1"
       weight="33.333333"
       steps="2"
       helper_size="0"
       apply_no_weight="true"
       apply_with_weight="true"
       only_selected="false" /><inkscape:path-effect
       effect="bspline"
       id="path-effect37212"
       is_visible="true"
       lpeversion="1"
       weight="33.333333"
       steps="2"
       helper_size="0"
       apply_no_weight="true"
       apply_with_weight="true"
       only_selected="false" /><inkscape:path-effect
       effect="bspline"
       id="path-effect37100"
       is_visible="true"
       lpeversion="1"
       weight="33.333333"
       steps="2"
       helper_size="0"
       apply_no_weight="true"
       apply_with_weight="true"
       only_selected="false" /><inkscape:path-effect
       effect="bspline"
       id="path-effect35643"
       is_visible="true"
       lpeversion="1"
       weight="33.333333"
       steps="2"
       helper_size="0"
       apply_no_weight="true"
       apply_with_weight="true"
       only_selected="false" /><inkscape:path-effect
       effect="bspline"
       id="path-effect34937"
       is_visible="true"
       lpeversion="1"
       weight="33.333333"
       steps="2"
       helper_size="0"
       apply_no_weight="true"
       apply_with_weight="true"
       only_selected="false" /><inkscape:path-effect
       effect="bspline"
       id="path-effect34933"
       is_visible="true"
       lpeversion="1"
       weight="33.333333"
       steps="2"
       helper_size="0"
       apply_no_weight="true"
       apply_with_weight="true"
       only_selected="false" /><inkscape:path-effect
       effect="bspline"
       id="path-effect34875"
       is_visible="true"
       lpeversion="1"
       weight="33.333333"
       steps="2"
       helper_size="0"
       apply_no_weight="true"
       apply_with_weight="true"
       only_selected="false" /><inkscape:path-effect
       effect="bspline"
       id="path-effect34144"
       is_visible="true"
       lpeversion="1"
       weight="33.333333"
       steps="2"
       helper_size="0"
       apply_no_weight="true"
       apply_with_weight="true"
       only_selected="false" /><inkscape:path-effect
       effect="bspline"
       id="path-effect34086"
       is_visible="true"
       lpeversion="1"
       weight="33.333333"
       steps="2"
       helper_size="0"
       apply_no_weight="true"
       apply_with_weight="true"
       only_selected="false" /><inkscape:path-effect
       effect="bspline"
       id="path-effect33594"
       is_visible="true"
       lpeversion="1"
       weight="33.333333"
       steps="2"
       helper_size="0"
       apply_no_weight="true"
       apply_with_weight="true"
       only_selected="false" /><inkscape:path-effect
       effect="bspline"
       id="path-effect33583"
       is_visible="true"
       lpeversion="1"
       weight="33.333333"
       steps="2"
       helper_size="0"
       apply_no_weight="true"
       apply_with_weight="true"
       only_selected="false" /><inkscape:path-effect
       effect="bspline"
       id="path-effect33579"
       is_visible="true"
       lpeversion="1"
       weight="33.333333"
       steps="2"
       helper_size="0"
       apply_no_weight="true"
       apply_with_weight="true"
       only_selected="false" /><inkscape:path-effect
       effect="bspline"
       id="path-effect33575"
       is_visible="true"
       lpeversion="1"
       weight="33.333333"
       steps="2"
       helper_size="0"
       apply_no_weight="true"
       apply_with_weight="true"
       only_selected="false" /><inkscape:path-effect
       effect="bspline"
       id="path-effect31711"
       is_visible="true"
       lpeversion="1"
       weight="33.333333"
       steps="2"
       helper_size="0"
       apply_no_weight="true"
       apply_with_weight="true"
       only_selected="false" /><inkscape:path-effect
       effect="bspline"
       id="path-effect21040"
       is_visible="true"
       lpeversion="1"
       weight="33.333333"
       steps="2"
       helper_size="0"
       apply_no_weight="true"
       apply_with_weight="true"
       only_selected="false" /><inkscape:path-effect
       effect="bspline"
       id="path-effect21036"
       is_visible="true"
       lpeversion="1"
       weight="33.333333"
       steps="2"
       helper_size="0"
       apply_no_weight="true"
       apply_with_weight="true"
       only_selected="false" /><inkscape:path-effect
       effect="bspline"
       id="path-effect21032"
       is_visible="true"
       lpeversion="1"
       weight="33.333333"
       steps="2"
       helper_size="0"
       apply_no_weight="true"
       apply_with_weight="true"
       only_selected="false" /><inkscape:path-effect
       effect="bspline"
       id="path-effect21028"
       is_visible="true"
       lpeversion="1"
       weight="33.333333"
       steps="2"
       helper_size="0"
       apply_no_weight="true"
       apply_with_weight="true"
       only_selected="false" /><inkscape:path-effect
       effect="bspline"
       id="path-effect21024"
       is_visible="true"
       lpeversion="1"
       weight="33.333333"
       steps="2"
       helper_size="0"
       apply_no_weight="true"
       apply_with_weight="true"
       only_selected="false" /><inkscape:path-effect
       effect="bspline"
       id="path-effect21004"
       is_visible="true"
       lpeversion="1"
       weight="33.333333"
       steps="2"
       helper_size="0"
       apply_no_weight="true"
       apply_with_weight="true"
       only_selected="false" /><inkscape:path-effect
       effect="fill_between_many"
       method="originald"
       linkedpaths="#path21022,0,1|#path21026,0,1"
       id="path-effect26602"
       is_visible="true"
       lpeversion="0"
       join="true"
       close="true"
       autoreverse="true" /><inkscape:path-effect
       effect="bspline"
       id="path-effect43935-4"
       is_visible="true"
       lpeversion="1"
       weight="33.333333"
       steps="2"
       helper_size="0"
       apply_no_weight="true"
       apply_with_weight="true"
       only_selected="false" /><inkscape:path-effect
       effect="bspline"
       id="path-effect43205-8"
       is_visible="true"
       lpeversion="1"
       weight="33.333333"
       steps="2"
       helper_size="0"
       apply_no_weight="true"
       apply_with_weight="true"
       only_selected="false" /><inkscape:path-effect
       effect="bspline"
       id="path-effect43201-5"
       is_visible="true"
       lpeversion="1"
       weight="33.333333"
       steps="2"
       helper_size="0"
       apply_no_weight="true"
       apply_with_weight="true"
       only_selected="false" /></defs><g
     inkscape:groupmode="layer"
     inkscape:label="Growl"
     style="display:none"
     transform="translate(-1.0123257,-0.68024738)"
     mode="growl"
     id="g13118"><g
       inkscape:groupmode="layer"
       id="layer14"
       inkscape:label="bottom"
       color="clothes-bottom"
       style="display:inline"><path
         style="display:inline;opacity:1;fill:#676767;fill-opacity:1;stroke:none;stroke-width:2;stroke-linejoin:round;stroke-dasharray:none;stroke-opacity:1;paint-order:normal"
         d="m 5.2916241,50.392174 c -0.7937592,1.356017 -1.7198017,3.164005 -0.7274141,4.222305 0.9923875,1.0583 3.9027459,1.366974 5.556282,2.480586 1.653537,1.113611 2.050404,3.031803 3.704145,3.660007 1.65374,0.628203 4.564099,-0.03324 10.098333,-0.463171 5.534233,-0.429929 13.692054,-0.628363 19.524059,0.06626 5.832006,0.69462 9.337664,2.282088 10.836836,1.841172 1.499173,-0.440916 0.992065,-2.910311 2.282028,-4.277491 1.289964,-1.367179 4.376707,-1.631757 5.501109,-3.064774 1.124402,-1.433017 0.286571,-4.034701 0.661491,-5.35778 0.37492,-1.323079 1.962388,-1.367176 2.381258,-2.105657 0.41887,-0.738482 -0.330767,-2.171612 -6.36113,-2.711962 -6.030364,-0.540349 -17.341074,-0.187579 -26.777965,0.385685 -9.436892,0.573263 -16.999415,1.366997 -21.111622,2.215913 -4.1122057,0.848916 -4.7736506,1.752891 -5.5674099,3.108909 z"
         id="path105593"
         inkscape:path-effect="#path-effect105595"
         inkscape:original-d="m 5.4239583,49.940104 c -0.9257771,1.808249 -1.8518188,3.616237 -2.778125,5.423958 2.9107394,0.308951 5.8210978,0.617625 8.7312497,0.926041 0.397148,1.918531 0.794015,3.836723 1.190625,5.754688 2.910739,-0.661207 5.821098,-1.322652 8.73125,-1.984375 8.158252,-0.198173 16.316073,-0.396606 24.473958,-0.595313 3.506064,1.587797 7.011722,3.175265 10.517187,4.7625 -0.506864,-2.469229 -1.01397,-4.938625 -1.521354,-7.408333 3.087132,-0.264324 6.173875,-0.528902 9.260417,-0.79375 -0.8376,-2.601523 -1.675429,-5.203208 -2.513542,-7.805208 1.587797,-0.04383 3.175265,-0.08793 4.7625,-0.132292 -0.749403,-1.432925 -1.499042,-2.866054 -2.248958,-4.299479 -11.3109,0.35305 -22.62161,0.705821 -33.932812,1.058333 -7.56256,0.794031 -15.125083,1.587765 -22.6880208,2.38125 -0.6612069,0.904275 -1.322652,1.80825 -1.9843749,2.71198 z"
         inkscape:label="bottom"
         sodipodi:nodetypes="ccccccccccccccc" /></g><g
       inkscape:groupmode="layer"
       id="layer15"
       inkscape:label="top"
       style="display:inline"
       color="clothes-top"><path
         style="display:inline;opacity:1;fill:#b5b5b5;fill-opacity:1;stroke:none;stroke-width:2;stroke-linejoin:round;stroke-dasharray:none;stroke-opacity:1;paint-order:normal"
         d="m 12.126115,36.780611 c -11.19049588,0.75184 -11.86596794,2.176232 -11.61809321,3.416053 0.24787473,1.239821 1.41867061,2.294907 1.44099451,3.574135 0.022324,1.279228 -1.10344189,2.782724 -1.05821168,4.022574 0.0452302,1.23985 1.26105768,2.215805 2.39810578,2.769628 1.137048,0.553823 2.1952669,0.685708 12.2599696,0.224063 10.064702,-0.461645 29.135157,-1.51673 39.323478,-2.308082 10.188321,-0.791352 11.49421,-1.318895 11.741921,-2.241926 0.247711,-0.923031 -0.562839,-2.241887 -0.495402,-3.376298 0.06744,-1.134412 1.013079,-2.083988 1.260822,-3.218068 C 67.627442,38.508609 67.177136,37.189754 56.099246,36.569697 45.021355,35.949639 23.316611,36.02877 12.126115,36.780611 Z"
         id="path105343"
         inkscape:path-effect="#path-effect105345"
         inkscape:original-d="m 1.6111647,36.107904 c -0.67520215,1.42471 -1.35067447,2.849102 -2.02641697,4.273178 1.17111224,1.055444 2.34190767,2.11053 3.51245617,3.165318 -1.1255396,1.50387 -2.25130428,3.007367 -3.3773617,4.510575 1.21614465,0.976308 2.4319706,1.952265 3.6475506,2.92792 1.0585312,0.132205 2.11675,0.264091 3.1747198,0.395664 19.0714874,-1.05481 38.1419424,-2.109896 57.2125054,-3.165316 1.306209,-0.527248 2.612098,-1.05479 3.91774,-1.58266 -0.810313,-1.318592 -1.620864,-2.637447 -2.431701,-3.956647 0.945951,-0.949297 1.891593,-1.898873 2.836984,-2.848785 -0.450054,-1.318591 -0.90036,-2.637446 -1.350945,-3.956645 -21.70534,0.07945 -43.410084,0.158582 -65.1155313,0.237398 z"
         inkscape:label="top" /></g></g><g
     inkscape:groupmode="layer"
     id="body"
     inkscape:label="Body"
     style="display:inline"
     transform="translate(-1.0123257,-0.6802474)"
     texture="true"><g
       inkscape:groupmode="layer"
       id="layer10"
       inkscape:label="face"
       style="display:inline"
       color="skin"
       shake="0"><path
         id="path26685"
         style="display:inline;opacity:1;fill:#ffcda8;fill-opacity:1;stroke:none;stroke-width:0;stroke-linejoin:round;stroke-dasharray:none;stroke-opacity:1;paint-order:normal"
         inkscape:label="skin"
         d="m 106.17239,75.343029 c -0.22842,0.0011 -0.45688,0.0045 -0.68535,0.01035 -6.563517,-0.01455 -13.084702,1.982305 -18.645021,5.4375 -4.591818,2.836753 -8.203442,7.292655 -9.716894,12.503516 -1.650697,5.401155 -1.762845,11.111585 -1.744043,16.713775 0.399456,0.56862 1.347456,0.0283 1.967383,0.1246 9.339107,-0.46779 18.714745,-0.31242 28.069825,-0.31542 6.38732,0.0635 12.77765,0.0721 19.15752,-0.28487 4.24394,-0.21837 8.47766,0.096 12.71728,0.26133 1.1399,-0.0585 2.42662,0.0487 3.44239,-0.53887 0.45494,-0.75888 0.16766,-1.75176 0.26406,-2.59756 0.0537,-5.88393 -0.84493,-12.08102 -4.30303,-17.002048 -4.8157,-6.727482 -12.44333,-11.000409 -20.35849,-12.996093 -3.32177,-0.818807 -6.73931,-1.332286 -10.16563,-1.31621 z"
         transform="translate(-74.367096,-71.667957)" /><path
         style="display:inline;opacity:1;fill:none;fill-opacity:1;stroke:#c19b7f;stroke-width:2.02211;stroke-linejoin:round;stroke-dasharray:none;stroke-opacity:1;paint-order:normal"
         d="m 103.849,94.187791 c 1.32551,1.269987 2.65075,2.539721 3.87776,2.46973 1.22702,-0.06999 2.3561,-1.479505 3.48528,-2.889148"
         id="path21038"
         inkscape:label="nose"
         inkscape:original-d="m 103.849,94.187791 c 1.32544,1.270056 2.65068,2.53979 3.97573,3.809208 1.12932,-1.409249 2.2584,-2.818763 3.38731,-4.228626"
         inkscape:path-effect="#path-effect21040"
         transform="translate(-74.367096,-71.667957)" /></g><g
       inkscape:groupmode="layer"
       id="layer6"
       inkscape:label="Clothes bottom"
       color="clothes-bottom"
       style="display:inline"
       shake="0"><path
         style="display:inline;opacity:1;fill:#676767;fill-opacity:1;stroke:#000000;stroke-width:0;stroke-linejoin:round;stroke-dasharray:none;stroke-opacity:1;paint-order:normal"
         d="m 137.49035,119.04375 c -5.18389,0.34015 -10.38169,0.74659 -15.55961,0.90732 -9.96653,0.11561 -19.9347,-0.0163 -29.900912,0.12853 -4.576059,0.17258 -9.153805,0.35763 -13.722808,0.65875 -0.455459,0.24029 0.0281,0.69981 0.166915,0.98986 2.724267,4.37589 6.996991,7.55548 11.523716,9.88738 5.344347,2.70605 11.171559,4.42184 17.097869,5.24485 2.50277,0.34025 5.03423,0.51885 7.55801,0.33757 3.96555,-0.20438 7.8787,-1.45393 11.17862,-3.67388 3.78044,-2.51307 6.8681,-5.94728 9.44827,-9.65414 0.97921,-1.44167 1.90764,-2.93694 2.66189,-4.50275 0.0775,-0.2718 -0.24246,-0.36127 -0.45196,-0.32349 z"
         id="path26683"
         inkscape:label="bottom"
         transform="translate(-74.367096,-71.667957)" /><path
         style="display:inline;opacity:1;fill:#4d4d4d;fill-opacity:1;stroke:none;stroke-width:2.02211;stroke-linejoin:round;stroke-dasharray:none;stroke-opacity:1;paint-order:normal"
         d="m 123.2934,123.58711 c -0.10887,0 -0.218,0 -3.53114,0.84835 -3.31313,0.84835 -9.82992,2.54504 -14.05298,4.20565 -4.22307,1.66062 -6.152059,3.28506 -8.081063,4.90952 0,0 5.564503,1.46907 5.564503,1.46907 1.35261,-1.30394 2.70522,-2.60789 5.49539,-3.17071 2.79017,-0.56283 7.01745,-0.38456 9.94838,-1.14853 2.93094,-0.76396 4.56565,-2.47009 6.2004,-4.17626"
         id="path34873"
         inkscape:path-effect="#path-effect34875"
         inkscape:original-d="m 123.2934,123.58711 c -0.10887,2.7e-4 -0.218,2.7e-4 -0.3274,0 -6.51679,1.69702 -13.03358,3.3937 -19.55077,5.09015 -1.92878,1.62475 -5.787013,4.87337 -5.787013,4.87337 l 5.564503,1.46907 c 0,0 2.70548,-2.60762 4.05783,-3.91183 4.22772,0.17854 8.455,0.35681 12.68211,0.53482 1.63504,-1.70593 3.26975,-3.41206 4.90423,-5.11849"
         sodipodi:nodetypes="cccccccc"
         transform="translate(-74.367096,-71.667957)" /><path
         style="display:inline;opacity:1;fill:#555555;fill-opacity:1;stroke:none;stroke-width:2.02211;stroke-linejoin:round;stroke-dasharray:none;stroke-opacity:1;paint-order:normal"
         d="m 92.474148,126.32659 c 2.29211,2.08853 4.583951,4.17682 7.771992,5.14287 3.18805,0.96605 7.27218,0.81015 10.17331,1.33214 2.90113,0.52199 4.61876,1.7214 6.33673,2.92105 0,0 4.0224,-1.49532 4.0224,-1.49532 -2.51253,-2.02485 -5.02477,-4.04946 -9.38364,-5.8501 -4.35887,-1.80063 -10.56386,-3.37683 -16.769272,-4.95314"
         id="path34931"
         inkscape:path-effect="#path-effect34933"
         inkscape:original-d="m 92.474148,126.32659 c 2.292101,2.08854 4.583938,4.17683 6.875506,6.26484 4.084546,-0.15564 8.168676,-0.31155 12.252616,-0.46772 1.71827,1.19994 5.15391,3.59894 5.15391,3.59894 l 4.0224,-1.49532 c 0,0 -5.0248,-4.04943 -7.5376,-6.07455 -6.20496,-1.576 -12.40995,-3.1522 -18.615312,-4.72869"
         sodipodi:nodetypes="ccccccc"
         transform="translate(-74.367096,-71.667957)" /></g><g
       inkscape:groupmode="layer"
       id="layer7"
       inkscape:label="Clothes top"
       color="clothes-top"
       style="display:inline"
       shake="0"><path
         style="display:inline;opacity:1;fill:#b5b5b5;fill-opacity:1;stroke:#000000;stroke-width:0;stroke-linejoin:round;stroke-dasharray:none;stroke-opacity:1;paint-order:normal"
         d="m 127.43503,108.31997 c -7.05559,0.35842 -14.11024,0.66708 -21.17441,0.56852 -9.449462,-0.15239 -18.904821,-0.29133 -28.347533,0.31883 -0.761103,0.16799 -1.661173,-0.13196 -2.346208,0.34626 -0.120732,1.6578 0.240326,3.35744 0.390414,5.01249 0.369834,2.33773 0.800097,4.7417 1.682842,6.83949 0.556382,0.50754 1.355265,-0.002 2.000171,0.0993 8.696878,-0.741 17.40631,-0.85332 26.120334,-0.82945 6.87707,-0.0761 13.76187,0.11047 20.63297,-0.3273 3.94625,-0.32766 7.89275,-0.6534 11.8361,-1.03651 0.59478,-0.77195 0.73524,-2.07867 1.08954,-3.09638 0.61578,-2.46041 1.25354,-4.99621 1.39996,-7.57265 -0.41314,-0.51676 -1.15155,0.14703 -1.71064,-0.004 -3.86276,0.18659 -7.71159,-0.34571 -11.57354,-0.31898 z"
         id="path26681"
         inkscape:label="top"
         transform="translate(-74.367096,-71.667957)" /></g><g
       inkscape:groupmode="layer"
       id="hair"
       inkscape:label="Hair"
       style="display:inline"
       transform="translate(-74.367096,-71.667957)"
       color="hair"
       shake="0"><path
         style="display:inline;opacity:1;fill:#a3a3a3;fill-opacity:1;stroke:none;stroke-width:2.02211;stroke-linejoin:round;stroke-dasharray:none;stroke-opacity:1;paint-order:normal"
         d="m 80.364232,88.285802 c -1.212628,-0.573083 -2.337106,-2.403117 -2.061506,-3.638028 0.275601,-1.234911 1.951262,-1.874309 2.877218,-2.844321 0.925957,-0.970013 1.102342,-2.270853 1.890986,-2.541895 0.788644,-0.271042 2.189141,0.487767 4.030058,-0.416328 1.840917,-0.904096 4.122465,-3.470855 5.763134,-4.081504 1.640669,-0.610648 2.526907,0.582134 3.904846,0.207146 1.377938,-0.374988 3.191104,-2.393611 4.716792,-2.603651 1.52568,-0.21004 2.76357,1.388192 5.33223,1.432101 2.56866,0.04391 6.468,-1.46613 9.13299,-1.032906 2.665,0.433224 4.09552,2.809371 6.58708,3.944715 2.49156,1.135344 6.04395,1.030201 7.65439,1.934094 1.61044,0.903894 1.27916,2.81653 2.35397,3.928883 1.07482,1.112352 3.58761,1.42861 4.30431,2.666169 0.7167,1.237558 -0.34628,3.398284 -2.12337,4.203032 -1.77709,0.804747 -4.26853,0.253544 -5.70182,-1.102351 -1.43329,-1.355895 -1.80811,-3.516614 -2.97663,-4.420774 -1.16851,-0.90416 -3.13079,-0.551391 -4.69626,-1.234743 -1.56547,-0.683352 -2.73402,-2.403109 -4.45388,-2.745032 -1.71985,-0.341923 -3.99082,0.69434 -5.73261,0.474011 -1.7418,-0.220328 -2.95445,-1.697556 -4.59718,-1.686679 -1.64274,0.01088 -3.71527,1.510154 -5.65542,1.807898 -1.940164,0.297744 -3.748113,-0.606231 -5.049175,-0.198335 -1.301062,0.407896 -2.094796,2.127653 -3.416227,2.475939 -1.321431,0.348286 -3.561213,-0.890934 -5.027639,-0.339715 -1.466426,0.55122 -2.354243,2.784854 -3.44853,4.243359 -1.094288,1.458505 -2.395129,2.141998 -3.607757,1.568915 z"
         id="path31709"
         inkscape:path-effect="#path-effect31711"
         inkscape:original-d="M 80.275893,89.542444 C 79.151679,87.712673 78.0272,85.88264 76.902456,84.05234 c 1.675992,-0.63916 3.351654,-1.278554 5.027083,-1.91823 0.176657,-1.30063 0.353042,-2.60147 0.529167,-3.902604 1.400818,0.759103 2.801315,1.517912 4.201575,2.276473 2.281904,-2.566596 4.563451,-5.133356 6.844779,-7.700431 0.970423,1.367306 1.886013,2.53828 2.828623,3.807023 1.813502,-2.018437 3.626671,-4.037057 5.439597,-6.055981 1.2382,1.598562 2.47608,3.196796 3.71373,4.794797 3.89976,-1.509835 7.7991,-3.019876 11.69826,-4.530214 1.43079,2.37642 2.86131,4.752568 4.29157,7.128457 3.55279,-0.104883 7.10518,-0.210026 10.65738,-0.315436 -0.33103,1.912977 -0.66231,3.825613 -0.99386,5.738024 2.48085,0.31247 4.99364,0.628729 7.49014,0.942705 -1.06275,2.161069 -2.12573,4.321794 -3.18899,6.482292 -2.49128,-0.550964 -4.98272,-1.102167 -7.47448,-1.653646 -0.37457,-2.160543 -0.74938,-4.321263 -1.12448,-6.482292 -1.9621,0.35305 -3.92438,0.705821 -5.88698,1.058333 -1.16833,-1.719561 -2.33688,-3.439318 -3.50572,-5.159374 -2.27079,1.036568 -4.54175,2.072833 -6.81303,3.108854 -1.21243,-1.477024 -2.42508,-2.954251 -3.63802,-4.431771 -2.07234,1.4996 -4.14487,2.998875 -6.2177,4.497916 -1.807756,-0.903747 -3.615707,-1.80772 -5.423957,-2.711979 -0.793501,1.720091 -1.587235,3.439848 -2.38125,5.159375 -1.829808,-1.05809 -4.088998,-2.262232 -6.133893,-3.393744 -0.887587,2.233988 -1.775405,4.467622 -2.663503,6.701036 -1.30063,0.683784 -2.60147,1.367279 -3.902604,2.050521 z"
         inkscape:label="hair"
         sodipodi:nodetypes="ccccccccccccccccccccccccccc" /></g><g
       inkscape:groupmode="layer"
       id="layer11"
       inkscape:label="boots"
       color="skin"
       style="display:inline"
       shake="0"><path
         style="display:inline;opacity:1;fill:#570404;fill-opacity:1;stroke:none;stroke-width:2.02211;stroke-linejoin:round;stroke-dasharray:none;stroke-opacity:1;paint-order:normal"
         d="m 99.388855,131.68744 c -0.480545,0.12738 -1.441718,0.38217 -2.091592,1.28505 -0.649874,0.90288 -0.988159,2.45321 -1.32651,4.00383 0,0 10.122677,-0.0558 10.122677,-0.0558 -0.13992,-1.00405 -0.27978,-2.00774 -0.62775,-2.60928 -0.34797,-0.60154 -0.90415,-0.8003 -1.1824,-0.89973 -0.27824,-0.0994 -4.41388,-1.85146 -4.894425,-1.72407 z"
         id="path34935"
         inkscape:path-effect="#path-effect34937"
         inkscape:original-d="m 99.8694,131.56005 c -0.961,0.25511 -1.922177,0.50989 -2.883595,0.7644 -0.338162,1.55098 -1.015052,4.65187 -1.015052,4.65187 l 10.122677,-0.0558 c 0,0 -0.27963,-2.00776 -0.41975,-3.01214 -0.55604,-0.19847 -1.11223,-0.39722 -1.66864,-0.5963 z"
         sodipodi:nodetypes="ccccccc"
         transform="translate(-74.367096,-71.667957)" /><path
         style="display:inline;opacity:1;fill:#570404;fill-opacity:1;stroke:none;stroke-width:2.02211;stroke-linejoin:round;stroke-dasharray:none;stroke-opacity:1;paint-order:normal"
         d="m 113.56243,133.96598 c -0.2162,0.17669 -0.64858,0.53003 -0.89485,1.11049 -0.24627,0.58046 -0.30638,1.38745 -0.36651,2.19473 0,0 10.12827,-0.11517 10.12827,-0.11517 -0.17181,-1.30545 -0.34357,-2.61055 -1.26286,-3.46114 -0.91929,-0.8506 -2.58622,-1.24604 -3.41983,-1.4438 -0.8336,-0.19775 -3.96801,1.5382 -4.18422,1.71489 z"
         id="path35641"
         inkscape:path-effect="#path-effect35643"
         inkscape:original-d="m 113.77864,133.78929 c -0.43218,0.35366 -0.86456,0.707 -1.29717,1.06007 -0.0599,0.80759 -0.1804,2.42184 -0.1804,2.42184 l 10.12827,-0.11517 c 0,0 -0.34341,-2.61057 -0.51543,-3.91635 -1.66678,-0.39514 -3.33371,-0.79058 -5.00086,-1.18634 z"
         sodipodi:nodetypes="ccccccc"
         transform="translate(-74.367096,-71.667957)" /></g><g
       inkscape:groupmode="layer"
       id="layer9"
       inkscape:label="hands"
       color="skin"
       style="display:inline"
       scale="0"><path
         style="display:inline;opacity:1;fill:#ffcda8;fill-opacity:1;stroke:none;stroke-width:2.02211;stroke-linejoin:round;stroke-dasharray:none;stroke-opacity:1;paint-order:normal"
         d="m 104.08869,121.89666 c -1.13309,0.0767 -2.2664,0.15347 -3.10884,0.688 -0.84244,0.53452 -1.39363,1.52668 -1.184008,2.51897 0.209618,0.9923 1.179718,1.98445 2.458588,2.59068 1.27886,0.60624 2.86629,0.82671 3.85849,0.37306 0.99219,-0.45366 1.38938,-1.58152 1.78664,-2.70957"
         id="path34084"
         inkscape:path-effect="#path-effect34086"
         inkscape:original-d="m 104.08869,121.89666 c -1.13307,0.077 -2.26638,0.15375 -3.4,0.23023 -0.55096,0.99247 -1.102156,1.98462 -1.653645,2.97656 0.970415,0.99248 1.940515,1.98463 2.910415,2.97657 1.5878,0.22076 3.17523,0.44123 4.7625,0.66145 0.39747,-1.12765 0.79466,-2.25551 1.1916,-3.38367"
         sodipodi:nodetypes="cccccc"
         transform="translate(-74.367096,-71.667957)" /><path
         style="display:inline;opacity:1;fill:#ffcda8;fill-opacity:1;stroke:none;stroke-width:2.02211;stroke-linejoin:round;stroke-dasharray:none;stroke-opacity:1;paint-order:normal"
         d="m 111.74986,125.06207 c 0.16969,0.89802 0.33933,1.79572 1.13756,2.24444 0.79824,0.44871 2.22478,0.44871 3.44076,-0.0354 1.21597,-0.48412 2.22148,-1.45227 2.38137,-2.37529 0.15989,-0.92301 -0.52607,-1.80108 -1.29778,-2.26209 -0.77172,-0.461 -1.62916,-0.5046 -2.48691,-0.54822"
         id="path34142"
         inkscape:path-effect="#path-effect34144"
         inkscape:original-d="m 111.74986,125.06207 c 0.1699,0.89798 0.33954,1.79568 0.50891,2.69315 1.42689,2.6e-4 2.85343,2.6e-4 4.2798,0 1.00584,-0.96796 2.01135,-1.93611 3.01665,-2.90458 -0.68574,-0.87786 -1.3717,-1.75593 -2.05797,-2.63432 -0.85721,-0.0433 -1.71465,-0.087 -2.57239,-0.13081"
         sodipodi:nodetypes="cccccc"
         transform="translate(-74.367096,-71.667957)" /></g><g
       inkscape:groupmode="layer"
       id="layer5"
       inkscape:label="right arm"
       color="clothes-top"
       scale="0"
       inkscape:transform-center-x="15"
       inkscape:transform-center-y="4.9"
       style="display:inline"
       transform="translate(-74.367094,-71.667958)"><path
         style="display:inline;opacity:1;fill:#8a8a8a;fill-opacity:1;stroke:none;stroke-width:2.02211;stroke-linejoin:round;stroke-dasharray:none;stroke-opacity:1;paint-order:normal"
         d="m 137.02281,115.48888 c -5.86192,1.2628 -11.72403,2.52565 -16.57799,4.17049 -4.85397,1.64483 -8.69962,3.67164 -12.54526,5.69843 0,0 -3.81087,-3.46114 -3.81087,-3.46114 4.24285,-2.5101 8.48577,-5.02025 13.56956,-6.83658 5.08378,-1.81633 11.00813,-2.93884 16.9324,-4.06133"
         id="path33592"
         inkscape:path-effect="#path-effect33594"
         inkscape:original-d="m 137.02281,115.48888 c -5.86185,1.26311 -11.72396,2.52596 -17.58634,3.78854 -3.84545,2.0271 -11.53691,6.08038 -11.53691,6.08038 l -3.81087,-3.46114 c 0,0 8.48595,-5.01994 12.72854,-7.53031 5.92486,-1.1223 11.84921,-2.24481 17.77342,-3.3676"
         sodipodi:nodetypes="cccccc"
         transform="translate(1.8937232e-6)" /></g><g
       inkscape:groupmode="layer"
       id="layer8"
       inkscape:label="left arm"
       color="clothes-top"
       inkscape:transform-center-x="-17.1"
       inkscape:transform-center-y="4.3"
       scale="0"
       style="display:inline"
       transform="translate(-74.367094,-71.667958)"><path
         id="path33581"
         style="display:inline;opacity:1;fill:#999999;fill-opacity:1;stroke:none;stroke-width:2.02211;stroke-linejoin:round;stroke-dasharray:none;stroke-opacity:1;paint-order:normal"
         class="UnoptimicedTransforms"
         inkscape:path-effect="#path-effect33583"
         inkscape:original-d="m 75.340103,110.52969 c 6.416411,0.70582 12.832556,1.41137 19.248437,2.11666 2.996822,0.67041 5.9932,1.34052 8.98949,2.0104 2.19742,1.53479 6.59134,4.6035 6.59134,4.6035 l 3.175,-2.97656 c 0,0 -5.24946,-4.03883 -7.87467,-6.05871 -4.28834,-1.04472 -8.576759,-2.08966 -12.865534,-3.13488 -5.04897,-0.41867 -10.098001,-0.83758 -15.147396,-1.25677"
         d="m 75.340103,110.52969 c 6.416437,0.70559 12.832581,1.41114 17.538942,2.09901 4.70636,0.68787 7.702735,1.35797 10.299585,2.46038 2.59686,1.10241 4.79363,2.63667 6.99074,4.17117 0,0 3.175,-2.97656 3.175,-2.97656 -2.62489,-2.01957 -5.24943,-4.03887 -8.7062,-5.57124 -3.45676,-1.53238 -7.745184,-2.57731 -12.414069,-3.30929 -4.668885,-0.73197 -9.717916,-1.15088 -14.767331,-1.56983"
         sodipodi:nodetypes="cccccccc"
         transform="translate(1.580497,5.801819)" /></g></g><g
     inkscape:groupmode="layer"
     inkscape:label="open eyes"
     transform="translate(-75.379422,-72.348204)"
     style="display:inline"
     mode="idle"
     id="g13154"><g
       inkscape:groupmode="layer"
       id="layer12"
       inkscape:label="right eye"
       style="display:inline"
       color="eyes"
       inkscape:transform-center-y="-14.4"
       update-origin="false"
       inkscape:transform-center-x="0.3"><g
         inkscape:groupmode="layer"
         id="layer20"
         inkscape:label="iris"
         style="display:inline"
         transform="translate(2e-6)"><path
           style="display:inline;opacity:1;fill:#ffffff;fill-opacity:1;stroke:none;stroke-width:2.0221;stroke-linejoin:round;stroke-dasharray:none;stroke-opacity:1;paint-order:normal"
           d="m 112.03597,89.233142 c -0.23442,-2.495552 0.65065,-5.004804 2.49714,-6.531516 1.84649,-1.526712 4.44736,-2.030596 6.90738,-0.803314 2.46003,1.227282 4.67574,4.205233 4.67558,6.769474 -1.6e-4,2.564241 -2.21587,4.714979 -4.44147,5.98337 -2.2256,1.268392 -4.46121,1.65442 -6.2559,0.606795 -1.79469,-1.047626 -3.14831,-3.529257 -3.38273,-6.024809 z"
           id="path37210"
           inkscape:path-effect="#path-effect37212"
           inkscape:original-d="m 110.91654,89.246638 c 0.88538,-2.508916 1.77046,-5.018167 2.65523,-7.527744 2.81178,-0.523591 5.40877,-1.047489 8.11269,-1.571727 2.2161,2.978398 4.43181,5.956348 6.64725,8.934025 -2.21549,2.151158 -4.43119,4.301898 -6.64725,6.452352 -2.2354,0.386373 -4.47101,0.772407 -6.70699,1.158114 -1.35335,-2.481392 -2.70698,-4.963017 -4.06093,-7.44502 z" /></g><g
         inkscape:groupmode="layer"
         id="layer21"
         inkscape:label="pupil"
         style="display:inline"
         transform="translate(2e-6)"
         go-right="0.1"
         go-left="0.05"><path
           style="display:inline;opacity:1;fill:#000000;fill-opacity:1;stroke:#000000;stroke-width:2.02211;stroke-linejoin:round;stroke-dasharray:none;stroke-opacity:1;paint-order:normal"
           d="m 115.50503,88.231438 c -0.11608,-0.703103 0.23692,-1.639439 0.89617,-2.007705 0.65925,-0.368266 1.6244,-0.168429 2.10684,0.453207 0.48243,0.621635 0.48243,1.664879 0.11588,2.267884 -0.36655,0.603005 -1.09982,0.765989 -1.75888,0.612724 -0.65906,-0.153265 -1.24392,-0.623007 -1.36001,-1.32611 z"
           id="path37326"
           inkscape:path-effect="#path-effect37328"
           inkscape:original-d="m 115.03598,88.464577 c 0.35326,-0.936132 0.70626,-1.872469 1.05901,-2.809012 0.96543,0.200049 1.93058,0.399886 2.89548,0.599519 2.4e-4,1.043491 2.4e-4,2.086735 0,3.129796 -0.73305,0.163196 -1.46631,0.326183 -2.19985,0.488966 -0.58464,-0.469561 -1.1695,-0.939308 -1.75464,-1.409269 z" /></g></g><g
       inkscape:groupmode="layer"
       id="layer1"
       inkscape:label="mouth"
       color="skin"
       shake="0.5"
       style="display:inline"
       scale="0"><path
         style="display:inline;opacity:1;fill:none;fill-opacity:1;stroke:#c19b7f;stroke-width:2.02211;stroke-linejoin:round;stroke-dasharray:none;stroke-opacity:1;paint-order:normal"
         d="m 98.06177,104.37757 c 1.845641,-0.43878 3.69116,-0.87752 5.37795,-0.73483 1.68679,0.1427 3.2146,0.86666 4.66828,0.75326 1.45369,-0.1134 2.83347,-1.06402 4.02852,-1.11571 1.19505,-0.0517 2.20504,0.79535 3.3756,0.93477 1.17057,0.13942 2.50186,-0.42851 3.83313,-0.99642"
         id="path21034"
         inkscape:original-d="m 98.06177,104.37757 c 1.845724,-0.43843 3.69124,-0.87718 5.53658,-1.31625 1.52807,0.72431 3.05588,1.44826 4.58353,2.17192 1.38002,-0.95033 2.7598,-1.90096 4.13941,-2.85191 1.01021,0.84736 2.02019,1.6944 3.03,2.54112 1.33154,-0.56763 2.66284,-1.13555 3.99396,-1.70381"
         inkscape:path-effect="#path-effect21036"
         inkscape:label="mouth"
         transform="translate(1.8937232e-6)" /></g><g
       inkscape:groupmode="layer"
       id="layer2"
       inkscape:label="left eye"
       style="display:inline"
       color="eyes"
       inkscape:transform-center-x="0.65"
       inkscape:transform-center-y="-15.15"
       texture="true"
       update-origin="false"><g
         inkscape:groupmode="layer"
         id="layer19"
         inkscape:label="iris"
         style="display:inline"
         transform="translate(2e-6)"><path
           style="display:inline;opacity:1;fill:#ffffff;fill-opacity:1;stroke:none;stroke-width:2.02211;stroke-linejoin:round;stroke-dasharray:none;stroke-opacity:1;paint-order:normal"
           d="m 89.742836,88.639433 c -0.179365,-2.556332 1.254033,-5.190919 3.499788,-6.55533 2.245754,-1.364411 5.303293,-1.458502 7.453336,-0.314856 2.15004,1.143646 3.39261,3.524469 3.39244,5.894925 -1.7e-4,2.370456 -1.24274,4.73074 -3.21349,6.143442 -1.970758,1.412701 -4.669955,1.877947 -6.915476,0.871908 -2.24552,-1.006039 -4.037233,-3.483757 -4.216598,-6.040089 z"
           id="path37098"
           inkscape:path-effect="#path-effect37100"
           inkscape:original-d="m 88.130139,88.717565 c 1.433793,-2.634213 2.86719,-5.268801 4.300199,-7.903767 3.058052,-0.09371 6.115591,-0.187808 9.172802,-0.282278 1.24301,2.381293 2.48559,4.762111 3.72778,7.142604 -1.24222,2.36075 -2.4848,4.721029 -3.72778,7.080981 -2.698914,0.465642 -5.398111,0.930887 -8.097752,1.395765 -1.791395,-2.477444 -3.583109,-4.955162 -5.375249,-7.433305 z" /></g><g
         inkscape:groupmode="layer"
         id="layer18"
         inkscape:label="pupil"
         style="display:inline"
         transform="translate(2e-6)"
         go-left="0.1"
         go-right="0.05"><path
           style="display:inline;opacity:1;fill:#000000;fill-opacity:1;stroke:#000000;stroke-width:2.02211;stroke-linejoin:round;stroke-dasharray:none;stroke-opacity:1;paint-order:normal"
           d="m 96.563066,89.336077 c 0.326563,-0.687759 1.075328,-1.241672 1.852927,-1.182547 0.7776,0.05913 1.583786,0.731026 1.700957,1.486346 0.11717,0.75532 -0.454392,1.594169 -1.183915,1.945822 -0.729523,0.351653 -1.617254,0.216113 -2.109068,-0.262221 -0.491815,-0.478334 -0.587464,-1.299641 -0.260901,-1.9874 z"
           id="path37214"
           inkscape:path-effect="#path-effect37216"
           inkscape:original-d="m 96.140823,89.202262 c 0.748997,-0.553686 1.497761,-1.1076 2.246299,-1.661744 0.806451,0.672161 1.612637,1.344062 2.418618,2.015751 -0.57135,0.83911 -1.142919,1.677955 -1.714722,2.516588 -0.887535,-0.135317 -1.775266,-0.270855 -2.663242,-0.406628 -0.09542,-0.82111 -0.191071,-1.642416 -0.286953,-2.463967 z" /></g></g></g><g
     inkscape:groupmode="layer"
     inkscape:label="closed eyes"
     style="display:none;stroke:#bb9691;stroke-width:2;stroke-dasharray:none;stroke-opacity:1"
     transform="translate(-3.9122001,-1.7154621)"
     mode="force-fart"
     id="g13166"><g
       inkscape:groupmode="layer"
       id="layer3"
       inkscape:label="left eye 1"
       color="skin"
       shake="0.5"><path
         style="display:inline;fill:none;fill-opacity:1;stroke:#c19b7f;stroke-width:2.022;stroke-linecap:round;stroke-linejoin:round;stroke-dasharray:none;stroke-opacity:1"
         d="m 18.333883,14.83675 3.207905,2.233713 4.754712,0.93269 3.823968,-0.734252 2.838431,-2.45485"
         id="path1902"
         sodipodi:nodetypes="ccccc" /><path
         style="display:inline;fill:none;fill-opacity:1;stroke:#c19b7f;stroke-width:2.022;stroke-linecap:round;stroke-linejoin:round;stroke-dasharray:none;stroke-opacity:1"
         d="m 30.307557,17.268901 3.969557,1.102588"
         id="path1904"
         sodipodi:nodetypes="cc" /><path
         style="display:inline;fill:none;fill-opacity:1;stroke:#c19b7f;stroke-width:2.022;stroke-linecap:round;stroke-linejoin:round;stroke-dasharray:none;stroke-opacity:1"
         d="m 21.728877,17.164008 -3.223956,2.603193"
         id="path1906"
         sodipodi:nodetypes="cc" /></g><g
       inkscape:groupmode="layer"
       id="layer4"
       inkscape:label="right eye 1"
       color="skin"
       shake="0.5"><path
         style="display:inline;fill:none;fill-opacity:1;stroke:#c19b7f;stroke-width:2.022;stroke-linecap:round;stroke-linejoin:round;stroke-dasharray:none;stroke-opacity:1"
         d="m 39.747958,15.321068 2.194789,2.235206 3.657855,1.234401 3.630082,-0.47912 2.591326,-3.061437"
         id="path1902-5"
         sodipodi:nodetypes="ccccc" /><path
         style="display:inline;fill:none;fill-opacity:1;stroke:#c19b7f;stroke-width:2.022;stroke-linecap:round;stroke-linejoin:round;stroke-dasharray:none;stroke-opacity:1"
         d="m 49.264381,18.328154 3.993761,3.164374"
         id="path1904-7"
         sodipodi:nodetypes="cc" /><path
         style="display:inline;fill:none;fill-opacity:1;stroke:#c19b7f;stroke-width:2.022;stroke-linecap:round;stroke-linejoin:round;stroke-dasharray:none;stroke-opacity:1"
         d="M 42.096692,17.665479 39.03866,20.128238"
         id="path1906-9"
         sodipodi:nodetypes="cc" /></g><g
       inkscape:groupmode="layer"
       id="g6939"
       inkscape:label="mouth"
       color="skin"
       shake="1"
       style="display:inline"
       transform="translate(-71.46722,-70.632743)"
       scale="0"><path
         style="display:inline;opacity:1;fill:none;fill-opacity:1;stroke:#c19b7f;stroke-width:2.02211;stroke-linejoin:round;stroke-dasharray:none;stroke-opacity:1;paint-order:normal"
         d="m 98.06177,104.37757 c 1.845641,-0.43878 3.69116,-0.87752 5.37795,-0.73483 1.68679,0.1427 3.2146,0.86666 4.66828,0.75326 1.45369,-0.1134 2.83347,-1.06402 4.02852,-1.11571 1.19505,-0.0517 2.20504,0.79535 3.3756,0.93477 1.17057,0.13942 2.50186,-0.42851 3.83313,-0.99642"
         id="path6937"
         inkscape:original-d="m 98.06177,104.37757 c 1.845724,-0.43843 3.69124,-0.87718 5.53658,-1.31625 1.52807,0.72431 3.05588,1.44826 4.58353,2.17192 1.38002,-0.95033 2.7598,-1.90096 4.13941,-2.85191 1.01021,0.84736 2.02019,1.6944 3.03,2.54112 1.33154,-0.56763 2.66284,-1.13555 3.99396,-1.70381"
         inkscape:path-effect="#path-effect6943"
         inkscape:label="mouth"
         transform="translate(1.8937232e-6)" /></g></g><g
     inkscape:groupmode="layer"
     inkscape:label="cheeks"
     style="display:inline;stroke-width:0.644379"
     transform="matrix(1.4873453,0,0,1.6192185,-17.052075,-10.169866)"
     color="skin"
     mode="cheeks"
     id="g13170"><path
       style="opacity:1;fill:#ffcda8;fill-opacity:1;stroke:#eabc9a;stroke-width:1.94731;stroke-linejoin:round;stroke-dasharray:none;stroke-opacity:1;paint-order:normal"
       d="m 24.866336,19.710731 c -2.735591,-0.599079 -5.471525,-1.198233 -7.676861,-0.510179 -2.205336,0.688055 -3.879597,2.663232 -3.942993,4.939933 -0.0634,2.2767 1.483648,4.854195 3.655332,5.860785 2.171685,1.006591 4.967464,0.44209 7.763029,-0.122368"
       id="path46166"
       inkscape:path-effect="#path-effect46168"
       inkscape:original-d="m 24.866336,19.710731 c -2.735617,-0.59896 -5.471551,-1.198114 -8.2078,-1.797462 -1.674187,1.975516 -3.348448,3.950693 -5.022926,5.925702 1.547531,2.578181 3.094574,5.155676 4.641723,7.733469 2.796205,-0.564388 5.591984,-1.128889 8.38751,-1.693538"
       sodipodi:nodetypes="ccccc" /><path
       style="opacity:1;fill:#ffcda8;fill-opacity:1;stroke:#eabc9a;stroke-width:1.94731;stroke-linejoin:round;stroke-dasharray:none;stroke-opacity:1;paint-order:normal"
       d="m 41.667937,19.274105 c 2.159918,-0.552595 4.319555,-1.105119 6.656191,-0.583702 2.336636,0.521417 4.849602,2.116406 5.178576,4.412372 0.328974,2.295966 -1.525965,5.292631 -3.889857,6.501978 -2.363892,1.209346 -5.23691,0.631274 -8.110308,0.05313"
       id="path46170"
       inkscape:path-effect="#path-effect46172"
       inkscape:original-d="m 41.667937,19.274105 c 2.159977,-0.552366 4.319614,-1.104889 6.479254,-1.657658 2.513553,1.595404 5.02652,3.190392 7.539572,4.785392 -1.854837,2.997056 -3.709776,5.99372 -5.564999,8.990291 -2.872834,-0.577908 -5.745852,-1.15598 -8.619225,-1.734252"
       sodipodi:nodetypes="ccccc" /></g></svg>
