<?xml version="1.0" encoding="UTF-8" standalone="no"?>
<!-- Created with Inkscape (http://www.inkscape.org/) -->

<svg
   inkscape:export-ydpi="96"
   inkscape:export-xdpi="96"
   inkscape:export-filename="..\Projects\getting-farted-on\dev\assets\guy\closed_eyes.png"
   inkscape:version="1.2.2 (732a01da63, 2022-12-09)"
   sodipodi:docname="kuviman.svg"
   xml:space="preserve"
   id="svg5"
   version="1.1"
   viewBox="0 0 65.622687 64.922998"
   height="1298.46"
   width="1312.4537"
   xmlns:inkscape="http://www.inkscape.org/namespaces/inkscape"
   xmlns:sodipodi="http://sodipodi.sourceforge.net/DTD/sodipodi-0.dtd"
   xmlns="http://www.w3.org/2000/svg"
   xmlns:svg="http://www.w3.org/2000/svg"><sodipodi:namedview
     id="namedview7"
     pagecolor="#ffffff"
     bordercolor="#000000"
     borderopacity="0.25"
     inkscape:showpageshadow="2"
     inkscape:pageopacity="0.0"
     inkscape:pagecheckerboard="0"
     inkscape:deskcolor="#d1d1d1"
     inkscape:document-units="mm"
     showgrid="false"
     showguides="true"
     inkscape:lockguides="false"
     inkscape:zoom="0.25"
     inkscape:cx="-590"
     inkscape:cy="524"
     inkscape:window-width="2560"
     inkscape:window-height="1369"
     inkscape:window-x="-8"
     inkscape:window-y="-8"
     inkscape:window-maximized="1"
     inkscape:current-layer="layer42" /><defs
     id="defs2"><inkscape:path-effect
       effect="fillet_chamfer"
       id="path-effect23775"
       is_visible="true"
       lpeversion="1"
       nodesatellites_param="F,0,0,1,0,2.1166667,0,1 @ F,0,0,1,0,2.1166667,0,1 @ F,0,0,1,0,2.1166667,0,1 @ F,0,0,1,0,2.1166667,0,1 @ F,0,0,1,0,2.1166667,0,1 @ F,0,0,1,0,2.1166667,0,1 @ F,0,0,1,0,2.1166667,0,1 @ F,0,0,1,0,2.1166667,0,1 @ F,0,0,1,0,2.1166667,0,1 @ F,0,0,1,0,2.1166667,0,1"
       unit="px"
       method="auto"
       mode="F"
       radius="8"
       chamfer_steps="1"
       flexible="false"
       use_knot_distance="true"
       apply_no_radius="true"
       apply_with_radius="true"
       only_selected="false"
       hide_knots="false" /><inkscape:path-effect
       effect="bspline"
       id="path-effect6943"
       is_visible="true"
       lpeversion="1"
       weight="33.333333"
       steps="2"
       helper_size="0"
       apply_no_weight="true"
       apply_with_weight="true"
       only_selected="false" /><inkscape:path-effect
       effect="bspline"
       id="path-effect1482"
       is_visible="true"
       lpeversion="1"
       weight="33.333333"
       steps="2"
       helper_size="0"
       apply_no_weight="true"
       apply_with_weight="true"
       only_selected="false" /><inkscape:path-effect
       effect="bspline"
       id="path-effect105595"
       is_visible="true"
       lpeversion="1"
       weight="33.333333"
       steps="2"
       helper_size="0"
       apply_no_weight="true"
       apply_with_weight="true"
       only_selected="false" /><inkscape:path-effect
       effect="bspline"
       id="path-effect105345"
       is_visible="true"
       lpeversion="1"
       weight="33.333333"
       steps="2"
       helper_size="0"
       apply_no_weight="true"
       apply_with_weight="true"
       only_selected="false" /><inkscape:path-effect
       effect="bspline"
       id="path-effect46172"
       is_visible="true"
       lpeversion="1"
       weight="33.333333"
       steps="2"
       helper_size="0"
       apply_no_weight="true"
       apply_with_weight="true"
       only_selected="false" /><inkscape:path-effect
       effect="bspline"
       id="path-effect46168"
       is_visible="true"
       lpeversion="1"
       weight="33.333333"
       steps="2"
       helper_size="0"
       apply_no_weight="true"
       apply_with_weight="true"
       only_selected="false" /><inkscape:path-effect
       effect="bspline"
       id="path-effect43935"
       is_visible="true"
       lpeversion="1"
       weight="33.333333"
       steps="2"
       helper_size="0"
       apply_no_weight="true"
       apply_with_weight="true"
       only_selected="false" /><inkscape:path-effect
       effect="bspline"
       id="path-effect43205"
       is_visible="true"
       lpeversion="1"
       weight="33.333333"
       steps="2"
       helper_size="0"
       apply_no_weight="true"
       apply_with_weight="true"
       only_selected="false" /><inkscape:path-effect
       effect="bspline"
       id="path-effect43201"
       is_visible="true"
       lpeversion="1"
       weight="33.333333"
       steps="2"
       helper_size="0"
       apply_no_weight="true"
       apply_with_weight="true"
       only_selected="false" /><inkscape:path-effect
       effect="bspline"
       id="path-effect43197"
       is_visible="true"
       lpeversion="1"
       weight="33.333333"
       steps="2"
       helper_size="0"
       apply_no_weight="true"
       apply_with_weight="true"
       only_selected="false" /><inkscape:path-effect
       effect="bspline"
       id="path-effect37328"
       is_visible="true"
       lpeversion="1"
       weight="33.333333"
       steps="2"
       helper_size="0"
       apply_no_weight="true"
       apply_with_weight="true"
       only_selected="false" /><inkscape:path-effect
       effect="bspline"
       id="path-effect37216"
       is_visible="true"
       lpeversion="1"
       weight="33.333333"
       steps="2"
       helper_size="0"
       apply_no_weight="true"
       apply_with_weight="true"
       only_selected="false" /><inkscape:path-effect
       effect="bspline"
       id="path-effect37212"
       is_visible="true"
       lpeversion="1"
       weight="33.333333"
       steps="2"
       helper_size="0"
       apply_no_weight="true"
       apply_with_weight="true"
       only_selected="false" /><inkscape:path-effect
       effect="bspline"
       id="path-effect37100"
       is_visible="true"
       lpeversion="1"
       weight="33.333333"
       steps="2"
       helper_size="0"
       apply_no_weight="true"
       apply_with_weight="true"
       only_selected="false" /><inkscape:path-effect
       effect="bspline"
       id="path-effect35643"
       is_visible="true"
       lpeversion="1"
       weight="33.333333"
       steps="2"
       helper_size="0"
       apply_no_weight="true"
       apply_with_weight="true"
       only_selected="false" /><inkscape:path-effect
       effect="bspline"
       id="path-effect34937"
       is_visible="true"
       lpeversion="1"
       weight="33.333333"
       steps="2"
       helper_size="0"
       apply_no_weight="true"
       apply_with_weight="true"
       only_selected="false" /><inkscape:path-effect
       effect="bspline"
       id="path-effect34933"
       is_visible="true"
       lpeversion="1"
       weight="33.333333"
       steps="2"
       helper_size="0"
       apply_no_weight="true"
       apply_with_weight="true"
       only_selected="false" /><inkscape:path-effect
       effect="bspline"
       id="path-effect34875"
       is_visible="true"
       lpeversion="1"
       weight="33.333333"
       steps="2"
       helper_size="0"
       apply_no_weight="true"
       apply_with_weight="true"
       only_selected="false" /><inkscape:path-effect
       effect="bspline"
       id="path-effect34144"
       is_visible="true"
       lpeversion="1"
       weight="33.333333"
       steps="2"
       helper_size="0"
       apply_no_weight="true"
       apply_with_weight="true"
       only_selected="false" /><inkscape:path-effect
       effect="bspline"
       id="path-effect34086"
       is_visible="true"
       lpeversion="1"
       weight="33.333333"
       steps="2"
       helper_size="0"
       apply_no_weight="true"
       apply_with_weight="true"
       only_selected="false" /><inkscape:path-effect
       effect="bspline"
       id="path-effect33594"
       is_visible="true"
       lpeversion="1"
       weight="33.333333"
       steps="2"
       helper_size="0"
       apply_no_weight="true"
       apply_with_weight="true"
       only_selected="false" /><inkscape:path-effect
       effect="bspline"
       id="path-effect33583"
       is_visible="true"
       lpeversion="1"
       weight="33.333333"
       steps="2"
       helper_size="0"
       apply_no_weight="true"
       apply_with_weight="true"
       only_selected="false" /><inkscape:path-effect
       effect="bspline"
       id="path-effect33579"
       is_visible="true"
       lpeversion="1"
       weight="33.333333"
       steps="2"
       helper_size="0"
       apply_no_weight="true"
       apply_with_weight="true"
       only_selected="false" /><inkscape:path-effect
       effect="bspline"
       id="path-effect33575"
       is_visible="true"
       lpeversion="1"
       weight="33.333333"
       steps="2"
       helper_size="0"
       apply_no_weight="true"
       apply_with_weight="true"
       only_selected="false" /><inkscape:path-effect
       effect="bspline"
       id="path-effect31711"
       is_visible="true"
       lpeversion="1"
       weight="33.333333"
       steps="2"
       helper_size="0"
       apply_no_weight="true"
       apply_with_weight="true"
       only_selected="false" /><inkscape:path-effect
       effect="bspline"
       id="path-effect21040"
       is_visible="true"
       lpeversion="1"
       weight="33.333333"
       steps="2"
       helper_size="0"
       apply_no_weight="true"
       apply_with_weight="true"
       only_selected="false" /><inkscape:path-effect
       effect="bspline"
       id="path-effect21036"
       is_visible="true"
       lpeversion="1"
       weight="33.333333"
       steps="2"
       helper_size="0"
       apply_no_weight="true"
       apply_with_weight="true"
       only_selected="false" /><inkscape:path-effect
       effect="bspline"
       id="path-effect21032"
       is_visible="true"
       lpeversion="1"
       weight="33.333333"
       steps="2"
       helper_size="0"
       apply_no_weight="true"
       apply_with_weight="true"
       only_selected="false" /><inkscape:path-effect
       effect="bspline"
       id="path-effect21028"
       is_visible="true"
       lpeversion="1"
       weight="33.333333"
       steps="2"
       helper_size="0"
       apply_no_weight="true"
       apply_with_weight="true"
       only_selected="false" /><inkscape:path-effect
       effect="bspline"
       id="path-effect21024"
       is_visible="true"
       lpeversion="1"
       weight="33.333333"
       steps="2"
       helper_size="0"
       apply_no_weight="true"
       apply_with_weight="true"
       only_selected="false" /><inkscape:path-effect
       effect="bspline"
       id="path-effect21004"
       is_visible="true"
       lpeversion="1"
       weight="33.333333"
       steps="2"
       helper_size="0"
       apply_no_weight="true"
       apply_with_weight="true"
       only_selected="false" /><inkscape:path-effect
       effect="fill_between_many"
       method="originald"
       linkedpaths="#path21022,0,1|#path21026,0,1"
       id="path-effect26602"
       is_visible="true"
       lpeversion="0"
       join="true"
       close="true"
       autoreverse="true" /><inkscape:path-effect
       effect="bspline"
       id="path-effect43935-4"
       is_visible="true"
       lpeversion="1"
       weight="33.333333"
       steps="2"
       helper_size="0"
       apply_no_weight="true"
       apply_with_weight="true"
       only_selected="false" /><inkscape:path-effect
       effect="bspline"
       id="path-effect43205-8"
       is_visible="true"
       lpeversion="1"
       weight="33.333333"
       steps="2"
       helper_size="0"
       apply_no_weight="true"
       apply_with_weight="true"
       only_selected="false" /><inkscape:path-effect
       effect="bspline"
       id="path-effect43201-5"
       is_visible="true"
       lpeversion="1"
       weight="33.333333"
       steps="2"
       helper_size="0"
       apply_no_weight="true"
       apply_with_weight="true"
       only_selected="false" /></defs><g
     inkscape:groupmode="layer"
     id="layer12"
     inkscape:label="kuviman"><g
       inkscape:groupmode="layer"
       id="layer42"
       inkscape:label="growl"
       style="display:none"
       mode="growl"><path
         style="opacity:1;fill:#cccccc;fill-opacity:1;stroke:none;stroke-width:1.5001;stroke-linecap:square;stroke-dasharray:none;stroke-opacity:1"
         d="m 3.6769553,42.002143 c -1.461344,0.235765 -2.77118021,2.057689 -2.68700588,3.535534 0.0872141,1.531214 2.98701468,1.802149 3.18198038,3.323402 0.1783984,1.391984 -2.6211536,2.3948 -2.0506095,3.676956 0.6880775,1.546284 3.2619213,1.006123 4.9497476,1.131368 18.1289291,1.345248 37.6755741,3.007659 54.3765111,-4.171928 1.226471,-0.527249 2.67922,-1.384026 2.96985,-2.687006 0.239195,-1.072384 -1.337586,-1.943734 -1.272793,-3.040559 0.07344,-1.243269 1.969491,-2.014166 1.838478,-3.252692 -0.145783,-1.378153 -1.373503,-3.044174 -2.75772,-3.111269 -17.778582,-0.861745 -40.985827,1.762744 -58.5484387,4.596194 z"
         id="path57810"
         sodipodi:nodetypes="saaaaaaaass" /><path
         style="opacity:1;fill:#103d88;fill-opacity:1;stroke:none;stroke-width:1.5001;stroke-linecap:square;stroke-dasharray:none;stroke-opacity:1"
         d="m 6.9296466,52.467322 c -1.2636702,0.657711 -2.9665314,1.92651 -2.6870059,3.323404 0.3207517,1.602916 3.1999359,1.13657 4.3133512,2.333453 0.8981666,0.965498 0.5087803,2.90629 1.6263461,3.606245 2.138233,1.339221 5.044375,-0.129977 7.566042,-0.212132 10.160374,-0.331021 20.314864,-1.42791 30.476303,-1.131375 2.224787,0.06493 4.672483,1.663994 6.646804,0.636401 1.441881,-0.75047 1.07784,-3.302915 2.404164,-4.242644 1.524082,-1.079844 4.478831,0.563866 5.515431,-0.989951 1.339353,-2.007628 0.376274,-5.624632 -1.555636,-7.071064 C 46.710438,37.844702 23.025042,44.090044 6.9296466,52.467322 Z"
         id="path57813"
         sodipodi:nodetypes="aaaaaaaaaaa" /></g><g
       inkscape:groupmode="layer"
       id="layer24"
       inkscape:label="clothes"><g
         inkscape:groupmode="layer"
         id="layer23"
         inkscape:label="body"
         shake="0"><path
           style="opacity:1;fill:#cccccc;fill-opacity:1;stroke:none;stroke-width:1.00007;stroke-linecap:square;stroke-opacity:1"
           d="M 19.7,13.4 C 13.709841,15.683078 7.4383851,19.871364 5,25.8 1.1061283,35.267474 1.7124368,47.730964 7.75,56.3875 19.366242,65.545637 50.967161,58.504263 59.1,54.2 64.709449,45.433354 64.926024,32.448658 60.3,23.2 57.545246,17.69251 51.003542,14.451942 45.1,12.7 36.980123,10.290336 27.614511,10.383478 19.7,13.4 Z"
           id="path29885"
           sodipodi:nodetypes="aaccaaa" /><path
           id="path36758"
           style="opacity:1;fill:#103d88;fill-opacity:1;stroke:none;stroke-width:1.00007;stroke-linecap:square;stroke-opacity:1"
           d="M 61.747168 48.908594 C 55.944746 52.305068 43.550197 58.662461 31.607715 58.972656 C 20.158237 59.270046 10.585646 55.53755 5.8837891 53.278418 C 6.552143 54.695921 7.324236 56.044347 8.2 57.3 C 10.852264 61.102763 16.170897 62.408668 20.7 63.4 C 27.76792 64.947029 35.384204 64.668445 42.4 62.9 C 48.456784 61.37329 55.733455 59.661355 59.1 54.4 C 60.180239 52.711764 61.061357 50.861744 61.747168 48.908594 z " /><path
           style="opacity:1;fill:#175ac9;fill-opacity:1;stroke:none;stroke-width:1.00007;stroke-linecap:square;stroke-opacity:1"
           d="M 47.234733,60.033365 C 37.264527,55.43717 29.415642,62.43753 29.415642,62.43753 l -2.828427,-1.414212 c 2.480251,-3.477492 15.263181,-12.166533 22.556707,-4.171933 z"
           id="path39733"
           sodipodi:nodetypes="ccccc" /><path
           style="opacity:1;fill:#1350b1;fill-opacity:1;stroke:none;stroke-width:1.00007;stroke-linecap:square;stroke-opacity:1"
           d="m 19.445437,61.023318 c 8.809822,-2.782141 13.225319,-3.36397 18.455487,0.636392 l 1.909188,-2.474873 C 34.106117,53.480843 25.479415,54.400081 16.758431,58.689863 Z"
           id="path40491"
           sodipodi:nodetypes="ccccc" /><path
           style="opacity:1;fill:#d9dbde;fill-opacity:1;stroke:none;stroke-width:1.00007;stroke-linecap:square;stroke-opacity:1"
           d="m 36.910974,63.003215 c 0,0 -0.707107,-2.404165 1.414213,-3.676955 2.121321,-1.272795 4.384062,1.27279 4.384062,1.27279 z"
           id="path40549" /><path
           style="opacity:1;fill:#d9dbde;fill-opacity:1;stroke:none;stroke-width:1.00007;stroke-linecap:square;stroke-opacity:1"
           d="m 24.183052,61.801135 c 0,0 1.979899,-2.89914 4.949747,-1.343505 2.969849,1.555635 1.060661,3.39411 1.060661,3.39411 z"
           id="path41415" /></g><g
         inkscape:groupmode="layer"
         id="layer25"
         inkscape:label="hands"
         style="display:inline"><path
           style="opacity:1;fill:#d8b1b5;fill-opacity:1;stroke:none;stroke-width:1.00007;stroke-linecap:square;stroke-opacity:1"
           d="m 56.08816,48.921563 c -6.970543,4.426219 -14.076437,5.365416 -22.297748,5.201007 l 0.136554,-2.898508 c 7.567179,0.181332 14.10817,-1.378864 20.945048,-4.609226 z"
           id="path33450"
           sodipodi:nodetypes="ccccc" /><path
           style="opacity:1;fill:#909090;fill-opacity:1;stroke:none;stroke-width:1.00007;stroke-linecap:square;stroke-opacity:1"
           d="m 56.008625,51.122398 -4.260813,-5.565562 c 0,0 5.748159,-2.954932 7.206735,-1.016348 1.445161,1.920752 -2.945922,6.58191 -2.945922,6.58191 z"
           id="path33452"
           sodipodi:nodetypes="ccac" /><path
           style="opacity:1;fill:#d8b1b5;fill-opacity:1;stroke:none;stroke-width:1.00007;stroke-linecap:square;stroke-opacity:1"
           d="m 33.483726,49.281503 c 1.158041,0.238154 1.956785,1.701767 2.072427,2.878375 0.12479,1.269727 -0.417851,2.975814 -1.58892,3.482145 -1.261506,0.545431 -2.964274,-0.320773 -3.905253,-1.3225 -0.606399,-0.645543 -1.024218,-1.743427 -0.69337,-2.565002 0.597805,-1.484499 2.547573,-2.795388 4.115116,-2.473018 z"
           id="path33454"
           sodipodi:nodetypes="aaaaaa" /><path
           style="opacity:1;fill:#eac0c4;fill-opacity:1;stroke:none;stroke-width:1.00007;stroke-linecap:square;stroke-opacity:1"
           d="m 10.434659,51.640395 c 7.392612,3.6782 14.557625,3.874182 22.717382,2.856662 L 32.71514,51.628413 c -7.507407,0.966403 -14.175079,0.0941 -21.31053,-2.408595 z"
           id="path33239"
           sodipodi:nodetypes="ccccc" /><path
           style="opacity:1;fill:#909090;fill-opacity:1;stroke:none;stroke-width:1.00007;stroke-linecap:square;stroke-opacity:1"
           d="m 10.742377,53.821062 3.659633,-5.97805 c 0,0 -6.0240099,-2.34185 -7.273323,-0.262241 -1.2378215,2.060479 3.61369,6.240291 3.61369,6.240291 z"
           id="path33183"
           sodipodi:nodetypes="ccac" /><path
           style="opacity:1;fill:#eac0c4;fill-opacity:1;stroke:none;stroke-width:1.00007;stroke-linecap:square;stroke-opacity:1"
           d="m 32.954197,49.65032 c -1.127038,0.357159 -1.769427,1.895826 -1.762221,3.078081 0.0078,1.27582 0.724707,2.91631 1.942037,3.298256 1.311338,0.411441 2.914917,-0.626955 3.746749,-1.721008 0.536061,-0.705042 0.837576,-1.840389 0.423177,-2.623152 -0.748777,-1.41437 -2.824167,-2.515633 -4.349742,-2.032177 z"
           id="path33448"
           sodipodi:nodetypes="aaaaaa" /></g></g><g
       inkscape:groupmode="layer"
       id="layer13"
       inkscape:label="face 1"
       transform="matrix(1,0,0,0.84973321,0,0.04659085)"
       shake="0.5"><g
         inkscape:groupmode="layer"
         id="layer32"
         inkscape:label="skin"><path
           style="fill:#bb8a8e;fill-opacity:1;stroke-width:1.18807;stroke-linecap:square"
           d="m 58.691715,27.948096 c 0.954995,-1.050702 1.885983,-2.511895 3.188992,-2.695164 1.060993,-0.149229 2.35582,0.390291 2.969061,1.411753 0.547288,0.911606 0.592599,2.376802 0.109965,3.33687 -1.103323,2.194755 -3.670908,3.834123 -5.828157,3.46521 -1.103043,-0.188632 -2.350761,-1.396505 -2.419235,-2.695164 -0.064,-1.21375 1.22121,-1.989361 1.979374,-2.823505 z"
           id="path11143"
           sodipodi:nodetypes="aaaaaaa" /><path
           style="fill:#bb8a8e;fill-opacity:1;stroke-width:1.15097;stroke-linecap:square"
           d="m 6.7292893,30.521553 c -0.6133127,-1.14322 -1.7416067,-1.946742 -2.8,-1.986803 -1.0286033,-0.03893 -2.3250844,0.512758 -2.8,1.721896 -0.43756658,1.114047 4.8e-6,2.641735 0.5,3.708701 0.5027687,1.072884 1.4629484,1.64729 2.3,2.251711 1.1577979,0.836025 2.6769931,2.95646 3.7,1.85435 1.4922567,-1.607645 0.214188,-5.472998 -0.9,-7.549855 z"
           id="path11145"
           sodipodi:nodetypes="aaaaaaa" /><path
           style="fill:#eac0c4;fill-opacity:1;stroke-width:1.12736;stroke-linecap:square"
           d="m 4.2102116,35.186967 c -0.8916929,4.528823 -0.593351,13.928939 -0.593351,13.928939 0,0 10.1317384,1.524809 15.2283094,1.664949 8.123719,0.223378 16.299206,-0.03762 24.352115,-1.316805 6.839421,-1.086424 20.194318,-5.3748 20.194318,-5.3748 0,0 -0.03478,-12.016902 -1.96825,-17.411724 C 59.486579,21.273489 56.322977,16.112549 52.185703,12.842621 46.615022,8.4397892 39.537817,6.2843611 32.827597,6.3403752 25.593451,6.4007629 17.341149,8.3142611 12.044629,13.698008 6.8412398,18.987091 5.7052728,27.593694 4.2102116,35.186967 Z"
           id="path10695"
           sodipodi:nodetypes="acaacaaaaa" /><path
           style="opacity:1;fill:none;fill-opacity:1;stroke:#bb8a8e;stroke-width:1.50010496;stroke-linecap:square;stroke-opacity:1;stroke-dasharray:none"
           d="m 30.725305,37.932935 c 0,0 1.31163,1.359152 2.119239,1.383924 0.957119,0.02936 2.580761,-1.483924 2.580761,-1.483924"
           id="path15223"
           sodipodi:nodetypes="cac" /></g><g
         inkscape:groupmode="layer"
         id="layer17"
         inkscape:label="hair"
         style="stroke:#382122;stroke-opacity:1"><path
           id="path43773"
           style="opacity:1;fill:#3b3b3b;fill-opacity:1;stroke:none;stroke-width:1.08489;stroke-linecap:square;stroke-opacity:1"
           d="m 62.791113,32.491806 c -0.948757,-0.173565 -2.131369,0.679199 -2.474902,1.734344 -0.288167,0.88509 0.809997,1.773199 0.718457,2.714893 -0.05261,0.541201 -0.507908,0.915513 -0.70166,1.410226 -0.242782,0.619905 -0.180644,1.429163 -0.570508,1.934545 -0.644141,0.835004 -1.798711,0.816655 -2.6125,1.412209 -0.638144,0.467011 -1.097545,1.233771 -1.75,1.672542 -1.327835,0.89296 -2.782612,1.658345 -4.3,1.882944 -1.563191,0.231378 -3.153196,-0.940726 -4.7,-0.58842 -1.18584,0.270091 -2.013273,1.735987 -3.2,2.000628 -1.15373,0.257283 -2.354661,-0.775552 -3.5,-0.470736 -0.920162,0.244888 -1.49316,1.459189 -2.4,1.76526 -1.249623,0.421764 -2.610745,-0.196296 -3.9,0 -1.298966,0.197775 -2.49069,1.135012 -3.8,1.17684 -1.156678,0.03695 -2.244442,-0.753434 -3.4,-0.823788 -1.003645,-0.06111 -2.005627,0.524494 -3,0.353052 -1.212706,-0.209085 -2.176637,-1.559471 -3.4,-1.647576 -1.380249,-0.0994 -2.617424,1.26323 -4,1.294524 -1.608705,0.03641 -3.108287,-1.017686 -4.7,-1.294524 C 10.191349,46.860732 9.1496528,47.344665 8.35,46.812822 7.6617401,46.355066 7.5636838,45.170319 7,44.517984 6.5430685,43.98919 5.7062159,43.924757 5.4011719,43.2615 4.9781421,42.341707 5.5595614,41.146859 5.3740234,40.124026 5.1220618,38.735014 5.0963668,36.578811 3.9292969,36.21701 2.9431645,35.911301 1.8384092,37.256375 1.4849609,38.382096 1.0490303,39.770521 2.2517538,41.238702 2.3,42.717786 c 0.031884,0.977465 -0.4762302,1.938529 -0.3503906,2.905439 0.1026396,0.788649 0.6082181,1.427211 0.8753906,2.16049 0.239082,0.656182 0.2173547,1.500126 0.65,2.000627 0.7143781,0.82642 1.97766,0.577464 2.825,1.206261 0.6031273,0.447571 0.8559766,1.475054 1.525,1.76526 1.2150067,0.527041 2.584542,-0.44997 3.875,-0.323631 0.991006,0.09702 1.914315,0.66894 2.9,0.823788 1.156881,0.181743 2.338328,-0.01514 3.5,0.117684 1.210851,0.138451 2.384568,0.767543 3.6,0.706104 1.340818,-0.06778 2.560367,-1.081996 3.9,-1.17684 1.275279,-0.09029 2.524139,0.666489 3.8,0.58842 1.574438,-0.09634 3.02371,-1.259898 4.6,-1.294524 1.359502,-0.02986 2.65024,1.134978 4,0.941472 1.243361,-0.178253 2.162999,-1.651383 3.4,-1.882943 1.327026,-0.248412 2.676971,0.864785 4,0.588419 1.218337,-0.254497 2.083173,-1.736316 3.3,-2.000627 1.18733,-0.257903 2.445447,0.886455 3.6,0.470736 0.836674,-0.301261 1.193763,-1.600611 2,-2.000628 0.987196,-0.4898 2.194169,0.08108 3.2,-0.353052 1.106915,-0.477757 1.846522,-1.760093 2.9,-2.383101 0.965405,-0.570923 2.285836,-0.337803 3.075,-1.206261 0.545942,-0.600797 0.727378,-1.574232 0.85,-2.441943 0.176036,-1.245685 -0.322277,-2.528523 -0.19043,-3.781748 0.104214,-0.990563 0.942119,-1.879449 0.76543,-2.855676 -0.220766,-1.219759 -1.061743,-2.608142 -2.108887,-2.799706 z"
           sodipodi:nodetypes="aaaaaaaaaaaaaaaaaaaaaaaaaaaaaaaaaaaaaaaaaaaaaaaaaaa" /><path
           style="opacity:1;fill:#3b3b3b;fill-opacity:1;stroke:none;stroke-width:1.58579;stroke-linecap:square;stroke-opacity:1"
           d="m 27.401282,42.279748 c -0.176289,-1.319673 1.501164,-1.669009 2.391444,-1.913596 0.942356,-0.258895 1.895558,0.650501 2.851337,0.546742 1.016463,-0.110347 1.924371,-1.19838 2.943318,-1.230172 0.709823,-0.02214 1.368192,0.598628 2.072787,0.728321 0.730771,0.134508 1.888954,-0.938716 2.208841,0.0469 0.29795,0.918027 -0.629098,2.012568 -1.257832,2.4198 -0.889017,0.575819 -1.930446,-0.504509 -2.897327,-0.39297 -0.941543,0.108622 -1.803763,0.991065 -2.747861,1.025141 -0.898653,0.03244 -1.755521,-0.58671 -2.644385,-0.785942 -0.967583,-0.216875 -2.729788,0.982087 -2.920322,-0.444228 z"
           id="path46948"
           sodipodi:nodetypes="aaaaaaaaaaa" /></g><g
         inkscape:groupmode="layer"
         id="layer22"
         inkscape:label="hat"><path
           style="opacity:1;fill:#404040;fill-opacity:1;stroke:none;stroke-width:1.00007;stroke-linecap:square;stroke-opacity:1"
           d="m 20.401072,20.345794 c 0,0 7.33932,-2.137781 11.101576,-2.757717 4.2007,-0.692182 12.727922,-1.06066 12.727922,-1.06066 l 0.07071,3.889088 c 0,0 -8.276953,2.197632 -12.51579,2.687005 -3.817243,0.4407 -11.525841,0.212132 -11.525841,0.212132 z"
           id="path24143"
           sodipodi:nodetypes="caccacc" /><path
           style="opacity:1;fill:#3d3d3d;fill-opacity:1;stroke:none;stroke-width:1.00007;stroke-linecap:square;stroke-opacity:1"
           d="m 58.301997,23.207862 c 0,0 8.738228,-4.781715 5.727565,-5.656855 -6.922434,-2.012213 -11.186238,0.178256 -15.202798,0.707108 z"
           id="path24194"
           sodipodi:nodetypes="cscc" /><path
           style="opacity:1;fill:#2f2f2f;fill-opacity:1;stroke:none;stroke-width:1.00007;stroke-linecap:square;stroke-opacity:1"
           d="M 8.2095679,28.721353 20.57176,26.819476 a 2.2691532,2.2691532 128.2451 0 0 1.916273,-2.431209 L 21.991065,18.42464 a 2.1399079,2.1399079 129.92352 0 1 1.93153,-2.308158 l 14.52371,-1.370161 a 2.6380257,2.6380257 33.353122 0 1 2.758038,1.815355 l 1.668392,5.164072 a 2.8943901,2.8943901 35.91756 0 0 2.767373,2.004537 l 11.323057,-0.05147 a 1.8488005,1.8488005 130.87512 0 0 1.822453,-2.105743 L 56.545577,5.6127743 A 5.3095728,5.3095728 60.27593 0 0 54.595812,2.1978057 L 53.735028,1.5120968 A 5.5180202,5.5180202 17.554782 0 0 49.966584,0.31994824 L 14.099371,2.4707157 a 6.961599,6.961599 159.65655 0 0 -3.797624,1.408059 L 8.6507951,5.1344288 A 4.478134,4.478134 117.44615 0 0 6.8867233,8.53097 L 6.1968337,26.928027 a 1.7481441,1.7481441 41.70071 0 0 2.0127342,1.793326 z"
           id="path22543"
           inkscape:path-effect="#path-effect23775"
           inkscape:original-d="M 6.1175145,29.043207 22.663813,26.497622 21.815285,16.315285 40.553615,14.547518 43.523463,23.739906 59.07981,23.669195 56.251385,3.516652 52.079455,0.19325049 11.9865,2.5974135 6.9660425,6.41579 Z" /></g></g><g
       inkscape:groupmode="layer"
       id="layer16"
       inkscape:label="idle"
       transform="matrix(1.4642291,0,0,1.2442041,-13.413262,-12.728739)"
       mode="idle"
       style="display:inline"><g
         inkscape:groupmode="layer"
         id="layer26"
         inkscape:label="left"
         transform="matrix(0.99433171,-0.12512445,0.09034568,0.99433171,-0.19293899,1.6603955)"
         update-origin="true"><g
           inkscape:groupmode="layer"
           id="layer30"
           inkscape:label="back"><path
             style="opacity:1;fill:none;fill-opacity:1;stroke:#bb8a8e;stroke-width:1.09874;stroke-linecap:square;stroke-dasharray:none;stroke-opacity:1"
             d="m 18.036283,30.028597 8.587204,1.323624"
             id="path47830"
             sodipodi:nodetypes="cc" /><path
             style="opacity:1;fill:none;fill-opacity:1;stroke:#bb8a8e;stroke-width:1.1114;stroke-linecap:square;stroke-dasharray:none;stroke-opacity:1"
             d="m 17.352389,35.493876 7.05689,0.373619"
             id="path47832" /></g><g
           inkscape:groupmode="layer"
           id="layer29"
           inkscape:label="eye 1"
           color="eyes"
           scale="2"><g
             inkscape:groupmode="layer"
             id="layer36"
             inkscape:label="white 1"><path
               style="opacity:1;fill:#ffffff;fill-opacity:1;stroke:none;stroke-width:1.00007;stroke-linecap:square;stroke-opacity:1"
               d="m 20.8,31 c -1.020553,0.263786 -2.266667,0.8 -2.6,1.8 -0.233333,0.7 0.152908,1.604889 0.7,2.1 0.785458,0.710829 2.071035,0.9519 3.1,0.7 1.102729,-0.269958 2.316617,-1.100644 2.6,-2.2 0.186978,-0.725362 -0.205148,-1.644739 -0.8,-2.1 -0.798078,-0.610796 -2.02699,-0.551498 -3,-0.3 z"
               id="path12900"
               sodipodi:nodetypes="aaaaaaa" /></g><g
             inkscape:groupmode="layer"
             id="layer35"
             inkscape:label="pupil 1"
             go-left="0.1"
             go-right="0.05"><circle
               style="opacity:1;fill:#030303;fill-opacity:1;stroke:none;stroke-width:1.47629;stroke-linecap:square;stroke-opacity:1"
               id="path16065"
               cx="22.487038"
               cy="33.109074"
               r="1.0960155"
               inkscape:label="path16065" /></g></g></g><g
         inkscape:groupmode="layer"
         id="layer27"
         inkscape:label="right"
         transform="matrix(0.97851924,0.24261205,-0.1751772,0.97851924,0.92969744,-10.302769)"
         update-origin="true"><g
           inkscape:groupmode="layer"
           id="layer31"
           inkscape:label="back 1"><path
             style="opacity:1;fill:none;fill-opacity:1;stroke:#bb8a8e;stroke-width:1.1114;stroke-linecap:square;stroke-dasharray:none;stroke-opacity:1"
             d="m 40.028711,30.225599 8.20732,-2.673782"
             id="path47687" /><path
             style="opacity:1;fill:none;fill-opacity:1;stroke:#bb8a8e;stroke-width:1.1114;stroke-linecap:square;stroke-dasharray:none;stroke-opacity:1"
             d="m 41.705617,34.630442 7.543371,-1.696048"
             id="path47828" /></g><g
           inkscape:groupmode="layer"
           id="layer28"
           inkscape:label="eye"
           color="eyes"
           scale="2"><g
             inkscape:groupmode="layer"
             id="layer34"
             inkscape:label="white"><path
               style="opacity:1;fill:#ffffff;fill-opacity:1;stroke:none;stroke-width:0.96591;stroke-linecap:square;stroke-opacity:1"
               d="m 44.195968,28.909795 c -0.898407,0.234139 -1.988822,0.745223 -2.254275,1.782784 -0.185817,0.726292 0.184965,1.694344 0.686071,2.238255 0.719436,0.780891 1.868706,1.088949 2.77495,0.867667 0.97121,-0.237144 2.023982,-1.059291 2.242025,-2.203463 0.143866,-0.754932 -0.232587,-1.73847 -0.774894,-2.242496 -0.727581,-0.676222 -1.817322,-0.66598 -2.673877,-0.442747 z"
               id="path12680"
               sodipodi:nodetypes="aaaaaaa" /></g><g
             inkscape:groupmode="layer"
             id="layer33"
             inkscape:label="pupil"
             go-left="0.05"
             go-right="0.1"><ellipse
               style="opacity:1;fill:#030303;fill-opacity:1;stroke:none;stroke-width:1.00007;stroke-linecap:square;stroke-opacity:1"
               id="path16327"
               cx="44.124508"
               cy="31.199881"
               rx="1.1667262"
               ry="1.0960156" /></g></g></g><g
         inkscape:groupmode="layer"
         id="layer38"
         inkscape:label="mouth"
         update-origin="true"
         shake="0.5"><path
           style="opacity:1;fill:none;fill-opacity:1;stroke:#bb8a8e;stroke-width:1.62733;stroke-linecap:square;stroke-dasharray:none;stroke-opacity:1"
           d="m 29.7,46.312666 c 0,0 1.981046,-1.460284 3.1,-1.529892 1.216338,-0.07567 2.307607,1.528263 3.5,1.235682 0.774816,-0.190119 1.812132,-1.805643 1.812132,-1.805643"
           id="path46946"
           sodipodi:nodetypes="caac"
           transform="matrix(0.68295324,0,0,0.68295322,9.1606307,10.267873)" /></g></g><g
       inkscape:groupmode="layer"
       id="layer37"
       inkscape:label="force"
       mode="force-fart"><g
         inkscape:groupmode="layer"
         id="layer39"
         inkscape:label="left 1"
         update-origin="true"
         transform="translate(-3.8890873,0.21213204)"><path
           style="opacity:1;fill:none;fill-opacity:1;stroke:#bb8a8e;stroke-width:1.5001;stroke-linecap:square;stroke-dasharray:none;stroke-opacity:1"
           d="m 20.85965,25.385134 2.828427,1.909188 -2.262741,1.697056"
           id="path51049" /><path
           style="opacity:1;fill:none;fill-opacity:1;stroke:#bb8a8e;stroke-width:1.5001;stroke-linecap:square;stroke-dasharray:none;stroke-opacity:1"
           d="m 31.536963,24.607316 -2.262742,2.333453 3.040559,2.12132"
           id="path51053" /><path
           style="opacity:1;fill:none;fill-opacity:1;stroke:#bb8a8e;stroke-width:1.5001;stroke-linecap:square;stroke-dasharray:none;stroke-opacity:1"
           d="m 23.193103,27.223611 6.434671,-0.141422"
           id="path51055" /></g><g
         inkscape:groupmode="layer"
         id="layer40"
         inkscape:label="right 1"
         update-origin="true"><path
           style="opacity:1;fill:none;fill-opacity:1;stroke:#bb8a8e;stroke-width:1.5001;stroke-linecap:square;stroke-dasharray:none;stroke-opacity:1"
           d="m 37.759502,24.04163 2.545585,2.121321 -1.909189,2.050609"
           id="path51057" /><path
           style="opacity:1;fill:none;fill-opacity:1;stroke:#bb8a8e;stroke-width:1.5001;stroke-linecap:square;stroke-dasharray:none;stroke-opacity:1"
           d="m 40.234376,26.304372 5.586144,-0.353553 2.12132,-2.828427"
           id="path51059" /><path
           style="opacity:1;fill:none;fill-opacity:1;stroke:#bb8a8e;stroke-width:1.5001;stroke-linecap:square;stroke-dasharray:none;stroke-opacity:1"
           d="m 45.89123,25.738687 2.545585,1.979899"
           id="path51061" /></g><g
         inkscape:groupmode="layer"
         id="layer41"
         inkscape:label="mouth 1"
         update-origin="true"
         shake="0.5"><path
           style="opacity:1;fill:none;fill-opacity:1;stroke:#bb8a8e;stroke-width:1.5001;stroke-linecap:square;stroke-dasharray:none;stroke-opacity:1"
           d="m 31.395541,38.678741 5.16188,-0.212132"
           id="path52635" /></g></g></g></svg>
