<?xml version="1.0" encoding="UTF-8" standalone="no"?>
<!-- Created with Inkscape (http://www.inkscape.org/) -->

<svg
   inkscape:export-ydpi="96"
   inkscape:export-xdpi="96"
   inkscape:export-filename="..\Projects\getting-farted-on\dev\assets\guy\closed_eyes.png"
   inkscape:version="1.2.2 (b0a8486541, 2022-12-01)"
   sodipodi:docname="rickylee.svg"
   xml:space="preserve"
   id="svg5"
   version="1.1"
   viewBox="0 0 65.622687 64.922998"
   height="1298.46"
   width="1312.4537"
   xmlns:inkscape="http://www.inkscape.org/namespaces/inkscape"
   xmlns:sodipodi="http://sodipodi.sourceforge.net/DTD/sodipodi-0.dtd"
   xmlns="http://www.w3.org/2000/svg"
   xmlns:svg="http://www.w3.org/2000/svg"><sodipodi:namedview
     id="namedview7"
     pagecolor="#ffffff"
     bordercolor="#000000"
     borderopacity="0.25"
     inkscape:showpageshadow="2"
     inkscape:pageopacity="0.0"
     inkscape:pagecheckerboard="0"
     inkscape:deskcolor="#d1d1d1"
     inkscape:document-units="mm"
     showgrid="false"
     showguides="false"
     inkscape:lockguides="false"
     inkscape:zoom="0.5"
     inkscape:cx="516"
     inkscape:cy="763"
     inkscape:window-width="1757"
     inkscape:window-height="1396"
     inkscape:window-x="0"
     inkscape:window-y="0"
     inkscape:window-maximized="1"
     inkscape:current-layer="layer19" /><defs
     id="defs2"><inkscape:path-effect
       effect="fillet_chamfer"
       id="path-effect23775"
       is_visible="true"
       lpeversion="1"
       nodesatellites_param="F,0,0,1,0,2.1166667,0,1 @ F,0,0,1,0,2.1166667,0,1 @ F,0,0,1,0,2.1166667,0,1 @ F,0,0,1,0,2.1166667,0,1 @ F,0,0,1,0,2.1166667,0,1 @ F,0,0,1,0,2.1166667,0,1 @ F,0,0,1,0,2.1166667,0,1 @ F,0,0,1,0,2.1166667,0,1 @ F,0,0,1,0,2.1166667,0,1 @ F,0,0,1,0,2.1166667,0,1"
       unit="px"
       method="auto"
       mode="F"
       radius="8"
       chamfer_steps="1"
       flexible="false"
       use_knot_distance="true"
       apply_no_radius="true"
       apply_with_radius="true"
       only_selected="false"
       hide_knots="false" /><inkscape:path-effect
       effect="bspline"
       id="path-effect6943"
       is_visible="true"
       lpeversion="1"
       weight="33.333333"
       steps="2"
       helper_size="0"
       apply_no_weight="true"
       apply_with_weight="true"
       only_selected="false" /><inkscape:path-effect
       effect="bspline"
       id="path-effect1482"
       is_visible="true"
       lpeversion="1"
       weight="33.333333"
       steps="2"
       helper_size="0"
       apply_no_weight="true"
       apply_with_weight="true"
       only_selected="false" /><inkscape:path-effect
       effect="bspline"
       id="path-effect105595"
       is_visible="true"
       lpeversion="1"
       weight="33.333333"
       steps="2"
       helper_size="0"
       apply_no_weight="true"
       apply_with_weight="true"
       only_selected="false" /><inkscape:path-effect
       effect="bspline"
       id="path-effect105345"
       is_visible="true"
       lpeversion="1"
       weight="33.333333"
       steps="2"
       helper_size="0"
       apply_no_weight="true"
       apply_with_weight="true"
       only_selected="false" /><inkscape:path-effect
       effect="bspline"
       id="path-effect46172"
       is_visible="true"
       lpeversion="1"
       weight="33.333333"
       steps="2"
       helper_size="0"
       apply_no_weight="true"
       apply_with_weight="true"
       only_selected="false" /><inkscape:path-effect
       effect="bspline"
       id="path-effect46168"
       is_visible="true"
       lpeversion="1"
       weight="33.333333"
       steps="2"
       helper_size="0"
       apply_no_weight="true"
       apply_with_weight="true"
       only_selected="false" /><inkscape:path-effect
       effect="bspline"
       id="path-effect43935"
       is_visible="true"
       lpeversion="1"
       weight="33.333333"
       steps="2"
       helper_size="0"
       apply_no_weight="true"
       apply_with_weight="true"
       only_selected="false" /><inkscape:path-effect
       effect="bspline"
       id="path-effect43205"
       is_visible="true"
       lpeversion="1"
       weight="33.333333"
       steps="2"
       helper_size="0"
       apply_no_weight="true"
       apply_with_weight="true"
       only_selected="false" /><inkscape:path-effect
       effect="bspline"
       id="path-effect43201"
       is_visible="true"
       lpeversion="1"
       weight="33.333333"
       steps="2"
       helper_size="0"
       apply_no_weight="true"
       apply_with_weight="true"
       only_selected="false" /><inkscape:path-effect
       effect="bspline"
       id="path-effect43197"
       is_visible="true"
       lpeversion="1"
       weight="33.333333"
       steps="2"
       helper_size="0"
       apply_no_weight="true"
       apply_with_weight="true"
       only_selected="false" /><inkscape:path-effect
       effect="bspline"
       id="path-effect37328"
       is_visible="true"
       lpeversion="1"
       weight="33.333333"
       steps="2"
       helper_size="0"
       apply_no_weight="true"
       apply_with_weight="true"
       only_selected="false" /><inkscape:path-effect
       effect="bspline"
       id="path-effect37216"
       is_visible="true"
       lpeversion="1"
       weight="33.333333"
       steps="2"
       helper_size="0"
       apply_no_weight="true"
       apply_with_weight="true"
       only_selected="false" /><inkscape:path-effect
       effect="bspline"
       id="path-effect37212"
       is_visible="true"
       lpeversion="1"
       weight="33.333333"
       steps="2"
       helper_size="0"
       apply_no_weight="true"
       apply_with_weight="true"
       only_selected="false" /><inkscape:path-effect
       effect="bspline"
       id="path-effect37100"
       is_visible="true"
       lpeversion="1"
       weight="33.333333"
       steps="2"
       helper_size="0"
       apply_no_weight="true"
       apply_with_weight="true"
       only_selected="false" /><inkscape:path-effect
       effect="bspline"
       id="path-effect35643"
       is_visible="true"
       lpeversion="1"
       weight="33.333333"
       steps="2"
       helper_size="0"
       apply_no_weight="true"
       apply_with_weight="true"
       only_selected="false" /><inkscape:path-effect
       effect="bspline"
       id="path-effect34937"
       is_visible="true"
       lpeversion="1"
       weight="33.333333"
       steps="2"
       helper_size="0"
       apply_no_weight="true"
       apply_with_weight="true"
       only_selected="false" /><inkscape:path-effect
       effect="bspline"
       id="path-effect34933"
       is_visible="true"
       lpeversion="1"
       weight="33.333333"
       steps="2"
       helper_size="0"
       apply_no_weight="true"
       apply_with_weight="true"
       only_selected="false" /><inkscape:path-effect
       effect="bspline"
       id="path-effect34875"
       is_visible="true"
       lpeversion="1"
       weight="33.333333"
       steps="2"
       helper_size="0"
       apply_no_weight="true"
       apply_with_weight="true"
       only_selected="false" /><inkscape:path-effect
       effect="bspline"
       id="path-effect34144"
       is_visible="true"
       lpeversion="1"
       weight="33.333333"
       steps="2"
       helper_size="0"
       apply_no_weight="true"
       apply_with_weight="true"
       only_selected="false" /><inkscape:path-effect
       effect="bspline"
       id="path-effect34086"
       is_visible="true"
       lpeversion="1"
       weight="33.333333"
       steps="2"
       helper_size="0"
       apply_no_weight="true"
       apply_with_weight="true"
       only_selected="false" /><inkscape:path-effect
       effect="bspline"
       id="path-effect33594"
       is_visible="true"
       lpeversion="1"
       weight="33.333333"
       steps="2"
       helper_size="0"
       apply_no_weight="true"
       apply_with_weight="true"
       only_selected="false" /><inkscape:path-effect
       effect="bspline"
       id="path-effect33583"
       is_visible="true"
       lpeversion="1"
       weight="33.333333"
       steps="2"
       helper_size="0"
       apply_no_weight="true"
       apply_with_weight="true"
       only_selected="false" /><inkscape:path-effect
       effect="bspline"
       id="path-effect33579"
       is_visible="true"
       lpeversion="1"
       weight="33.333333"
       steps="2"
       helper_size="0"
       apply_no_weight="true"
       apply_with_weight="true"
       only_selected="false" /><inkscape:path-effect
       effect="bspline"
       id="path-effect33575"
       is_visible="true"
       lpeversion="1"
       weight="33.333333"
       steps="2"
       helper_size="0"
       apply_no_weight="true"
       apply_with_weight="true"
       only_selected="false" /><inkscape:path-effect
       effect="bspline"
       id="path-effect31711"
       is_visible="true"
       lpeversion="1"
       weight="33.333333"
       steps="2"
       helper_size="0"
       apply_no_weight="true"
       apply_with_weight="true"
       only_selected="false" /><inkscape:path-effect
       effect="bspline"
       id="path-effect21040"
       is_visible="true"
       lpeversion="1"
       weight="33.333333"
       steps="2"
       helper_size="0"
       apply_no_weight="true"
       apply_with_weight="true"
       only_selected="false" /><inkscape:path-effect
       effect="bspline"
       id="path-effect21036"
       is_visible="true"
       lpeversion="1"
       weight="33.333333"
       steps="2"
       helper_size="0"
       apply_no_weight="true"
       apply_with_weight="true"
       only_selected="false" /><inkscape:path-effect
       effect="bspline"
       id="path-effect21032"
       is_visible="true"
       lpeversion="1"
       weight="33.333333"
       steps="2"
       helper_size="0"
       apply_no_weight="true"
       apply_with_weight="true"
       only_selected="false" /><inkscape:path-effect
       effect="bspline"
       id="path-effect21028"
       is_visible="true"
       lpeversion="1"
       weight="33.333333"
       steps="2"
       helper_size="0"
       apply_no_weight="true"
       apply_with_weight="true"
       only_selected="false" /><inkscape:path-effect
       effect="bspline"
       id="path-effect21024"
       is_visible="true"
       lpeversion="1"
       weight="33.333333"
       steps="2"
       helper_size="0"
       apply_no_weight="true"
       apply_with_weight="true"
       only_selected="false" /><inkscape:path-effect
       effect="bspline"
       id="path-effect21004"
       is_visible="true"
       lpeversion="1"
       weight="33.333333"
       steps="2"
       helper_size="0"
       apply_no_weight="true"
       apply_with_weight="true"
       only_selected="false" /><inkscape:path-effect
       effect="fill_between_many"
       method="originald"
       linkedpaths="#path21022,0,1|#path21026,0,1"
       id="path-effect26602"
       is_visible="true"
       lpeversion="0"
       join="true"
       close="true"
       autoreverse="true" /><inkscape:path-effect
       effect="bspline"
       id="path-effect43935-4"
       is_visible="true"
       lpeversion="1"
       weight="33.333333"
       steps="2"
       helper_size="0"
       apply_no_weight="true"
       apply_with_weight="true"
       only_selected="false" /><inkscape:path-effect
       effect="bspline"
       id="path-effect43205-8"
       is_visible="true"
       lpeversion="1"
       weight="33.333333"
       steps="2"
       helper_size="0"
       apply_no_weight="true"
       apply_with_weight="true"
       only_selected="false" /><inkscape:path-effect
       effect="bspline"
       id="path-effect43201-5"
       is_visible="true"
       lpeversion="1"
       weight="33.333333"
       steps="2"
       helper_size="0"
       apply_no_weight="true"
       apply_with_weight="true"
       only_selected="false" /></defs><g
     inkscape:groupmode="layer"
     id="layer19"
     inkscape:label="growl"
     transform="matrix(1.0029904,0,0,1.0029904,-0.0997183,-0.05605355)"
     style="display:inline"
     mode="growl"
     scale-to="1.05"
     shake="0.1"><path
       style="fill:#e2b89b;fill-opacity:1;stroke:none;stroke-width:3.76826;stroke-dasharray:none;stroke-opacity:1"
       d="m 5.9744307,17.297687 c 1.2141922,-2.02992 0.7419412,-3.806952 2.3359838,-5.554484 1.8112865,-1.9856939 4.8782765,-1.588356 6.8229555,-3.4436087 1.541287,-1.4704112 2.750073,-3.3725192 4.485027,-4.6084847 1.63684,-1.1660697 4.521677,-0.5622267 6.476726,-1.0277859 2.295327,-0.5465903 3.84835,-2.08189334 6.207609,-2.11632779 3.306006,-0.0482526 5.052313,1.81740599 8.346136,2.10503349 2.194086,0.1915948 4.704196,-0.1145015 6.725981,0.7590581 1.877503,0.8112194 1.702621,2.1952309 3.3922,3.3478018 1.742521,1.1886859 4.107948,0.8724695 5.685342,2.2728907 1.580972,1.403597 1.494895,3.477137 2.72116,5.199296 0.949077,1.332878 2.737238,2.42183 3.422969,3.907456 1.350764,2.926411 -0.48784,5.709309 -0.07439,8.905792 0.275586,2.130633 1.7133,3.966611 1.553946,6.109075 -0.198773,2.672439 -1.779806,4.308218 -2.395183,6.916427 -0.819898,3.475045 1.240785,6.102066 -0.718553,9.086889 -1.135169,1.729298 -3.969932,2.700755 -5.013912,4.486585 -0.86911,1.486699 -2.076787,4.457204 -3.162417,5.794003 -2.171675,2.674109 -4.824436,0.562893 -8.08442,1.676237 -2.139195,0.730574 -4.433321,2.41821 -6.676131,2.700516 -2.996262,0.377144 -4.436503,-1.929142 -7.456219,-1.962877 -3.171779,-0.03543 -5.482052,1.598663 -8.368724,0.283916 C 20.357314,61.295601 20.172514,59.761743 18.475331,58.656432 16.580113,57.422149 13.990713,58.245556 12.21787,56.841158 10.696568,55.636023 11.19588,54.148666 9.9889886,52.628757 8.682787,50.983781 6.2739437,50.333269 5.255487,48.496191 4.2002915,46.592844 5.3257105,45.025588 4.7441256,42.928465 4.1471561,40.775867 1.3475992,39.513962 1.1194177,37.291805 0.84917812,34.660063 2.4526857,32.371656 2.6351977,29.732379 2.8091396,27.217032 1.5961,24.950937 2.2508002,22.516067 2.7312621,20.7292 5.024605,18.885632 5.9744307,17.297687 Z"
       id="path93882"
       sodipodi:nodetypes="sssssssssssssssssssssssssssssss" /></g><g
     inkscape:groupmode="layer"
     id="layer1"
     inkscape:label="body"
     style="display:none"><path
       style="fill:#e2b89b;fill-opacity:1;stroke:#e2b89b;stroke-width:0.05;stroke-opacity:1"
       d="M 1.7433594,29.452735 C 1.6640277,28.719509 3.9437753,19.479571 6.717578,15.330469 10.264576,10.024808 15.054553,4.936088 20.973828,2.55 28.096968,-0.32137183 36.66286,-0.53826093 43.99961,1.7324219 c 7.240697,2.240955 14.652518,6.8557842 18.295705,13.5023441 3.86894,7.058419 3.214791,16.19933 1.635935,24.092187 C 62.601671,45.973651 59.963857,53.069249 54.85508,57.52422 49.757661,61.969286 42.379282,63.521233 35.634765,64.025 29.337591,64.495353 22.503626,63.761026 16.986719,60.68867 11.106335,57.413894 6.2398407,51.809936 3.4972657,45.663282 1.2826503,40.69989 1.7433594,29.452735 1.7433594,29.452735 Z"
       id="path432"
       sodipodi:nodetypes="sssssssssss" /><path
       style="fill:none;fill-opacity:0.495992;stroke:#9f7e65;stroke-width:1.88976;stroke-dasharray:none;stroke-opacity:0.502543"
       d="m 27.084675,6.599571 c 0,0 4.82754,-1.582621 7.289277,-1.360628 2.445347,0.220515 4.426972,2.6477501 6.882138,2.625134 1.479549,-0.013629 4.117516,-1.65811 4.117516,-1.65811"
       id="path63336"
       sodipodi:nodetypes="cssc" /><path
       style="fill:none;fill-opacity:0.495992;stroke:#9f7e65;stroke-width:1.88976;stroke-dasharray:none;stroke-opacity:0.502543"
       d="m 30.172191,11.389391 c 0,0 2.109045,-0.998706 4.570782,-0.776713 2.445347,0.220515 2.420557,1.49953 4.875723,1.476914 1.479549,-0.01363 3.569232,-0.471772 3.569232,-0.471772"
       id="path64172"
       sodipodi:nodetypes="cssc" /><path
       style="fill:none;fill-opacity:1;stroke:#9f7e65;stroke-width:1.88977;stroke-dasharray:none;stroke-opacity:0.503235"
       d="m 38.005167,30.941428 c 0,0 -1.222172,-1.338365 -3.26071,-1.092346 -0.723192,0.08728 -2.427856,1.703576 -2.427856,1.703576"
       id="path30349"
       sodipodi:nodetypes="csc"
       inkscape:transform-center-x="0.24591111"
       inkscape:transform-center-y="-0.078690181" /></g><g
     inkscape:groupmode="layer"
     id="layer15"
     inkscape:label="chin"
     shake="0.05"><path
       style="fill:none;fill-opacity:0.495992;stroke:#9f7e65;stroke-width:1.88977;stroke-dasharray:none;stroke-opacity:0.503499"
       d="m 35.064453,53.221485 0.1375,4.101564"
       id="path82534"
       sodipodi:nodetypes="cc" /><path
       style="fill:none;fill-opacity:0.495992;stroke:#c19b80;stroke-width:1.88977;stroke-dasharray:none;stroke-opacity:1"
       d="m 27.116406,54.110155 c 0,0 1.406728,-3.737109 6.892188,-3.95586 6.646448,-0.26505 7.794531,3.01641 7.794531,3.01641"
       id="path83992"
       sodipodi:nodetypes="csc" /></g><g
     inkscape:groupmode="layer"
     id="layer2"
     inkscape:label="eyes"
     mode="idle"
     shake="0.1"
     scale-to="1.4"
     scale-from="0.8"
     style="display:none"><g
       inkscape:groupmode="layer"
       id="layer5"
       inkscape:label="left"
       update-origin="true"
       shake-phase="2"><g
         inkscape:groupmode="layer"
         id="layer13"
         inkscape:label="shadow"><path
           style="fill:#9f7e65;fill-opacity:0.495992;stroke:none;stroke-width:1.88977;stroke-dasharray:none;stroke-opacity:0.999939"
           d="m 29.18789,18.928515 c 1.278692,0.343561 2.712005,1.291449 3.021094,2.578907 0.347601,1.447874 -0.499783,3.259833 -1.710546,4.126562 -2.598884,1.860421 -8.22291,1.797335 -11.353804,1.154786 -1.963251,-0.402915 -2.558233,-1.528826 -3.576274,-3.255177 -0.358777,-0.608398 -0.386275,-1.583036 0.07539,-2.117578 3.000321,-3.473936 9.111137,-3.678566 13.54414,-2.4875 z"
           id="path57384"
           sodipodi:nodetypes="sssssss" /></g><g
         inkscape:groupmode="layer"
         id="layer4"
         inkscape:label="white"
         color="eyes"><path
           style="fill:#ffffff;fill-opacity:1;stroke-width:0.05"
           d="m 11.960352,20.783692 c 6.711818,-1.260999 9.520793,-4.214521 13.907617,-3.352052 2.818415,0.616053 5.115885,1.828386 5.100391,3.92461 -0.01309,1.771654 -1.857845,2.803987 -5.129786,3.354004 -3.448483,0.579695 -2.586397,0.733245 -6.825488,-0.144531 -1.853437,-0.383786 -3.906272,-1.346469 -7.052734,-3.782031 z"
           id="path9376"
           sodipodi:nodetypes="ccsssc" /></g><g
         inkscape:groupmode="layer"
         id="layer3"
         inkscape:label="pupil-left"
         go-left="0.15"
         go-right="0.05"><path
           style="fill:#000000;fill-opacity:1;stroke-width:0.0697782"
           d="m 20.191758,22.257767 c -0.113961,-0.66802 -0.219118,-3.717458 1.30363,-4.647928 1.512733,-0.92435 5.832014,-0.77728 6.483326,-0.131178 2.14569,2.128523 1.63515,6.153051 -0.577905,7.485427 -2.184855,1.315396 -6.631981,0.676531 -7.209051,-2.706321 z"
           id="path10211"
           sodipodi:nodetypes="sssss" /></g><g
         inkscape:groupmode="layer"
         id="g54407"
         inkscape:label="top copy"><path
           style="fill:none;fill-opacity:1;stroke:#9f7e65;stroke-width:3.61654;stroke-dasharray:none;stroke-opacity:0.999939"
           d="m 26.316015,15.565872 c 0,0 -1.74347,1.986982 -7.141075,3.107121 -4.151041,0.861445 -7.515118,2.720315 -7.515118,2.720315"
           id="path54405"
           sodipodi:nodetypes="csc" /></g></g><g
       inkscape:groupmode="layer"
       id="layer6"
       inkscape:label="right"
       update-origin="true"
       shake-phase="1"><g
         inkscape:groupmode="layer"
         id="layer14"
         inkscape:label="shadow"><path
           style="fill:#9f7e65;fill-opacity:0.495992;stroke:none;stroke-width:1.88977;stroke-dasharray:none;stroke-opacity:0.999939"
           d="m 51.813926,18.995359 c 1.278692,0.343561 2.712005,1.291449 3.021094,2.578907 0.347601,1.447874 -0.499783,3.259833 -1.710546,4.126562 -2.598884,1.860421 -8.22291,1.797335 -11.353804,1.154786 -1.963251,-0.402915 -2.501885,-0.775868 -3.519926,-2.502219 -0.358777,-0.608398 -0.442623,-2.335994 0.01904,-2.870536 3.000321,-3.473936 9.111137,-3.678566 13.54414,-2.4875 z"
           id="path58576"
           sodipodi:nodetypes="sssssss" /></g><g
         inkscape:groupmode="layer"
         id="layer7"
         inkscape:label="white 1"
         color="eyes"><path
           style="fill:#ffffff;fill-opacity:1;stroke-width:0.05"
           d="m 39.153516,23.772657 c -1.574032,-1.560563 1.735284,-4.960009 2.769531,-5.539062 4.10789,-2.278851 11.631298,-0.037 14.463282,3.432421 0,0 -3.64746,3.464855 -8.055078,3.520703 -4.407618,0.05585 -6.727447,1.015259 -9.177735,-1.414062 z"
           id="path9481"
           sodipodi:nodetypes="scczs" /></g><g
         inkscape:groupmode="layer"
         id="g15411"
         inkscape:label="pupil-right"
         go-left="0.05"
         go-right="0.15"><path
           style="fill:#000000;fill-opacity:1;stroke-width:0.0665611"
           d="m 40.649224,22.638144 c -0.107836,-0.642365 -0.207343,-3.574688 1.23357,-4.469423 1.431434,-0.88885 5.518588,-0.747428 6.134897,-0.126139 2.030375,2.046775 1.547273,5.916739 -0.546848,7.197944 -2.067435,1.264879 -6.275562,0.650549 -6.821619,-2.602381 z"
           id="path15409"
           sodipodi:nodetypes="sssss" /></g><g
         inkscape:groupmode="layer"
         id="layer12"
         inkscape:label="top"><path
           style="fill:none;fill-opacity:1;stroke:#9f7e65;stroke-width:3.77954;stroke-dasharray:none;stroke-opacity:0.999939"
           d="m 43.668361,15.679297 c 0,0 1.12998,2.133941 7.082031,3.24336 4.577439,0.853201 7.176172,2.587499 7.176172,2.587499"
           id="path50503"
           sodipodi:nodetypes="csc" /></g></g><g
       inkscape:groupmode="layer"
       id="layer8"
       inkscape:label="mouth"
       shake="0.05"><path
         style="fill:#000000;fill-opacity:0;stroke:#9f7e65;stroke-width:1.88976;stroke-dasharray:none;stroke-opacity:1"
         d="m 23.446859,39.978558 c 0,0 7.695853,2.441765 12.823836,1.733598 4.470512,-0.617371 9.553991,-1.810006 9.553991,-1.810006"
         id="path19929"
         sodipodi:nodetypes="csc" /></g></g><g
     inkscape:groupmode="layer"
     id="layer16"
     inkscape:label="closed_eyes"
     mode="force-fart"
     transform="matrix(1.0029904,0,0,1.0029904,-0.0997183,-0.05605355)"
     shake="0.1"><g
       inkscape:groupmode="layer"
       id="layer17"
       inkscape:label="left 2"
       transform="matrix(1.2466103,0,0,1.2713411,-7.3084797,-2.5397366)"
       style="stroke-width:0.794334"><path
         style="fill:none;fill-opacity:0.495992;stroke:#c19b80;stroke-width:1.50111;stroke-dasharray:none;stroke-opacity:1"
         d="m 18.105078,21.0625 c 6.183594,-1.703907 10.704688,1.624219 10.704688,1.624219"
         id="path88250"
         sodipodi:nodetypes="cc" /><path
         style="fill:none;fill-opacity:0.495992;stroke:#9f7e65;stroke-width:3.00222;stroke-dasharray:none;stroke-opacity:1"
         d="m 31.738672,20.507422 c 0,0 -1.96507,0.578682 -3.694141,-0.144531 -2.086064,-0.872532 -2.977671,-2.129753 -4.916015,-3.294141 -1.618038,-0.971976 -6.240234,-1.619922 -6.240234,-1.619922"
         id="path88323"
         sodipodi:nodetypes="cssc" /></g><g
       inkscape:groupmode="layer"
       id="layer18"
       inkscape:label="right 2"
       transform="matrix(1.2947213,0,0,1.1878463,-8.4431717,-1.8607827)"
       style="stroke-width:0.806365"><path
         style="fill:none;fill-opacity:0.495992;stroke:#c19b80;stroke-width:1.48446;stroke-dasharray:none;stroke-opacity:1"
         d="M 49.153576,19.925626 C 43.1245,19.08358 40.142779,23.387368 40.142779,23.387368"
         id="path88517"
         sodipodi:nodetypes="cc" /><path
         style="fill:none;fill-opacity:0.495992;stroke:#9f7e65;stroke-width:2.96889;stroke-dasharray:none;stroke-opacity:1"
         d="m 36.429994,22.029986 c 0,0 1.953441,-0.04856 3.463742,-1.005246 1.822125,-1.154203 2.830496,-2.396186 4.471837,-3.82008 1.370115,-1.1886 5.584657,-1.454661 5.584657,-1.454661"
         id="path88519"
         sodipodi:nodetypes="cssc" /></g><g
       inkscape:groupmode="layer"
       id="layer8-3"
       inkscape:label="mouth"
       shake="0.05"
       style="display:inline;stroke-width:0.899639"
       transform="matrix(0.99404591,0,0,-1.2282011,0.43619745,91.180833)"><path
         style="fill:#000000;fill-opacity:0;stroke:#9f7e65;stroke-width:1.7001;stroke-dasharray:none;stroke-opacity:1"
         d="m 23.446859,39.978558 c 0,0 7.695853,2.441765 12.823836,1.733598 4.470512,-0.617371 9.553991,-1.810006 9.553991,-1.810006"
         id="path19929-6"
         sodipodi:nodetypes="csc" /></g></g><g
     inkscape:groupmode="layer"
     id="layer9"
     inkscape:label="cheeks"
     mode="cheeks"
     shake="0.1"
     scale-to="2"
     fadein="0.1"><g
       inkscape:groupmode="layer"
       id="layer11"
       inkscape:label="right 1"
       update-origin="true"
       inkscape:transform-center-x="-6.8823837"
       inkscape:transform-center-y="-6.8438818"><path
         style="fill:#e2b89b;fill-opacity:1;stroke:#9f7e65;stroke-width:1.32846;stroke-dasharray:none;stroke-opacity:0.503499"
         d="m 43.187459,37.139192 c 0,0 12.026748,-7.415293 12.231337,3.073464 0.199121,10.208432 -10.129967,7.471227 -10.129967,7.471227"
         id="path23167"
         sodipodi:nodetypes="csc" /></g><g
       inkscape:groupmode="layer"
       id="layer10"
       inkscape:label="left 1"
       update-origin="true"
       inkscape:transform-center-x="6.3074655"
       inkscape:transform-center-y="-6.9779928"><path
         style="fill:#e2b89b;fill-opacity:1;stroke:#9f7e65;stroke-width:1.37352;stroke-dasharray:none;stroke-opacity:0.495117"
         d="m 27.271475,36.77487 c 0,0 -11.490858,-6.32073 -11.971163,2.463253 -0.488524,8.934309 8.123096,7.866171 8.123096,7.866171"
         id="path23165"
         sodipodi:nodetypes="csc" /></g></g></svg>
