<?xml version="1.0" encoding="UTF-8" standalone="no"?>
<!-- Created with Inkscape (http://www.inkscape.org/) -->

<svg
   inkscape:export-ydpi="96"
   inkscape:export-xdpi="96"
   inkscape:export-filename="..\Projects\getting-farted-on\dev\assets\guy\closed_eyes.png"
   inkscape:version="1.2.2 (732a01da63, 2022-12-09)"
   sodipodi:docname="chrislmath.svg"
   xml:space="preserve"
   id="svg5"
   version="1.1"
   viewBox="0 0 65.622687 64.922998"
   height="1298.46"
   width="1312.4537"
   xmlns:inkscape="http://www.inkscape.org/namespaces/inkscape"
   xmlns:sodipodi="http://sodipodi.sourceforge.net/DTD/sodipodi-0.dtd"
   xmlns="http://www.w3.org/2000/svg"
   xmlns:svg="http://www.w3.org/2000/svg"><sodipodi:namedview
     id="namedview7"
     pagecolor="#ffffff"
     bordercolor="#000000"
     borderopacity="0.25"
     inkscape:showpageshadow="2"
     inkscape:pageopacity="0.0"
     inkscape:pagecheckerboard="0"
     inkscape:deskcolor="#d1d1d1"
     inkscape:document-units="mm"
     showgrid="false"
     showguides="true"
     inkscape:lockguides="false"
     inkscape:zoom="0.35355339"
     inkscape:cx="247.48737"
     inkscape:cy="598.21234"
     inkscape:window-width="1278"
     inkscape:window-height="1360"
     inkscape:window-x="1266"
     inkscape:window-y="0"
     inkscape:window-maximized="0"
     inkscape:current-layer="layer10" /><defs
     id="defs2"><inkscape:path-effect
       effect="fillet_chamfer"
       id="path-effect94581"
       is_visible="true"
       lpeversion="1"
       nodesatellites_param="F,0,0,1,0,0.79375,0,1 @ F,0,0,1,0,0.79375,0,1 @ F,0,0,1,0,0.79375,0,1 @ F,0,0,1,0,0.79375,0,1 @ F,0,0,1,0,0.79375,0,1 @ F,0,0,1,0,0.79375,0,1"
       unit="px"
       method="auto"
       mode="F"
       radius="3"
       chamfer_steps="1"
       flexible="false"
       use_knot_distance="true"
       apply_no_radius="true"
       apply_with_radius="true"
       only_selected="false"
       hide_knots="false" /><inkscape:path-effect
       effect="fillet_chamfer"
       id="path-effect94385"
       is_visible="true"
       lpeversion="1"
       nodesatellites_param="F,0,0,1,0,0.79375,0,1 @ F,0,0,1,0,0.79375,0,1 @ F,0,0,1,0,0.79375,0,1 @ F,0,0,1,0,0.79375,0,1 @ F,0,0,1,0,0.79375,0,1 @ F,0,0,1,0,0.79375,0,1"
       unit="px"
       method="auto"
       mode="F"
       radius="3"
       chamfer_steps="1"
       flexible="false"
       use_knot_distance="true"
       apply_no_radius="true"
       apply_with_radius="true"
       only_selected="false"
       hide_knots="false" /><inkscape:path-effect
       effect="fillet_chamfer"
       id="path-effect23775"
       is_visible="true"
       lpeversion="1"
       nodesatellites_param="F,0,0,1,0,2.1166667,0,1 @ F,0,0,1,0,2.1166667,0,1 @ F,0,0,1,0,2.1166667,0,1 @ F,0,0,1,0,2.1166667,0,1 @ F,0,0,1,0,2.1166667,0,1 @ F,0,0,1,0,2.1166667,0,1 @ F,0,0,1,0,2.1166667,0,1 @ F,0,0,1,0,2.1166667,0,1 @ F,0,0,1,0,2.1166667,0,1 @ F,0,0,1,0,2.1166667,0,1"
       unit="px"
       method="auto"
       mode="F"
       radius="8"
       chamfer_steps="1"
       flexible="false"
       use_knot_distance="true"
       apply_no_radius="true"
       apply_with_radius="true"
       only_selected="false"
       hide_knots="false" /><inkscape:path-effect
       effect="bspline"
       id="path-effect6943"
       is_visible="true"
       lpeversion="1"
       weight="33.333333"
       steps="2"
       helper_size="0"
       apply_no_weight="true"
       apply_with_weight="true"
       only_selected="false" /><inkscape:path-effect
       effect="bspline"
       id="path-effect1482"
       is_visible="true"
       lpeversion="1"
       weight="33.333333"
       steps="2"
       helper_size="0"
       apply_no_weight="true"
       apply_with_weight="true"
       only_selected="false" /><inkscape:path-effect
       effect="bspline"
       id="path-effect105595"
       is_visible="true"
       lpeversion="1"
       weight="33.333333"
       steps="2"
       helper_size="0"
       apply_no_weight="true"
       apply_with_weight="true"
       only_selected="false" /><inkscape:path-effect
       effect="bspline"
       id="path-effect105345"
       is_visible="true"
       lpeversion="1"
       weight="33.333333"
       steps="2"
       helper_size="0"
       apply_no_weight="true"
       apply_with_weight="true"
       only_selected="false" /><inkscape:path-effect
       effect="bspline"
       id="path-effect46172"
       is_visible="true"
       lpeversion="1"
       weight="33.333333"
       steps="2"
       helper_size="0"
       apply_no_weight="true"
       apply_with_weight="true"
       only_selected="false" /><inkscape:path-effect
       effect="bspline"
       id="path-effect46168"
       is_visible="true"
       lpeversion="1"
       weight="33.333333"
       steps="2"
       helper_size="0"
       apply_no_weight="true"
       apply_with_weight="true"
       only_selected="false" /><inkscape:path-effect
       effect="bspline"
       id="path-effect43935"
       is_visible="true"
       lpeversion="1"
       weight="33.333333"
       steps="2"
       helper_size="0"
       apply_no_weight="true"
       apply_with_weight="true"
       only_selected="false" /><inkscape:path-effect
       effect="bspline"
       id="path-effect43205"
       is_visible="true"
       lpeversion="1"
       weight="33.333333"
       steps="2"
       helper_size="0"
       apply_no_weight="true"
       apply_with_weight="true"
       only_selected="false" /><inkscape:path-effect
       effect="bspline"
       id="path-effect43201"
       is_visible="true"
       lpeversion="1"
       weight="33.333333"
       steps="2"
       helper_size="0"
       apply_no_weight="true"
       apply_with_weight="true"
       only_selected="false" /><inkscape:path-effect
       effect="bspline"
       id="path-effect43197"
       is_visible="true"
       lpeversion="1"
       weight="33.333333"
       steps="2"
       helper_size="0"
       apply_no_weight="true"
       apply_with_weight="true"
       only_selected="false" /><inkscape:path-effect
       effect="bspline"
       id="path-effect37328"
       is_visible="true"
       lpeversion="1"
       weight="33.333333"
       steps="2"
       helper_size="0"
       apply_no_weight="true"
       apply_with_weight="true"
       only_selected="false" /><inkscape:path-effect
       effect="bspline"
       id="path-effect37216"
       is_visible="true"
       lpeversion="1"
       weight="33.333333"
       steps="2"
       helper_size="0"
       apply_no_weight="true"
       apply_with_weight="true"
       only_selected="false" /><inkscape:path-effect
       effect="bspline"
       id="path-effect37212"
       is_visible="true"
       lpeversion="1"
       weight="33.333333"
       steps="2"
       helper_size="0"
       apply_no_weight="true"
       apply_with_weight="true"
       only_selected="false" /><inkscape:path-effect
       effect="bspline"
       id="path-effect37100"
       is_visible="true"
       lpeversion="1"
       weight="33.333333"
       steps="2"
       helper_size="0"
       apply_no_weight="true"
       apply_with_weight="true"
       only_selected="false" /><inkscape:path-effect
       effect="bspline"
       id="path-effect35643"
       is_visible="true"
       lpeversion="1"
       weight="33.333333"
       steps="2"
       helper_size="0"
       apply_no_weight="true"
       apply_with_weight="true"
       only_selected="false" /><inkscape:path-effect
       effect="bspline"
       id="path-effect34937"
       is_visible="true"
       lpeversion="1"
       weight="33.333333"
       steps="2"
       helper_size="0"
       apply_no_weight="true"
       apply_with_weight="true"
       only_selected="false" /><inkscape:path-effect
       effect="bspline"
       id="path-effect34933"
       is_visible="true"
       lpeversion="1"
       weight="33.333333"
       steps="2"
       helper_size="0"
       apply_no_weight="true"
       apply_with_weight="true"
       only_selected="false" /><inkscape:path-effect
       effect="bspline"
       id="path-effect34875"
       is_visible="true"
       lpeversion="1"
       weight="33.333333"
       steps="2"
       helper_size="0"
       apply_no_weight="true"
       apply_with_weight="true"
       only_selected="false" /><inkscape:path-effect
       effect="bspline"
       id="path-effect34144"
       is_visible="true"
       lpeversion="1"
       weight="33.333333"
       steps="2"
       helper_size="0"
       apply_no_weight="true"
       apply_with_weight="true"
       only_selected="false" /><inkscape:path-effect
       effect="bspline"
       id="path-effect34086"
       is_visible="true"
       lpeversion="1"
       weight="33.333333"
       steps="2"
       helper_size="0"
       apply_no_weight="true"
       apply_with_weight="true"
       only_selected="false" /><inkscape:path-effect
       effect="bspline"
       id="path-effect33594"
       is_visible="true"
       lpeversion="1"
       weight="33.333333"
       steps="2"
       helper_size="0"
       apply_no_weight="true"
       apply_with_weight="true"
       only_selected="false" /><inkscape:path-effect
       effect="bspline"
       id="path-effect33583"
       is_visible="true"
       lpeversion="1"
       weight="33.333333"
       steps="2"
       helper_size="0"
       apply_no_weight="true"
       apply_with_weight="true"
       only_selected="false" /><inkscape:path-effect
       effect="bspline"
       id="path-effect33579"
       is_visible="true"
       lpeversion="1"
       weight="33.333333"
       steps="2"
       helper_size="0"
       apply_no_weight="true"
       apply_with_weight="true"
       only_selected="false" /><inkscape:path-effect
       effect="bspline"
       id="path-effect33575"
       is_visible="true"
       lpeversion="1"
       weight="33.333333"
       steps="2"
       helper_size="0"
       apply_no_weight="true"
       apply_with_weight="true"
       only_selected="false" /><inkscape:path-effect
       effect="bspline"
       id="path-effect31711"
       is_visible="true"
       lpeversion="1"
       weight="33.333333"
       steps="2"
       helper_size="0"
       apply_no_weight="true"
       apply_with_weight="true"
       only_selected="false" /><inkscape:path-effect
       effect="bspline"
       id="path-effect21040"
       is_visible="true"
       lpeversion="1"
       weight="33.333333"
       steps="2"
       helper_size="0"
       apply_no_weight="true"
       apply_with_weight="true"
       only_selected="false" /><inkscape:path-effect
       effect="bspline"
       id="path-effect21036"
       is_visible="true"
       lpeversion="1"
       weight="33.333333"
       steps="2"
       helper_size="0"
       apply_no_weight="true"
       apply_with_weight="true"
       only_selected="false" /><inkscape:path-effect
       effect="bspline"
       id="path-effect21032"
       is_visible="true"
       lpeversion="1"
       weight="33.333333"
       steps="2"
       helper_size="0"
       apply_no_weight="true"
       apply_with_weight="true"
       only_selected="false" /><inkscape:path-effect
       effect="bspline"
       id="path-effect21028"
       is_visible="true"
       lpeversion="1"
       weight="33.333333"
       steps="2"
       helper_size="0"
       apply_no_weight="true"
       apply_with_weight="true"
       only_selected="false" /><inkscape:path-effect
       effect="bspline"
       id="path-effect21024"
       is_visible="true"
       lpeversion="1"
       weight="33.333333"
       steps="2"
       helper_size="0"
       apply_no_weight="true"
       apply_with_weight="true"
       only_selected="false" /><inkscape:path-effect
       effect="bspline"
       id="path-effect21004"
       is_visible="true"
       lpeversion="1"
       weight="33.333333"
       steps="2"
       helper_size="0"
       apply_no_weight="true"
       apply_with_weight="true"
       only_selected="false" /><inkscape:path-effect
       effect="fill_between_many"
       method="originald"
       linkedpaths="#path21022,0,1|#path21026,0,1"
       id="path-effect26602"
       is_visible="true"
       lpeversion="0"
       join="true"
       close="true"
       autoreverse="true" /><inkscape:path-effect
       effect="bspline"
       id="path-effect43935-4"
       is_visible="true"
       lpeversion="1"
       weight="33.333333"
       steps="2"
       helper_size="0"
       apply_no_weight="true"
       apply_with_weight="true"
       only_selected="false" /><inkscape:path-effect
       effect="bspline"
       id="path-effect43205-8"
       is_visible="true"
       lpeversion="1"
       weight="33.333333"
       steps="2"
       helper_size="0"
       apply_no_weight="true"
       apply_with_weight="true"
       only_selected="false" /><inkscape:path-effect
       effect="bspline"
       id="path-effect43201-5"
       is_visible="true"
       lpeversion="1"
       weight="33.333333"
       steps="2"
       helper_size="0"
       apply_no_weight="true"
       apply_with_weight="true"
       only_selected="false" /></defs><g
     inkscape:groupmode="layer"
     id="layer3"
     inkscape:label="parrot"
     style="stroke:#e4afb4;stroke-opacity:1"><g
       inkscape:groupmode="layer"
       id="layer21"
       inkscape:label="growl"
       style="stroke:#e4afb4;stroke-opacity:1"
       mode="growl"
       shake="0.1"
       scale-to="1.1"><path
         style="fill:#8cbd3c;fill-opacity:1;stroke:none;stroke-width:1.00007;stroke-linecap:round;stroke-linejoin:round;stroke-dasharray:none;stroke-opacity:1"
         d="m 4.1012193,30.547013 c -1.672281,1.076583 -2.9876874,3.106154 -3.1112698,5.091169 -0.0996353,1.60037 1.6788679,2.809104 1.979899,4.384061 0.3809628,1.99315 -0.9492874,4.164447 -0.2828427,6.081119 0.4718829,1.357119 2.1774207,1.971818 2.8284269,3.252691 0.7668382,1.508776 0.096376,3.610632 1.1313713,4.949747 0.8123112,1.050997 2.5288415,0.971868 3.535534,1.838479 0.971857,0.836624 1.131872,2.506641 2.262742,3.111271 1.040121,0.556111 2.356662,0.178447 3.535534,0.14142 10.562877,-0.331769 20.97195,-3.507566 31.536962,-3.25269 2.192787,0.0529 4.46592,1.79723 6.505384,0.98995 1.560798,-0.61781 1.823697,-2.882795 3.111269,-3.959799 1.31022,-1.095947 3.620357,-0.955537 4.525481,-2.404166 0.724823,-1.160061 -0.333533,-2.818437 0.141424,-4.101217 0.419228,-1.132265 1.928523,-1.668222 2.262741,-2.828427 0.459689,-1.595765 -0.814439,-3.307828 -0.565687,-4.949748 0.192864,-1.273021 1.587269,-2.248375 1.555637,-3.535534 -0.05179,-2.107549 -1.078552,-4.48111 -2.82843,-5.656854 C 53.474432,23.81871 41.228511,27.053706 30.688435,27.294322 21.762279,27.498094 11.608508,25.71396 4.1012193,30.547013 Z"
         id="path100352"
         sodipodi:nodetypes="aaaaaaaaaaaaaaaaaaaa" /></g><g
       inkscape:groupmode="layer"
       id="layer7"
       inkscape:label="body"><path
         style="fill:#8cbd3c;fill-opacity:1;stroke:none;stroke-width:0.48725;stroke-linecap:round;stroke-linejoin:round;stroke-opacity:1"
         d="M 30.695435,63.217618 C 24.412926,62.656106 17.282146,62.17074 12.169237,58.651393 7.2481752,55.264099 4.2646341,49.323703 2.9768485,43.676865 1.3972308,36.750364 2.493023,29.114155 5.2395903,22.5245 7.925361,16.080711 12.052443,9.1914937 18.533197,6.0055112 26.42993,2.1234239 36.95577,1.8804115 45.191123,5.0654061 c 7.349734,2.842484 13.322517,9.4401049 16.404879,16.3846889 3.408035,7.678325 4.081596,17.181778 0.98995,24.979935 -2.126663,5.364149 -7.209751,9.63782 -12.445081,12.489965 -5.772597,3.144841 -12.816879,4.890063 -19.445436,4.297623 z"
         id="path2399"
         sodipodi:nodetypes="ssaaaaaaas" /><path
         style="fill:#b4da52;fill-opacity:1;stroke:#63a438;stroke-width:0;stroke-linecap:round;stroke-linejoin:round;stroke-dasharray:none;stroke-opacity:1"
         d="M 32.5,27.3 C 26.909313,27.06243 20.026539,33.579404 15.9,29.8 11.516152,25.784932 12.628571,16.028585 17,12 c 3.702017,-3.4116734 10.080927,0.691595 15.1,0.3 4.185164,-0.326532 8.585859,-3.9534405 12.4,-2.2 3.693057,1.697776 6.033531,6.438793 6.2,10.5 0.150202,3.664347 -1.485751,8.329729 -4.8,9.9 -4.150027,1.966257 -8.811877,-3.005033 -13.4,-3.2 z"
         id="path71680"
         sodipodi:nodetypes="aaaaaaaa" /><path
         style="fill:#e4cf0c;fill-opacity:1;stroke:#63a438;stroke-width:0;stroke-linecap:round;stroke-linejoin:round;stroke-dasharray:none;stroke-opacity:1"
         d="M 34.337024,3.1531724 C 34.446939,2.2874498 33.786322,0.52512123 34.562177,0.40833056 35.338032,0.29154014 36.36181,2.2902768 36.655578,3.4995624 36.937625,4.6605969 36.598987,5.921947 36.231314,7.0587705 35.695551,8.7153151 34.663789,10.17807 33.695367,11.624907 33.145754,12.446036 32.951339,14.229173 31.848248,13.94333 27.509793,10.57241 33.781349,7.0361766 34.337024,3.1531724 Z"
         id="path78359"
         sodipodi:nodetypes="czaaacc" /><path
         style="fill:#eddb02;fill-opacity:1;stroke:#63a438;stroke-width:0;stroke-linecap:round;stroke-linejoin:round;stroke-dasharray:none;stroke-opacity:1"
         d="m 31.656891,14.282265 c 1.094538,0.04796 1.676941,-1.616764 1.885186,-2.69238 C 33.871208,9.8898733 33.003675,8.1399174 32.366002,6.5300283 31.810886,5.1285647 31.266246,3.5689266 30.095904,2.6188982 29.328145,1.995667 28.267428,1.6670704 27.278796,1.6889785 25.816218,1.721392 24.541717,2.7230096 23.176211,3.2479622 20.710972,4.195693 18.430348,6.0085197 15.791558,6.1197714 13.987286,6.1958309 12.159794,5.4894975 10.594951,4.5881387 8.9296743,3.6289294 8.2584326,1.149255 6.4103109,0.62230648 5.8016221,0.44875287 4.6189103,0.71996461 4.5504753,1.0052154 4.4820426,1.2904585 5.625021,1.2607247 6.0821077,1.5522262 6.8593825,2.0479247 7.4299508,2.8164996 8.023999,3.5214668 c 1.1493666,1.3639722 2.002881,2.9565948 3.117958,4.3487413 0.710451,0.8869805 1.24243,2.0584555 2.270101,2.5436019 1.23764,0.58427 2.734463,0.201109 4.102585,0.164104 0.970323,-0.02624 1.944987,-0.09528 2.89916,-0.273506 1.219932,-0.227877 2.342631,-1.0547436 3.582925,-1.0119703 1.538997,0.053068 2.962738,0.8879163 4.34874,1.5589823 0.735661,0.356188 1.512693,0.709712 2.080648,1.2975 0.570469,0.59039 0.410589,2.097407 1.230775,2.133345 z"
         id="path78368"
         sodipodi:nodetypes="aaaaaaaaazaaaaaaaaaa" /><path
         style="fill:#8cbd3c;fill-opacity:1;stroke:#558d30;stroke-width:0;stroke-linecap:round;stroke-linejoin:round;stroke-dasharray:none;stroke-opacity:1"
         d="m 5.637325,22.408728 -0.67465,-8.517456 c -0.034614,-0.437008 0.2171183,-0.57217 0.5615638,-0.301007 0.9179608,0.722659 1.6378446,1.255936 2.4171353,1.22141 0.4345553,-0.01925 0.7526035,-0.566998 0.7451744,-1.005311 L 8.6134515,9.493636 c -0.00743,-0.4383131 0.178231,-0.4934634 0.4478866,-0.1479848 0.9233992,1.1830448 1.9588129,1.8620258 3.1596889,1.7964238 0.436661,-0.02385 0.752721,0.212328 0.720337,0.649506 l -0.682728,9.216838 a 1.0608603,1.0608603 131.04073 0 1 -0.834592,0.95871 L 6.4759555,23.032871 A 0.6945561,0.6945561 36.658117 0 1 5.637325,22.408728 Z"
         id="path94383"
         sodipodi:nodetypes="ccccccc"
         inkscape:path-effect="#path-effect94385"
         inkscape:original-d="M 5.7,23.2 4.9,13.1 c 1.5528349,1.203178 2.5125246,2.154339 3.8,1.5 L 8.6,8.7 c 1.2238404,1.859385 2.64369,2.83673 4.4,2.3 l -0.8,10.8 z" /><path
         style="fill:#8cbd3c;fill-opacity:1;stroke:#558d30;stroke-width:0;stroke-linecap:round;stroke-linejoin:round;stroke-dasharray:none;stroke-opacity:1"
         d="m 61.465813,22.708728 0.67465,-8.517456 c 0.03461,-0.437008 -0.217118,-0.57217 -0.561564,-0.301007 -0.917961,0.722659 -1.637845,1.255936 -2.417135,1.22141 -0.434555,-0.01925 -0.752604,-0.566998 -0.745175,-1.005311 l 0.0731,-4.312728 C 58.497116,9.3553229 58.311455,9.3001726 58.0418,9.6456512 57.1184,10.828696 56.082987,11.507677 54.882111,11.442075 54.44545,11.418221 54.12939,11.654403 54.161774,12.091581 l 0.682728,9.216838 a 1.0608603,1.0608603 48.959273 0 0 0.834592,0.95871 l 4.948088,1.065742 a 0.6945561,0.6945561 143.34188 0 0 0.838631,-0.624143 z"
         id="path94577"
         sodipodi:nodetypes="ccccccc"
         inkscape:path-effect="#path-effect94581"
         inkscape:original-d="m 61.403138,23.5 0.8,-10.1 c -1.552835,1.203178 -2.512525,2.154339 -3.8,1.5 l 0.1,-5.9 c -1.223841,1.859385 -2.64369,2.83673 -4.4,2.3 l 0.8,10.8 z" /></g><g
       inkscape:groupmode="layer"
       id="layer19"
       inkscape:label="stom"
       style="stroke:#e4afb4;stroke-opacity:1;display:inline"
       mode="body"
       scale-to="1.1"
       update-origin="true"
       scale-from="0.5"
       fadein="0.5"
       shake="0.1"><path
         style="fill:#bfd940;fill-opacity:1;stroke:#63a438;stroke-width:0;stroke-linecap:round;stroke-linejoin:round;stroke-dasharray:none;stroke-opacity:1"
         d="m 31.4,61.9 c -3.763995,-0.254088 -8.008537,-2.095894 -10,-5.3 -2.44686,-3.936805 -2.230907,-9.641675 -0.4,-13.9 1.678412,-3.903651 5.258797,-8.2397 9.5,-8.5 4.780808,-0.293418 9.621667,3.934196 11.8,8.2 2.365322,4.631981 2.716588,11.363233 -0.3,15.6 -2.183662,3.066931 -6.843653,4.153572 -10.6,3.9 z"
         id="path80701"
         sodipodi:nodetypes="aaaaaaa" /></g><g
       inkscape:groupmode="layer"
       id="layer12"
       inkscape:label="legs"
       style="stroke:#e4afb4;stroke-opacity:1"
       transform="matrix(1.3076923,0,0,1.3076923,-7.2296695,-20.351291)"><path
         style="fill:#8f8c81;fill-opacity:1;stroke:#63a438;stroke-width:0;stroke-linecap:round;stroke-linejoin:round;stroke-dasharray:none;stroke-opacity:1"
         d="m 21.020356,61.513411 c 0,0 -2.264537,-1.828485 -3.54839,-1.621465 -1.527102,0.246244 -3.40054,3.157597 -3.40054,3.157597 l 5.016703,-0.538657 1.784378,1.904104 2.082624,-1.095046 4.127058,1.52175 c 0,0 -1.207814,-3.135616 -2.59755,-3.758344 -1.061892,-0.475824 -3.464283,0.430061 -3.464283,0.430061 z"
         id="path82386"
         sodipodi:nodetypes="cacccccac" /><path
         style="fill:#8f8c81;fill-opacity:1;stroke:#63a438;stroke-width:0;stroke-linecap:round;stroke-linejoin:round;stroke-dasharray:none;stroke-opacity:1"
         d="m 38.715086,61.936083 c 0,0 1.88781,-2.190594 3.124126,-2.045729 1.535851,0.179963 3.188408,3.369729 3.188408,3.369729 l -4.191214,-0.83878 -1.407786,1.992095 -2.69022,-0.999704 -3.519462,1.709251 c 0,0 0.335724,-2.934419 1.44314,-3.603812 1.162294,-0.702564 4.053008,0.41695 4.053008,0.41695 z"
         id="path83285"
         sodipodi:nodetypes="cacccccac" /></g><g
       inkscape:groupmode="layer"
       id="layer16"
       inkscape:label="cheeks"
       style="fill:#8cbd3c;fill-opacity:1;stroke:#82b138;stroke-width:0.56667;stroke-dasharray:none;stroke-opacity:1"
       mode="cheeks"
       scale-to="2"
       transform="matrix(1.1103192,0,0,2.8050843,-3.8995016,-30.011602)"
       shake="0.05"><g
         inkscape:groupmode="layer"
         id="layer17"
         inkscape:label="left 1"
         update-origin="true"
         style="fill:#8cbd3c;fill-opacity:1;stroke:#82b138;stroke-width:0.56667;stroke-dasharray:none;stroke-opacity:1"
         inkscape:transform-center-x="3.6715804"
         inkscape:transform-center-y="-0.56474199"><path
           style="fill:#8cbd3c;fill-opacity:1;stroke:#82b138;stroke-width:0.56667;stroke-linecap:round;stroke-linejoin:round;stroke-dasharray:none;stroke-opacity:1"
           d="m 10.95064,19.454971 c -1.9998482,0.01187 -3.9860094,0.629764 -4.93114,1.477014 -0.6388653,0.572702 -0.6346995,1.40339 -0.093742,2.073666 0.6066446,0.751665 1.9986065,1.387689 3.412543,1.772608"
           id="path85011"
           sodipodi:nodetypes="caac"
           inkscape:transform-center-x="0.51898524"
           inkscape:transform-center-y="0.22602484" /></g><g
         inkscape:groupmode="layer"
         id="layer18"
         inkscape:label="right 1"
         update-origin="true"
         style="fill:#8cbd3c;fill-opacity:1;stroke:#82b138;stroke-width:0.56667;stroke-dasharray:none;stroke-opacity:1"><path
           style="fill:#8cbd3c;fill-opacity:1;stroke:#82b138;stroke-width:0.56667;stroke-linecap:round;stroke-linejoin:round;stroke-dasharray:none;stroke-opacity:1"
           d="m 56.481959,19.610037 c 2.006819,0.02078 4.007737,0.509018 4.941524,1.195855 0.667777,0.491177 0.62739,1.202153 0.04095,1.774193 -0.675367,0.658779 -2.165986,1.24437 -3.73844,1.557406"
           id="path84723"
           sodipodi:nodetypes="caac"
           inkscape:transform-center-x="-1.7995864"
           inkscape:transform-center-y="0.22012308" /></g></g><g
       inkscape:groupmode="layer"
       id="layer9"
       inkscape:label="eyes"
       mode="idle"
       scale-to="1.5"
       update-origin="true"
       shake="0.1"
       style="display:none"><g
         inkscape:groupmode="layer"
         id="layer10"
         inkscape:label="left"
         shake-phase="2"><g
           inkscape:groupmode="layer"
           id="layer13"
           inkscape:label="eye"
           color="eyes"><path
             id="path50447"
             style="fill:#f4f2da;fill-opacity:1;stroke:none;stroke-width:0.614762;stroke-linecap:round;stroke-linejoin:round;stroke-opacity:1"
             d="M 22.681543,11.016504 A 6.0500002,7.3500004 0 0 0 17.7,18.25 a 6.0500002,7.3500004 0 0 0 6.05,7.35 6.0500002,7.3500004 0 0 0 6.004883,-6.459668 z" /></g><g
           inkscape:groupmode="layer"
           id="layer14"
           inkscape:label="pupil"
           go-left="0.1"
           go-right="0.05"><ellipse
             style="fill:#4d3c47;fill-opacity:1;stroke:#63a438;stroke-width:0;stroke-linecap:round;stroke-linejoin:round;stroke-dasharray:none;stroke-opacity:1"
             id="path59777"
             cx="24.996225"
             cy="21.099598"
             rx="2.5102291"
             ry="2.305635" /></g><g
           inkscape:groupmode="layer"
           id="layer15"
           inkscape:label="brow"><path
             style="fill:none;fill-opacity:1;stroke:#63a438;stroke-width:2.27641;stroke-linecap:round;stroke-linejoin:round;stroke-dasharray:none;stroke-opacity:1"
             d="m 20.978889,8.311627 c 2.737882,4.544029 5.503581,8.962879 8.980256,10.182338"
             id="path58978"
             sodipodi:nodetypes="cc" /></g></g><g
         inkscape:groupmode="layer"
         id="g84411"
         inkscape:label="right"
         transform="matrix(-1,0,0,1,63.505171,-0.28284271)"
         shake-phase="1"><g
           inkscape:groupmode="layer"
           id="g84401"
           inkscape:label="eye"
           color="eyes"><path
             id="path84399"
             style="fill:#f4f2da;fill-opacity:1;stroke:none;stroke-width:0.614762;stroke-linecap:round;stroke-linejoin:round;stroke-opacity:1"
             d="M 22.681543,11.016504 A 6.0500002,7.3500004 0 0 0 17.7,18.25 a 6.0500002,7.3500004 0 0 0 6.05,7.35 6.0500002,7.3500004 0 0 0 6.004883,-6.459668 z" /></g><g
           inkscape:groupmode="layer"
           id="g84405"
           inkscape:label="pupil"
           go-left="0.05"
           go-right="0.1"><ellipse
             style="fill:#4d3c47;fill-opacity:1;stroke:#63a438;stroke-width:0;stroke-linecap:round;stroke-linejoin:round;stroke-dasharray:none;stroke-opacity:1"
             id="ellipse84403"
             cx="24.996225"
             cy="21.099598"
             rx="2.5102291"
             ry="2.305635" /></g><g
           inkscape:groupmode="layer"
           id="g84409"
           inkscape:label="brow"><path
             style="fill:none;fill-opacity:1;stroke:#63a438;stroke-width:2.27641;stroke-linecap:round;stroke-linejoin:round;stroke-dasharray:none;stroke-opacity:1"
             d="m 20.978889,8.311627 c 2.286732,4.454143 4.493097,9.028836 8.980256,10.182338"
             id="path84407"
             sodipodi:nodetypes="cc" /></g></g></g><g
       inkscape:groupmode="layer"
       id="layer20"
       inkscape:label="force"
       style="stroke:#e4afb4;stroke-opacity:1"
       mode="force-fart"
       scale-to="1.5"><path
         style="fill:none;fill-opacity:0;stroke:#558d30;stroke-width:1.88976;stroke-linecap:round;stroke-linejoin:round;stroke-dasharray:none;stroke-opacity:1"
         d="M 37,19.6 44.8,20"
         id="path92802" /><path
         style="display:inline;fill:none;fill-opacity:1;stroke:#63a438;stroke-width:2.27641;stroke-linecap:round;stroke-linejoin:round;stroke-dasharray:none;stroke-opacity:1"
         d="m 46.89444,12.510176 c -3.814801,3.242811 -7.601381,6.62773 -12.18888,5.979648"
         id="path84407-0"
         sodipodi:nodetypes="cc" /><path
         style="fill:none;fill-opacity:0;stroke:#558d30;stroke-width:1.88976;stroke-linecap:round;stroke-linejoin:round;stroke-dasharray:none;stroke-opacity:1"
         d="m 26.3,19.8 -7.2,0.4"
         id="path93467"
         sodipodi:nodetypes="cc" /><path
         style="display:inline;fill:none;fill-opacity:1;stroke:#63a438;stroke-width:2.27641;stroke-linecap:round;stroke-linejoin:round;stroke-dasharray:none;stroke-opacity:1"
         d="m 15.90556,13.010176 c 3.925136,3.077308 5.790309,6.144337 12.18888,5.979648"
         id="path93469"
         sodipodi:nodetypes="cc" /></g><g
       inkscape:groupmode="layer"
       id="layer6"
       inkscape:label="beak"
       style="stroke:#e4afb4;stroke-opacity:1"
       transform="matrix(1.2158444,0,0,1.2158444,-6.111864,-5.0250684)"
       shake="0.05"><path
         style="fill:#eebd01;fill-opacity:1;stroke:none;stroke-width:0.5;stroke-linecap:round;stroke-linejoin:round;stroke-opacity:1"
         d="m 25.2,26.3 c 0.04081,-2.46723 3.332873,-4.553399 5.8,-4.6 2.479701,-0.04684 5.783194,1.929351 6,4.4 0.397332,4.527861 -5.219716,14.6 -6.1,14.6 -0.880284,0 -5.77952,-9.592815 -5.7,-14.4 z"
         id="path19783"
         sodipodi:nodetypes="saszs" /><path
         style="fill:#f0db41;fill-opacity:0.651558;stroke:none;stroke-width:0.5;stroke-linecap:round;stroke-linejoin:round"
         d="m 31.749095,31.961226 c -1.880027,-0.276785 -2.84702,-3.42435 -2.262742,-5.23259 0.438732,-1.357801 2.320364,-2.634492 3.676955,-2.192031 1.315245,0.428976 1.831608,2.450255 1.626346,3.818377 -0.233288,1.554927 -1.484997,3.83526 -3.040559,3.606244 z"
         id="path39753"
         sodipodi:nodetypes="aaaaa" /></g><g
       inkscape:groupmode="layer"
       id="layer5"
       inkscape:label="left wing"
       style="stroke:#e4afb4;stroke-opacity:1"
       shake="0.1"><path
         style="stroke:none;stroke-opacity:1;fill:#4d1770;fill-opacity:1;stroke-width:0.5;stroke-linecap:round;stroke-linejoin:round"
         d="m 18.2,55.2 c 3.202013,2.011467 10.607056,3.453475 11.3,1 0.69621,-2.465036 -4.8,-5 -4.8,-5 0,0 8.671727,3.87721 9.8,0.8 1.143171,-3.117842 -8.1,-5.8 -8.1,-5.8 0,0 6.227532,1.711598 7.2,-0.3 1.216918,-2.517255 -6.686863,-6.039426 -10.9,-6.9 -4.26847,-0.871876 -11.059862,-1.84891 -12.9,2.1 -2.310764,4.958868 3.767394,11.189852 8.4,14.1 z"
         id="path28543"
         sodipodi:nodetypes="ascacsaaa" /><path
         style="stroke:none;stroke-opacity:1;fill:#63a438;fill-opacity:1;stroke-width:0.5;stroke-linecap:round;stroke-linejoin:round"
         d="m 11.1,50.7 c 2.605443,2.788767 7.676796,7.772068 10.3,5 2.122964,-2.24344 -4.5,-8.1 -4.5,-8.1 0,0 6.904141,4.84578 8.6,2.4 1.739959,-2.50938 -5.4,-7.4 -5.4,-7.4 0,0 7.526313,3.767698 8.8,1.1 1.615001,-3.382569 -4.69863,-6.224981 -8.1,-7.8 -2.705787,-1.252927 -6.141361,-2.031822 -8.9,-0.9 -2.3217238,0.952563 -4.4158601,3.320037 -4.8,5.8 -0.5448111,3.517237 1.5702129,7.299248 4,9.9 z"
         id="path27107"
         sodipodi:nodetypes="aacacaaaaa" /><path
         style="stroke:none;stroke-opacity:1;fill:#bed940;fill-opacity:1;stroke-width:0.5;stroke-linecap:round;stroke-linejoin:round"
         d="m 17.1,32.6 c 2.905447,1.424992 7.423502,5.397624 5.5,8 -1.4538,1.966898 -7,-2.2 -7,-2.2 0,0 5.929425,6.542925 3.6,8.6 -2.361498,2.085398 -8.2,-4.7 -8.2,-4.7 0,0 5.414791,7.513478 2.7,9.2 C 10.273487,53.628668 6.1063071,47.116515 4.8,43.3 3.6944247,40.069944 3.9566243,35.477454 6.5,33.2 9.1364726,30.839183 13.922594,31.041624 17.1,32.6 Z"
         id="path24774"
         sodipodi:nodetypes="aacacaaaa" /></g><g
       inkscape:groupmode="layer"
       id="g39689"
       inkscape:label="right wing"
       style="stroke:#e4afb4;stroke-opacity:1"
       transform="matrix(-1,0,0,1,64.178305,-0.5)"
       shake="0.1"><path
         style="fill:#661f94;fill-opacity:1;stroke:none;stroke-width:0.5;stroke-linecap:round;stroke-linejoin:round;stroke-opacity:1"
         d="m 17.6,54.25 c 3.060099,2.28022 10.657056,3.953475 11.35,1.5 0.69621,-2.465036 -7.25,-5.1 -7.25,-5.1 0,0 9.913714,3.856613 11.1,0.35 0.945594,-2.795138 -7.2,-5.15 -7.2,-5.15 0,0 6.277532,0.911598 7.25,-1.1 1.216918,-2.517255 -6.964148,-4.529486 -10.95,-5.1 -3.388026,-0.484944 -8.512386,-1.455347 -10.15,1.55 -2.2809346,4.185969 2.027452,10.201645 5.85,13.05 z"
         id="path39683"
         sodipodi:nodetypes="ascacsaaa" /><path
         style="fill:#63a438;fill-opacity:1;stroke:none;stroke-width:0.5;stroke-linecap:round;stroke-linejoin:round;stroke-opacity:1"
         d="m 11.7,51.45 c 2.409094,2.086701 7.779382,4.773304 9.35,2 1.17965,-2.082956 -4.9,-5.25 -4.9,-5.25 0,0 7.061617,3.745082 8.65,1.3 1.367655,-2.105303 -4.05,-6.35 -4.05,-6.35 0,0 5.897819,2.881099 6.95,0.8 1.468575,-2.904682 -3.707724,-5.758275 -6.65,-7.15 -2.430337,-1.149573 -5.533076,-1.445066 -8.05,-0.5 -2.217658,0.832696 -4.5371306,2.687349 -5.05,5 -0.78091,3.52131 1.0236732,7.78852 3.75,10.15 z"
         id="path39685"
         sodipodi:nodetypes="aacacaaaaa" /><path
         style="fill:#bed940;fill-opacity:1;stroke:none;stroke-width:0.5;stroke-linecap:round;stroke-linejoin:round;stroke-opacity:1"
         d="m 17.4,33.3 c 2.675237,1.077572 6.726176,4.2654 5.35,6.8 -1.141918,2.103151 -7.15,-0.65 -7.15,-0.65 0,0 5.19286,4.552102 3.65,6.5 -1.83082,2.311454 -8.5,-2.45 -8.5,-2.45 0,0 5.112117,5.410708 3.15,7.1 C 11.429784,52.726742 7.2322688,48.199811 5.65,45.35 3.9671402,42.319015 3.2864869,37.575909 5.55,34.95 8.1538604,31.929253 13.700711,31.809945 17.4,33.3 Z"
         id="path39687"
         sodipodi:nodetypes="aacacaaaa" /></g></g></svg>
