<?xml version="1.0" encoding="UTF-8" standalone="no"?>
<!-- Created with Inkscape (http://www.inkscape.org/) -->

<svg
   inkscape:export-ydpi="96"
   inkscape:export-xdpi="96"
   inkscape:export-filename="..\Projects\getting-farted-on\dev\assets\guy\closed_eyes.png"
   inkscape:version="1.2.2 (732a01da63, 2022-12-09)"
   sodipodi:docname="pomo.svg"
   xml:space="preserve"
   id="svg5"
   version="1.1"
   viewBox="0 0 65.622687 64.922998"
   height="1298.46"
   width="1312.4537"
   xmlns:inkscape="http://www.inkscape.org/namespaces/inkscape"
   xmlns:sodipodi="http://sodipodi.sourceforge.net/DTD/sodipodi-0.dtd"
   xmlns="http://www.w3.org/2000/svg"
   xmlns:svg="http://www.w3.org/2000/svg"><sodipodi:namedview
     id="namedview7"
     pagecolor="#ffffff"
     bordercolor="#000000"
     borderopacity="0.25"
     inkscape:showpageshadow="2"
     inkscape:pageopacity="1"
     inkscape:pagecheckerboard="0"
     inkscape:deskcolor="#d1d1d1"
     inkscape:document-units="mm"
     showgrid="false"
     showguides="true"
     inkscape:lockguides="false"
     inkscape:zoom="0.5"
     inkscape:cx="467"
     inkscape:cy="726"
     inkscape:window-width="2560"
     inkscape:window-height="1369"
     inkscape:window-x="-8"
     inkscape:window-y="-8"
     inkscape:window-maximized="1"
     inkscape:current-layer="layer97" /><defs
     id="defs2"><inkscape:path-effect
       effect="fillet_chamfer"
       id="path-effect152284"
       is_visible="true"
       lpeversion="1"
       nodesatellites_param="F,0,0,1,0,1.8520833,0,1 @ F,0,0,1,0,1.8520833,0,1 @ F,0,0,1,0,1.8520833,0,1 @ F,0,0,1,0,1.8520833,0,1 @ F,0,0,1,0,1.8520833,0,1 @ F,0,0,1,0,1.8520833,0,1 @ F,0,0,1,0,1.8520833,0,1 @ F,0,0,1,0,1.8520833,0,1 @ F,0,0,1,0,1.8520833,0,1 @ F,0,0,1,0,1.8520833,0,1 @ F,0,0,1,0,1.8520833,0,1 @ F,0,0,1,0,1.8520833,0,1 @ F,0,0,1,0,1.8520833,0,1 @ F,0,0,1,0,1.8520833,0,1 @ F,0,0,1,0,1.8520833,0,1 @ F,0,0,1,0,1.8520833,0,1 @ F,0,0,1,0,1.8520833,0,1 @ F,0,0,1,0,1.8520833,0,1 @ F,0,0,1,0,1.8520833,0,1 @ F,0,0,1,0,1.8520833,0,1 @ F,0,0,1,0,1.8520833,0,1 @ F,0,0,1,0,1.8520833,0,1 @ F,0,0,1,0,1.8520833,0,1 @ F,0,0,1,0,1.8520833,0,1 @ F,0,0,1,0,1.8520833,0,1 @ F,0,0,1,0,1.8520833,0,1 @ F,0,0,1,0,1.8520833,0,1 @ F,0,0,1,0,1.8520833,0,1 @ F,0,0,1,0,1.8520833,0,1 @ F,0,0,1,0,1.8520833,0,1 @ F,0,0,1,0,1.8520833,0,1 @ F,0,0,1,0,1.8520833,0,1 @ F,0,0,1,0,1.8520833,0,1 @ F,0,0,1,0,1.8520833,0,1 @ F,0,0,1,0,1.8520833,0,1 @ F,0,0,1,0,1.8520833,0,1"
       unit="px"
       method="auto"
       mode="F"
       radius="7"
       chamfer_steps="1"
       flexible="false"
       use_knot_distance="true"
       apply_no_radius="true"
       apply_with_radius="true"
       only_selected="false"
       hide_knots="false" /><inkscape:path-effect
       effect="fillet_chamfer"
       id="path-effect146764"
       is_visible="true"
       lpeversion="1"
       nodesatellites_param="F,0,0,1,0,1.8520833,0,1 @ F,0,0,1,0,1.8520833,0,1 @ F,0,0,1,0,1.8520833,0,1 @ F,0,0,1,0,1.8520833,0,1 @ F,0,0,1,0,1.8520833,0,1 @ F,0,0,1,0,1.8520833,0,1 @ F,0,0,1,0,1.8520833,0,1 @ F,0,0,1,0,1.8520833,0,1 @ F,0,0,1,0,1.8520833,0,1 @ F,0,0,1,0,1.8520833,0,1 @ F,0,0,1,0,1.8520833,0,1 @ F,0,0,1,0,1.8520833,0,1 @ F,0,0,1,0,1.8520833,0,1 @ F,0,0,1,0,1.8520833,0,1 @ F,0,0,1,0,1.8520833,0,1 @ F,0,0,1,0,1.8520833,0,1 @ F,0,0,1,0,1.8520833,0,1 @ F,0,0,1,0,1.8520833,0,1 @ F,0,0,1,0,1.8520833,0,1 @ F,0,0,1,0,1.8520833,0,1 @ F,0,0,1,0,1.8520833,0,1 @ F,0,0,1,0,1.8520833,0,1 @ F,0,0,1,0,1.8520833,0,1 @ F,0,0,1,0,1.8520833,0,1 @ F,0,0,1,0,1.8520833,0,1 @ F,0,0,1,0,1.8520833,0,1 @ F,0,0,1,0,1.8520833,0,1 @ F,0,0,1,0,1.8520833,0,1 @ F,0,0,1,0,1.8520833,0,1 @ F,0,0,1,0,1.8520833,0,1 @ F,0,0,1,0,1.8520833,0,1 @ F,0,0,1,0,1.8520833,0,1 @ F,0,0,1,0,1.8520833,0,1 @ F,0,0,1,0,1.8520833,0,1 @ F,0,0,1,0,1.8520833,0,1 @ F,0,0,1,0,1.8520833,0,1"
       unit="px"
       method="auto"
       mode="F"
       radius="7"
       chamfer_steps="1"
       flexible="false"
       use_knot_distance="true"
       apply_no_radius="true"
       apply_with_radius="true"
       only_selected="false"
       hide_knots="false" /><inkscape:path-effect
       effect="fillet_chamfer"
       id="path-effect146343"
       is_visible="true"
       lpeversion="1"
       nodesatellites_param="F,0,0,1,0,1.8520833,0,1 @ F,0,0,1,0,1.8520833,0,1 @ F,0,0,1,0,1.8520833,0,1 @ F,0,0,1,0,1.8520833,0,1 @ F,0,0,1,0,1.8520833,0,1 @ F,0,0,1,0,1.8520833,0,1 @ F,0,0,1,0,1.8520833,0,1 @ F,0,0,1,0,1.8520833,0,1 @ F,0,0,1,0,1.8520833,0,1 @ F,0,0,1,0,1.8520833,0,1 @ F,0,0,1,0,1.8520833,0,1 @ F,0,0,1,0,1.8520833,0,1 @ F,0,0,1,0,1.8520833,0,1 @ F,0,0,1,0,1.8520833,0,1 @ F,0,0,1,0,1.8520833,0,1 @ F,0,0,1,0,1.8520833,0,1 @ F,0,0,1,0,1.8520833,0,1 @ F,0,0,1,0,1.8520833,0,1 @ F,0,0,1,0,1.8520833,0,1 @ F,0,0,1,0,1.8520833,0,1 @ F,0,0,1,0,1.8520833,0,1 @ F,0,0,1,0,1.8520833,0,1 @ F,0,0,1,0,1.8520833,0,1 @ F,0,0,1,0,1.8520833,0,1 @ F,0,0,1,0,1.8520833,0,1 @ F,0,0,1,0,1.8520833,0,1 @ F,0,0,1,0,1.8520833,0,1 @ F,0,0,1,0,1.8520833,0,1 @ F,0,0,1,0,1.8520833,0,1 @ F,0,0,1,0,1.8520833,0,1 @ F,0,0,1,0,1.8520833,0,1 @ F,0,0,1,0,1.8520833,0,1 @ F,0,0,1,0,1.8520833,0,1 @ F,0,0,1,0,1.8520833,0,1 @ F,0,0,1,0,1.8520833,0,1 @ F,0,0,1,0,1.8520833,0,1 @ F,0,0,1,0,1.8520833,0,1 @ F,0,0,1,0,1.8520833,0,1 @ F,0,0,1,0,1.8520833,0,1 @ F,0,0,1,0,1.8520833,0,1 @ F,0,0,1,0,1.8520833,0,1 @ F,0,0,1,0,1.8520833,0,1 @ F,0,0,1,0,1.8520833,0,1 @ F,0,0,1,0,1.8520833,0,1 @ F,0,0,1,0,1.8520833,0,1 @ F,0,0,1,0,1.8520833,0,1 @ F,0,0,1,0,1.8520833,0,1 @ F,0,0,1,0,1.8520833,0,1"
       unit="px"
       method="auto"
       mode="F"
       radius="7"
       chamfer_steps="1"
       flexible="false"
       use_knot_distance="true"
       apply_no_radius="true"
       apply_with_radius="true"
       only_selected="false"
       hide_knots="false" /><inkscape:path-effect
       effect="fillet_chamfer"
       id="path-effect145973"
       is_visible="true"
       lpeversion="1"
       nodesatellites_param="F,0,0,1,0,2.1166667,0,1 @ F,0,0,1,0,2.1166667,0,1 @ F,0,0,1,0,2.1166667,0,1 @ F,0,0,1,0,2.1166667,0,1 @ F,0,0,1,0,2.1166667,0,1 @ F,0,0,1,0,2.1166667,0,1 @ F,0,0,1,0,2.1166667,0,1 @ F,0,0,1,0,2.1166667,0,1 @ F,0,0,1,0,2.1166667,0,1 @ F,0,0,1,0,2.1166667,0,1 @ F,0,0,1,0,2.1166667,0,1 @ F,0,0,1,0,2.1166667,0,1 @ F,0,0,1,0,2.1166667,0,1 @ F,0,0,1,0,2.1166667,0,1 @ F,0,0,1,0,2.1166667,0,1 @ F,0,0,1,0,2.1166667,0,1 @ F,0,0,1,0,2.1166667,0,1 @ F,0,0,1,0,2.1166667,0,1 @ F,0,0,1,0,2.1166667,0,1 @ F,0,0,1,0,2.1166667,0,1 @ F,0,0,1,0,2.1166667,0,1 @ F,0,0,1,0,2.1166667,0,1 @ F,0,0,1,0,2.1166667,0,1 @ F,0,0,1,0,2.1166667,0,1 @ F,0,0,1,0,2.1166667,0,1 @ F,0,0,1,0,2.1166667,0,1 @ F,0,0,1,0,2.1166667,0,1 @ F,0,0,1,0,2.1166667,0,1 @ F,0,0,1,0,2.1166667,0,1 @ F,0,0,1,0,2.1166667,0,1 @ F,0,0,1,0,2.1166667,0,1 @ F,0,0,1,0,2.1166667,0,1"
       unit="px"
       method="auto"
       mode="F"
       radius="8"
       chamfer_steps="1"
       flexible="false"
       use_knot_distance="true"
       apply_no_radius="true"
       apply_with_radius="true"
       only_selected="false"
       hide_knots="false" /><inkscape:path-effect
       effect="fillet_chamfer"
       id="path-effect133856"
       is_visible="true"
       lpeversion="1"
       nodesatellites_param="F,0,0,1,0,0,0,1 @ F,0,0,1,0,3.96875,0,1 @ F,0,0,1,0,3.96875,0,1"
       unit="px"
       method="auto"
       mode="F"
       radius="15"
       chamfer_steps="1"
       flexible="false"
       use_knot_distance="true"
       apply_no_radius="true"
       apply_with_radius="true"
       only_selected="false"
       hide_knots="false" /><inkscape:path-effect
       effect="fillet_chamfer"
       id="path-effect23775"
       is_visible="true"
       lpeversion="1"
       nodesatellites_param="F,0,0,1,0,2.1166667,0,1 @ F,0,0,1,0,2.1166667,0,1 @ F,0,0,1,0,2.1166667,0,1 @ F,0,0,1,0,2.1166667,0,1 @ F,0,0,1,0,2.1166667,0,1 @ F,0,0,1,0,2.1166667,0,1 @ F,0,0,1,0,2.1166667,0,1 @ F,0,0,1,0,2.1166667,0,1 @ F,0,0,1,0,2.1166667,0,1 @ F,0,0,1,0,2.1166667,0,1"
       unit="px"
       method="auto"
       mode="F"
       radius="8"
       chamfer_steps="1"
       flexible="false"
       use_knot_distance="true"
       apply_no_radius="true"
       apply_with_radius="true"
       only_selected="false"
       hide_knots="false" /><inkscape:path-effect
       effect="bspline"
       id="path-effect6943"
       is_visible="true"
       lpeversion="1"
       weight="33.333333"
       steps="2"
       helper_size="0"
       apply_no_weight="true"
       apply_with_weight="true"
       only_selected="false" /><inkscape:path-effect
       effect="bspline"
       id="path-effect1482"
       is_visible="true"
       lpeversion="1"
       weight="33.333333"
       steps="2"
       helper_size="0"
       apply_no_weight="true"
       apply_with_weight="true"
       only_selected="false" /><inkscape:path-effect
       effect="bspline"
       id="path-effect105595"
       is_visible="true"
       lpeversion="1"
       weight="33.333333"
       steps="2"
       helper_size="0"
       apply_no_weight="true"
       apply_with_weight="true"
       only_selected="false" /><inkscape:path-effect
       effect="bspline"
       id="path-effect105345"
       is_visible="true"
       lpeversion="1"
       weight="33.333333"
       steps="2"
       helper_size="0"
       apply_no_weight="true"
       apply_with_weight="true"
       only_selected="false" /><inkscape:path-effect
       effect="bspline"
       id="path-effect46172"
       is_visible="true"
       lpeversion="1"
       weight="33.333333"
       steps="2"
       helper_size="0"
       apply_no_weight="true"
       apply_with_weight="true"
       only_selected="false" /><inkscape:path-effect
       effect="bspline"
       id="path-effect46168"
       is_visible="true"
       lpeversion="1"
       weight="33.333333"
       steps="2"
       helper_size="0"
       apply_no_weight="true"
       apply_with_weight="true"
       only_selected="false" /><inkscape:path-effect
       effect="bspline"
       id="path-effect43935"
       is_visible="true"
       lpeversion="1"
       weight="33.333333"
       steps="2"
       helper_size="0"
       apply_no_weight="true"
       apply_with_weight="true"
       only_selected="false" /><inkscape:path-effect
       effect="bspline"
       id="path-effect43205"
       is_visible="true"
       lpeversion="1"
       weight="33.333333"
       steps="2"
       helper_size="0"
       apply_no_weight="true"
       apply_with_weight="true"
       only_selected="false" /><inkscape:path-effect
       effect="bspline"
       id="path-effect43201"
       is_visible="true"
       lpeversion="1"
       weight="33.333333"
       steps="2"
       helper_size="0"
       apply_no_weight="true"
       apply_with_weight="true"
       only_selected="false" /><inkscape:path-effect
       effect="bspline"
       id="path-effect43197"
       is_visible="true"
       lpeversion="1"
       weight="33.333333"
       steps="2"
       helper_size="0"
       apply_no_weight="true"
       apply_with_weight="true"
       only_selected="false" /><inkscape:path-effect
       effect="bspline"
       id="path-effect37328"
       is_visible="true"
       lpeversion="1"
       weight="33.333333"
       steps="2"
       helper_size="0"
       apply_no_weight="true"
       apply_with_weight="true"
       only_selected="false" /><inkscape:path-effect
       effect="bspline"
       id="path-effect37216"
       is_visible="true"
       lpeversion="1"
       weight="33.333333"
       steps="2"
       helper_size="0"
       apply_no_weight="true"
       apply_with_weight="true"
       only_selected="false" /><inkscape:path-effect
       effect="bspline"
       id="path-effect37212"
       is_visible="true"
       lpeversion="1"
       weight="33.333333"
       steps="2"
       helper_size="0"
       apply_no_weight="true"
       apply_with_weight="true"
       only_selected="false" /><inkscape:path-effect
       effect="bspline"
       id="path-effect37100"
       is_visible="true"
       lpeversion="1"
       weight="33.333333"
       steps="2"
       helper_size="0"
       apply_no_weight="true"
       apply_with_weight="true"
       only_selected="false" /><inkscape:path-effect
       effect="bspline"
       id="path-effect35643"
       is_visible="true"
       lpeversion="1"
       weight="33.333333"
       steps="2"
       helper_size="0"
       apply_no_weight="true"
       apply_with_weight="true"
       only_selected="false" /><inkscape:path-effect
       effect="bspline"
       id="path-effect34937"
       is_visible="true"
       lpeversion="1"
       weight="33.333333"
       steps="2"
       helper_size="0"
       apply_no_weight="true"
       apply_with_weight="true"
       only_selected="false" /><inkscape:path-effect
       effect="bspline"
       id="path-effect34933"
       is_visible="true"
       lpeversion="1"
       weight="33.333333"
       steps="2"
       helper_size="0"
       apply_no_weight="true"
       apply_with_weight="true"
       only_selected="false" /><inkscape:path-effect
       effect="bspline"
       id="path-effect34875"
       is_visible="true"
       lpeversion="1"
       weight="33.333333"
       steps="2"
       helper_size="0"
       apply_no_weight="true"
       apply_with_weight="true"
       only_selected="false" /><inkscape:path-effect
       effect="bspline"
       id="path-effect34144"
       is_visible="true"
       lpeversion="1"
       weight="33.333333"
       steps="2"
       helper_size="0"
       apply_no_weight="true"
       apply_with_weight="true"
       only_selected="false" /><inkscape:path-effect
       effect="bspline"
       id="path-effect34086"
       is_visible="true"
       lpeversion="1"
       weight="33.333333"
       steps="2"
       helper_size="0"
       apply_no_weight="true"
       apply_with_weight="true"
       only_selected="false" /><inkscape:path-effect
       effect="bspline"
       id="path-effect33594"
       is_visible="true"
       lpeversion="1"
       weight="33.333333"
       steps="2"
       helper_size="0"
       apply_no_weight="true"
       apply_with_weight="true"
       only_selected="false" /><inkscape:path-effect
       effect="bspline"
       id="path-effect33583"
       is_visible="true"
       lpeversion="1"
       weight="33.333333"
       steps="2"
       helper_size="0"
       apply_no_weight="true"
       apply_with_weight="true"
       only_selected="false" /><inkscape:path-effect
       effect="bspline"
       id="path-effect33579"
       is_visible="true"
       lpeversion="1"
       weight="33.333333"
       steps="2"
       helper_size="0"
       apply_no_weight="true"
       apply_with_weight="true"
       only_selected="false" /><inkscape:path-effect
       effect="bspline"
       id="path-effect33575"
       is_visible="true"
       lpeversion="1"
       weight="33.333333"
       steps="2"
       helper_size="0"
       apply_no_weight="true"
       apply_with_weight="true"
       only_selected="false" /><inkscape:path-effect
       effect="bspline"
       id="path-effect31711"
       is_visible="true"
       lpeversion="1"
       weight="33.333333"
       steps="2"
       helper_size="0"
       apply_no_weight="true"
       apply_with_weight="true"
       only_selected="false" /><inkscape:path-effect
       effect="bspline"
       id="path-effect21040"
       is_visible="true"
       lpeversion="1"
       weight="33.333333"
       steps="2"
       helper_size="0"
       apply_no_weight="true"
       apply_with_weight="true"
       only_selected="false" /><inkscape:path-effect
       effect="bspline"
       id="path-effect21036"
       is_visible="true"
       lpeversion="1"
       weight="33.333333"
       steps="2"
       helper_size="0"
       apply_no_weight="true"
       apply_with_weight="true"
       only_selected="false" /><inkscape:path-effect
       effect="bspline"
       id="path-effect21032"
       is_visible="true"
       lpeversion="1"
       weight="33.333333"
       steps="2"
       helper_size="0"
       apply_no_weight="true"
       apply_with_weight="true"
       only_selected="false" /><inkscape:path-effect
       effect="bspline"
       id="path-effect21028"
       is_visible="true"
       lpeversion="1"
       weight="33.333333"
       steps="2"
       helper_size="0"
       apply_no_weight="true"
       apply_with_weight="true"
       only_selected="false" /><inkscape:path-effect
       effect="bspline"
       id="path-effect21024"
       is_visible="true"
       lpeversion="1"
       weight="33.333333"
       steps="2"
       helper_size="0"
       apply_no_weight="true"
       apply_with_weight="true"
       only_selected="false" /><inkscape:path-effect
       effect="bspline"
       id="path-effect21004"
       is_visible="true"
       lpeversion="1"
       weight="33.333333"
       steps="2"
       helper_size="0"
       apply_no_weight="true"
       apply_with_weight="true"
       only_selected="false" /><inkscape:path-effect
       effect="fill_between_many"
       method="originald"
       linkedpaths="#path21022,0,1|#path21026,0,1"
       id="path-effect26602"
       is_visible="true"
       lpeversion="0"
       join="true"
       close="true"
       autoreverse="true" /><inkscape:path-effect
       effect="bspline"
       id="path-effect43935-4"
       is_visible="true"
       lpeversion="1"
       weight="33.333333"
       steps="2"
       helper_size="0"
       apply_no_weight="true"
       apply_with_weight="true"
       only_selected="false" /><inkscape:path-effect
       effect="bspline"
       id="path-effect43205-8"
       is_visible="true"
       lpeversion="1"
       weight="33.333333"
       steps="2"
       helper_size="0"
       apply_no_weight="true"
       apply_with_weight="true"
       only_selected="false" /><inkscape:path-effect
       effect="bspline"
       id="path-effect43201-5"
       is_visible="true"
       lpeversion="1"
       weight="33.333333"
       steps="2"
       helper_size="0"
       apply_no_weight="true"
       apply_with_weight="true"
       only_selected="false" /></defs><g
     inkscape:groupmode="layer"
     id="layer101"
     inkscape:label="growl"
     mode="growl"
     scale="0.5"><path
       style="opacity:1;fill:#c19679;fill-opacity:1;stroke:none;stroke-width:2.07874;stroke-linecap:round;stroke-dasharray:none;stroke-opacity:1"
       d="M 41.186248,1.8183967 C 40.707297,1.6445884 40.189684,1.4540423 39.712991,1.277451 38.755254,0.92265739 37.181584,0.85326639 36.196184,1.1276128 l -2.013226,0.5605051 a 10.710212,10.710212 174.25315 0 1 -3.63165,0.3654863 L 27.38668,1.8287537 A 5.161988,5.161988 164.32649 0 0 24.029778,2.7706621 L 23.706173,3.0007304 A 6.9807038,6.9807038 159.44795 0 1 20.353749,4.2576231 L 17.58895,4.5332444 A 3.7095139,3.7095139 147.77502 0 0 14.785384,6.3004522 7.9145162,7.9145162 134.43102 0 1 12.320269,8.8150204 L 9.6710637,10.538707 a 5.6412493,5.6412493 128.77468 0 0 -2.2040244,2.743735 l -1.2440604,3.309926 a 13.497399,13.497399 118.41232 0 1 -1.7461297,3.22774 l -1.4563149,1.987944 a 5.7343371,5.7343371 108.32604 0 0 -1.1083049,3.346102 l -0.019177,2.57589 a 12.589597,12.589597 98.795437 0 1 -0.5603622,3.621628 l -0.91383773,2.958654 a 5.6769157,5.6769157 89.095496 0 0 0.05559,3.521056 l 0.75953674,2.209195 a 10.945806,10.945806 80.630436 0 1 0.5945935,3.603528 l -0.012,2.93584 a 4.5196237,4.5196237 67.951012 0 0 1.286697,3.176864 l 1.1473613,1.174425 a 6.9071697,6.9071697 60.677988 0 1 1.7521014,3.119399 l 0.4087531,1.602218 a 3.3055221,3.3055221 46.426247 0 0 2.2274296,2.341178 l 1.6590845,0.512441 a 7.787867,7.787867 30.54173 0 1 3.103687,1.831258 l 0.908115,0.874482 a 4.3153768,4.3153768 20.690961 0 0 3.18436,1.202695 l 3.129795,-0.138685 a 10.601496,10.601496 7.3723846 0 1 3.618738,0.468218 l 3.300776,1.026938 a 6.8121686,6.8121686 2.0721078 0 0 3.572078,0.129241 l 4.154736,-0.969724 a 15.604566,15.604566 173.63094 0 1 3.655646,-0.408047 l 3.075877,0.02145 c 1.022852,0.0071 2.486216,-0.521341 3.273352,-1.174572 0.447375,-0.37127 0.942517,-0.779587 1.394264,-1.146337 0.792168,-0.643121 2.276908,-1.304606 3.278545,-1.511573 1.078125,-0.222771 2.439347,-0.499055 3.516447,-0.716719 1.00213,-0.202513 2.096189,-1.145583 2.443382,-2.107734 l 1.119786,-3.103188 a 4.6590888,4.6590888 131.52083 0 1 2.281786,-2.577201 l 0.545818,-0.275717 a 3.3775732,3.3775732 124.46162 0 0 1.837845,-2.677922 L 62.1424,42.769913 a 11.920136,11.920136 104.55525 0 1 0.91987,-3.542776 l 0.88553,-2.047619 a 5.189402,5.189402 93.745587 0 0 0.2279,-3.481189 l -0.788668,-2.769416 a 8.6807903,8.6807903 86.147965 0 1 -0.243368,-3.614449 l 0.389056,-2.702646 a 3.806399,3.806399 72.245474 0 0 -1.015694,-3.172165 l -0.607262,-0.635447 a 5.2876022,5.2876022 65.603041 0 1 -1.444009,-3.18375 l -0.13556,-1.520961 A 3.7941206,3.7941206 58.887705 0 0 58.610178,13.249572 L 56.884729,12.134671 A 4.8092173,4.8092173 53.930843 0 1 54.849562,9.3406017 L 54.693174,8.7572349 A 2.8087567,2.8087567 41.592393 0 0 52.380418,6.7044228 L 51.987416,6.6478487 A 3.7743172,3.7743172 34.329193 0 1 49.241284,4.772513 L 48.731606,3.8728818 A 3.0652126,3.0652126 29.325203 0 0 45.967507,2.3201425 l -1.177863,0.037351 c -1.022364,0.03242 -2.642223,-0.190293 -3.603396,-0.5390969 z"
       id="path152280"
       inkscape:path-effect="#path-effect152284"
       inkscape:original-d="M 42.938491,2.4161952 C 42.588545,2.365819 37.980408,0.63086472 37.980408,0.63086472 L 32.398734,2.1848659 25.539254,1.697492 22.196697,4.0739005 15.746002,4.716967 13.87268,7.8049551 8.1186524,11.548772 l -2.5472866,6.777266 -3.6453481,4.976084 -0.046754,6.279954 -2.00698558,6.497846 1.96386458,5.712115 -0.027141,6.639976 3.7358961,3.824017 1.3244211,5.191424 5.1982752,1.605591 3.576299,3.443848 6.830331,-0.302661 6.837716,2.12735 7.761952,-1.811654 6.779953,0.04729 c 0,0 3.98361,-3.355722 4.283717,-3.455398 0.300108,-0.09968 7.141587,-1.472326 7.141587,-1.472326 l 2.377082,-6.587446 3.852094,-1.945861 0.818782,-8.169124 2.355856,-5.447471 -1.803194,-6.331942 0.916846,-6.369018 -3.16644,-3.313405 -0.4644,-5.210503 L 55.329132,11.129519 54.213604,6.9683176 50.15423,6.3839539 47.81866,2.2614409 Z" /></g><g
     inkscape:groupmode="layer"
     id="layer87"
     inkscape:label="body"
     shake="0"
     style="display:inline"><g
       inkscape:groupmode="layer"
       id="layer98"
       inkscape:label="skin"><path
         style="opacity:1;fill:#c19679;fill-opacity:1;stroke:none;stroke-width:2.07874;stroke-linecap:round;stroke-dasharray:none;stroke-opacity:1"
         d="M 1.2136049,28.406758 C 1.1098134,28.905586 0.9949637,29.445068 0.88809609,29.94206 0.67338595,30.940577 0.828928,32.508079 1.2408802,33.444334 l 0.8416415,1.912821 a 10.710212,10.710212 76.061458 0 1 0.8792143,3.542519 l 0.228357,3.164378 a 5.1619882,5.1619882 66.134797 0 0 1.4106075,3.188443 l 0.2738298,0.287521 a 6.9807041,6.9807041 61.256258 0 1 1.72174,3.139131 l 0.6667524,2.697316 a 3.7095139,3.7095139 49.583326 0 0 2.1486441,2.52316 7.9145142,7.9145142 36.239326 0 1 2.8401542,2.081674 l 2.083573,2.376576 a 5.6412486,5.6412486 30.58299 0 0 3.029782,1.790594 l 3.453414,0.759751 a 13.497401,13.497401 20.220624 0 1 3.443606,1.268408 l 2.175164,1.158203 a 5.734337,5.734337 10.134346 0 0 3.469879,0.620226 l 2.55234,-0.348045 a 12.589594,12.589594 0.60374424 0 1 3.664519,0.03862 l 3.058676,0.482948 a 5.6769159,5.6769159 170.90381 0 0 3.477209,-0.556721 l 2.078432,-1.066566 a 10.945804,10.945804 162.43875 0 1 3.48204,-1.101976 l 2.907595,-0.406437 a 4.5196235,4.5196235 149.75933 0 0 2.961115,-1.726225 l 0.99896,-1.302993 a 6.9071702,6.9071702 142.4863 0 1 2.837923,-2.178693 l 1.527629,-0.632876 a 3.3055215,3.3055215 128.23455 0 0 1.999914,-2.538286 l 0.270818,-1.715172 a 7.7878645,7.7878645 112.35004 0 1 1.370343,-3.332948 l 0.736166,-1.02345 a 4.3153769,4.3153769 102.49927 0 0 0.7367,-3.323236 l -0.583221,-3.078101 a 10.601497,10.601497 89.180695 0 1 -0.05218,-3.648529 l 0.546148,-3.413423 a 6.8121674,6.8121674 83.880415 0 0 -0.381047,-3.554046 l -1.551819,-3.974174 a 15.604594,15.604594 75.439235 0 1 -0.924761,-3.560206 l -0.417034,-3.04755 c -0.13868,-1.013432 -0.870266,-2.386559 -1.62898,-3.072581 -0.431225,-0.389909 -0.905926,-0.82182 -1.333303,-1.216702 -0.74944,-0.692457 -1.615733,-2.067802 -1.963307,-3.02973 C 55.904002,10.59257 55.436583,9.2846028 55.067669,8.249507 54.724433,7.2864573 53.635097,6.3379344 52.633293,6.1313767 L 49.402214,5.4651748 A 4.6590882,4.6590882 33.329141 0 1 46.526187,3.5738833 L 46.175513,3.0729206 A 3.3775727,3.3775727 26.26993 0 0 43.263048,1.635392 L 38.761339,1.8294312 A 11.920127,11.920127 6.3635652 0 1 35.123643,1.4237403 L 32.97074,0.83900136 A 5.1893995,5.1893995 175.5539 0 0 29.492599,1.1094452 l -2.628787,1.1752222 a 8.6807849,8.6807849 167.95627 0 1 -3.542893,0.7558918 l -2.730506,0 A 3.8063988,3.8063988 154.05379 0 0 17.595335,4.4978773 L 17.052898,5.1894854 A 5.2876027,5.2876027 147.41135 0 1 14.107382,7.0723988 L 12.621255,7.4232902 A 3.7941176,3.7941176 140.696 0 0 10.045489,9.5318307 L 9.1878157,11.398531 A 4.8092123,4.8092123 135.73914 0 1 6.7122373,13.811047 L 6.157106,14.048961 a 2.8087565,2.8087565 123.40071 0 0 -1.7023332,2.581654 v 0.397053 A 3.7743174,3.7743174 116.1375 0 1 2.9898552,20.012989 L 2.1720244,20.645651 A 3.0652127,3.0652127 111.13351 0 0 1.0289717,23.60279 L 1.23377,24.763314 c 0.1777611,1.007313 0.1881268,2.642378 -0.020165,3.643444 z"
         id="path146762"
         inkscape:path-effect="#path-effect146764"
         inkscape:original-d="m 1.5556349,26.587215 c 0,0.353553 -1.06066015,5.161879 -1.06066015,5.161879 l 2.33345245,5.303301 0.4949746,6.858936 2.8284272,2.969849 1.555635,6.29325 3.323402,1.414215 4.525483,5.16188 7.071068,1.555635 5.444722,2.899135 6.22254,-0.848525 6.717514,1.06066 5.374012,-2.75772 6.576095,-0.919235 3.25269,-4.242645 4.949745,-2.05061 0.84853,-5.37401 2.89914,-4.030508 -1.272795,-6.717515 1.13137,-7.071067 -2.899135,-7.424622 -0.91924,-6.717514 c 0,0 -3.88909,-3.464823 -4.03051,-3.747666 C 56.780675,13.081475 54.44722,6.5053825 54.44722,6.5053825 L 47.588287,5.091169 45.113413,1.5556349 36.910974,1.9091883 31.183409,0.35355339 25.173002,3.0405592 H 18.73833 l -2.828427,3.6062443 -5.091169,1.202082 -2.4041635,5.2325905 -3.9597977,1.697056 v 4.101219 l -3.747666,2.899138 z" /><path
         style="opacity:1;fill:#cd9f81;fill-opacity:1;stroke:none;stroke-width:2.24334;stroke-linecap:round;stroke-dasharray:none;stroke-opacity:1"
         d="m 16.163675,4.4662047 c 0.610359,0.5981707 1.311942,1.2825832 1.905201,1.8604655 0.732683,0.7136922 1.627642,0.5184606 1.997946,-0.4350344 L 21.379996,2.510351 a 1.1996749,1.1996749 168.29155 0 1 1.971892,-0.4086624 l 1.416371,1.4342157 A 1.6334759,1.6334759 176.76989 0 0 27.21452,3.3978474 l 0.971104,-1.2348906 a 1.4900257,1.4900257 179.36397 0 1 2.321765,-0.025775 l 0.679529,0.8257074 a 2.2425651,2.2425651 10.994304 0 0 2.803645,0.5446842 l 2.813174,-1.5311324 a 1.3959715,1.3959715 24.435336 0 1 2.029852,0.9222914 l 0.255451,1.145535 a 1.6187557,1.6187557 28.58296 0 0 2.140571,1.1662517 l 3.80507,-1.4047429 a 1.5621422,1.5621422 29.591028 0 1 2.076726,1.1793144 l 0.07981,0.4283113 a 2.3092035,2.3092035 40.713871 0 0 2.190237,1.8848237 l 5.170544,0.1789978 a 1.3549845,1.3549845 55.793507 0 1 1.229559,1.8088007 l -0.425503,1.1946675 a 2.2551723,2.2551723 70.209396 0 0 0.96921,2.69347 l 2.354581,1.40442 a 1.7715819,1.7715819 77.087138 0 1 0.572174,2.495671 l -0.238096,0.361645 a 2.0443701,2.0443701 81.18499 0 0 0.420681,2.712733 l 2.430069,1.968548 a 2.1906104,2.1906104 79.223532 0 1 0.528899,2.778785 l -0.909534,1.611739 c -0.502708,0.890821 -0.298023,2.172304 0.447157,2.872996 0.616597,0.579786 1.339347,1.270162 1.933915,1.868286 0.714279,0.71855 0.645752,2.034494 -0.06921,2.764724 -0.156742,0.160089 -0.31731,0.32291 -0.474762,0.481815 -0.71756,0.724176 -0.671632,1.837537 0.09948,2.509577 0.417611,0.363955 0.872231,0.766057 1.279841,1.139518 0.74854,0.685827 0.632561,1.886456 -0.210214,2.459843 -0.59976,0.408049 -1.294143,0.864229 -1.90285,1.259285 -0.85798,0.556835 -1.175764,1.735908 -0.703521,2.643248 l 1.247355,2.396596 a 1.6440651,1.6440651 110.90944 0 1 -0.877615,2.297111 l -1.008791,0.380899 a 1.8060104,1.8060104 113.59289 0 0 -1.035028,2.369886 l 0.728016,1.790314 a 1.1770264,1.1770264 125.43474 0 1 -1.15189,1.618787 l -5.097567,-0.266989 a 1.9809354,1.9809354 139.92353 0 0 -2.070411,1.741995 l -0.240772,2.004631 a 1.454595,1.454595 148.70338 0 1 -1.955002,1.188501 l -2.674219,-1.00293 a 2.4563819,2.4563819 163.54202 0 0 -2.83648,0.837941 l -0.980316,1.323557 a 2.2794282,2.2794282 165.62074 0 1 -2.784767,0.713932 l -2.474311,-1.138857 a 2.869942,2.869942 171.87962 0 0 -3.081142,0.439629 l -1.980065,1.718581 A 1.3547516,1.3547516 12.859407 0 1 31.478824,62.433865 L 30.594649,60.383306 A 1.571605,1.571605 16.991516 0 0 28.30263,59.682937 L 26.035847,61.13773 A 1.1975295,1.1975295 24.422033 0 1 24.20455,60.306168 l -0.288952,-1.941754 a 1.4135189,1.4135189 28.886973 0 0 -1.967684,-1.085636 l -3.586508,1.578996 a 1.2577042,1.2577042 32.05856 0 1 -1.763619,-1.10454 l -0.09042,-2.441465 a 1.6969788,1.6969788 40.376698 0 0 -1.906321,-1.62107 l -2.466939,0.308397 a 1.1192462,1.1192462 51.728996 0 1 -1.186632,-1.504101 l 0.745207,-1.984306 A 1.6688837,1.6688837 62.605223 0 0 10.551772,48.309153 L 6.7800612,47.324815 A 1.0580892,1.0580892 74.88756 0 1 6.301009,45.5509 L 7.9974908,43.863182 A 1.4409479,1.4409479 83.031809 0 0 7.7215439,41.605413 L 3.8469574,39.28512 A 1.3963351,1.3963351 83.901631 0 1 3.6100595,37.067813 L 4.9251107,35.836694 A 1.3251608,1.3251608 82.471634 0 0 4.6427141,33.699854 L 2.1482906,32.370458 A 1.2871587,1.2871587 83.256773 0 1 1.900072,30.271144 L 3.374267,28.964972 A 2.0693564,2.0693564 96.629604 0 0 3.6929252,26.223297 L 2.0364135,23.874963 A 1.2085007,1.2085007 111.67611 0 1 2.7840692,21.993904 L 4.8411018,21.577315 A 1.8128816,1.8128816 122.93848 0 0 6.2499693,19.402741 L 5.3185329,15.260987 a 1.4065019,1.4065019 130.11203 0 1 1.4433495,-1.713302 l 3.8839006,0.196641 a 0.95869314,0.95869314 120.26582 0 0 0.858226,-1.47069 l -1.277855,-2.016161 a 1.0858769,1.0858769 117.25014 0 1 0.857827,-1.6655642 l 1.913032,-0.10471 A 1.9562297,1.9562297 133.43352 0 0 14.846328,6.5338949 V 5.016429 c 0,-1.0228774 0.586804,-1.2661801 1.317347,-0.5502243 z"
         id="path145977"
         inkscape:path-effect="#path-effect146343"
         inkscape:original-d="m 14.846328,3.1643457 c 0.834168,0.8446759 4.549999,4.4537456 4.549999,4.4537456 l 2.654164,-6.83419581 4.019165,4.06980191 3.260832,-4.1465906 3.033331,3.6858582 6.066662,-3.3019148 1.061667,4.7609002 7.279996,-2.6876047 0.758333,4.0698019 8.872492,0.3071546 -1.668333,4.6841118 5.535831,3.301916 -2.274998,3.455491 5.308333,4.300168 -2.73,4.837689 c 0,0 4.62583,4.223379 4.474165,4.530534 -0.151665,0.307155 -3.033329,3.148336 -3.033329,3.148336 0,0 4.019163,3.378705 3.94333,3.68586 -0.07584,0.307155 -4.929165,3.378703 -4.929165,3.378703 l 2.957497,5.682364 -4.474163,1.689353 2.123332,5.221632 -8.796663,-0.460733 -0.682498,5.682365 -6.142497,-2.303662 -3.184998,4.300171 -5.839163,-2.687607 -4.777497,4.146589 -2.350833,-5.451995 -5.384163,3.455491 -0.834166,-5.605576 -6.976662,3.071546 -0.227501,-6.143095 -6.142497,0.767887 2.047501,-5.451998 L 4.9880014,46.857125 9.3104984,42.556957 2.2580029,38.333576 6.2771673,34.570931 0.51383743,31.499381 4.7605016,27.736735 0.9688371,22.361525 6.6563339,21.209694 4.9121683,13.454034 12.495497,13.837977 9.2346661,8.6931334 14.846328,8.3859782 Z" /><path
         style="opacity:1;fill:#d8a886;fill-opacity:1;stroke:none;stroke-width:2.19407;stroke-linecap:round;stroke-dasharray:none;stroke-opacity:1"
         d="m 12.682331,9.1594013 0.718044,-0.4114408 a 3.4962905,3.4962905 1.3780867 0 1 3.620345,0.087094 l 3.225626,2.0604116 c 0.985171,0.629291 2.042666,0.227784 2.366937,-0.895365 0.439394,-1.5218946 1.044092,-3.5913864 1.512008,-5.0979658 0.341252,-1.0987499 1.211091,-1.1554111 1.89349,-0.2075796 0.870199,1.2086791 2.049932,2.8006588 2.938586,3.9928165 0.698516,0.9370825 1.732093,0.8683259 2.304809,-0.1507732 l 1.700035,-3.0250611 a 1.16418,1.16418 0.52419315 0 1 2.040055,0.018665 l 1.552246,2.8844165 a 2.4213244,2.4213244 20.553907 0 0 2.984317,1.1189918 l 4.556,-1.7129695 a 3.395998,3.395998 11.329263 0 1 3.522625,0.7057612 l 1.064507,1.0018721 a 18.603136,18.603136 36.772631 0 0 3.369235,2.5180003 4.2623995,4.2623995 57.074123 0 1 1.944211,3.002319 l 0.429652,2.411527 a 4.4022924,4.4022924 54.219114 0 0 2.230722,3.095148 l 1.470832,0.79994 a 1.0490352,1.0490352 92.177049 0 1 -0.07141,1.878506 l -3.03935,1.365064 a 0.99498524,0.99498524 90.990595 0 0 -0.03113,1.800652 l 4.61123,2.265757 a 0.92705941,0.92705941 92.514991 0 1 -0.07453,1.696729 l -2.197764,0.849699 a 1.2982531,1.2982531 100.38528 0 0 -0.398992,2.177087 l 5.367993,4.817787 a 1.0632601,1.0632601 105.23642 0 1 -0.49939,1.833451 l -5.555336,1.123706 a 1.6701602,1.6701602 116.84006 0 0 -1.183972,2.339798 l 2.531814,5.458151 a 1.1801948,1.1801948 125.97251 0 1 -1.210969,1.668437 L 51.089122,49.996977 A 2.1666396,2.1666396 142.49812 0 0 48.6868,51.840468 l -0.584771,4.074883 c -0.166058,1.157148 -1.012773,1.469902 -1.895933,0.704008 -1.656811,-1.436818 -4.240732,-3.65406 -5.946617,-5.004007 -0.89944,-0.71177 -2.214665,-0.330851 -2.900655,0.61328 -0.780297,1.073927 -1.806125,2.430415 -2.609671,3.483316 -0.709177,0.929246 -1.738178,0.84421 -2.292153,-0.185198 l -1.552247,-2.884414 a 2.7437639,2.7437639 24.064847 0 0 -3.060521,-1.366785 l -8.285446,2.001921 a 1.4741238,1.4741238 41.561828 0 1 -1.810249,-1.605059 l 0.36821,-3.13108 A 1.7926035,1.7926035 46.968309 0 0 16.249766,46.54146 L 9.8030531,46.853425 A 1.063886,1.063886 60.544381 0 1 8.86817,45.198034 l 2.493698,-3.716728 a 1.620072,1.620072 71.289235 0 0 -0.82539,-2.437004 L 5.703877,37.406747 c -1.1071653,-0.37517 -1.1657964,-1.120143 -0.1354964,-1.672451 1.4838506,-0.795441 3.54078,-1.91456 4.9772354,-2.762422 0.97987,-0.578364 0.894508,-1.745943 -0.01667,-2.476679 C 9.0102491,29.277238 6.810637,27.449581 5.3212948,26.205355 4.424305,25.455992 4.5268203,24.384493 5.5477703,23.815083 l 3.5273752,-1.96731 A 1.7740843,1.7740843 100.8185 0 0 9.5855589,19.176779 L 7.6252598,16.774365 A 2.4342892,2.4342892 91.794219 0 1 7.7252814,13.581366 L 9.4075933,11.764753 A 13.844319,13.844319 141.49455 0 1 12.682331,9.1594013 Z"
         id="path145618"
         sodipodi:nodetypes="cccsccccccccccccccccscccccccscccc"
         inkscape:path-effect="#path-effect145973"
         inkscape:original-d="m 10.845795,10.211739 4.391116,-2.5161162 6.793244,4.3392752 c 0,0 2.695732,-9.5050792 2.803561,-9.0918148 0.10783,0.4132643 5.391465,7.4387578 5.391465,7.4387578 l 3.774025,-6.7155453 3.558366,6.6122303 8.518514,-3.2027997 4.147243,3.9032247 3.400806,1.985792 1.172196,6.579229 5.189732,2.822534 -6.901074,3.099482 8.410684,4.132643 -6.146268,2.376271 8.518513,7.645389 -9.704636,1.963006 4.31317,9.298447 -9.488977,-1.136478 -1.186121,8.265287 c 0,0 -9.165489,-8.058654 -9.273318,-7.542073 -0.107829,0.51658 -5.067976,6.922177 -5.067976,6.922177 L 29.901693,50.778429 17.501325,53.774594 18.363959,46.439152 7.6888604,46.955733 12.541178,39.723607 3.6991768,36.727442 c 0,0 9.0576592,-4.75254 8.5185132,-4.959173 C 11.678545,31.561637 3.6991768,24.846092 3.6991768,24.846092 L 10.923739,20.816764 6.2870797,15.13438 Z" /><ellipse
         style="opacity:1;fill:#ffc6a0;fill-opacity:1;stroke:none;stroke-width:2.07874;stroke-linecap:round;stroke-dasharray:none;stroke-opacity:1"
         id="path158785"
         cx="17.750002"
         cy="35.050003"
         rx="3.1499999"
         ry="3.05" /><circle
         style="opacity:1;fill:#ffc6a0;fill-opacity:1;stroke:none;stroke-width:2.07874;stroke-linecap:round;stroke-dasharray:none;stroke-opacity:1"
         id="path158789"
         cx="50.049999"
         cy="32.950001"
         r="3.1499999" /></g><g
       inkscape:groupmode="layer"
       id="layer88"
       inkscape:label="ears"><path
         style="opacity:1;fill:#e1bca2;fill-opacity:1;stroke:#c19679;stroke-width:2.17507;stroke-linecap:round;stroke-dasharray:none;stroke-opacity:1"
         d="M 9.6677727,17.794194 C 7.3145325,15.262576 6.2283759,11.721967 5.2963078,8.0586555 4.7561321,5.9356005 6.0435049,4.7529752 8.2200848,4.8667599 10.17207,4.9688034 12.350114,5.3333661 17.825212,9.5267484"
         id="path132678"
         inkscape:path-effect="#path-effect133856"
         inkscape:original-d="M 9.6677727,17.794194 C 6.4923801,14.378104 5.6240939,9.1248418 4.3283583,4.2119624 8.7474033,5.8907647 9.0920123,2.8379827 17.825212,9.5267484"
         sodipodi:nodetypes="ccc" /><path
         style="opacity:1;fill:#e1bca2;fill-opacity:1;stroke:#c19679;stroke-width:2.17507;stroke-linecap:round;stroke-dasharray:none;stroke-opacity:1"
         d="m 44.544204,10.207362 c 0,0 7.026692,-6.785497 10.907104,-6.0547511 C 59.33172,4.8833568 54.6123,17.306037 54.6123,17.306037"
         id="path134275" /><path
         style="opacity:1;fill:#d8a886;fill-opacity:1;stroke:none;stroke-width:2.07874;stroke-linecap:round;stroke-dasharray:none;stroke-opacity:1"
         d="m 10.818734,17.394827 c 0,0 -2.1761028,-5.715232 -0.302082,-7.238225 1.967313,-1.5988101 6.749832,-0.7737 7.37315,1.86421 z"
         id="path149940"
         sodipodi:nodetypes="cacc" /><path
         style="opacity:1;fill:#d8a886;fill-opacity:1;stroke:none;stroke-width:2.07874;stroke-linecap:round;stroke-dasharray:none;stroke-opacity:1"
         d="m 45.254834,11.172287 c 0,0 5.182483,-3.2648806 7.212491,-1.8384775 2.208742,1.5519925 0.777815,8.0610175 0.777815,8.0610175 z"
         id="path150670"
         sodipodi:nodetypes="cacc" /></g></g><g
     inkscape:groupmode="layer"
     id="layer89"
     inkscape:label="idle"
     mode="idle"
     style="display:none"><g
       inkscape:groupmode="layer"
       id="layer90"
       inkscape:label="left"><g
         inkscape:groupmode="layer"
         id="layer94"
         inkscape:label="white 1"
         color="eyes"><path
           style="opacity:1;fill:#ffffff;fill-opacity:1;stroke:none;stroke-width:1.60874;stroke-linecap:round;stroke-dasharray:none;stroke-opacity:1"
           d="m 16.590615,22.082842 c -0.50959,1.384861 -0.738373,3.038874 0,4.348849 0.807251,1.432172 2.564582,2.574738 4.376929,3.010741 1.328592,0.319625 2.831377,-0.0087 4.111661,-0.446035 1.433597,-0.489678 3.02174,-1.178095 3.713758,-2.341688 0.850193,-1.429558 0.59353,-3.276481 0,-4.794885 -0.651526,-1.666772 -1.827092,-3.487514 -3.713758,-4.23734 -1.520974,-0.604488 -3.5732,-0.469515 -5.0401,0.223018 -1.774942,0.837961 -2.846866,2.602371 -3.44849,4.23734 z"
           id="path135009"
           sodipodi:nodetypes="aaaaaaaaa" /></g><g
         inkscape:groupmode="layer"
         id="layer95"
         inkscape:label="pupil 1"
         go-left="0.1"
         go-right="0.04"><ellipse
           style="opacity:1;fill:#1c1c1c;fill-opacity:1;stroke:none;stroke-width:2.00728;stroke-linecap:round;stroke-dasharray:none;stroke-opacity:1"
           id="path137926"
           cx="23.250002"
           cy="20.9"
           rx="2.2499998"
           ry="2.3000002" /></g></g><g
       inkscape:groupmode="layer"
       id="layer91"
       inkscape:label="right"><g
         inkscape:groupmode="layer"
         id="layer92"
         inkscape:label="white"
         color="eyes"><path
           style="opacity:1;fill:#ffffff;fill-opacity:1;stroke:none;stroke-width:1.65082;stroke-linecap:round;stroke-dasharray:none;stroke-opacity:1"
           d="m 35.441097,20.97821 c -0.822102,1.821376 -0.604926,4.125761 0.397651,5.874666 0.59712,1.041624 1.831456,1.784009 3.048657,2.232373 1.68077,0.619123 3.743538,1.066755 5.434562,0.469973 1.251171,-0.441553 2.060129,-1.629673 2.651006,-2.702346 0.809818,-1.470135 1.529091,-3.23483 1.060403,-4.817226 -0.501391,-1.692804 -2.074125,-3.218886 -3.843959,-3.994773 -1.467503,-0.643347 -3.365242,-0.729667 -4.904361,-0.234987 -1.645838,0.52898 -3.193642,1.731534 -3.843959,3.17232 z"
           id="path135011"
           sodipodi:nodetypes="aaaaaaaaa" /></g><g
         inkscape:groupmode="layer"
         id="layer93"
         inkscape:label="pupil"
         go-left="0.04"
         go-right="0.1"><ellipse
           style="opacity:1;fill:#1c1c1c;fill-opacity:1;stroke:none;stroke-width:1.32283;stroke-linecap:round;stroke-dasharray:none;stroke-opacity:1"
           id="path138032"
           cx="40.650002"
           cy="25.1"
           rx="2.45"
           ry="2.2" /></g></g><g
       inkscape:groupmode="layer"
       id="layer97"
       inkscape:label="toung"
       inkscape:transform-center-x="0.14256662"
       inkscape:transform-center-y="3.9208183"
       update-origin="true"
       transform="rotate(11.592176,36.767934,38.469187)"
       shake="0.3"><path
         style="opacity:1;fill:#e96775;fill-opacity:1;stroke:none;stroke-width:2.07874;stroke-linecap:round;stroke-dasharray:none;stroke-opacity:1"
         d="m 34.1,39.2 c 0,0 0.64329,7.534056 4.177817,6.780761 3.161242,-0.673738 1.007107,-7.722182 1.007107,-7.722182"
         id="path139133"
         sodipodi:nodetypes="csc" /></g><g
       inkscape:groupmode="layer"
       id="layer96"
       inkscape:label="mouth"
       shake="0.3"
       scale="0"><path
         style="opacity:1;fill:none;fill-opacity:1;stroke:#b1876a;stroke-width:2.45669;stroke-linecap:round;stroke-dasharray:none;stroke-opacity:1"
         d="m 25,38.7 c 7.568659,2.1663 11.964299,0.565746 17.4,-3.1"
         id="path138089"
         sodipodi:nodetypes="cc" /><ellipse
         style="display:inline;opacity:1;fill:#000000;fill-opacity:1;stroke:none;stroke-width:1.84819;stroke-linecap:round;stroke-dasharray:none;stroke-opacity:1"
         id="path140090"
         cx="33.132977"
         cy="35.286533"
         rx="3.146625"
         ry="2.2637825" /></g></g><g
     inkscape:groupmode="layer"
     id="layer102"
     inkscape:label="force"
     mode="force-fart"><path
       style="opacity:1;fill:none;fill-opacity:1;stroke:#c19679;stroke-width:2.07874;stroke-linecap:round;stroke-dasharray:none;stroke-opacity:1"
       d="m 18.1,24.1 h 7.839041"
       id="path154691" /><path
       style="opacity:1;fill:none;fill-opacity:1;stroke:#a57e65;stroke-width:2.07874;stroke-linecap:round;stroke-dasharray:none;stroke-opacity:1"
       d="m 20.687671,18.3 7.91233,7.3"
       id="path155473" /><path
       style="opacity:1;fill:none;fill-opacity:1;stroke:#c19679;stroke-width:2.07874;stroke-linecap:round;stroke-dasharray:none;stroke-opacity:1"
       d="M 36.798742,23.969231 45.2,24.046154"
       id="path156663" /><path
       style="opacity:1;fill:none;fill-opacity:1;stroke:#a57e65;stroke-width:2.07874;stroke-linecap:round;stroke-dasharray:none;stroke-opacity:1"
       d="m 35,24.9 7.031446,-6"
       id="path156665" /><path
       style="opacity:1;fill:none;fill-opacity:1;stroke:#b1876a;stroke-width:2.07874;stroke-linecap:round;stroke-dasharray:none;stroke-opacity:1"
       d="m 26.7,41.1 c 4.9,-1.73662 9.8,-2.460709 14.7,-2.6"
       id="path157465"
       sodipodi:nodetypes="cc" /><ellipse
       style="display:inline;opacity:1;fill:#000000;fill-opacity:1;stroke:none;stroke-width:1.84819;stroke-linecap:round;stroke-dasharray:none;stroke-opacity:1"
       id="ellipse157800"
       cx="33.132977"
       cy="35.286533"
       rx="3.146625"
       ry="2.2637825" /></g><g
     inkscape:groupmode="layer"
     id="layer99"
     inkscape:label="cheeks"
     mode="cheeks"><g
       inkscape:groupmode="layer"
       id="layer100"
       inkscape:label="left 1"
       update-origin="true"
       transform="translate(-2.2,0.5)"><path
         style="opacity:1;fill:#cd9f81;fill-opacity:1;stroke:none;stroke-width:2.07874;stroke-linecap:round;stroke-dasharray:none;stroke-opacity:1"
         d="m 21.69988,31.95 c -0.184697,-0.559314 -0.226808,-1.329419 -0.75,-1.6 -1.338681,-0.692331 -3.330017,-0.208478 -4.45,0.8 -1.199415,1.080002 -1.631165,3.060677 -1.35,4.65 0.216025,1.221111 1.104408,2.41909 2.2,3 1.19353,0.632839 2.896166,0.852615 4.05,0.15 0.80236,-0.488589 1.087407,-1.617357 1.2,-2.55 0.181384,-1.502457 -0.42546,-3.012958 -0.9,-4.45 z"
         id="path145304"
         sodipodi:nodetypes="aaaaaaaa" /><ellipse
         style="opacity:1;fill:#ffc6a0;fill-opacity:1;stroke:none;stroke-width:2.07874;stroke-linecap:round;stroke-dasharray:none;stroke-opacity:1"
         id="path144647"
         cx="20.099998"
         cy="34.599998"
         rx="3.9000001"
         ry="3.8" /></g><g
       inkscape:groupmode="layer"
       id="g144772"
       inkscape:label="right"
       transform="translate(31.2,-2.7)"
       update-origin="true"
       style="display:inline"><path
         style="opacity:1;fill:#cd9f81;fill-opacity:1;stroke:none;stroke-width:2.07874;stroke-linecap:round;stroke-dasharray:none;stroke-opacity:1"
         d="m 17.1,32.85 c 0.184697,-0.559314 0.226808,-1.329419 0.75,-1.6 1.338681,-0.692331 3.330017,-0.208478 4.45,0.8 1.199415,1.080002 1.631165,3.060677 1.35,4.65 -0.216025,1.221111 -1.104408,2.41909 -2.2,3 -1.19353,0.632839 -2.896166,0.852615 -4.05,0.15 -0.80236,-0.488589 -1.087407,-1.617357 -1.2,-2.55 -0.181384,-1.502457 0.42546,-3.012958 0.9,-4.45 z"
         id="path144880"
         sodipodi:nodetypes="aaaaaaaa" /><ellipse
         style="opacity:1;fill:#ffc6a0;fill-opacity:1;stroke:none;stroke-width:2.07874;stroke-linecap:round;stroke-dasharray:none;stroke-opacity:1"
         id="ellipse144770"
         cx="18.799999"
         cy="35.599998"
         rx="3.9000001"
         ry="3.8" /></g></g></svg>
