<?xml version="1.0" encoding="UTF-8" standalone="no"?>
<!-- Created with Inkscape (http://www.inkscape.org/) -->

<svg
   inkscape:export-ydpi="96"
   inkscape:export-xdpi="96"
   inkscape:export-filename="..\Projects\getting-farted-on\dev\assets\guy\closed_eyes.png"
   inkscape:version="1.2.2 (732a01da63, 2022-12-09)"
   sodipodi:docname="wellvos.svg"
   xml:space="preserve"
   id="svg5"
   version="1.1"
   viewBox="0 0 65.622687 64.922998"
   height="1298.46"
   width="1312.4537"
   xmlns:inkscape="http://www.inkscape.org/namespaces/inkscape"
   xmlns:sodipodi="http://sodipodi.sourceforge.net/DTD/sodipodi-0.dtd"
   xmlns="http://www.w3.org/2000/svg"
   xmlns:svg="http://www.w3.org/2000/svg"><sodipodi:namedview
     id="namedview7"
     pagecolor="#ffffff"
     bordercolor="#000000"
     borderopacity="0.25"
     inkscape:showpageshadow="2"
     inkscape:pageopacity="1"
     inkscape:pagecheckerboard="0"
     inkscape:deskcolor="#d1d1d1"
     inkscape:document-units="mm"
     showgrid="false"
     showguides="true"
     inkscape:lockguides="false"
     inkscape:zoom="0.5"
     inkscape:cx="611"
     inkscape:cy="635"
     inkscape:window-width="1278"
     inkscape:window-height="1360"
     inkscape:window-x="1273"
     inkscape:window-y="0"
     inkscape:window-maximized="0"
     inkscape:current-layer="layer5" /><defs
     id="defs2"><inkscape:path-effect
       effect="fillet_chamfer"
       id="path-effect60320"
       is_visible="true"
       lpeversion="1"
       nodesatellites_param="F,0,0,1,0,1.3229167,0,1 @ F,0,0,1,0,1.3229167,0,1 @ F,0,0,1,0,1.3229167,0,1 @ F,0,0,1,0,1.3229167,0,1 @ F,0,0,1,0,1.3229167,0,1"
       unit="px"
       method="auto"
       mode="F"
       radius="5"
       chamfer_steps="1"
       flexible="false"
       use_knot_distance="true"
       apply_no_radius="true"
       apply_with_radius="true"
       only_selected="false"
       hide_knots="false" /><inkscape:path-effect
       effect="fillet_chamfer"
       id="path-effect59592"
       is_visible="true"
       lpeversion="1"
       nodesatellites_param="F,0,0,1,0,1.3229167,0,1 @ F,0,0,1,0,1.3229167,0,1 @ F,0,0,1,0,1.3229167,0,1 @ F,0,0,1,0,1.3229167,0,1 @ F,0,0,1,0,1.3229167,0,1"
       unit="px"
       method="auto"
       mode="F"
       radius="5"
       chamfer_steps="1"
       flexible="false"
       use_knot_distance="true"
       apply_no_radius="true"
       apply_with_radius="true"
       only_selected="false"
       hide_knots="false" /><inkscape:path-effect
       effect="fillet_chamfer"
       id="path-effect58864"
       is_visible="true"
       lpeversion="1"
       nodesatellites_param="F,0,0,1,0,0,0,1 @ F,0,0,1,0,1.0583333,0,1 @ F,0,0,1,0,1.0583333,0,1 @ F,0,0,1,0,1.0583333,0,1"
       unit="px"
       method="auto"
       mode="F"
       radius="4"
       chamfer_steps="1"
       flexible="false"
       use_knot_distance="true"
       apply_no_radius="true"
       apply_with_radius="true"
       only_selected="false"
       hide_knots="false" /><inkscape:path-effect
       effect="fillet_chamfer"
       id="path-effect26108"
       is_visible="true"
       lpeversion="1"
       nodesatellites_param="F,0,0,1,0,3.7041667,0,1 @ F,0,1,1,0,3.21679,0,1 @ F,0,0,1,0,3.7368618,0,1 @ F,0,0,1,0,3.7041667,0,1 @ F,0,0,1,0,3.7041667,0,1 @ F,0,0,1,0,3.7041667,0,1 @ F,0,0,1,0,3.7041667,0,1 @ F,0,0,1,0,3.7041667,0,1 @ F,0,0,1,0,3.7041667,0,1 @ F,0,0,1,0,3.7041667,0,1 @ F,0,0,1,0,3.7041667,0,1 @ F,0,0,1,0,3.7041667,0,1"
       unit="px"
       method="auto"
       mode="F"
       radius="14"
       chamfer_steps="1"
       flexible="false"
       use_knot_distance="true"
       apply_no_radius="true"
       apply_with_radius="true"
       only_selected="false"
       hide_knots="false" /><inkscape:path-effect
       effect="fillet_chamfer"
       id="path-effect5968"
       is_visible="true"
       lpeversion="1"
       nodesatellites_param="F,0,0,1,0,3.175,0,1 @ F,0,0,1,0,3.175,0,1 @ F,0,0,1,0,3.175,0,1 @ F,0,0,1,0,3.175,0,1 | F,0,0,1,0,3.175,0,1 @ F,0,0,1,0,3.175,0,1 @ F,0,0,1,0,3.175,0,1 @ F,0,0,1,0,3.175,0,1"
       unit="px"
       method="auto"
       mode="F"
       radius="12"
       chamfer_steps="1"
       flexible="false"
       use_knot_distance="true"
       apply_no_radius="true"
       apply_with_radius="true"
       only_selected="false"
       hide_knots="false" /><filter
       id="selectable_hidder_filter"
       width="1"
       height="1"
       x="0"
       y="0"
       style="color-interpolation-filters:sRGB;"
       inkscape:label="LPE boolean visibility"><feComposite
         id="boolops_hidder_primitive"
         result="composite1"
         operator="arithmetic"
         in2="SourceGraphic"
         in="BackgroundImage" /></filter><inkscape:path-effect
       effect="bool_op"
       operand-path=""
       id="path-effect5236"
       is_visible="true"
       lpeversion="1"
       operation="inters"
       swap-operands="false"
       filltype-this="from-curve"
       filter=""
       filltype-operand="from-curve" /><inkscape:path-effect
       effect="fillet_chamfer"
       id="path-effect152284"
       is_visible="true"
       lpeversion="1"
       nodesatellites_param="F,0,0,1,0,1.8520833,0,1 @ F,0,0,1,0,1.8520833,0,1 @ F,0,0,1,0,1.8520833,0,1 @ F,0,0,1,0,1.8520833,0,1 @ F,0,0,1,0,1.8520833,0,1 @ F,0,0,1,0,1.8520833,0,1 @ F,0,0,1,0,1.8520833,0,1 @ F,0,0,1,0,1.8520833,0,1 @ F,0,0,1,0,1.8520833,0,1 @ F,0,0,1,0,1.8520833,0,1 @ F,0,0,1,0,1.8520833,0,1 @ F,0,0,1,0,1.8520833,0,1 @ F,0,0,1,0,1.8520833,0,1 @ F,0,0,1,0,1.8520833,0,1 @ F,0,0,1,0,1.8520833,0,1 @ F,0,0,1,0,1.8520833,0,1 @ F,0,0,1,0,1.8520833,0,1 @ F,0,0,1,0,1.8520833,0,1 @ F,0,0,1,0,1.8520833,0,1 @ F,0,0,1,0,1.8520833,0,1 @ F,0,0,1,0,1.8520833,0,1 @ F,0,0,1,0,1.8520833,0,1 @ F,0,0,1,0,1.8520833,0,1 @ F,0,0,1,0,1.8520833,0,1 @ F,0,0,1,0,1.8520833,0,1 @ F,0,0,1,0,1.8520833,0,1 @ F,0,0,1,0,1.8520833,0,1 @ F,0,0,1,0,1.8520833,0,1 @ F,0,0,1,0,1.8520833,0,1 @ F,0,0,1,0,1.8520833,0,1 @ F,0,0,1,0,1.8520833,0,1 @ F,0,0,1,0,1.8520833,0,1 @ F,0,0,1,0,1.8520833,0,1 @ F,0,0,1,0,1.8520833,0,1 @ F,0,0,1,0,1.8520833,0,1 @ F,0,0,1,0,1.8520833,0,1"
       unit="px"
       method="auto"
       mode="F"
       radius="7"
       chamfer_steps="1"
       flexible="false"
       use_knot_distance="true"
       apply_no_radius="true"
       apply_with_radius="true"
       only_selected="false"
       hide_knots="false" /><inkscape:path-effect
       effect="fillet_chamfer"
       id="path-effect146764"
       is_visible="true"
       lpeversion="1"
       nodesatellites_param="F,0,0,1,0,1.8520833,0,1 @ F,0,0,1,0,1.8520833,0,1 @ F,0,0,1,0,1.8520833,0,1 @ F,0,0,1,0,1.8520833,0,1 @ F,0,0,1,0,1.8520833,0,1 @ F,0,0,1,0,1.8520833,0,1 @ F,0,0,1,0,1.8520833,0,1 @ F,0,0,1,0,1.8520833,0,1 @ F,0,0,1,0,1.8520833,0,1 @ F,0,0,1,0,1.8520833,0,1 @ F,0,0,1,0,1.8520833,0,1 @ F,0,0,1,0,1.8520833,0,1 @ F,0,0,1,0,1.8520833,0,1 @ F,0,0,1,0,1.8520833,0,1 @ F,0,0,1,0,1.8520833,0,1 @ F,0,0,1,0,1.8520833,0,1 @ F,0,0,1,0,1.8520833,0,1 @ F,0,0,1,0,1.8520833,0,1 @ F,0,0,1,0,1.8520833,0,1 @ F,0,0,1,0,1.8520833,0,1 @ F,0,0,1,0,1.8520833,0,1 @ F,0,0,1,0,1.8520833,0,1 @ F,0,0,1,0,1.8520833,0,1 @ F,0,0,1,0,1.8520833,0,1 @ F,0,0,1,0,1.8520833,0,1 @ F,0,0,1,0,1.8520833,0,1 @ F,0,0,1,0,1.8520833,0,1 @ F,0,0,1,0,1.8520833,0,1 @ F,0,0,1,0,1.8520833,0,1 @ F,0,0,1,0,1.8520833,0,1 @ F,0,0,1,0,1.8520833,0,1 @ F,0,0,1,0,1.8520833,0,1 @ F,0,0,1,0,1.8520833,0,1 @ F,0,0,1,0,1.8520833,0,1 @ F,0,0,1,0,1.8520833,0,1 @ F,0,0,1,0,1.8520833,0,1"
       unit="px"
       method="auto"
       mode="F"
       radius="7"
       chamfer_steps="1"
       flexible="false"
       use_knot_distance="true"
       apply_no_radius="true"
       apply_with_radius="true"
       only_selected="false"
       hide_knots="false" /><inkscape:path-effect
       effect="fillet_chamfer"
       id="path-effect146343"
       is_visible="true"
       lpeversion="1"
       nodesatellites_param="F,0,0,1,0,1.8520833,0,1 @ F,0,0,1,0,1.8520833,0,1 @ F,0,0,1,0,1.8520833,0,1 @ F,0,0,1,0,1.8520833,0,1 @ F,0,0,1,0,1.8520833,0,1 @ F,0,0,1,0,1.8520833,0,1 @ F,0,0,1,0,1.8520833,0,1 @ F,0,0,1,0,1.8520833,0,1 @ F,0,0,1,0,1.8520833,0,1 @ F,0,0,1,0,1.8520833,0,1 @ F,0,0,1,0,1.8520833,0,1 @ F,0,0,1,0,1.8520833,0,1 @ F,0,0,1,0,1.8520833,0,1 @ F,0,0,1,0,1.8520833,0,1 @ F,0,0,1,0,1.8520833,0,1 @ F,0,0,1,0,1.8520833,0,1 @ F,0,0,1,0,1.8520833,0,1 @ F,0,0,1,0,1.8520833,0,1 @ F,0,0,1,0,1.8520833,0,1 @ F,0,0,1,0,1.8520833,0,1 @ F,0,0,1,0,1.8520833,0,1 @ F,0,0,1,0,1.8520833,0,1 @ F,0,0,1,0,1.8520833,0,1 @ F,0,0,1,0,1.8520833,0,1 @ F,0,0,1,0,1.8520833,0,1 @ F,0,0,1,0,1.8520833,0,1 @ F,0,0,1,0,1.8520833,0,1 @ F,0,0,1,0,1.8520833,0,1 @ F,0,0,1,0,1.8520833,0,1 @ F,0,0,1,0,1.8520833,0,1 @ F,0,0,1,0,1.8520833,0,1 @ F,0,0,1,0,1.8520833,0,1 @ F,0,0,1,0,1.8520833,0,1 @ F,0,0,1,0,1.8520833,0,1 @ F,0,0,1,0,1.8520833,0,1 @ F,0,0,1,0,1.8520833,0,1 @ F,0,0,1,0,1.8520833,0,1 @ F,0,0,1,0,1.8520833,0,1 @ F,0,0,1,0,1.8520833,0,1 @ F,0,0,1,0,1.8520833,0,1 @ F,0,0,1,0,1.8520833,0,1 @ F,0,0,1,0,1.8520833,0,1 @ F,0,0,1,0,1.8520833,0,1 @ F,0,0,1,0,1.8520833,0,1 @ F,0,0,1,0,1.8520833,0,1 @ F,0,0,1,0,1.8520833,0,1 @ F,0,0,1,0,1.8520833,0,1 @ F,0,0,1,0,1.8520833,0,1"
       unit="px"
       method="auto"
       mode="F"
       radius="7"
       chamfer_steps="1"
       flexible="false"
       use_knot_distance="true"
       apply_no_radius="true"
       apply_with_radius="true"
       only_selected="false"
       hide_knots="false" /><inkscape:path-effect
       effect="fillet_chamfer"
       id="path-effect145973"
       is_visible="true"
       lpeversion="1"
       nodesatellites_param="F,0,0,1,0,2.1166667,0,1 @ F,0,0,1,0,2.1166667,0,1 @ F,0,0,1,0,2.1166667,0,1 @ F,0,0,1,0,2.1166667,0,1 @ F,0,0,1,0,2.1166667,0,1 @ F,0,0,1,0,2.1166667,0,1 @ F,0,0,1,0,2.1166667,0,1 @ F,0,0,1,0,2.1166667,0,1 @ F,0,0,1,0,2.1166667,0,1 @ F,0,0,1,0,2.1166667,0,1 @ F,0,0,1,0,2.1166667,0,1 @ F,0,0,1,0,2.1166667,0,1 @ F,0,0,1,0,2.1166667,0,1 @ F,0,0,1,0,2.1166667,0,1 @ F,0,0,1,0,2.1166667,0,1 @ F,0,0,1,0,2.1166667,0,1 @ F,0,0,1,0,2.1166667,0,1 @ F,0,0,1,0,2.1166667,0,1 @ F,0,0,1,0,2.1166667,0,1 @ F,0,0,1,0,2.1166667,0,1 @ F,0,0,1,0,2.1166667,0,1 @ F,0,0,1,0,2.1166667,0,1 @ F,0,0,1,0,2.1166667,0,1 @ F,0,0,1,0,2.1166667,0,1 @ F,0,0,1,0,2.1166667,0,1 @ F,0,0,1,0,2.1166667,0,1 @ F,0,0,1,0,2.1166667,0,1 @ F,0,0,1,0,2.1166667,0,1 @ F,0,0,1,0,2.1166667,0,1 @ F,0,0,1,0,2.1166667,0,1 @ F,0,0,1,0,2.1166667,0,1 @ F,0,0,1,0,2.1166667,0,1"
       unit="px"
       method="auto"
       mode="F"
       radius="8"
       chamfer_steps="1"
       flexible="false"
       use_knot_distance="true"
       apply_no_radius="true"
       apply_with_radius="true"
       only_selected="false"
       hide_knots="false" /><inkscape:path-effect
       effect="fillet_chamfer"
       id="path-effect133856"
       is_visible="true"
       lpeversion="1"
       nodesatellites_param="F,0,0,1,0,0,0,1 @ F,0,0,1,0,3.96875,0,1 @ F,0,0,1,0,3.96875,0,1"
       unit="px"
       method="auto"
       mode="F"
       radius="15"
       chamfer_steps="1"
       flexible="false"
       use_knot_distance="true"
       apply_no_radius="true"
       apply_with_radius="true"
       only_selected="false"
       hide_knots="false" /><inkscape:path-effect
       effect="fillet_chamfer"
       id="path-effect23775"
       is_visible="true"
       lpeversion="1"
       nodesatellites_param="F,0,0,1,0,2.1166667,0,1 @ F,0,0,1,0,2.1166667,0,1 @ F,0,0,1,0,2.1166667,0,1 @ F,0,0,1,0,2.1166667,0,1 @ F,0,0,1,0,2.1166667,0,1 @ F,0,0,1,0,2.1166667,0,1 @ F,0,0,1,0,2.1166667,0,1 @ F,0,0,1,0,2.1166667,0,1 @ F,0,0,1,0,2.1166667,0,1 @ F,0,0,1,0,2.1166667,0,1"
       unit="px"
       method="auto"
       mode="F"
       radius="8"
       chamfer_steps="1"
       flexible="false"
       use_knot_distance="true"
       apply_no_radius="true"
       apply_with_radius="true"
       only_selected="false"
       hide_knots="false" /><inkscape:path-effect
       effect="bspline"
       id="path-effect6943"
       is_visible="true"
       lpeversion="1"
       weight="33.333333"
       steps="2"
       helper_size="0"
       apply_no_weight="true"
       apply_with_weight="true"
       only_selected="false" /><inkscape:path-effect
       effect="bspline"
       id="path-effect1482"
       is_visible="true"
       lpeversion="1"
       weight="33.333333"
       steps="2"
       helper_size="0"
       apply_no_weight="true"
       apply_with_weight="true"
       only_selected="false" /><inkscape:path-effect
       effect="bspline"
       id="path-effect105595"
       is_visible="true"
       lpeversion="1"
       weight="33.333333"
       steps="2"
       helper_size="0"
       apply_no_weight="true"
       apply_with_weight="true"
       only_selected="false" /><inkscape:path-effect
       effect="bspline"
       id="path-effect105345"
       is_visible="true"
       lpeversion="1"
       weight="33.333333"
       steps="2"
       helper_size="0"
       apply_no_weight="true"
       apply_with_weight="true"
       only_selected="false" /><inkscape:path-effect
       effect="bspline"
       id="path-effect46172"
       is_visible="true"
       lpeversion="1"
       weight="33.333333"
       steps="2"
       helper_size="0"
       apply_no_weight="true"
       apply_with_weight="true"
       only_selected="false" /><inkscape:path-effect
       effect="bspline"
       id="path-effect46168"
       is_visible="true"
       lpeversion="1"
       weight="33.333333"
       steps="2"
       helper_size="0"
       apply_no_weight="true"
       apply_with_weight="true"
       only_selected="false" /><inkscape:path-effect
       effect="bspline"
       id="path-effect43935"
       is_visible="true"
       lpeversion="1"
       weight="33.333333"
       steps="2"
       helper_size="0"
       apply_no_weight="true"
       apply_with_weight="true"
       only_selected="false" /><inkscape:path-effect
       effect="bspline"
       id="path-effect43205"
       is_visible="true"
       lpeversion="1"
       weight="33.333333"
       steps="2"
       helper_size="0"
       apply_no_weight="true"
       apply_with_weight="true"
       only_selected="false" /><inkscape:path-effect
       effect="bspline"
       id="path-effect43201"
       is_visible="true"
       lpeversion="1"
       weight="33.333333"
       steps="2"
       helper_size="0"
       apply_no_weight="true"
       apply_with_weight="true"
       only_selected="false" /><inkscape:path-effect
       effect="bspline"
       id="path-effect43197"
       is_visible="true"
       lpeversion="1"
       weight="33.333333"
       steps="2"
       helper_size="0"
       apply_no_weight="true"
       apply_with_weight="true"
       only_selected="false" /><inkscape:path-effect
       effect="bspline"
       id="path-effect37328"
       is_visible="true"
       lpeversion="1"
       weight="33.333333"
       steps="2"
       helper_size="0"
       apply_no_weight="true"
       apply_with_weight="true"
       only_selected="false" /><inkscape:path-effect
       effect="bspline"
       id="path-effect37216"
       is_visible="true"
       lpeversion="1"
       weight="33.333333"
       steps="2"
       helper_size="0"
       apply_no_weight="true"
       apply_with_weight="true"
       only_selected="false" /><inkscape:path-effect
       effect="bspline"
       id="path-effect37212"
       is_visible="true"
       lpeversion="1"
       weight="33.333333"
       steps="2"
       helper_size="0"
       apply_no_weight="true"
       apply_with_weight="true"
       only_selected="false" /><inkscape:path-effect
       effect="bspline"
       id="path-effect37100"
       is_visible="true"
       lpeversion="1"
       weight="33.333333"
       steps="2"
       helper_size="0"
       apply_no_weight="true"
       apply_with_weight="true"
       only_selected="false" /><inkscape:path-effect
       effect="bspline"
       id="path-effect35643"
       is_visible="true"
       lpeversion="1"
       weight="33.333333"
       steps="2"
       helper_size="0"
       apply_no_weight="true"
       apply_with_weight="true"
       only_selected="false" /><inkscape:path-effect
       effect="bspline"
       id="path-effect34937"
       is_visible="true"
       lpeversion="1"
       weight="33.333333"
       steps="2"
       helper_size="0"
       apply_no_weight="true"
       apply_with_weight="true"
       only_selected="false" /><inkscape:path-effect
       effect="bspline"
       id="path-effect34933"
       is_visible="true"
       lpeversion="1"
       weight="33.333333"
       steps="2"
       helper_size="0"
       apply_no_weight="true"
       apply_with_weight="true"
       only_selected="false" /><inkscape:path-effect
       effect="bspline"
       id="path-effect34875"
       is_visible="true"
       lpeversion="1"
       weight="33.333333"
       steps="2"
       helper_size="0"
       apply_no_weight="true"
       apply_with_weight="true"
       only_selected="false" /><inkscape:path-effect
       effect="bspline"
       id="path-effect34144"
       is_visible="true"
       lpeversion="1"
       weight="33.333333"
       steps="2"
       helper_size="0"
       apply_no_weight="true"
       apply_with_weight="true"
       only_selected="false" /><inkscape:path-effect
       effect="bspline"
       id="path-effect34086"
       is_visible="true"
       lpeversion="1"
       weight="33.333333"
       steps="2"
       helper_size="0"
       apply_no_weight="true"
       apply_with_weight="true"
       only_selected="false" /><inkscape:path-effect
       effect="bspline"
       id="path-effect33594"
       is_visible="true"
       lpeversion="1"
       weight="33.333333"
       steps="2"
       helper_size="0"
       apply_no_weight="true"
       apply_with_weight="true"
       only_selected="false" /><inkscape:path-effect
       effect="bspline"
       id="path-effect33583"
       is_visible="true"
       lpeversion="1"
       weight="33.333333"
       steps="2"
       helper_size="0"
       apply_no_weight="true"
       apply_with_weight="true"
       only_selected="false" /><inkscape:path-effect
       effect="bspline"
       id="path-effect33579"
       is_visible="true"
       lpeversion="1"
       weight="33.333333"
       steps="2"
       helper_size="0"
       apply_no_weight="true"
       apply_with_weight="true"
       only_selected="false" /><inkscape:path-effect
       effect="bspline"
       id="path-effect33575"
       is_visible="true"
       lpeversion="1"
       weight="33.333333"
       steps="2"
       helper_size="0"
       apply_no_weight="true"
       apply_with_weight="true"
       only_selected="false" /><inkscape:path-effect
       effect="bspline"
       id="path-effect31711"
       is_visible="true"
       lpeversion="1"
       weight="33.333333"
       steps="2"
       helper_size="0"
       apply_no_weight="true"
       apply_with_weight="true"
       only_selected="false" /><inkscape:path-effect
       effect="bspline"
       id="path-effect21040"
       is_visible="true"
       lpeversion="1"
       weight="33.333333"
       steps="2"
       helper_size="0"
       apply_no_weight="true"
       apply_with_weight="true"
       only_selected="false" /><inkscape:path-effect
       effect="bspline"
       id="path-effect21036"
       is_visible="true"
       lpeversion="1"
       weight="33.333333"
       steps="2"
       helper_size="0"
       apply_no_weight="true"
       apply_with_weight="true"
       only_selected="false" /><inkscape:path-effect
       effect="bspline"
       id="path-effect21032"
       is_visible="true"
       lpeversion="1"
       weight="33.333333"
       steps="2"
       helper_size="0"
       apply_no_weight="true"
       apply_with_weight="true"
       only_selected="false" /><inkscape:path-effect
       effect="bspline"
       id="path-effect21028"
       is_visible="true"
       lpeversion="1"
       weight="33.333333"
       steps="2"
       helper_size="0"
       apply_no_weight="true"
       apply_with_weight="true"
       only_selected="false" /><inkscape:path-effect
       effect="bspline"
       id="path-effect21024"
       is_visible="true"
       lpeversion="1"
       weight="33.333333"
       steps="2"
       helper_size="0"
       apply_no_weight="true"
       apply_with_weight="true"
       only_selected="false" /><inkscape:path-effect
       effect="bspline"
       id="path-effect21004"
       is_visible="true"
       lpeversion="1"
       weight="33.333333"
       steps="2"
       helper_size="0"
       apply_no_weight="true"
       apply_with_weight="true"
       only_selected="false" /><inkscape:path-effect
       effect="fill_between_many"
       method="originald"
       linkedpaths="#path21022,0,1|#path21026,0,1"
       id="path-effect26602"
       is_visible="true"
       lpeversion="0"
       join="true"
       close="true"
       autoreverse="true" /><inkscape:path-effect
       effect="bspline"
       id="path-effect43935-4"
       is_visible="true"
       lpeversion="1"
       weight="33.333333"
       steps="2"
       helper_size="0"
       apply_no_weight="true"
       apply_with_weight="true"
       only_selected="false" /><inkscape:path-effect
       effect="bspline"
       id="path-effect43205-8"
       is_visible="true"
       lpeversion="1"
       weight="33.333333"
       steps="2"
       helper_size="0"
       apply_no_weight="true"
       apply_with_weight="true"
       only_selected="false" /><inkscape:path-effect
       effect="bspline"
       id="path-effect43201-5"
       is_visible="true"
       lpeversion="1"
       weight="33.333333"
       steps="2"
       helper_size="0"
       apply_no_weight="true"
       apply_with_weight="true"
       only_selected="false" /></defs><g
     inkscape:groupmode="layer"
     id="layer18"
     inkscape:label="growl"
     style="stroke-width:1.01984"
     mode="growl"
     scale-to="1.1"
     shake="0.1"><path
       style="fill:#ebebeb;fill-opacity:1;stroke:none;stroke-width:1.29467;stroke-linecap:round;stroke-linejoin:round;stroke-dasharray:none;stroke-opacity:1"
       d="m 5.7982755,40.446508 c -1.4966385,0.928599 -1.927328,3.406255 -1.4142135,5.091169 0.3798413,1.247285 2.3845786,1.380484 2.9698485,2.545584 0.6151114,1.224506 -0.3760138,2.899684 0.2828425,4.101219 0.6482451,1.182183 2.484424,1.296219 3.252692,2.404165 0.586671,0.846058 0.07096,2.295016 0.848528,2.969845 1.042239,0.904535 2.94971,-0.194888 4.101219,0.565685 0.917438,0.605969 0.711018,2.341994 1.697056,2.82843 1.489291,0.734704 3.295695,-0.417744 4.949748,-0.565685 7.998706,-0.715414 16.06845,-2.514548 24.04163,-1.555635 2.501673,0.300869 4.798386,2.984541 7.212489,2.26274 1.283827,-0.383856 1.588758,-2.173166 2.545585,-3.11127 1.198636,-1.175181 3.174478,-1.627677 3.9598,-3.11127 0.641086,-1.21111 -0.182454,-2.812314 0.28284,-4.10122 0.493096,-1.365922 2.278208,-2.108158 2.545585,-3.535532 0.242092,-1.292393 -1.028318,-2.504065 -0.98995,-3.818377 0.04481,-1.534852 2.19875,-3.064106 1.414215,-4.384062 -1.691134,-2.845281 -6.513201,-2.491435 -9.758075,-1.838478 -2.768605,0.557118 -4.364582,3.860375 -7.071067,4.666906 C 35.736081,45.118741 23.799908,42.820353 12.44508,41.7193 10.199755,41.501576 7.7151425,39.257176 5.7982755,40.446508 Z"
       id="path51553"
       sodipodi:nodetypes="aaaaaaaaaaaaaaaaaaaaa" /></g><g
     inkscape:groupmode="layer"
     id="layer5"
     inkscape:label="body"
     style="display:inline;stroke-width:1.01984"
     transform="matrix(0.96146755,0,0,1,0.24680918,0)"><path
       style="fill:#ebebeb;fill-opacity:1;stroke:none;stroke-width:1.49382;stroke-linecap:round;stroke-linejoin:round"
       d="m 6.2152185,34.36539 c -3.8646052,4.518636 -2.362164,12.500927 0.7354456,17.536248 3.5272909,5.733791 11.1398469,8.479836 17.7977779,10.32376 7.822206,2.166372 16.677922,2.85162 24.416785,0.424265 5.32317,-1.669653 10.780963,-4.992236 13.385107,-9.758075 3.013109,-5.514286 4.9501,-13.819385 0.882531,-18.667619 C 57.719297,27.41383 45.615612,29.899832 36.515567,29.839907 26.294557,29.772601 12.707175,26.77476 6.2152185,34.36539 Z"
       id="path28045"
       sodipodi:nodetypes="aaaaaaaa" /><path
       style="fill:#cbcbdd;fill-opacity:1;stroke:none;stroke-width:1.32036;stroke-linecap:round;stroke-linejoin:round;stroke-dasharray:none;stroke-opacity:1"
       d="m 2.4474992,40.7 c 0,0 6.9195853,2.917257 10.6087838,3.5 7.013258,1.107808 14.214469,-0.05255 21.321574,-0.1 7.696695,-0.05138 15.623302,1.597403 23.089705,-0.2 3.339483,-0.803921 9.152676,-4.6 9.152676,-4.6 l -3.016223,-4.9 c 0,0 -44.203264,-0.2 -44.931318,0 -0.728053,0.2 -16.2251978,6.3 -16.2251978,6.3 z"
       id="path60739"
       sodipodi:nodetypes="caaaccsc" /><path
       style="stroke-width:1.49382;fill:#a4a4a4;fill-opacity:1;stroke:none;stroke-linecap:round;stroke-linejoin:round;stroke-opacity:1"
       d="m 21.11213,61.907643 c 0,0 2.056968,-3.651849 3.933582,-4.078661 2.990697,-0.680195 6.918854,0.658469 8.633371,3.110719 0.666966,0.953952 -0.102439,3.446957 -0.102439,3.446957 z"
       id="path33182"
       sodipodi:nodetypes="caacc" /><path
       style="stroke-width:1.49382;fill:#a4a4a4;fill-opacity:1;stroke:none;stroke-linecap:round;stroke-linejoin:round;stroke-opacity:1"
       d="m 52.92778,62.391903 c 0,0 -1.584929,-3.729275 -3.354141,-4.21794 -2.953766,-0.815845 -6.918854,0.658469 -8.633371,3.110719 -0.666966,0.953952 0.102439,3.446957 0.102439,3.446957 z"
       id="path33978"
       sodipodi:nodetypes="caacc" /></g><g
     inkscape:groupmode="layer"
     id="layer6"
     inkscape:label="hands"
     style="stroke-width:1.01984"
     transform="matrix(0.96146755,0,0,1,0.24680918,0)"
     shake="0.1"><path
       style="fill:#eeb6b1;fill-opacity:1;stroke:none;stroke-width:1.49382;stroke-linecap:round;stroke-linejoin:round;stroke-opacity:1"
       d="m 29.801519,48.35 c 1.09208,-0.15 4.201406,0.01957 5.252388,1.45 0.981996,1.336542 0.917583,3.768576 -0.312023,4.9 -1.452948,1.336932 -6.032446,0.1 -6.032446,0.1"
       id="path32316"
       sodipodi:nodetypes="caac" /><path
       style="fill:#bcafc2;fill-opacity:1;stroke:none;stroke-width:1.49382;stroke-linecap:round;stroke-linejoin:round;stroke-opacity:1"
       d="m 17.881738,47.626774 11.865558,-0.289107 a 1.2440212,1.2440212 45.364703 0 1 1.273467,1.289784 l -0.240372,6.477661 a 1.2578677,1.2578677 138.56899 0 1 -1.366914,1.206412 L 17.538584,55.269925 c -0.727832,-0.06384 -1.620559,-0.626011 -1.936636,-1.284556 -0.206051,-0.429305 -0.422921,-0.930197 -0.580396,-1.419029 -0.222765,-0.6915 -0.158257,-1.896221 0.137979,-2.559985 0.19325,-0.433007 0.437193,-0.869739 0.66708,-1.247113 0.379795,-0.623457 1.324717,-1.114672 2.055127,-1.132468 z"
       id="path29726"
       sodipodi:nodetypes="ccccac"
       inkscape:path-effect="#path-effect60320"
       inkscape:original-d="M 16.559214,47.658997 31.06982,47.305444 30.731334,56.427119 16.220727,55.15433 c 0,0 -1.497822,-2.512412 -1.426631,-3.883613 0.06898,-1.328537 1.765118,-3.61172 1.765118,-3.61172 z" /><path
       style="fill:#eeb6b1;fill-opacity:1;stroke:none;stroke-width:1.49382;stroke-linecap:round;stroke-linejoin:round;stroke-opacity:1"
       d="m 42.649771,48.75 c -1.09208,-0.15 -4.201406,0.01957 -5.252388,1.45 -0.981996,1.336542 -0.917583,3.768576 0.312023,4.9 1.452948,1.336932 6.032446,0.1 6.032446,0.1"
       id="path32387"
       sodipodi:nodetypes="caac" /><path
       style="fill:#e1aeb4;fill-opacity:1;stroke:none;stroke-width:1.49382;stroke-linecap:round;stroke-linejoin:round;stroke-opacity:1"
       d="m 53.623819,46.19815 c -2.776862,0.261529 -9.151397,0.826252 -11.91439,1.070219 -0.727511,0.06424 -1.223599,0.700985 -1.108026,1.422413 l 1.116246,6.967828 a 1.221258,1.221258 33.610375 0 0 1.494663,0.993442 l 12.041844,-2.930543 c 0.709907,-0.172765 1.482174,-0.8726 1.664909,-1.579856 0.121968,-0.472064 0.241546,-1.020779 0.303698,-1.545224 0.08554,-0.721773 -0.192647,-1.893971 -0.593607,-2.500603 -0.244677,-0.370183 -0.531399,-0.736258 -0.798433,-1.053455 -0.470176,-0.558499 -1.479522,-0.912727 -2.206904,-0.844221 z"
       id="path31588"
       sodipodi:nodetypes="ccccac"
       inkscape:path-effect="#path-effect59592"
       inkscape:original-d="m 54.940033,46.06561 c -0.55666,0.08805 -14.547893,1.318911 -14.547893,1.318911 l 1.534772,9.58035 14.612644,-3.556181 c 0,0 0.981288,-2.769551 0.664083,-4.128153 -0.294811,-1.262682 -2.263606,-3.214927 -2.263606,-3.214927 z" /></g><g
     inkscape:groupmode="layer"
     id="layer1"
     inkscape:label="head"><path
       style="fill:#eeb6b1;fill-opacity:1;stroke:none;stroke-width:1.46475;stroke-linecap:round;stroke-linejoin:round"
       d="m 3.6350791,35.779603 c 5.8327253,8.544289 19.8818879,5.264277 30.0485329,5.374012 9.434596,0.101833 22.143397,3.221108 27.980972,-4.384063 3.680388,-4.794796 1.348745,-12.894661 -1.51621,-18.243354 C 56.532455,11.775502 49.327796,7.0346247 42.229525,4.5254834 35.408907,2.1144887 27.415963,1.8504212 20.589068,4.2426407 15.20423,6.1295477 10.134814,10.118736 7.2188491,15.132085 3.7272031,21.13519 -0.27375911,30.053593 3.6350791,35.779603 Z"
       id="path3952"
       sodipodi:nodetypes="aaaaaaaa" /><path
       style="fill:none;fill-opacity:1;stroke:#c38681;stroke-width:1.49382;stroke-linecap:round;stroke-linejoin:round;stroke-dasharray:none;stroke-opacity:1"
       d="m 31.881673,31.7 c 0,0 1.517355,2.983495 2.912215,2.9 1.211078,-0.07249 2.184161,-2.8 2.184161,-2.8"
       id="path37940"
       transform="matrix(0.96146755,0,0,1,0.24680918,0)"
       sodipodi:nodetypes="cac" /><path
       style="fill:none;fill-opacity:1;stroke:#c38681;stroke-width:1.46475;stroke-linecap:round;stroke-linejoin:round;stroke-dasharray:none;stroke-opacity:1"
       d="m 27.4,38.6 c 0,0 2.909003,-1.656341 4.5,-1.6 1.745331,0.06181 3.068577,2.328414 4.8,2.1 1.05802,-0.139577 2.5,-2 2.5,-2"
       id="path37998"
       sodipodi:nodetypes="caac" /></g><g
     inkscape:groupmode="layer"
     id="layer4"
     inkscape:label="hair 1"><path
       style="fill:#5b342b;fill-opacity:1;stroke:none;stroke-width:1.46475;stroke-linecap:round;stroke-linejoin:round"
       d="m 2.3587528,25.2 c -0.7772483,2.728398 -0.7066847,5.6577 -0.6811212,8.5 0.029551,3.285633 -2.01198253,8.417212 0.9639639,9.810051 2.1676899,1.014548 4.8898074,-1.886222 5.936699,-4.038478 C 10.649364,35.213756 5.8886719,29.709606 7.6131169,25.3 9.8399867,19.605635 15.283756,14.858664 20.943633,12.7 c 9.249008,-3.5275504 20.617442,-3.1233312 29.580124,1 2.732513,1.257108 4.433985,4.145191 6.099182,6.65 1.818058,2.734744 3.605143,5.706312 4.117637,8.95 0.387637,2.453445 -0.808048,4.917043 -0.875728,7.4 -0.05824,2.13682 -1.731587,6.357679 0.405607,6.4 7.839933,0.155249 4.907552,-15.964831 2.416181,-23.4 C 61.022832,14.734596 56.27045,11.154026 51.983302,8.2 46.890547,4.6908767 40.91408,2.2848652 34.857968,1.3 31.103082,0.68936807 27.141083,0.97170502 23.473512,2 18.939369,3.2712606 14.268796,5.2095241 10.92142,8.6 6.581185,12.996118 4.0709764,19.189531 2.3587528,25.2 Z"
       id="path27255"
       sodipodi:nodetypes="aaaaaaaaaaaaaaaaa" /></g><g
     inkscape:groupmode="layer"
     id="layer2"
     inkscape:label="badnana"
     transform="matrix(0.96146757,0,0,1,0.24680918,0)"
     style="stroke-width:1.01984"><path
       style="fill:#ffffff;fill-opacity:1;stroke:none;stroke-width:1.49381;stroke-linecap:round;stroke-linejoin:round"
       d="M 8.9355339,12.024264 C 9.5054669,9.0069222 55.223787,8.672338 55.099904,11.15 58.75504,14.555608 56.3915,18.230513 57.93559,21.9 37.981077,21.250868 27.183688,21.25273 6.9627417,22.468629 Z"
       id="path11509"
       sodipodi:nodetypes="scccs" /><path
       style="fill:#c62d2a;fill-opacity:1;stroke:none;stroke-width:1.49381;stroke-linecap:round;stroke-linejoin:round"
       d="m 13,20.6 c 0,0 7.042303,-7.218195 11.7,-8.3 4.670694,-1.084823 9.414273,2.598394 14.2,2.3 4.021527,-0.250746 7.576085,-3.770733 11.6,-3.4 2.396876,0.22083 4.257866,0.75443 6.383873,3.25 1.325514,1.555928 0.623759,4.95 0.623759,4.95 0,0 -3.592472,-2.082936 -5.607632,-2.2 -4.0701,-0.236439 -7.736567,2.934475 -11.8,3.1 -4.76935,0.19428 -9.342278,-2.885389 -14.1,-2.5 -3.415021,0.276626 -6.284383,3.13084 -9.7,3.4 C 15.185421,21.28783 13,20.6 13,20.6 Z"
       id="path16314"
       sodipodi:nodetypes="caaascaaaac" /><path
       style="fill:#c62d2a;fill-opacity:1;stroke:none;stroke-width:1.49381;stroke-linecap:round;stroke-linejoin:round"
       d="m 7.3,21.2 c 0,0 3.286097,-4.596851 5.629289,-6.317157 C 15.095571,13.29242 20.4,11.4 20.4,11.4 c 0,0 -6.587458,-1.281484 -9.4,0.1 -2.1727843,1.067243 -4.0590491,3.86191 -4.5,5.7 -0.4409509,1.83809 0.8,4 0.8,4 z"
       id="path18647"
       sodipodi:nodetypes="cscssc" /></g><g
     inkscape:groupmode="layer"
     id="layer3"
     inkscape:label="hair"
     style="display:inline"><path
       style="fill:#5b342b;fill-opacity:1;stroke:none;stroke-width:1.46475;stroke-linecap:round;stroke-linejoin:round"
       d="m 10.187036,10.103759 c -1.0205123,1.02363 -2.1067273,2.313125 -2.8611258,3.746425 -0.8217612,1.561284 -1.0850865,4.488421 -1.0456368,6.263773 0.011949,0.53774 0.037138,1.043509 0.070705,1.512574 0.1471147,2.055796 1.8526502,2.563253 2.7350487,0.712996 2.3017258,-4.826374 0.8626749,-10.935039 4.1016778,-11.769463 1.952616,-0.503028 4.800408,1.728314 5.819966,3.499356 0.773126,1.342973 1.303208,3.028356 1.218681,5.655025 -0.06573,2.042507 0.670491,2.40031 1.575666,0.57289 2.000196,-4.038108 3.376054,-9.503022 7.240806,-13.0313132 1.504986,-1.3739632 4.042862,-0.732326 5.258255,0.9132492 3.854,5.218101 7.606595,10.034541 13.386923,12.988034 1.819965,0.929922 2.379971,0.134534 1.098627,-1.460196 -2.07705,-2.585048 -4.218676,-5.353441 -4.954973,-7.499333 -0.599295,-1.746608 2.573438,-4.2126355 4.432245,-3.5234615 3.939438,1.4605915 6.61972,8.5619015 6.389199,12.8020435 -0.104751,1.926753 0.35723,2.677363 1.209456,0.906561 C 57.470589,19.051663 56.114458,12.909915 53.762182,9.9502085 52.549393,8.4242397 50.117155,6.6739081 51.119557,5.3938628 51.940599,4.3454204 51.310155,3.8663678 49.264508,3.8480048 43.697652,3.7980334 40.397596,3.4846812 36.349709,2.8315562 34.330193,2.5057081 31.102673,2.6459543 29.132269,3.1960669 L 16.567731,6.7039331 C 14.597327,7.2540457 11.629814,8.656574 10.187036,10.103759 Z"
       id="path20836"
       sodipodi:nodetypes="cscccccscsccc"
       inkscape:path-effect="#path-effect26108"
       inkscape:original-d="m 13,7.7 c 0,0 -6.225,4.3 -6.625,9.2 -0.4,4.9 0.5007359,8.42132 0.5007359,8.42132 C 13.412115,19.503831 7.5514167,7.622798 16.8,11.1 c 2.054243,2.646191 4.428803,4.530727 3,12.3 4.00774,-4.426264 4.457152,-14.4369013 12.3,-18.2 5.444787,7.297328 9.943933,14.356185 19,17.4 C 47.385639,17.821977 40.964828,10.932419 44.686166,8.9753186 52.166067,5.0415414 57.463352,23.126999 53.073654,24.602817 59.811129,23.371021 55.561792,7.4818871 50.642974,8.2988561 48.777628,8.6086724 51.179891,4.4715965 52.968629,3.8464466 43.153982,3.9266161 39.681537,3.4610124 32.7,2.2 Z" /></g><g
     inkscape:groupmode="layer"
     id="layer17"
     inkscape:label="closed eyes"
     mode="force-fart"
     shake="0.1"
     scale-to="1.5"><path
       style="fill:#eeb6b1;fill-opacity:1;stroke:#c38681;stroke-width:1.29467717;stroke-linecap:round;stroke-linejoin:round;stroke-dasharray:none;stroke-opacity:1"
       d="m 21.708178,24.748737 c 0.353554,0.07071 6.788226,2.404163 6.788226,2.404163 l -6.858936,2.121321"
       id="path51396" /><path
       style="fill:#eeb6b1;fill-opacity:1;stroke:#c38681;stroke-width:1.29467;stroke-linecap:round;stroke-linejoin:round;stroke-dasharray:none;stroke-opacity:1"
       d="m 45.325545,24.819449 -6.151829,2.333452 5.656854,2.121321"
       id="path51452" /></g><g
     inkscape:groupmode="layer"
     id="layer7"
     inkscape:label="eyes"
     mode="idle"
     color="eyes"
     scale-to="2"
     shake="0.1"
     style="display:none"><g
       inkscape:groupmode="layer"
       id="layer8"
       inkscape:label="left"
       update-origin="true"
       shake-phase="2"
       inkscape:transform-center-x="3.8"
       inkscape:transform-center-y="-1.8"><g
         inkscape:groupmode="layer"
         id="layer10"
         inkscape:label="white"><path
           style="fill:#ffffff;fill-opacity:1;stroke:none;stroke-width:1.46475;stroke-linecap:round;stroke-linejoin:round;stroke-dasharray:none;stroke-opacity:1"
           d="m 19.7,26.6 c -0.07728,-1.600911 1.901517,-2.831283 3.4,-3.4 1.561019,-0.592451 3.780463,-0.840397 5,0.3 1.153594,1.078733 1.255397,3.263024 0.6,4.7 -0.648352,1.421531 -2.339583,2.678807 -3.9,2.6 -2.199468,-0.111081 -4.99381,-2.00029 -5.1,-4.2 z"
           id="path38728"
           sodipodi:nodetypes="aaaaaa" /></g><g
         inkscape:groupmode="layer"
         id="layer11"
         inkscape:label="pupil"
         go-right="0.05"
         go-left="0.1"><path
           style="fill:#000000;fill-opacity:1;stroke:none;stroke-width:1.46475;stroke-linecap:round;stroke-linejoin:round;stroke-dasharray:none;stroke-opacity:1"
           d="m 23.8501,27.167936 c -0.0184,-0.675145 0.908832,-1.213257 1.582184,-1.265747 0.847826,-0.06609 2.102181,0.422873 2.215057,1.265747 0.099,0.739248 -0.838877,1.520665 -1.582184,1.582183 -0.904271,0.07484 -2.190338,-0.675155 -2.215057,-1.582183 z"
           id="path43822"
           sodipodi:nodetypes="aaaaa" /></g></g><g
       inkscape:groupmode="layer"
       id="layer9"
       inkscape:label="right"
       update-origin="true"
       shake-phase="1"
       inkscape:transform-center-x="-4"
       inkscape:transform-center-y="-1.8"><g
         inkscape:groupmode="layer"
         id="layer12"
         inkscape:label="white 1"><path
           style="fill:#ffffff;fill-opacity:1;stroke:none;stroke-width:1.46475;stroke-linecap:round;stroke-linejoin:round;stroke-dasharray:none;stroke-opacity:1"
           d="m 38.4,28.5 c -0.457442,-1.315156 -0.03629,-2.986668 0.8,-4.1 0.787925,-1.048945 2.18918,-1.853504 3.5,-1.8 1.765197,0.07205 3.854608,1.155439 4.5,2.8 0.555366,1.415161 -0.103236,3.34728 -1.2,4.4 -1.184234,1.136677 -3.206227,1.492853 -4.8,1.1 -1.193548,-0.294201 -2.396161,-1.238955 -2.8,-2.4 z"
           id="path38730"
           sodipodi:nodetypes="aaaaaaa" /></g><g
         inkscape:groupmode="layer"
         id="layer13"
         inkscape:label="pupil 1"
         go-right="0.1"
         go-left="0.05"><path
           style="fill:#000000;fill-opacity:1;stroke:none;stroke-width:1.46474;stroke-linecap:round;stroke-linejoin:round;stroke-dasharray:none;stroke-opacity:1"
           d="m 40.508466,26.576776 c 0.168163,-0.612833 1.033156,-0.977447 1.666544,-0.925858 0.627719,0.05113 1.434808,0.544679 1.481373,1.172754 0.06672,0.900003 -0.954951,2.076511 -1.851716,1.975163 -0.852071,-0.0963 -1.523113,-1.395131 -1.296201,-2.222059 z"
           id="path43878"
           sodipodi:nodetypes="aaaaa" /></g></g></g><g
     inkscape:groupmode="layer"
     id="layer14"
     inkscape:label="cheeks"
     mode="cheeks"
     shake="0.05"
     scale-to="2"
     fadein="0.1"><g
       inkscape:groupmode="layer"
       id="layer15"
       inkscape:label="left 1"
       update-origin="true"
       inkscape:transform-center-x="2.9977044"
       inkscape:transform-center-y="0.13342311"
       transform="matrix(0.94211794,0,0,0.94226386,2.3363672,2.4810261)"
       style="stroke-width:1.06136"><path
         style="fill:#eeb6b1;fill-opacity:1;stroke:#e3a49c;stroke-width:1.0532;stroke-linecap:round;stroke-linejoin:round;stroke-dasharray:none;stroke-opacity:1"
         d="m 23.263813,33.092598 c 0,0 -4.40949,-2.442313 -6.929646,-0.707106 -2.00298,1.379115 -2.168817,5.588968 -0.424264,7.2832 2.238653,2.174081 7.000357,-0.494975 7.000357,-0.494975"
         id="path46138"
         sodipodi:nodetypes="cssc" /></g><g
       inkscape:groupmode="layer"
       id="layer16"
       inkscape:label="right 1"
       update-origin="true"
       inkscape:transform-center-x="-3.0754966"
       inkscape:transform-center-y="-0.12810678"
       transform="matrix(0.90615422,0,0,0.9069863,3.9659493,3.791107)"
       style="stroke-width:1.10306"><path
         style="fill:#eeb6b1;fill-opacity:1;stroke:#e3a49c;stroke-width:1.09458;stroke-linecap:round;stroke-linejoin:round;stroke-dasharray:none;stroke-opacity:1"
         d="m 42.331648,32.809755 c 0,0 5.020963,-2.638002 7.141778,10e-7 1.46274,1.819448 1.663004,5.609722 -0.212132,7.000357 -3.141456,2.32976 -7.000357,-0.353554 -7.000357,-0.353554"
         id="path46347"
         sodipodi:nodetypes="cssc" /></g></g></svg>
