<?xml version="1.0" encoding="UTF-8" standalone="no"?>
<!-- Created with Inkscape (http://www.inkscape.org/) -->

<svg
   sodipodi:docname="texture.svg"
   inkscape:version="1.2.2 (b0a8486541, 2022-12-01)"
   id="svg10884"
   version="1.1"
   viewBox="0 0 512 512"
   height="1024"
   width="1024"
   xmlns:inkscape="http://www.inkscape.org/namespaces/inkscape"
   xmlns:sodipodi="http://sodipodi.sourceforge.net/DTD/sodipodi-0.dtd"
   xmlns:xlink="http://www.w3.org/1999/xlink"
   xmlns="http://www.w3.org/2000/svg"
   xmlns:svg="http://www.w3.org/2000/svg">
  <sodipodi:namedview
     id="namedview10886"
     pagecolor="#ffffff"
     bordercolor="#000000"
     borderopacity="0.25"
     inkscape:showpageshadow="2"
     inkscape:pageopacity="0.0"
     inkscape:pagecheckerboard="0"
     inkscape:deskcolor="#d1d1d1"
     inkscape:document-units="mm"
     showgrid="false"
     inkscape:zoom="0.32346812"
     inkscape:cx="519.37112"
     inkscape:cy="820.79186"
     inkscape:window-width="1251"
     inkscape:window-height="1396"
     inkscape:window-x="0"
     inkscape:window-y="0"
     inkscape:window-maximized="1"
     inkscape:current-layer="svg10884" />
  <defs
     id="defs10881">
    <inkscape:path-effect
       effect="offset"
       id="path-effect176"
       is_visible="true"
       lpeversion="1.2"
       linejoin_type="miter"
       unit="mm"
       offset="-2"
       miter_limit="4"
       attempt_force_join="false"
       update_on_knot_move="true" />
    <inkscape:path-effect
       effect="fillet_chamfer"
       id="path-effect37725"
       is_visible="true"
       lpeversion="1"
       nodesatellites_param="F,0,0,1,0,7.9375,0,1 @ F,0,0,1,0,7.9375,0,1 @ F,0,0,1,0,7.9375,0,1 @ F,0,0,1,0,7.9375,0,1 | F,0,0,1,0,7.9375,0,1 @ F,0,0,1,0,7.9375,0,1 @ F,0,0,1,0,7.9375,0,1 @ F,0,0,1,0,7.9375,0,1 @ F,0,0,1,0,7.9375,0,1 @ F,0,0,1,0,7.9375,0,1 @ F,0,0,1,0,7.9375,0,1 @ F,0,0,1,0,7.9375,0,1 @ F,0,0,1,0,7.9375,0,1 @ F,0,0,1,0,7.9375,0,1 @ F,0,0,1,0,7.9375,0,1 | F,0,0,1,0,7.9375,0,1 @ F,0,0,1,0,7.9375,0,1 @ F,0,0,1,0,7.9375,0,1 @ F,0,0,1,0,7.9375,0,1 @ F,0,0,1,0,7.9375,0,1 @ F,0,0,1,0,7.9375,0,1 @ F,0,0,1,0,7.9375,0,1 @ F,0,0,1,0,7.9375,0,1 | F,0,0,1,0,7.9375,0,1 @ F,0,0,1,0,7.9375,0,1 @ F,0,0,1,0,7.9375,0,1 @ F,0,0,1,0,7.9375,0,1 @ F,0,0,1,0,7.9375,0,1 @ F,0,0,1,0,7.9375,0,1 @ F,0,0,1,0,7.9375,0,1 | F,0,0,1,0,7.9375,0,1 @ F,0,0,1,0,7.9375,0,1 @ F,0,0,1,0,7.9375,0,1 @ F,0,0,1,0,7.9375,0,1 @ F,0,0,1,0,7.9375,0,1 @ F,0,0,1,0,7.9375,0,1 @ F,0,0,1,0,7.9375,0,1 @ F,0,0,1,0,7.9375,0,1 | F,0,0,1,0,7.9375,0,1 @ F,0,0,1,0,7.9375,0,1 @ F,0,0,1,0,7.9375,0,1 @ F,0,0,1,0,7.9375,0,1 @ F,0,0,1,0,7.9375,0,1 @ F,0,0,1,0,7.9375,0,1 @ F,0,0,1,0,7.9375,0,1 @ F,0,0,1,0,7.9375,0,1 | F,0,0,1,0,7.9375,0,1 @ F,0,0,1,0,7.9375,0,1 @ F,0,0,1,0,7.9375,0,1 @ F,0,0,1,0,7.9375,0,1 | F,0,0,1,0,7.9375,0,1 @ F,0,0,1,0,7.9375,0,1 @ F,0,0,1,0,7.9375,0,1 @ F,0,0,1,0,7.9375,0,1 @ F,0,0,1,0,7.9375,0,1 @ F,0,0,1,0,7.9375,0,1 @ F,0,0,1,0,7.9375,0,1 | F,0,0,1,0,7.9375,0,1 @ F,0,0,1,0,7.9375,0,1 @ F,0,0,1,0,7.9375,0,1 @ F,0,0,1,0,7.9375,0,1 | F,0,0,1,0,7.9375,0,1 @ F,0,0,1,0,7.9375,0,1 @ F,0,0,1,0,7.9375,0,1 @ F,0,0,1,0,7.9375,0,1 | F,0,0,1,0,7.9375,0,1 @ F,0,0,1,0,7.9375,0,1 @ F,0,0,1,0,7.9375,0,1 @ F,0,0,1,0,7.9375,0,1 | F,0,0,1,0,7.9375,0,1 @ F,0,0,1,0,7.9375,0,1 @ F,0,0,1,0,7.9375,0,1 @ F,0,0,1,0,7.9375,0,1 | F,0,0,1,0,7.9375,0,1 @ F,0,0,1,0,7.9375,0,1 @ F,0,0,1,0,7.9375,0,1 @ F,0,0,1,0,7.9375,0,1 | F,0,0,1,0,7.9375,0,1 @ F,0,0,1,0,7.9375,0,1 @ F,0,0,1,0,7.9375,0,1 @ F,0,0,1,0,7.9375,0,1 | F,0,0,1,0,7.9375,0,1 @ F,0,0,1,0,7.9375,0,1 @ F,0,0,1,0,7.9375,0,1 @ F,0,0,1,0,7.9375,0,1 @ F,0,0,1,0,7.9375,0,1 @ F,0,0,1,0,7.9375,0,1 @ F,0,0,1,0,7.9375,0,1 | F,0,0,1,0,7.9375,0,1 @ F,0,0,1,0,7.9375,0,1 @ F,0,0,1,0,7.9375,0,1 @ F,0,0,1,0,7.9375,0,1 | F,0,0,1,0,7.9375,0,1 @ F,0,0,1,0,7.9375,0,1 @ F,0,0,1,0,7.9375,0,1 @ F,0,0,1,0,7.9375,0,1 | F,0,0,1,0,7.9375,0,1 @ F,0,0,1,0,7.9375,0,1 @ F,0,0,1,0,7.9375,0,1 @ F,0,0,1,0,7.9375,0,1 | F,0,0,1,0,7.9375,0,1 @ F,0,0,1,0,7.9375,0,1 @ F,0,0,1,0,7.9375,0,1 @ F,0,0,1,0,7.9375,0,1 | F,0,0,1,0,7.9375,0,1 @ F,0,0,1,0,7.9375,0,1 @ F,0,0,1,0,7.9375,0,1 @ F,0,0,1,0,7.9375,0,1 | F,0,0,1,0,7.9375,0,1 @ F,0,0,1,0,7.9375,0,1 @ F,0,0,1,0,7.9375,0,1 @ F,0,0,1,0,7.9375,0,1 | F,0,0,1,0,7.9375,0,1 @ F,0,0,1,0,7.9375,0,1 @ F,0,0,1,0,7.9375,0,1 @ F,0,0,1,0,7.9375,0,1 | F,0,0,1,0,7.9375,0,1 @ F,0,0,1,0,7.9375,0,1 @ F,0,0,1,0,7.9375,0,1 @ F,0,0,1,0,7.9375,0,1 @ F,0,0,1,0,7.9375,0,1 @ F,0,0,1,0,7.9375,0,1 @ F,0,0,1,0,7.9375,0,1 @ F,0,0,1,0,7.9375,0,1 | F,0,0,1,0,7.9375,0,1 @ F,0,0,1,0,7.9375,0,1 @ F,0,0,1,0,7.9375,0,1 @ F,0,0,1,0,7.9375,0,1 @ F,0,0,1,0,7.9375,0,1 @ F,0,0,1,0,7.9375,0,1 @ F,0,0,1,0,7.9375,0,1 | F,0,0,1,0,7.9375,0,1 @ F,0,0,1,0,7.9375,0,1 @ F,0,0,1,0,7.9375,0,1 @ F,0,0,1,0,7.9375,0,1 | F,0,0,1,0,7.9375,0,1 @ F,0,0,1,0,7.9375,0,1 @ F,0,0,1,0,7.9375,0,1 @ F,0,0,1,0,7.9375,0,1 | F,0,0,1,0,7.9375,0,1 @ F,0,0,1,0,7.9375,0,1 @ F,0,0,1,0,7.9375,0,1 @ F,0,0,1,0,7.9375,0,1 @ F,0,0,1,0,7.9375,0,1 @ F,0,0,1,0,7.9375,0,1 @ F,0,0,1,0,7.9375,0,1 | F,0,0,1,0,7.9375,0,1 @ F,0,0,1,0,7.9375,0,1 @ F,0,0,1,0,7.9375,0,1 @ F,0,0,1,0,7.9375,0,1 | F,0,0,1,0,7.9375,0,1 @ F,0,0,1,0,7.9375,0,1 @ F,0,0,1,0,7.9375,0,1 @ F,0,0,1,0,7.9375,0,1 | F,0,0,1,0,7.9375,0,1 @ F,0,0,1,0,7.9375,0,1 @ F,0,0,1,0,7.9375,0,1 @ F,0,0,1,0,7.9375,0,1 | F,0,0,1,0,7.9375,0,1 @ F,0,0,1,0,7.9375,0,1 @ F,0,0,1,0,7.9375,0,1 @ F,0,0,1,0,7.9375,0,1 @ F,0,0,1,0,7.9375,0,1 | F,0,0,1,0,7.9375,0,1 @ F,0,0,1,0,7.9375,0,1 @ F,0,0,1,0,7.9375,0,1 @ F,0,0,1,0,7.9375,0,1 @ F,0,0,1,0,7.9375,0,1 @ F,0,0,1,0,7.9375,0,1 @ F,0,0,1,0,7.9375,0,1 @ F,0,0,1,0,7.9375,0,1 | F,0,0,1,0,7.9375,0,1 @ F,0,0,1,0,7.9375,0,1 @ F,0,0,1,0,7.9375,0,1 @ F,0,0,1,0,7.9375,0,1 @ F,0,0,1,0,7.9375,0,1 @ F,0,0,1,0,7.9375,0,1 | F,0,0,1,0,7.9375,0,1 @ F,0,0,1,0,7.9375,0,1 @ F,0,0,1,0,7.9375,0,1 @ F,0,0,1,0,7.9375,0,1 | F,0,0,1,0,7.9375,0,1 @ F,0,0,1,0,7.9375,0,1 @ F,0,0,1,0,7.9375,0,1 @ F,0,0,1,0,7.9375,0,1 | F,0,0,1,0,7.9375,0,1 @ F,0,0,1,0,7.9375,0,1 @ F,0,0,1,0,7.9375,0,1 @ F,0,0,1,0,7.9375,0,1 | F,0,0,1,0,7.9375,0,1 @ F,0,0,1,0,7.9375,0,1 @ F,0,0,1,0,7.9375,0,1 @ F,0,0,1,0,7.9375,0,1 | F,0,0,1,0,7.9375,0,1 @ F,0,0,1,0,7.9375,0,1 @ F,0,0,1,0,7.9375,0,1 @ F,0,0,1,0,7.9375,0,1 | F,0,0,1,0,7.9375,0,1 @ F,0,0,1,0,7.9375,0,1 @ F,0,0,1,0,7.9375,0,1 @ F,0,0,1,0,7.9375,0,1 @ F,0,0,1,0,7.9375,0,1 @ F,0,0,1,0,7.9375,0,1 @ F,0,0,1,0,7.9375,0,1 | F,0,0,1,0,7.9375,0,1 @ F,0,0,1,0,7.9375,0,1 @ F,0,0,1,0,7.9375,0,1 @ F,0,0,1,0,7.9375,0,1 | F,0,0,1,0,7.9375,0,1 @ F,0,0,1,0,7.9375,0,1 @ F,0,0,1,0,7.9375,0,1 @ F,0,0,1,0,7.9375,0,1"
       unit="px"
       method="auto"
       mode="F"
       radius="30"
       chamfer_steps="1"
       flexible="false"
       use_knot_distance="true"
       apply_no_radius="true"
       apply_with_radius="true"
       only_selected="false"
       hide_knots="false" />
  </defs>
  <rect
     style="display:inline;fill:#858585;fill-opacity:1;stroke-width:29.2952;stroke-linecap:round;stroke-linejoin:round"
     id="rect15969"
     width="1547.6508"
     height="1552.288"
     x="-643.03094"
     y="-459.08698" />
  <g
     inkscape:label="Layer 1"
     inkscape:groupmode="layer"
     id="layer1"
     inkscape:tile-cx="256"
     inkscape:tile-cy="256"
     inkscape:tile-w="512"
     inkscape:tile-h="512"
     inkscape:tile-x0="0"
     inkscape:tile-y0="0">
    <path
       id="path27871"
       style="fill:#a6a6a6;fill-opacity:1;stroke:none;stroke-width:18.8976;stroke-dasharray:none;stroke-opacity:1"
       d="m 241.09875,168.15656 c 0.26677,-2.21103 -0.0401,-0.51501 -0.60241,3.79902 -0.35003,2.68528 -0.61618,4.86265 -0.59986,4.86278 0.24867,-0.78179 0.24867,-0.78179 0.24867,-0.78179 z m 54.10437,154.37274 58.46354,6.93941 a 6.3951117,6.3951117 135.62695 0 0 7.11929,-6.96516 l -4.36877,-45.24538 a 8.4763071,8.4763071 41.364907 0 0 -8.69666,-7.65766 l -111.94299,3.42984 c -4.38171,0.13426 -8.48743,3.75352 -9.21509,8.07643 -0.90718,5.38942 -2.29366,13.49017 -4.24834,24.7892 -0.74725,4.31952 2.17385,8.23971 6.52705,8.75643 l 50.95832,6.0487 c 7.88091,0.94563 7.88091,0.94563 7.88091,0.94563 l 0.0183,0.002 c 5.5e-4,-0.0102 5.5e-4,-0.0102 5.5e-4,-0.0102 l 7.46601,0.8857 c 0.0367,-0.24608 0.0367,-0.24608 0.0367,-0.24608 z m 134.345,67.7587 c -0.45036,9.28697 -1.38694,29.20746 -3.37046,71.57847 -0.20493,4.37769 3.18207,7.85879 7.56504,7.77526 l 101.06343,-1.92604 a 8.2533738,8.2533738 135.02587 0 0 8.09447,-8.08716 l 1.54841,-77.57152 a 8.2807301,8.2807301 47.355916 0 0 -7.7637,-8.42994 l -97.78664,-6.09789 c -4.37526,-0.27284 -7.93257,-0.38047 -7.94164,-0.24012 -0.46289,7.82422 -0.46289,7.82422 -0.46289,7.82422 -0.49051,7.40562 -0.49051,7.40562 -0.49051,7.40562 -0.0319,-0.15658 -0.0319,-0.15658 -0.0319,-0.15658 z m -43.62429,173.11825 83.26545,-8.47907 a 9.1982788,9.1982788 133.39351 0 0 8.25694,-8.73345 l 2.58803,-56.95972 a 7.6883409,7.6883409 46.687991 0 0 -7.57649,-8.03661 l -88.44482,-1.19558 a 6.9777845,6.9777845 132.09288 0 0 -7.02601,7.77779 l 7.82692,67.76304 a 5.6182865,5.6182865 82.865664 0 0 0.98587,7.87655 c -0.41861,-4.40376 -0.41861,-4.40376 -0.41861,-4.40376 z M 494.3186,552.22472 c 0.72615,9.29565 2.33222,29.40439 5.80594,72.77044 0.34972,4.36594 4.18669,7.95258 8.57007,8.011 l 63.27093,0.84315 a 8.1565138,8.1565138 136.54314 0 0 8.2585,-7.82521 l 3.85074,-94.93296 a 7.344131,7.344131 45.099182 0 0 -7.61034,-7.63674 l -75.85467,2.81386 c -4.38074,0.1625 -7.91622,0.7537 -7.88125,1.31963 0.54938,8.21874 0.94323,12.0004 1.07031,16.38219 -0.0468,0.33867 -0.0468,0.33867 -0.0468,0.33867 z m -50.18316,14.94373 c -0.61527,0.005 -0.61527,0.005 -0.61527,0.005 -1.06705,0.0396 -1.06705,0.0396 -1.06705,0.0396 l 0,0.0305 c 0.37795,0.0141 0.37795,0.0141 0.37795,0.0141 0.71528,0.0126 0.71528,0.0126 0.71528,0.0126 0.51374,0.005 0.51374,0.005 0.51374,0.005 -0.0443,-0.0276 -0.0443,-0.0276 -0.0443,-0.0276 z m -279.92469,-436.69368 -4.38244,66.0407 a 9.4003348,9.4003348 133.97381 0 1 -8.42176,8.72896 l -46.4967,4.7631 a 6.9873808,6.9873808 42.79359 0 1 -7.697244,-7.12613 l 1.652913,-65.93077 a 8.9803807,8.9803807 132.90867 0 1 8.098301,-8.71217 l 49.87315,-4.90661 a 6.7296602,6.7296602 44.08889 0 1 7.37378,7.14292 z m 21.97744,-4.76279 38.8326,5.10338 a 8.0449787,8.0449787 52.101603 0 1 6.94151,8.91728 l -5.70195,48.41949 c -0.5127,4.35368 -4.43847,8.43794 -8.76869,9.12098 -20.12087,3.17383 -22.52501,3.5223 -24.91406,3.81336 -4.35146,0.53016 -10.4825,1.39585 -13.70846,1.82173 -5.57617,0.70313 -5.57617,0.70313 -5.57617,0.70313 -2.87891,0.30664 -2.87891,0.30664 -2.87891,0.30664 l 7.11644,-71.34194 a 7.6932586,7.6932586 141.59169 0 1 8.65769,-6.86405 z m 169.86417,40.78231 130.57301,1.25556 a 7.1819965,7.1819965 48.411549 0 1 7.06995,7.96631 l -5.19337,47.25127 a 9.4006802,9.4006802 136.44837 0 1 -8.79091,8.35734 l -115.1877,6.79382 a 8.4127298,8.4127298 39.959707 0 1 -8.85051,-7.41586 l -6.63082,-56.40155 a 6.9909459,6.9909459 131.92288 0 1 7.01035,-7.80689 z m -108.96081,17.94208 85.23097,0.68 a 8.1622792,8.1622792 44.657217 0 1 8.09554,7.99924 l 1.12873,56.58909 a 7.4078499,7.4078499 135.83413 0 1 -7.76966,7.54666 l -94.84918,-4.65702 c -4.37849,-0.21498 -7.49733,-3.91681 -6.96685,-8.26836 3.69995,-30.35103 5.34335,-44.06392 6.282,-52.06794 0.51059,-4.35391 4.46483,-7.85664 8.84845,-7.82167 z m 349.72316,16.31167 0.0893,50.90431 a 8.384078,8.384078 133.33216 0 1 -7.91092,8.38543 l -88.60733,5.00842 a 6.5434838,6.5434838 47.263524 0 1 -6.8528,-7.41683 l 7.20355,-52.84663 a 9.4995562,9.4995562 137.64314 0 1 9.00214,-8.20766 l 79.13201,-3.42164 a 7.6150666,7.6150666 43.711775 0 1 7.94402,7.5946 z m -372.79754,15.29624 -2.32535,34.2591 a 8.8347686,8.8347686 135.82077 0 1 -8.46895,8.22972 l -108.48676,4.2463 a 7.8377827,7.8377827 43.120693 0 1 -8.141575,-7.62428 l -0.575788,-21.73993 a 8.8403205,8.8403205 130.40273 0 1 7.656193,-8.99513 l 113.0134,-15.23465 a 6.4782337,6.4782337 43.102799 0 1 7.32883,6.85887 z m 255.95576,35.66384 -5.37946,38.3279 a 8.9359647,8.9359647 139.60302 0 1 -9.03895,7.69193 l -86.40006,-1.83481 a 9.9775184,9.9775184 39.720168 0 1 -9.55567,-7.93896 l -6.26008,-30.0275 a 6.8091859,6.8091859 127.59912 0 1 6.30648,-8.18938 l 103.50454,-5.47069 a 6.5414247,6.5414247 47.481971 0 1 6.8232,7.44151 z m -265.04723,26.37126 -4.98226,33.83538 a 8.6730379,8.6730379 140.84113 0 1 -9.08062,7.39512 l -18.1358,-1.04749 a 9.4014889,9.4014889 43.479423 0 1 -8.80175,-8.34655 l -3.19429,-28.7184 a 7.5941809,7.5941809 129.91948 0 1 7.04246,-8.41687 l 30.38867,-2.02599 a 6.4058019,6.4058019 47.281189 0 1 6.76359,7.3248 z m 358.28587,-7.066 89.06514,3.7916 a 9.0223942,9.0223942 43.777547 0 1 8.60591,8.2463 l 6.29726,73.71775 a 7.2823748,7.2823748 132.58215 0 1 -7.26191,7.90221 l -110.66406,-0.0905 c -4.38376,-0.004 -7.39224,-3.51815 -6.71973,-7.85002 10.58038,-68.15252 7.90982,-51.11079 9.27367,-61.02306 0.59751,-4.34265 1.63078,-11.37459 2.2403,-15.71576 0.0924,-0.65782 0.65167,-4.53995 1.1706,-8.68132 0.0625,-0.63477 0.0625,-0.63477 0.0625,-0.63477 z m -21.74827,10.71387 -3.19027,38.82871 a 8.2116548,8.2116548 138.72445 0 1 -8.57833,7.52976 l -44.89135,-2.15776 a 8.2230201,8.2230201 46.739683 0 1 -7.82757,-8.31794 l 0.41563,-32.73175 a 8.4372356,8.4372356 133.97945 0 1 8.02902,-8.32026 l 48.76461,-2.3582 a 6.9652133,6.9652133 45.964216 0 1 7.27826,7.52744 z m -164.90603,25.56958 80.13741,1.45907 a 8.6805043,8.6805043 43.483034 0 1 8.50051,8.0619 l 2.35767,33.07729 a 7.1335486,7.1335486 133.9765 0 1 -7.36819,7.63624 l -81.50215,-2.88883 c -4.38101,-0.15529 -8.08497,-3.83164 -8.27448,-8.2113 -0.67217,-15.53414 -1.10662,-25.23077 -1.39385,-31.35114 -0.20551,-4.37892 3.16005,-7.86303 7.54308,-7.78323 z m -203.31589,23.08838 89.0817,1.27645 a 7.4336654,7.4336654 47.698303 0 1 7.30347,8.02593 l -4.86247,60.75763 a 8.1969558,8.1969558 138.65438 0 1 -8.56169,7.53371 l -82.09033,-3.9188 a 8.425874,8.425874 46.023578 0 1 -8.02349,-8.31542 l -0.68886,-57.5363 a 7.7314416,7.7314416 135.0675 0 1 7.84167,-7.8232 z m 313.69655,6.18539 36.70422,1.78263 a 7.3828702,7.3828702 49.853846 0 1 6.97084,8.26461 l -0.93692,7.71158 a 8.2288972,8.2288972 140.89453 0 1 -8.86626,7.20682 l -32.99853,-2.80686 a 9.003147,9.003147 46.262461 0 1 -8.2326,-8.60364 l -0.24525,-6.00929 a 7.2584203,7.2584203 135.22178 0 1 7.6045,-7.54585 z m -194.85046,0.34686 58.87975,4.38382 a 8.0326023,8.0326023 48.916829 0 1 7.42056,8.51139 l -2.12908,34.07192 a 8.0597983,8.0597983 138.13762 0 1 -8.42372,7.5482 l -59.61332,-2.81089 c -4.37889,-0.20647 -7.65626,-3.91713 -7.32144,-8.28809 1.49463,-19.51152 2.25899,-29.75322 2.71655,-36.08766 0.31582,-4.37235 4.09904,-7.65417 8.4707,-7.32869 z m 86.20628,28.28539 23.2211,1.75837 a 7.9696576,7.9696576 49.214498 0 1 7.34751,8.51653 l -1.83409,25.59528 a 9.29438,9.29438 134.59635 0 1 -8.47575,8.59602 l -25.30035,2.17166 a 6.554257,6.554257 45.546416 0 1 -7.07889,-7.21521 l 3.3761,-32.12795 a 8.1720747,8.1720747 140.16456 0 1 8.74437,-7.2947 z m -225.83976,19.44037 2.32835,19.85028 a 7.8628319,7.8628319 128.5808 0 1 -6.96715,8.73359 L 54.098873,424.39986 a 7.2953292,7.2953292 41.265555 0 1 -8.074756,-7.08525 l -0.729875,-31.66438 a 7.8205521,7.8205521 134.10476 0 1 7.754319,-8.00051 l 100.543509,-0.82483 a 8.8495838,8.8495838 41.420003 0 1 8.86192,7.81833 z m 131.89596,15.52192 62.44268,3.34745 a 8.6909375,8.6909375 45.474293 0 1 8.21975,8.35698 l 2.10805,56.94641 c 0.16217,4.38076 -3.242,8.29039 -7.60339,8.73271 -41.33814,4.19239 -57.88252,5.89233 -67.28325,6.87313 -4.36008,0.4549 -8.02861,-1.18128 -8.06582,-3.66596 -0.0156,-7.93962 0.01,-11.49515 0.0866,-15.87822 0.007,-0.40169 0.0767,-4.28045 0.18276,-8.66292 0.0149,-0.61422 0.0302,-1.23187 0.0459,-1.85249 0.11096,-4.38235 0.32778,-11.48658 0.43413,-15.86905 0.21599,-8.90014 0.01,-5.16483 1.15248,-30.82415 0.195,-4.37898 3.90266,-7.73856 8.28014,-7.50389 z m -63.82261,19.98565 36.83985,0.0109 a 7.4018336,7.4018336 47.016996 0 1 7.38146,7.92035 l -3.43089,48.85541 a 8.6554807,8.6554807 136.53936 0 1 -8.49248,8.04798 l -34.92986,0.57207 c -4.38318,0.0718 -7.7354,-3.41807 -7.48872,-7.79488 1.56847,-27.82826 1.48566,-27.21813 1.56693,-31.38357 0.0855,-4.38282 0.35408,-11.01392 0.46387,-14.81462 0.15039,-6.5957 0.15039,-6.5957 0.15039,-6.5957 0.002,-4.82031 0.002,-4.82031 0.002,-4.82031 z m -21.32848,7.99413 -10.7649,95.0832 a 7.7874025,7.7874025 142.00615 0 1 -8.76157,6.84377 l -53.86235,-7.14183 a 10.800226,10.800226 43.866625 0 1 -9.22237,-8.86455 l -13.06596,-75.48844 a 7.4406948,7.4406948 127.03056 0 1 6.53854,-8.66731 l 82.13927,-8.80585 a 6.3615976,6.3615976 45.170085 0 1 6.99934,7.04101 z m 175.78839,-5.37674 25.33409,0.69411 a 7.3597756,7.3597756 48.732267 0 1 7.11928,8.11292 l -2.58436,25.02927 a 9.6346465,9.6346465 135.37849 0 1 -8.72084,8.60638 l -18.59505,1.67203 a 7.6842814,7.6842814 40.790526 0 1 -8.35986,-7.21363 l -1.67352,-29.19399 a 7.2924825,7.2924825 134.1443 0 1 7.48026,-7.70709 z m -282.39502,17.4249 9.92687,64.60408 a 6.8715998,6.8715998 130.38124 0 1 -6.73169,7.91496 l -50.11584,0.43904 c -4.383592,0.0384 -8.043593,-3.48261 -8.175547,-7.86438 -0.713256,-23.68493 -0.689156,-22.16735 -1.056164,-30.25161 -0.198802,-4.37911 -0.49309,-11.48042 -0.694798,-15.85953 -0.0037,-0.0807 -0.0074,-0.16136 -0.01116,-0.24189 -0.202362,-4.37908 -0.553099,-11.19912 -0.815932,-15.23063 -0.421875,-5.44335 -0.421875,-5.44335 -0.421875,-5.44335 l 48.995642,-5.09166 a 8.3355846,8.3355846 37.665749 0 1 9.100494,7.02497 z m -68.41778,47.74064 0.791726,13.53491 a 7.75826,7.75826 132.30656 0 1 -7.468961,8.20639 l -37.892867,1.34918 a 7.8575257,7.8575257 43.250932 0 1 -8.13457,-7.65249 l -0.308697,-12.12037 a 8.2378882,8.2378882 132.47713 0 1 7.719855,-8.4315 l 36.90805,-2.3135 a 7.9044506,7.9044506 41.532763 0 1 8.385464,7.42738 z m 332.88471,11.60955 0.87191,8.18885 a 7.8470845,7.8470845 129.25044 0 1 -7.06158,8.64281 l -86.95188,8.25209 a 8.2697638,8.2697638 38.404183 0 1 -8.97515,-7.11469 l -1.31461,-9.63404 a 7.5116569,7.5116569 128.80864 0 1 6.83863,-8.50292 l 87.84048,-7.08668 a 8.1431369,8.1431369 39.654902 0 1 8.7522,7.25458 z m -115.75953,3.61582 -7.92152,56.36542 a 7.9611777,7.9611777 142.91455 0 1 -8.96818,6.77901 l -17.41165,-2.39415 a 8.4222949,8.4222949 51.13185 0 1 -7.24979,-8.99499 l 3.81748,-49.22525 a 9.1538499,9.1538499 135.36374 0 1 8.53461,-8.42693 l 22.38283,-1.45018 a 6.4613497,6.4613497 47.146442 0 1 6.81622,7.34707 z m -158.649509,23.18138 60.662649,11.58468 a 8.583662,8.583662 53.571775 0 1 6.92119,9.37799 l -3.07729,27.73161 a 9.2154402,9.2154402 137.07119 0 1 -8.80712,8.19235 l -56.009643,2.14151 c -4.380559,0.16749 -7.8834,-3.25014 -7.824308,-7.6335 0.343678,-25.49367 0.481346,-36.73533 0.519068,-41.72567 0.03309,-4.37777 -0.160825,-9.37268 -0.181151,-11.15788 z m 275.780249,11.40774 8.63144,77.58562 a 6.7224679,6.7224679 133.38981 0 1 -7.04804,7.45575 l -93.55879,-5.11236 c -4.37723,-0.23918 -8.48997,-3.94173 -9.18553,-8.26996 -4.03686,-25.11998 -3.5647,-22.30211 -4.82732,-30.94799 -0.63345,-4.33759 -1.68765,-11.36635 -2.31999,-15.70426 -0.0458,-0.31396 -0.0913,-0.62674 -0.13655,-0.93828 -0.63023,-4.33822 -1.62159,-11.34874 -2.18286,-15.66243 -0.8125,-6.72461 -0.8125,-6.72461 -0.8125,-6.72461 -0.0488,-0.60157 -0.0488,-0.60157 -0.0488,-0.60157 l 102.69978,-8.32725 a 8.1783582,8.1783582 39.50816 0 1 8.78918,7.24734 z m -170.0845,12.31717 -7.60776,58.86338 a 6.7139281,6.7139281 147.13814 0 1 -8.61164,5.56299 l -8.86818,-2.69639 c -4.19418,-1.27524 -7.19026,-5.56815 -6.68993,-9.58833 1.27643,-10.2413 1.58816,-12.7381 1.90905,-15.30555 0.54368,-4.34992 1.42682,-11.40232 1.97608,-15.75153 0.8424,-6.67054 1.61529,-12.72327 2.20313,-17.27803 0.56111,-4.34768 4.5481,-8.39144 8.88441,-9.03471 l 9.97067,-1.47911 a 6.0028289,6.0028289 44.463154 0 1 6.83417,6.70728 z m 282.77796,24.71567 -0.62657,26.91055 a 7.5568772,7.5568772 137.741 0 1 -8.10147,7.36118 l -18.85213,-1.36728 a 8.3260576,8.3260576 47.779586 0 1 -7.72126,-8.50926 l 0.59348,-24.09467 c 0.10794,-4.38243 3.74878,-7.99047 8.13233,-8.03311 4.23086,-0.0412 10.23352,-0.0901 18.82307,-0.14962 4.38365,-0.0304 7.85459,3.49964 7.75255,7.88221 z m -46.35135,4.0486 -0.81058,77.5243 a 8.3008459,8.3008459 134.31723 0 1 -8.01582,8.20918 l -21.08747,0.72335 c -4.38118,0.15028 -8.30855,-3.26171 -8.77241,-7.62086 -4.84971,-45.57567 -6.74568,-63.08561 -7.84497,-73.03489 -0.48142,-4.35722 2.64719,-8.32295 6.99807,-8.85883 l 31.7382,-3.90903 a 6.9462456,6.9462456 41.788794 0 1 7.79498,6.96678 z m -219.65612,0.0795 29.55244,1.66412 a 9.384997,9.384997 43.44633 0 1 8.80014,8.33536 l 3.90001,35.15539 a 6.8724571,6.8724571 132.78298 0 1 -7.05796,7.62645 l -41.41495,-1.37118 c -4.38136,-0.14506 -7.49978,-3.78987 -6.96646,-8.14106 2.20172,-17.96286 3.54347,-29.05224 4.34791,-35.83069 0.51662,-4.35318 4.46204,-7.68485 8.83887,-7.43839 z m -62.18455,23.48162 3.54458,13.57002 a 7.0163247,7.0163247 123.88606 0 1 -5.86195,8.72809 l -60.787479,8.0988 a 7.1023318,7.1023318 40.589493 0 1 -8.038655,-6.8874 l -0.424269,-19.72634 a 8.1713888,8.1713888 132.93605 0 1 7.756686,-8.33666 l 53.877697,-2.72534 a 9.757207,9.757207 36.232619 0 1 9.93339,7.27883 z m 301.80219,18.75332 25.4324,0.24893 a 8.9963508,8.9963508 41.982797 0 1 8.84877,7.96265 l 3.67084,31.74959 a 6.6552606,6.6552606 133.42641 0 1 -7.01148,7.40759 l -31.05999,-1.87141 a 8.4104136,8.4104136 46.790992 0 1 -7.90457,-8.41486 l 0.0684,-29.22269 a 7.8785965,7.8785965 135.34738 0 1 7.95568,-7.8598 z m -137.65046,17.71699 4.41886,38.05323 a 7.3009627,7.3009627 130.76827 0 1 -7.01784,8.13935 l -61.05115,1.96104 a 8.1371433,8.1371433 42.448658 0 1 -8.38519,-7.6698 l -1.56324,-27.42027 a 8.9453935,8.9453935 128.32064 0 1 7.36282,-9.31603 l 7.98799,-1.42228 a 39.139575,39.139575 170.00378 0 1 7.88296,-1.38944 l -0.002,-0.0137 41.63662,-7.41497 a 7.4702346,7.4702346 36.639254 0 1 8.73012,6.49285 z m 20.4831,-5.95855 36.8804,1.39026 a 8.9282403,8.9282403 43.79699 0 1 8.5636,8.21133 l 1.36349,17.0777 a 7.1937391,7.1937391 133.24919 0 1 -7.3044,7.76503 l -37.37774,-0.6937 a 8.6083064,8.6083064 43.741609 0 1 -8.43177,-8.0693 l -1.12981,-18.05832 a 7.1797771,7.1797771 134.28941 0 1 7.43623,-7.623 z m 255.46952,21.80613 -1.71685,27.04362 a 9.4426644,9.4426644 133.68293 0 1 -8.39297,8.78798 l -62.92299,6.90972 a 7.6636983,7.6636983 39.738762 0 1 -8.47911,-7.04918 l -2.37856,-31.96371 a 7.7000792,7.7000792 131.61404 0 1 7.34081,-8.26407 l 69.12272,-3.03745 a 7.1283343,7.1283343 45.558204 0 1 7.42695,7.57309 z"
       inkscape:path-effect="#path-effect176;#path-effect37725"
       inkscape:original-d="m 168.80309,118.3579 -73.434015,7.2251 -2.242188,89.43164 69.736393,-7.14497 z m 6.13955,2.06354 -8.73095,87.55102 c 4.31226,0.56145 62.53824,-8.6463 62.53824,-8.6463 l 8.33024,-70.73887 z m 323.83562,43.66644 -154.91882,-1.48974 9.40274,79.96951 137.7817,-8.12332 z m -154.81367,17.342 -108.34673,-0.8651 c 0,2.74533 -8.85328,75.21646 -8.85328,75.21646 l 118.80079,5.83398 z m 256.60678,7.43628 -102.0809,4.41307 -10.39286,76.24658 112.605,-6.36375 z m -371.93157,14.89422 -136.697483,18.42711 1.1875,44.83105 131.566243,-5.15225 z m 256.81573,36.07257 -128.33511,6.78288 11.01171,52.82341 108.63441,2.30977 z m -261.15872,29.7686 c -0.75358,7.30521 -7.73047,47.40039 -7.73047,47.40039 l 149.19488,17.7083 -6.68559,-69.23737 z m 449.39235,1.9053 -111.80064,-4.75599 c 0,5.12933 -14.98099,101.59927 -14.98099,101.59927 l 135.06494,0.11042 z m -508.02862,-1.70881 5.73987,51.59715 40.62121,2.34408 8.48105,-57.59451 z m 390.57355,0.0352 -72.47682,3.50553 -0.7077,55.80707 68.0428,3.27274 z m -78.08067,35.35093 -103.728,-1.89005 c 0.49954,3.11892 2.70739,54.72127 2.70739,54.72127 l 105.05303,3.72236 z m -306.67497,21.25131 0.96875,80.85254 105.1583,5.01934 6.74325,-84.25298 z m 119.02668,5.82959 c 0,4.11158 -4.27099,59.57403 -4.27099,59.57403 l 83.0686,3.91818 3.58438,-57.35903 z m 255.30777,2.89604 -60.74806,-2.95163 1.19574,29.33042 55.77061,4.74324 z m -122.34425,28.91286 -46.46447,-3.51692 -5.89877,56.11965 48.89551,-4.19629 z m 4.03771,-1.04034 c -0.66605,3.76362 -5.6656,110.61474 -5.6656,110.61474 l 124.60794,-2.37379 2.01043,-100.70114 z m -262.61858,9.9189 -123.642985,1.01469 1.27829,55.48131 127.382975,-13.72242 z m 117.92458,22.80935 c 0,0 -4.22473,94.22219 -1.58828,93.73332 2.63646,-0.48886 90.09793,-9.34851 90.09793,-9.34851 l -2.95345,-79.79746 z m -68.43354,20.23663 -106.62205,11.42921 16.93324,97.83972 76.17404,10.09904 z m 64.97852,0.38903 -60.78919,-0.0202 c 1.30007,4.35067 -2.60533,73.16586 -2.60533,73.16586 l 58.32683,-0.95539 z m 143.07649,3.6268 -49.39048,-1.35463 3.04057,53.04828 41.39681,-3.72319 z m -317.85784,8.20123 -64.366685,6.68898 c 1.52637,3.41352 3.87793,82.12719 3.87793,82.12719 l 74.035825,-0.64846 z m 265.01051,59.36997 -111.31479,8.98145 4.48995,32.9164 110.17148,-10.45751 z m 114.76036,-10.00728 -112.51907,-1.52073 10.57059,91.50789 98.31543,-10.01172 z m -447.082935,-1.57909 -60.176475,3.77432 0.90453,35.4466 61.436805,-2.18774 z m 219.528085,15.22717 -46.12683,2.99029 -5.57247,71.87222 40.39844,5.55469 z m 331.54875,28.00412 -99.62305,3.69726 c 0,7.0341 8.54526,113.70728 8.54526,113.70728 l 86.26822,1.14819 z m -217.4375,6.56445 -118.01797,9.56979 c 0,8.53271 12.37832,85.4849 12.37832,85.4849 l 116.92578,6.3916 z m -289.969279,-5.5413 c 0.546499,3.43487 -0.352997,69.34864 -0.352997,69.34864 l 79.097186,-3.0257 5.57187,-50.21955 z m 122.817809,17.46773 -33.44394,4.96235 c -0.54009,3.00363 -8.78643,69.49305 -8.78643,69.49306 l 31.375,9.53808 z m 281.42504,25.31169 c 0,0 -41.49752,0.2565 -42.25964,0.57243 l -1.16024,47.01592 42.24361,3.06126 z m -46.49755,3.58107 -55.64722,6.85173 c 0.58493,2.56814 10.5128,95.99119 10.5128,95.99119 l 44.07617,-1.51367 z m -182.68041,10.81098 -52.39484,-2.95097 c 0,3.25553 -6.88753,59.22249 -6.88753,59.22249 l 65.76362,2.1781 z m -102.19513,13.35439 -76.46751,3.86886 0.933022,43.49143 84.949008,-11.31724 z m 337.67143,26.94608 -48.44691,-0.47495 -0.12317,52.47282 54.9649,3.31096 z m -172.01669,8.82769 -80.38924,14.31447 2.86549,50.29758 84.71202,-2.72229 z m 6.14327,2.11522 2.59936,41.55223 60.90489,1.13161 -3.22716,-40.41037 z m 271.97631,14.15868 -93.08007,4.09082 4.13671,55.58496 85.75196,-9.41797 z"
       sodipodi:nodetypes="cccccccccccccccccccccccccccccccccccccccccccccccccccccccccccccccccccccccccccccccccccccccccccsccccccccccccccccccccccccccccccccccccccccccccccccccccccccccccccccccccccccccccccccccccccccccccccccccccccc" />
  </g>
  <g
     inkscape:groupmode="layer"
     id="layer2"
     inkscape:label="uses"
     style="display:inline">
    <use
       x="0"
       y="0"
       inkscape:tiled-clone-of="#layer1"
       xlink:href="#layer1"
       id="use13620"
       transform="translate(-512,-512)" />
    <use
       x="0"
       y="0"
       inkscape:tiled-clone-of="#layer1"
       xlink:href="#layer1"
       transform="translate(-512)"
       id="use13622"
       style="display:inline" />
    <use
       x="0"
       y="0"
       inkscape:tiled-clone-of="#layer1"
       xlink:href="#layer1"
       transform="translate(-512,512)"
       id="use13624" />
    <use
       x="0"
       y="0"
       inkscape:tiled-clone-of="#layer1"
       xlink:href="#layer1"
       transform="translate(0,-512)"
       id="use13626" />
    <use
       x="0"
       y="0"
       inkscape:tiled-clone-of="#layer1"
       xlink:href="#layer1"
       transform="translate(0,512)"
       id="use13630" />
    <use
       x="0"
       y="0"
       inkscape:tiled-clone-of="#layer1"
       xlink:href="#layer1"
       transform="translate(512,-512)"
       id="use13632" />
    <use
       x="0"
       y="0"
       inkscape:tiled-clone-of="#layer1"
       xlink:href="#layer1"
       transform="translate(512)"
       id="use13634" />
    <use
       x="0"
       y="0"
       inkscape:tiled-clone-of="#layer1"
       xlink:href="#layer1"
       transform="translate(512,512)"
       id="use13636" />
  </g>
</svg>
