<?xml version="1.0" encoding="UTF-8" standalone="no"?>
<!-- Created with Inkscape (http://www.inkscape.org/) -->

<svg
   sodipodi:docname="texture.svg"
   inkscape:version="1.2.2 (732a01da63, 2022-12-09)"
   id="svg10884"
   version="1.1"
   viewBox="0 0 512 512"
   height="1024"
   width="1024"
   xmlns:inkscape="http://www.inkscape.org/namespaces/inkscape"
   xmlns:sodipodi="http://sodipodi.sourceforge.net/DTD/sodipodi-0.dtd"
   xmlns:xlink="http://www.w3.org/1999/xlink"
   xmlns="http://www.w3.org/2000/svg"
   xmlns:svg="http://www.w3.org/2000/svg">
  <sodipodi:namedview
     id="namedview10886"
     pagecolor="#ffffff"
     bordercolor="#000000"
     borderopacity="0.25"
     inkscape:showpageshadow="2"
     inkscape:pageopacity="0.0"
     inkscape:pagecheckerboard="0"
     inkscape:deskcolor="#d1d1d1"
     inkscape:document-units="mm"
     showgrid="false"
     inkscape:zoom="0.457453"
     inkscape:cx="-121.32394"
     inkscape:cy="511.52796"
     inkscape:window-width="2560"
     inkscape:window-height="1369"
     inkscape:window-x="-8"
     inkscape:window-y="-8"
     inkscape:window-maximized="1"
     inkscape:current-layer="layer1" />
  <defs
     id="defs10881" />
  <rect
     style="fill:#949494;fill-opacity:1;stroke-width:29.2952;stroke-linecap:round;stroke-linejoin:round"
     id="rect15969"
     width="1547.6508"
     height="1552.288"
     x="-508.5509"
     y="-565.74353" />
  <g
     inkscape:label="Layer 1"
     inkscape:groupmode="layer"
     id="layer1"
     inkscape:tile-cx="256"
     inkscape:tile-cy="256"
     inkscape:tile-w="512"
     inkscape:tile-h="512"
     inkscape:tile-x0="0"
     inkscape:tile-y0="0">
    <path
       style="fill:#9f9f9f;fill-opacity:1;stroke-width:29.2951;stroke-linecap:round;stroke-linejoin:round"
       d="M 256.78728,281.1328 302.00039,243.26199 291.5666,196.50313 215.0521,162.11025 177.56773,204.6183 Z"
       id="path21835" />
    <path
       style="fill:#999999;fill-opacity:1;stroke-width:29.2951;stroke-linecap:round;stroke-linejoin:round"
       d="m 158.63232,405.9519 -10.04736,-66.46713 55.26047,-48.69105 58.35197,83.08393 -42.12162,32.84713 z"
       id="path22053" />
    <path
       style="fill:#999999;fill-opacity:1;stroke-width:29.2951;stroke-linecap:round;stroke-linejoin:round"
       d="m 353.39649,339.48477 c -1.93218,-2.70506 -53.71472,-61.8299 -53.71472,-61.8299 l 44.82667,-51.78253 58.7384,18.54896 -15.07103,95.06347 z"
       id="path22055" />
    <path
       style="fill:#9f9f9f;fill-opacity:1;stroke-width:29.2951;stroke-linecap:round;stroke-linejoin:round"
       d="m 277.65487,350.305 11.97954,-28.2099 41.34874,29.75565 -8.11517,24.34552 -34.77932,-5.02368 z"
       id="path22057" />
    <path
       style="fill:#9f9f9f;fill-opacity:1;stroke-width:29.2951;stroke-linecap:round;stroke-linejoin:round"
       d="m 165.97462,258.33303 c 1.54575,0 28.20989,-6.56943 28.20989,-6.56943 l 2.31862,25.50483 h -32.07425 z"
       id="path22059" />
    <path
       style="fill:#999999;fill-opacity:1;stroke-width:29.2951;stroke-linecap:round;stroke-linejoin:round"
       d="m 134.67324,199.59462 20.86759,-22.41333 -37.87081,-37.48438 -27.050582,22.41334 4.250805,28.59633 z"
       id="path22061" />
    <path
       style="fill:#999999;fill-opacity:1;stroke-width:14.6475;stroke-linecap:round;stroke-linejoin:round"
       d="m 148.39175,98.927835 33.23356,-48.691045 37.09794,13.138855 -6.95586,47.918165 -41.73518,30.91495 z"
       id="path25032" />
    <path
       style="fill:#999999;fill-opacity:1;stroke-width:14.6475;stroke-linecap:round;stroke-linejoin:round"
       d="M 352.4304,126.75128 312.24097,81.15174 343.15592,31.687821 384.8911,61.829895 374.84374,115.93105 Z"
       id="path25034" />
    <path
       style="fill:#999999;fill-opacity:1;stroke-width:14.6475;stroke-linecap:round;stroke-linejoin:round"
       d="m 475.31732,225.67912 c -3.86437,-3.86437 -38.64369,-54.87404 -38.64369,-54.87404 l 36.32507,-51.00966 36.32505,2.31862 15.4575,52.55541 -22.41335,34.00644 z"
       id="path25036" />
    <path
       style="fill:#999999;fill-opacity:1;stroke-width:14.6475;stroke-linecap:round;stroke-linejoin:round"
       d="m 321.34449,461.79607 c 1.09301,-3.82553 19.12765,-46.45286 19.12765,-46.45286 l 36.61578,5.46504 14.75561,42.62733 -30.60423,31.15074 z"
       id="path25038" />
    <path
       style="fill:#999999;fill-opacity:1;stroke-width:14.6475;stroke-linecap:round;stroke-linejoin:round"
       d="M 27.325212,451.959 C 28.41822,448.13346 50.27839,400.5876 50.27839,400.5876 l 42.080825,6.01155 18.034645,67.76652 -59.022465,27.87173 z"
       id="path25040" />
    <path
       style="fill:#999999;fill-opacity:1;stroke-width:14.6475;stroke-linecap:round;stroke-linejoin:round"
       d="m 15.848622,262.32203 27.325212,-48.09237 31.150741,8.74406 0.546505,54.10392 -24.046185,26.77871 z"
       id="path25042" />
    <path
       style="fill:#999999;fill-opacity:1;stroke-width:14.6475;stroke-linecap:round;stroke-linejoin:round"
       d="m 451.959,366.70434 33.33675,-28.41823 35.5228,10.38359 1.093,45.90635 -38.25531,5.46504 z"
       id="path25044" />
    <path
       style="fill:#999999;fill-opacity:1;stroke-width:14.6475;stroke-linecap:round;stroke-linejoin:round"
       d="M 71.592055,78.150105 C 73.231565,75.417585 95.63824,46.999363 95.63824,46.999363 L 73.77807,24.046186 31.697245,34.97627 30.057732,72.13856 Z"
       id="path25046" />
    <path
       style="fill:#999999;fill-opacity:1;stroke-width:14.6475;stroke-linecap:round;stroke-linejoin:round"
       d="m 259.58951,163.40476 18.03464,-15.30212 12.5696,16.94163 z"
       id="path25052" />
    <path
       style="fill:#999999;fill-opacity:1;stroke-width:14.6475;stroke-linecap:round;stroke-linejoin:round"
       d="m 202.75307,479.28421 c 0,0 12.02309,-15.30212 14.75562,-13.66261 2.73251,1.63951 28.96472,15.30212 28.96472,15.30212 l -34.42977,18.58114 z"
       id="path25054" />
    <path
       style="fill:#9f9f9f;fill-opacity:1;stroke-width:14.6475;stroke-linecap:round;stroke-linejoin:round"
       d="m 63.39449,342.11164 28.41822,-25.13919 34.42977,18.58114 -2.73252,42.08083 -54.650425,7.10455 z"
       id="path25056" />
    <path
       style="fill:#9f9f9f;fill-opacity:1;stroke-width:14.6475;stroke-linecap:round;stroke-linejoin:round"
       d="m 97.277755,250.29893 c 2.732515,-2.73252 26.232195,-20.76716 26.232195,-20.76716 l 15.84863,20.22066 -13.66261,40.44132 z"
       id="path25265" />
    <path
       style="fill:#9f9f9f;fill-opacity:1;stroke-width:14.6475;stroke-linecap:round;stroke-linejoin:round"
       d="M 32.790253,142.6376 48.638876,111.48687 73.231565,124.05646 62.30148,181.98591 28.964724,176.52087 Z"
       id="path25267" />
    <path
       style="fill:#9f9f9f;fill-opacity:1;stroke-width:14.6475;stroke-linecap:round;stroke-linejoin:round"
       d="m 114.21939,66.673515 -6.55805,-33.883262 41.53432,-12.569597 12.56959,33.336759 -28.96473,32.24375 z"
       id="path25269" />
    <path
       style="fill:#9f9f9f;fill-opacity:1;stroke-width:14.6475;stroke-linecap:round;stroke-linejoin:round"
       d="m 347.03019,189.09046 -6.55805,-29.51123 54.65042,-5.46504 10.38358,44.81335 -36.61579,16.39512 z"
       id="path25271" />
    <path
       style="fill:#9f9f9f;fill-opacity:1;stroke-width:14.6475;stroke-linecap:round;stroke-linejoin:round"
       d="m 244.28739,115.8589 24.04618,-26.77871 36.06928,26.77871 -22.40667,20.22065 z"
       id="path25273" />
    <path
       style="fill:#9f9f9f;fill-opacity:1;stroke-width:14.6475;stroke-linecap:round;stroke-linejoin:round"
       d="M 229.53177,41.534321 279.26366,14.20911 310.4144,34.97627 269.97309,67.766525 Z"
       id="path25275" />
    <path
       style="fill:#9f9f9f;fill-opacity:1;stroke-width:14.6475;stroke-linecap:round;stroke-linejoin:round"
       d="m 419.71524,71.592055 c 0,0 33.33676,-42.080826 33.88327,-39.89481 0.5465,2.186017 28.41822,30.057735 28.41822,30.057735 l -43.72034,53.01091 z"
       id="path25277" />
    <path
       style="fill:#9f9f9f;fill-opacity:1;stroke-width:14.6475;stroke-linecap:round;stroke-linejoin:round"
       d="m 239.91535,447.58697 c 0,-2.73253 -1.63951,-42.62733 -1.63951,-42.62733 l 50.27839,-13.11611 15.30212,44.26685 -25.13919,26.7787 z"
       id="path25279" />
    <path
       style="fill:#9f9f9f;fill-opacity:1;stroke-width:14.6475;stroke-linecap:round;stroke-linejoin:round"
       d="m 137.17256,459.61005 28.41822,-44.26684 23.49968,40.98782 -5.46504,38.8018 h -48.09237 z"
       id="path25283" />
    <path
       style="fill:#9f9f9f;fill-opacity:1;stroke-width:14.6475;stroke-linecap:round;stroke-linejoin:round"
       d="m 426.8198,456.33103 27.32521,-30.05773 32.79026,4.37203 6.55805,53.55741 -60.66197,9.83708 z"
       id="path25285" />
    <path
       style="fill:#9f9f9f;fill-opacity:1;stroke-width:14.6475;stroke-linecap:round;stroke-linejoin:round"
       d="m 375.4484,386.37849 0.54651,-20.76716 39.3483,-9.83708 16.39513,34.97627 z"
       id="path25287" />
    <path
       style="fill:#9f9f9f;fill-opacity:1;stroke-width:14.6475;stroke-linecap:round;stroke-linejoin:round"
       d="m 433.37785,275.43813 40.44131,-19.67415 19.67416,30.60424 -33.88327,38.8018 -31.69724,-18.58115 z"
       id="path25289" />
  </g>
  <use
     x="0"
     y="0"
     inkscape:tiled-clone-of="#layer1"
     xlink:href="#layer1"
     id="use13620"
     transform="translate(-512,-512)" />
  <use
     x="0"
     y="0"
     inkscape:tiled-clone-of="#layer1"
     xlink:href="#layer1"
     transform="translate(-512)"
     id="use13622" />
  <use
     x="0"
     y="0"
     inkscape:tiled-clone-of="#layer1"
     xlink:href="#layer1"
     transform="translate(-512,512)"
     id="use13624" />
  <use
     x="0"
     y="0"
     inkscape:tiled-clone-of="#layer1"
     xlink:href="#layer1"
     transform="translate(0,-512)"
     id="use13626" />
  <use
     x="0"
     y="0"
     inkscape:tiled-clone-of="#layer1"
     xlink:href="#layer1"
     transform="translate(0,512)"
     id="use13630" />
  <use
     x="0"
     y="0"
     inkscape:tiled-clone-of="#layer1"
     xlink:href="#layer1"
     transform="translate(512,-512)"
     id="use13632" />
  <use
     x="0"
     y="0"
     inkscape:tiled-clone-of="#layer1"
     xlink:href="#layer1"
     transform="translate(512)"
     id="use13634" />
  <use
     x="0"
     y="0"
     inkscape:tiled-clone-of="#layer1"
     xlink:href="#layer1"
     transform="translate(512,512)"
     id="use13636" />
</svg>
